<?xml version="1.0" encoding="UTF-8" standalone="no"?>
<!DOCTYPE svg PUBLIC "-//W3C//DTD SVG 1.1//EN"
 "http://www.w3.org/Graphics/SVG/1.1/DTD/svg11.dtd">
<!-- Generated by graphviz version 2.43.0 (0)
 -->
<!-- Title: dependencies Pages: 1 -->
<svg width="1240pt" height="1833pt"
 viewBox="0.00 0.00 1240.00 1833.00" xmlns="http://www.w3.org/2000/svg" xmlns:xlink="http://www.w3.org/1999/xlink">
<g id="graph0" class="graph" transform="scale(1 1) rotate(0) translate(4 1829)">
<title>dependencies</title>
<polygon fill="white" stroke="transparent" points="-4,4 -4,-1829 1236,-1829 1236,4 -4,4"/>
<!-- app.__init__ -->
<g id="node1" class="node">
<title>app.__init__</title>
<path fill="#f8fafc" stroke="#94a3b8" d="M84,-628C84,-628 12,-628 12,-628 6,-628 0,-622 0,-616 0,-616 0,-604 0,-604 0,-598 6,-592 12,-592 12,-592 84,-592 84,-592 90,-592 96,-598 96,-604 96,-604 96,-616 96,-616 96,-622 90,-628 84,-628"/>
<text text-anchor="middle" x="48" y="-606.3" font-family="Inter" font-size="14.00">app.__init__</text>
</g>
<!-- app.analysis -->
<g id="node2" class="node">
<title>app.analysis</title>
<path fill="#f8fafc" stroke="#94a3b8" d="M234,-1723C234,-1723 154,-1723 154,-1723 148,-1723 142,-1717 142,-1711 142,-1711 142,-1699 142,-1699 142,-1693 148,-1687 154,-1687 154,-1687 234,-1687 234,-1687 240,-1687 246,-1693 246,-1699 246,-1699 246,-1711 246,-1711 246,-1717 240,-1723 234,-1723"/>
<text text-anchor="middle" x="194" y="-1701.3" font-family="Inter" font-size="14.00">app.analysis</text>
</g>
<!-- app.data -->
<g id="node5" class="node">
<title>app.data</title>
<path fill="#f8fafc" stroke="#94a3b8" d="M1060,-883C1060,-883 1006,-883 1006,-883 1000,-883 994,-877 994,-871 994,-871 994,-859 994,-859 994,-853 1000,-847 1006,-847 1006,-847 1060,-847 1060,-847 1066,-847 1072,-853 1072,-859 1072,-859 1072,-871 1072,-871 1072,-877 1066,-883 1060,-883"/>
<text text-anchor="middle" x="1033" y="-861.3" font-family="Inter" font-size="14.00">app.data</text>
</g>
<!-- app.analysis&#45;&gt;app.data -->
<g id="edge1" class="edge">
<title>app.analysis&#45;&gt;app.data</title>
<path fill="none" stroke="#0f766e" d="M246.33,-1697.3C337.06,-1683.01 521.35,-1650.63 576,-1616 603.79,-1598.39 595.73,-1577.81 622,-1558 681.85,-1512.85 718.23,-1535.96 775,-1487 868.12,-1406.68 901.33,-1387.13 954,-1276 972.97,-1235.98 963.83,-1221.52 972,-1178 992.08,-1071.01 1016.73,-943.6 1027.07,-890.35"/>
<polygon fill="#0f766e" stroke="#0f766e" points="1029.5,-890.67 1028.43,-883.34 1024.69,-889.74 1029.5,-890.67"/>
<text text-anchor="middle" x="599" y="-1601.8" font-family="Times,serif" font-size="14.00">3</text>
</g>
<!-- app.logger -->
<g id="node8" class="node">
<title>app.logger</title>
<path fill="#f8fafc" stroke="#94a3b8" d="M1220,-1615C1220,-1615 1152,-1615 1152,-1615 1146,-1615 1140,-1609 1140,-1603 1140,-1603 1140,-1591 1140,-1591 1140,-1585 1146,-1579 1152,-1579 1152,-1579 1220,-1579 1220,-1579 1226,-1579 1232,-1585 1232,-1591 1232,-1591 1232,-1603 1232,-1603 1232,-1609 1226,-1615 1220,-1615"/>
<text text-anchor="middle" x="1186" y="-1593.3" font-family="Inter" font-size="14.00">app.logger</text>
</g>
<!-- app.analysis&#45;&gt;app.logger -->
<g id="edge2" class="edge">
<title>app.analysis&#45;&gt;app.logger</title>
<path fill="none" stroke="#0f766e" d="M221.22,-1723.1C250.33,-1741.4 299.38,-1767 346,-1767 346,-1767 346,-1767 1034,-1767 1110.76,-1767 1158.02,-1668.93 1176.32,-1621.76"/>
<polygon fill="#0f766e" stroke="#0f766e" points="1178.62,-1622.61 1178.81,-1615.19 1174.04,-1620.87 1178.62,-1622.61"/>
<text text-anchor="middle" x="680" y="-1770.8" font-family="Times,serif" font-size="14.00">1</text>
</g>
<!-- app.utils -->
<g id="node18" class="node">
<title>app.utils</title>
<path fill="#f8fafc" stroke="#94a3b8" d="M1212.5,-1215C1212.5,-1215 1159.5,-1215 1159.5,-1215 1153.5,-1215 1147.5,-1209 1147.5,-1203 1147.5,-1203 1147.5,-1191 1147.5,-1191 1147.5,-1185 1153.5,-1179 1159.5,-1179 1159.5,-1179 1212.5,-1179 1212.5,-1179 1218.5,-1179 1224.5,-1185 1224.5,-1191 1224.5,-1191 1224.5,-1203 1224.5,-1203 1224.5,-1209 1218.5,-1215 1212.5,-1215"/>
<text text-anchor="middle" x="1186" y="-1193.3" font-family="Inter" font-size="14.00">app.utils</text>
</g>
<!-- app.analysis&#45;&gt;app.utils -->
<g id="edge3" class="edge">
<title>app.analysis&#45;&gt;app.utils</title>
<path fill="none" stroke="#0f766e" d="M246.3,-1710.6C275.49,-1713.31 312.75,-1716 346,-1716 346,-1716 346,-1716 600,-1716 828.57,-1716 931.21,-1733.44 1094,-1573 1109.46,-1557.77 1113.59,-1553 1122,-1533 1168.01,-1423.57 1180.58,-1280.02 1183.88,-1222.48"/>
<polygon fill="#0f766e" stroke="#0f766e" points="1186.34,-1222.38 1184.27,-1215.26 1181.45,-1222.11 1186.34,-1222.38"/>
<text text-anchor="middle" x="680" y="-1719.8" font-family="Times,serif" font-size="14.00">1</text>
</g>
<!-- app.backtesting -->
<g id="node3" class="node">
<title>app.backtesting</title>
<path fill="#f8fafc" stroke="#94a3b8" d="M564,-450C564,-450 460,-450 460,-450 454,-450 448,-444 448,-438 448,-438 448,-426 448,-426 448,-420 454,-414 460,-414 460,-414 564,-414 564,-414 570,-414 576,-420 576,-426 576,-426 576,-438 576,-438 576,-444 570,-450 564,-450"/>
<text text-anchor="middle" x="512" y="-428.3" font-family="Inter" font-size="14.00">app.backtesting</text>
</g>
<!-- app.config -->
<g id="node4" class="node">
<title>app.config</title>
<path fill="#f8fafc" stroke="#94a3b8" d="M1066,-381C1066,-381 1000,-381 1000,-381 994,-381 988,-375 988,-369 988,-369 988,-357 988,-357 988,-351 994,-345 1000,-345 1000,-345 1066,-345 1066,-345 1072,-345 1078,-351 1078,-357 1078,-357 1078,-369 1078,-369 1078,-375 1072,-381 1066,-381"/>
<text text-anchor="middle" x="1033" y="-359.3" font-family="Inter" font-size="14.00">app.config</text>
</g>
<!-- app.backtesting&#45;&gt;app.config -->
<g id="edge4" class="edge">
<title>app.backtesting&#45;&gt;app.config</title>
<path fill="none" stroke="#0f766e" d="M528.26,-413.9C543.34,-397.11 567.89,-372.58 594,-358 605.3,-351.69 609.18,-351.8 622,-350 749.94,-332.08 902.42,-346.08 980.43,-355.77"/>
<polygon fill="#0f766e" stroke="#0f766e" points="980.5,-358.24 987.75,-356.69 981.11,-353.38 980.5,-358.24"/>
<text text-anchor="middle" x="765.5" y="-345.8" font-family="Times,serif" font-size="14.00">1</text>
</g>
<!-- app.backtesting&#45;&gt;app.data -->
<g id="edge5" class="edge">
<title>app.backtesting&#45;&gt;app.data</title>
<path fill="none" stroke="#0f766e" d="M576.09,-449.67C591.06,-453.45 607.03,-457.16 622,-460 689.32,-472.77 711.23,-453.93 775,-479 784.18,-482.61 784.21,-487.51 793,-492 848.44,-520.34 882.15,-491.8 926,-536 1011.73,-622.4 1028.15,-778.41 1031.28,-839.5"/>
<polygon fill="#0f766e" stroke="#0f766e" points="1028.84,-839.92 1031.61,-846.8 1033.74,-839.7 1028.84,-839.92"/>
<text text-anchor="middle" x="765.5" y="-482.8" font-family="Times,serif" font-size="14.00">5</text>
</g>
<!-- app.exchanges -->
<g id="node6" class="node">
<title>app.exchanges</title>
<path fill="#f8fafc" stroke="#94a3b8" d="M1082,-1404C1082,-1404 984,-1404 984,-1404 978,-1404 972,-1398 972,-1392 972,-1392 972,-1380 972,-1380 972,-1374 978,-1368 984,-1368 984,-1368 1082,-1368 1082,-1368 1088,-1368 1094,-1374 1094,-1380 1094,-1380 1094,-1392 1094,-1392 1094,-1398 1088,-1404 1082,-1404"/>
<text text-anchor="middle" x="1033" y="-1382.3" font-family="Inter" font-size="14.00">app.exchanges</text>
</g>
<!-- app.backtesting&#45;&gt;app.exchanges -->
<g id="edge6" class="edge">
<title>app.backtesting&#45;&gt;app.exchanges</title>
<path fill="none" stroke="#0f766e" d="M571.93,-450.27C573.41,-451.73 574.77,-453.3 576,-455 594.73,-480.9 590.12,-998.28 594,-1030 601.18,-1088.67 586.72,-1112.58 622,-1160 669.54,-1223.91 884.61,-1322.43 982.82,-1365.11"/>
<polygon fill="#0f766e" stroke="#0f766e" points="982,-1367.42 989.4,-1367.96 983.95,-1362.93 982,-1367.42"/>
<text text-anchor="middle" x="765.5" y="-1267.8" font-family="Times,serif" font-size="14.00">1</text>
</g>
<!-- app.jobs -->
<g id="node7" class="node">
<title>app.jobs</title>
<path fill="#f8fafc" stroke="#94a3b8" d="M706,-395C706,-395 654,-395 654,-395 648,-395 642,-389 642,-383 642,-383 642,-371 642,-371 642,-365 648,-359 654,-359 654,-359 706,-359 706,-359 712,-359 718,-365 718,-371 718,-371 718,-383 718,-383 718,-389 712,-395 706,-395"/>
<text text-anchor="middle" x="680" y="-373.3" font-family="Inter" font-size="14.00">app.jobs</text>
</g>
<!-- app.backtesting&#45;&gt;app.jobs -->
<g id="edge7" class="edge">
<title>app.backtesting&#45;&gt;app.jobs</title>
<path fill="none" stroke="#0f766e" d="M528.16,-413.73C542.99,-397.41 567.21,-374.64 594,-365 606.9,-360.36 621.5,-360.6 634.91,-362.82"/>
<polygon fill="#0f766e" stroke="#0f766e" points="634.47,-365.22 641.8,-364.14 635.39,-360.41 634.47,-365.22"/>
<text text-anchor="middle" x="599" y="-368.8" font-family="Times,serif" font-size="14.00">1</text>
</g>
<!-- app.market -->
<g id="node10" class="node">
<title>app.market</title>
<path fill="#f8fafc" stroke="#94a3b8" d="M895.5,-1197C895.5,-1197 823.5,-1197 823.5,-1197 817.5,-1197 811.5,-1191 811.5,-1185 811.5,-1185 811.5,-1173 811.5,-1173 811.5,-1167 817.5,-1161 823.5,-1161 823.5,-1161 895.5,-1161 895.5,-1161 901.5,-1161 907.5,-1167 907.5,-1173 907.5,-1173 907.5,-1185 907.5,-1185 907.5,-1191 901.5,-1197 895.5,-1197"/>
<text text-anchor="middle" x="859.5" y="-1175.3" font-family="Inter" font-size="14.00">app.market</text>
</g>
<!-- app.backtesting&#45;&gt;app.market -->
<g id="edge8" class="edge">
<title>app.backtesting&#45;&gt;app.market</title>
<path fill="none" stroke="#0f766e" d="M571.62,-450.07C573.21,-451.58 574.68,-453.22 576,-455 618.07,-511.65 560.81,-709.74 594,-772 641.46,-861.03 726.7,-820.42 775,-909 800.39,-955.57 763.23,-1103.1 793,-1147 796.32,-1151.89 800.61,-1156.07 805.4,-1159.62"/>
<polygon fill="#0f766e" stroke="#0f766e" points="804.05,-1161.66 811.23,-1163.51 806.77,-1157.59 804.05,-1161.66"/>
<text text-anchor="middle" x="680" y="-867.8" font-family="Times,serif" font-size="14.00">1</text>
</g>
<!-- app.strategies -->
<g id="node16" class="node">
<title>app.strategies</title>
<path fill="#f8fafc" stroke="#94a3b8" d="M726,-678C726,-678 634,-678 634,-678 628,-678 622,-672 622,-666 622,-666 622,-654 622,-654 622,-648 628,-642 634,-642 634,-642 726,-642 726,-642 732,-642 738,-648 738,-654 738,-654 738,-666 738,-666 738,-672 732,-678 726,-678"/>
<text text-anchor="middle" x="680" y="-656.3" font-family="Inter" font-size="14.00">app.strategies</text>
</g>
<!-- app.backtesting&#45;&gt;app.strategies -->
<g id="edge9" class="edge">
<title>app.backtesting&#45;&gt;app.strategies</title>
<path fill="none" stroke="#0f766e" d="M530.49,-450C543.83,-464.26 562.21,-485.02 576,-505 600.4,-540.35 598.11,-554.3 622,-590 632.83,-606.18 646.57,-623.15 657.85,-636.32"/>
<polygon fill="#0f766e" stroke="#0f766e" points="656.09,-638.03 662.52,-641.72 659.8,-634.82 656.09,-638.03"/>
<text text-anchor="middle" x="599" y="-560.8" font-family="Times,serif" font-size="14.00">1</text>
</g>
<!-- app.backtesting&#45;&gt;app.utils -->
<g id="edge10" class="edge">
<title>app.backtesting&#45;&gt;app.utils</title>
<path fill="none" stroke="#0f766e" d="M517.11,-413.89C525.47,-381.55 547.73,-314.22 594,-282 692.95,-213.09 1088.08,-273.38 1094,-278 1166.56,-334.63 1182.17,-1029.16 1184.61,-1171.58"/>
<polygon fill="#0f766e" stroke="#0f766e" points="1182.16,-1171.73 1184.73,-1178.69 1187.06,-1171.65 1182.16,-1171.73"/>
<text text-anchor="middle" x="859.5" y="-259.8" font-family="Times,serif" font-size="14.00">2</text>
</g>
<!-- app.data&#45;&gt;app.utils -->
<g id="edge11" class="edge">
<title>app.data&#45;&gt;app.utils</title>
<path fill="none" stroke="#0f766e" d="M1042.33,-883.32C1067.81,-939.33 1144.66,-1108.3 1173.71,-1172.18"/>
<polygon fill="#0f766e" stroke="#0f766e" points="1171.56,-1173.38 1176.69,-1178.73 1176.02,-1171.35 1171.56,-1173.38"/>
<text text-anchor="middle" x="1117" y="-1053.8" font-family="Times,serif" font-size="14.00">2</text>
</g>
<!-- app.exchanges&#45;&gt;app.logger -->
<g id="edge12" class="edge">
<title>app.exchanges&#45;&gt;app.logger</title>
<path fill="none" stroke="#0f766e" d="M1074.6,-1404.02C1081.48,-1408.06 1088.26,-1412.74 1094,-1418 1140.87,-1460.95 1167.14,-1533.53 1178.37,-1571.74"/>
<polygon fill="#0f766e" stroke="#0f766e" points="1176.14,-1572.85 1180.42,-1578.9 1180.85,-1571.5 1176.14,-1572.85"/>
<text text-anchor="middle" x="1117" y="-1449.8" font-family="Times,serif" font-size="14.00">1</text>
</g>
<!-- app.exchanges&#45;&gt;app.utils -->
<g id="edge13" class="edge">
<title>app.exchanges&#45;&gt;app.utils</title>
<path fill="none" stroke="#0f766e" d="M1094.27,-1371.81C1104.42,-1367.38 1114.17,-1361.57 1122,-1354 1159.28,-1317.92 1175.11,-1256.88 1181.34,-1222.51"/>
<polygon fill="#0f766e" stroke="#0f766e" points="1183.83,-1222.5 1182.59,-1215.19 1179,-1221.67 1183.83,-1222.5"/>
<text text-anchor="middle" x="1117" y="-1364.8" font-family="Times,serif" font-size="14.00">2</text>
</g>
<!-- app.jobs&#45;&gt;app.backtesting -->
<g id="edge14" class="edge">
<title>app.jobs&#45;&gt;app.backtesting</title>
<path fill="none" stroke="#0f766e" d="M641.64,-388.01C626.77,-392.51 609.53,-397.85 594,-403 585.91,-405.68 577.41,-408.61 569.08,-411.54"/>
<polygon fill="#0f766e" stroke="#0f766e" points="567.92,-409.35 562.13,-413.99 569.55,-413.97 567.92,-409.35"/>
<text text-anchor="middle" x="599" y="-406.8" font-family="Times,serif" font-size="14.00">2</text>
</g>
<!-- app.jobs&#45;&gt;app.config -->
<g id="edge15" class="edge">
<title>app.jobs&#45;&gt;app.config</title>
<path fill="none" stroke="#0f766e" d="M718.23,-375.52C781.26,-373 909.08,-367.9 980.6,-365.05"/>
<polygon fill="#0f766e" stroke="#0f766e" points="980.87,-367.49 987.76,-364.76 980.67,-362.6 980.87,-367.49"/>
<text text-anchor="middle" x="859.5" y="-375.8" font-family="Times,serif" font-size="14.00">1</text>
</g>
<!-- app.jobs&#45;&gt;app.data -->
<g id="edge16" class="edge">
<title>app.jobs&#45;&gt;app.data</title>
<path fill="none" stroke="#0f766e" d="M718.1,-382.25C782.35,-391.59 909.15,-411.23 926,-423 995.94,-471.84 1023.35,-753.43 1030.18,-839.81"/>
<polygon fill="#0f766e" stroke="#0f766e" points="1027.74,-840.07 1030.73,-846.86 1032.63,-839.69 1027.74,-840.07"/>
<text text-anchor="middle" x="859.5" y="-426.8" font-family="Times,serif" font-size="14.00">5</text>
</g>
<!-- app.ml -->
<g id="node11" class="node">
<title>app.ml</title>
<path fill="#f8fafc" stroke="#94a3b8" d="M880,-779C880,-779 839,-779 839,-779 833,-779 827,-773 827,-767 827,-767 827,-755 827,-755 827,-749 833,-743 839,-743 839,-743 880,-743 880,-743 886,-743 892,-749 892,-755 892,-755 892,-767 892,-767 892,-773 886,-779 880,-779"/>
<text text-anchor="middle" x="859.5" y="-757.3" font-family="Inter" font-size="14.00">app.ml</text>
</g>
<!-- app.jobs&#45;&gt;app.ml -->
<g id="edge17" class="edge">
<title>app.jobs&#45;&gt;app.ml</title>
<path fill="none" stroke="#0f766e" d="M718.09,-391.7C725.65,-396.23 732.86,-401.94 738,-409 761.76,-441.62 745.9,-458.93 756,-498 769.65,-550.8 773.58,-564.04 793,-615 809.57,-658.5 832.51,-707.61 846.38,-736.34"/>
<polygon fill="#0f766e" stroke="#0f766e" points="844.28,-737.62 849.54,-742.85 848.69,-735.48 844.28,-737.62"/>
<text text-anchor="middle" x="765.5" y="-568.8" font-family="Times,serif" font-size="14.00">1</text>
</g>
<!-- app.optimization -->
<g id="node12" class="node">
<title>app.optimization</title>
<path fill="#f8fafc" stroke="#94a3b8" d="M914,-483C914,-483 805,-483 805,-483 799,-483 793,-477 793,-471 793,-471 793,-459 793,-459 793,-453 799,-447 805,-447 805,-447 914,-447 914,-447 920,-447 926,-453 926,-459 926,-459 926,-471 926,-471 926,-477 920,-483 914,-483"/>
<text text-anchor="middle" x="859.5" y="-461.3" font-family="Inter" font-size="14.00">app.optimization</text>
</g>
<!-- app.jobs&#45;&gt;app.optimization -->
<g id="edge18" class="edge">
<title>app.jobs&#45;&gt;app.optimization</title>
<path fill="none" stroke="#0f766e" d="M718.45,-392.12C736.02,-399.71 757.01,-409.53 775,-420 783.53,-424.97 784.54,-427.93 793,-433 799.11,-436.66 805.69,-440.26 812.25,-443.64"/>
<polygon fill="#0f766e" stroke="#0f766e" points="811.43,-445.97 818.78,-446.95 813.64,-441.6 811.43,-445.97"/>
<text text-anchor="middle" x="765.5" y="-423.8" font-family="Times,serif" font-size="14.00">1</text>
</g>
<!-- app.jobs&#45;&gt;app.utils -->
<g id="edge19" class="edge">
<title>app.jobs&#45;&gt;app.utils</title>
<path fill="none" stroke="#0f766e" d="M708.63,-358.83C722.29,-350.86 739.39,-342.34 756,-338 901.34,-300 983.78,-233.93 1094,-336 1157.05,-394.39 1180.07,-1035.48 1184.27,-1171.66"/>
<polygon fill="#0f766e" stroke="#0f766e" points="1181.82,-1171.92 1184.48,-1178.84 1186.72,-1171.77 1181.82,-1171.92"/>
<text text-anchor="middle" x="949" y="-287.8" font-family="Times,serif" font-size="14.00">1</text>
</g>
<!-- app.main -->
<g id="node9" class="node">
<title>app.main</title>
<path fill="#f8fafc" stroke="#94a3b8" d="M77,-1531C77,-1531 19,-1531 19,-1531 13,-1531 7,-1525 7,-1519 7,-1519 7,-1507 7,-1507 7,-1501 13,-1495 19,-1495 19,-1495 77,-1495 77,-1495 83,-1495 89,-1501 89,-1507 89,-1507 89,-1519 89,-1519 89,-1525 83,-1531 77,-1531"/>
<text text-anchor="middle" x="48" y="-1509.3" font-family="Inter" font-size="14.00">app.main</text>
</g>
<!-- app.main&#45;&gt;app.analysis -->
<g id="edge20" class="edge">
<title>app.main&#45;&gt;app.analysis</title>
<path fill="none" stroke="#0f766e" d="M54.1,-1531.43C62.69,-1559.86 82.27,-1614.99 114,-1652 124.44,-1664.18 138.33,-1674.75 151.55,-1683.17"/>
<polygon fill="#0f766e" stroke="#0f766e" points="150.32,-1685.29 157.56,-1686.89 152.89,-1681.12 150.32,-1685.29"/>
<text text-anchor="middle" x="119" y="-1664.8" font-family="Times,serif" font-size="14.00">1</text>
</g>
<!-- app.main&#45;&gt;app.config -->
<g id="edge21" class="edge">
<title>app.main&#45;&gt;app.config</title>
<path fill="none" stroke="#0f766e" d="M51.02,-1494.81C58.89,-1424.11 88.31,-1160.73 114,-944 126.02,-842.61 98.32,-808.28 142,-716 170.64,-655.48 211.37,-664.3 246,-607 266.14,-573.68 264.09,-561.65 274,-524 284.82,-482.86 268.03,-465.14 292,-430 332.86,-370.11 389.81,-403.35 430,-343 456.73,-302.86 411.18,-267.14 448,-236 525.09,-170.79 737.34,-254.81 926,-317 946.87,-323.88 969.29,-333.3 988.11,-341.82"/>
<polygon fill="#0f766e" stroke="#0f766e" points="987.49,-344.22 994.87,-344.91 989.53,-339.77 987.49,-344.22"/>
<text text-anchor="middle" x="512" y="-239.8" font-family="Times,serif" font-size="14.00">1</text>
</g>
<!-- app.main&#45;&gt;app.data -->
<g id="edge22" class="edge">
<title>app.main&#45;&gt;app.data</title>
<path fill="none" stroke="#0f766e" d="M50.16,-1494.81C56.13,-1405.07 85.3,-1009.47 142,-902 176.77,-836.1 194.74,-814.5 264,-787 299.8,-772.79 131.34,-632.69 402,-799 434.67,-819.08 416.53,-850.09 448,-872 495.71,-905.22 530.72,-862.54 576,-899 591.18,-911.23 578.67,-926.96 594,-939 651.6,-984.21 683.08,-962.31 756,-969 764.41,-969.77 766.97,-971.6 775,-969 784.39,-965.96 784.25,-960.56 793,-956 860.2,-921.01 883.6,-927.98 954,-900 964.85,-895.69 976.4,-890.72 987.19,-885.91"/>
<polygon fill="#0f766e" stroke="#0f766e" points="988.42,-888.04 993.8,-882.94 986.41,-883.57 988.42,-888.04"/>
<text text-anchor="middle" x="512" y="-902.8" font-family="Times,serif" font-size="14.00">2</text>
</g>
<!-- app.main&#45;&gt;app.exchanges -->
<g id="edge23" class="edge">
<title>app.main&#45;&gt;app.exchanges</title>
<path fill="none" stroke="#0f766e" d="M66.18,-1531.23C91.43,-1555.93 141.19,-1597 193,-1597 193,-1597 193,-1597 426,-1597 495.33,-1597 671.38,-1618.23 738,-1599 847,-1567.54 883.97,-1552.25 954,-1463 969.62,-1443.1 954.51,-1427.28 972,-1409 972.11,-1408.89 972.21,-1408.78 972.32,-1408.67"/>
<polygon fill="#0f766e" stroke="#0f766e" points="973.89,-1410.55 977.51,-1404.07 970.64,-1406.88 973.89,-1410.55"/>
<text text-anchor="middle" x="512" y="-1607.8" font-family="Times,serif" font-size="14.00">2</text>
</g>
<!-- app.main&#45;&gt;app.logger -->
<g id="edge24" class="edge">
<title>app.main&#45;&gt;app.logger</title>
<path fill="none" stroke="#0f766e" d="M49.33,-1531.13C51.57,-1595.61 68.36,-1810 193,-1810 193,-1810 193,-1810 1034,-1810 1125.1,-1810 1166.23,-1678.72 1179.7,-1622.29"/>
<polygon fill="#0f766e" stroke="#0f766e" points="1182.16,-1622.53 1181.35,-1615.16 1177.38,-1621.43 1182.16,-1622.53"/>
<text text-anchor="middle" x="599" y="-1813.8" font-family="Times,serif" font-size="14.00">1</text>
</g>
<!-- app.main&#45;&gt;app.market -->
<g id="edge25" class="edge">
<title>app.main&#45;&gt;app.market</title>
<path fill="none" stroke="#0f766e" d="M89.22,-1529.56C117.7,-1539.8 157.06,-1551 193,-1551 193,-1551 193,-1551 426,-1551 493.51,-1551 518.64,-1562.61 576,-1527 590.66,-1517.9 744.61,-1286.96 756,-1274 779.37,-1247.4 809.41,-1220.25 830.92,-1201.82"/>
<polygon fill="#0f766e" stroke="#0f766e" points="832.73,-1203.5 836.47,-1197.1 829.55,-1199.77 832.73,-1203.5"/>
<text text-anchor="middle" x="425" y="-1554.8" font-family="Times,serif" font-size="14.00">3</text>
</g>
<!-- app.paper -->
<g id="node13" class="node">
<title>app.paper</title>
<path fill="#f8fafc" stroke="#94a3b8" d="M712,-1151C712,-1151 648,-1151 648,-1151 642,-1151 636,-1145 636,-1139 636,-1139 636,-1127 636,-1127 636,-1121 642,-1115 648,-1115 648,-1115 712,-1115 712,-1115 718,-1115 724,-1121 724,-1127 724,-1127 724,-1139 724,-1139 724,-1145 718,-1151 712,-1151"/>
<text text-anchor="middle" x="680" y="-1129.3" font-family="Inter" font-size="14.00">app.paper</text>
</g>
<!-- app.main&#45;&gt;app.paper -->
<g id="edge26" class="edge">
<title>app.main&#45;&gt;app.paper</title>
<path fill="none" stroke="#0f766e" d="M88.48,-1494.85C178.67,-1452.61 405.18,-1341.96 576,-1220 604.15,-1199.9 634.13,-1174.01 654.44,-1155.72"/>
<polygon fill="#0f766e" stroke="#0f766e" points="656.1,-1157.52 659.65,-1151 652.81,-1153.89 656.1,-1157.52"/>
<text text-anchor="middle" x="347" y="-1395.8" font-family="Times,serif" font-size="14.00">1</text>
</g>
<!-- app.signals -->
<g id="node15" class="node">
<title>app.signals</title>
<path fill="#f8fafc" stroke="#94a3b8" d="M230,-1209C230,-1209 158,-1209 158,-1209 152,-1209 146,-1203 146,-1197 146,-1197 146,-1185 146,-1185 146,-1179 152,-1173 158,-1173 158,-1173 230,-1173 230,-1173 236,-1173 242,-1179 242,-1185 242,-1185 242,-1197 242,-1197 242,-1203 236,-1209 230,-1209"/>
<text text-anchor="middle" x="194" y="-1187.3" font-family="Inter" font-size="14.00">app.signals</text>
</g>
<!-- app.main&#45;&gt;app.signals -->
<g id="edge27" class="edge">
<title>app.main&#45;&gt;app.signals</title>
<path fill="none" stroke="#0f766e" d="M57.15,-1494.77C81.56,-1440.19 154.05,-1278.09 181.92,-1215.78"/>
<polygon fill="#0f766e" stroke="#0f766e" points="184.31,-1216.43 184.93,-1209.03 179.84,-1214.42 184.31,-1216.43"/>
<text text-anchor="middle" x="119" y="-1364.8" font-family="Times,serif" font-size="14.00">2</text>
</g>
<!-- app.telegram -->
<g id="node17" class="node">
<title>app.telegram</title>
<path fill="#f8fafc" stroke="#94a3b8" d="M390,-1138C390,-1138 304,-1138 304,-1138 298,-1138 292,-1132 292,-1126 292,-1126 292,-1114 292,-1114 292,-1108 298,-1102 304,-1102 304,-1102 390,-1102 390,-1102 396,-1102 402,-1108 402,-1114 402,-1114 402,-1126 402,-1126 402,-1132 396,-1138 390,-1138"/>
<text text-anchor="middle" x="347" y="-1116.3" font-family="Inter" font-size="14.00">app.telegram</text>
</g>
<!-- app.main&#45;&gt;app.telegram -->
<g id="edge28" class="edge">
<title>app.main&#45;&gt;app.telegram</title>
<path fill="none" stroke="#0f766e" d="M50.99,-1494.92C58.71,-1428.11 88.94,-1196.57 142,-1149 180.3,-1114.66 239.95,-1109.75 284.87,-1112.04"/>
<polygon fill="#0f766e" stroke="#0f766e" points="284.81,-1114.49 291.95,-1112.47 285.11,-1109.6 284.81,-1114.49"/>
<text text-anchor="middle" x="194" y="-1152.8" font-family="Times,serif" font-size="14.00">1</text>
</g>
<!-- app.main&#45;&gt;app.utils -->
<g id="edge29" class="edge">
<title>app.main&#45;&gt;app.utils</title>
<path fill="none" stroke="#0f766e" d="M59.69,-1531.1C74.63,-1554.22 104.21,-1592.68 142,-1605 393.9,-1687.1 476.15,-1657.33 738,-1617 819.1,-1604.51 1028.96,-1569.03 1094,-1519 1141.98,-1482.09 1172.15,-1291.88 1181.71,-1222.42"/>
<polygon fill="#0f766e" stroke="#0f766e" points="1184.16,-1222.59 1182.67,-1215.33 1179.3,-1221.93 1184.16,-1222.59"/>
<text text-anchor="middle" x="599" y="-1642.8" font-family="Times,serif" font-size="14.00">3</text>
</g>
<!-- app.market&#45;&gt;app.config -->
<g id="edge30" class="edge">
<title>app.market&#45;&gt;app.config</title>
<path fill="none" stroke="#0f766e" d="M907.76,-1163.08C914.79,-1158.85 921.26,-1153.57 926,-1147 931.74,-1139.05 1011.64,-521.05 1028.78,-388.04"/>
<polygon fill="#0f766e" stroke="#0f766e" points="1031.22,-388.28 1029.68,-381.03 1026.36,-387.65 1031.22,-388.28"/>
<text text-anchor="middle" x="949" y="-1032.8" font-family="Times,serif" font-size="14.00">1</text>
</g>
<!-- app.market&#45;&gt;app.data -->
<g id="edge31" class="edge">
<title>app.market&#45;&gt;app.data</title>
<path fill="none" stroke="#0f766e" d="M907.83,-1161.26C914.51,-1157.3 920.85,-1152.58 926,-1147 996.18,-1071.06 1021.18,-944.23 1028.93,-890.4"/>
<polygon fill="#0f766e" stroke="#0f766e" points="1031.38,-890.57 1029.91,-883.3 1026.53,-889.9 1031.38,-890.57"/>
<text text-anchor="middle" x="949" y="-1124.8" font-family="Times,serif" font-size="14.00">2</text>
</g>
<!-- app.market&#45;&gt;app.exchanges -->
<g id="edge32" class="edge">
<title>app.market&#45;&gt;app.exchanges</title>
<path fill="none" stroke="#0f766e" d="M886.73,-1197.16C906.68,-1211.81 934.03,-1233.75 954,-1257 982.14,-1289.76 1006.41,-1333.89 1020.11,-1361.11"/>
<polygon fill="#0f766e" stroke="#0f766e" points="1018.05,-1362.48 1023.36,-1367.65 1022.44,-1360.29 1018.05,-1362.48"/>
<text text-anchor="middle" x="949" y="-1260.8" font-family="Times,serif" font-size="14.00">5</text>
</g>
<!-- app.market&#45;&gt;app.logger -->
<g id="edge33" class="edge">
<title>app.market&#45;&gt;app.logger</title>
<path fill="none" stroke="#0f766e" d="M865.38,-1197.03C877.45,-1239.01 912.18,-1344.85 972,-1413 1014.61,-1461.55 1045.25,-1449.62 1094,-1492 1122.58,-1516.84 1150.32,-1550.7 1167.51,-1573.17"/>
<polygon fill="#0f766e" stroke="#0f766e" points="1165.68,-1574.81 1171.86,-1578.91 1169.59,-1571.85 1165.68,-1574.81"/>
<text text-anchor="middle" x="1033" y="-1495.8" font-family="Times,serif" font-size="14.00">2</text>
</g>
<!-- app.market&#45;&gt;app.utils -->
<g id="edge34" class="edge">
<title>app.market&#45;&gt;app.utils</title>
<path fill="none" stroke="#0f766e" d="M907.94,-1180.41C955.14,-1181.95 1029.62,-1184.79 1094,-1189 1109.1,-1189.99 1125.58,-1191.35 1140.31,-1192.67"/>
<polygon fill="#0f766e" stroke="#0f766e" points="1140.2,-1195.12 1147.4,-1193.31 1140.65,-1190.24 1140.2,-1195.12"/>
<text text-anchor="middle" x="1033" y="-1192.8" font-family="Times,serif" font-size="14.00">3</text>
</g>
<!-- app.ml&#45;&gt;app.data -->
<g id="edge35" class="edge">
<title>app.ml&#45;&gt;app.data</title>
<path fill="none" stroke="#0f766e" d="M892.12,-769.65C910.88,-775.55 934.69,-784.39 954,-796 974.84,-808.53 995.31,-826.93 1010.05,-841.59"/>
<polygon fill="#0f766e" stroke="#0f766e" points="1008.54,-843.55 1015.21,-846.8 1012.02,-840.1 1008.54,-843.55"/>
<text text-anchor="middle" x="949" y="-799.8" font-family="Times,serif" font-size="14.00">3</text>
</g>
<!-- app.optimization&#45;&gt;app.backtesting -->
<g id="edge36" class="edge">
<title>app.optimization&#45;&gt;app.backtesting</title>
<path fill="none" stroke="#0f766e" d="M792.7,-452.77C774.99,-449.84 755.81,-446.99 738,-445 686.32,-439.24 627.67,-435.95 583.2,-434.13"/>
<polygon fill="#0f766e" stroke="#0f766e" points="583.28,-431.68 576.19,-433.85 583.09,-436.58 583.28,-431.68"/>
<text text-anchor="middle" x="680" y="-448.8" font-family="Times,serif" font-size="14.00">4</text>
</g>
<!-- app.optimization&#45;&gt;app.config -->
<g id="edge37" class="edge">
<title>app.optimization&#45;&gt;app.config</title>
<path fill="none" stroke="#0f766e" d="M899.72,-446.86C908.48,-442.53 917.65,-437.77 926,-433 951.79,-418.26 979.79,-399.65 1000.53,-385.33"/>
<polygon fill="#0f766e" stroke="#0f766e" points="1002.1,-387.22 1006.45,-381.22 999.31,-383.2 1002.1,-387.22"/>
<text text-anchor="middle" x="949" y="-423.8" font-family="Times,serif" font-size="14.00">1</text>
</g>
<!-- app.optimization&#45;&gt;app.data -->
<g id="edge38" class="edge">
<title>app.optimization&#45;&gt;app.data</title>
<path fill="none" stroke="#0f766e" d="M926.18,-466.74C936.54,-469.71 946.34,-474.5 954,-482 1005.43,-532.36 1025.19,-762.3 1030.45,-839.58"/>
<polygon fill="#0f766e" stroke="#0f766e" points="1028,-839.75 1030.91,-846.57 1032.89,-839.42 1028,-839.75"/>
<text text-anchor="middle" x="949" y="-485.8" font-family="Times,serif" font-size="14.00">2</text>
</g>
<!-- app.paper&#45;&gt;app.config -->
<g id="edge39" class="edge">
<title>app.paper&#45;&gt;app.config</title>
<path fill="none" stroke="#0f766e" d="M701.99,-1114.93C721.87,-1097.31 752.01,-1069.26 775,-1042 851.68,-951.05 878.21,-929.94 926,-821 994.33,-665.24 1021.66,-459.55 1029.46,-388.45"/>
<polygon fill="#0f766e" stroke="#0f766e" points="1031.92,-388.45 1030.23,-381.23 1027.05,-387.93 1031.92,-388.45"/>
<text text-anchor="middle" x="859.5" y="-1022.8" font-family="Times,serif" font-size="14.00">4</text>
</g>
<!-- app.paper&#45;&gt;app.data -->
<g id="edge40" class="edge">
<title>app.paper&#45;&gt;app.data</title>
<path fill="none" stroke="#0f766e" d="M724.06,-1115.93C744.76,-1107.96 770.02,-1098.58 793,-1091 863.68,-1067.69 898.06,-1094.08 954,-1045 1000.93,-1003.84 1020.64,-929.35 1028.05,-890.36"/>
<polygon fill="#0f766e" stroke="#0f766e" points="1030.54,-890.38 1029.38,-883.05 1025.72,-889.5 1030.54,-890.38"/>
<text text-anchor="middle" x="859.5" y="-1094.8" font-family="Times,serif" font-size="14.00">6</text>
</g>
<!-- app.paper&#45;&gt;app.logger -->
<g id="edge41" class="edge">
<title>app.paper&#45;&gt;app.logger</title>
<path fill="none" stroke="#0f766e" d="M683.63,-1151.02C690.08,-1190.08 709.63,-1284.09 756,-1347 852.95,-1478.54 1041.54,-1552.35 1132.9,-1581.8"/>
<polygon fill="#0f766e" stroke="#0f766e" points="1132.43,-1584.22 1139.84,-1584.02 1133.92,-1579.56 1132.43,-1584.22"/>
<text text-anchor="middle" x="949" y="-1507.8" font-family="Times,serif" font-size="14.00">2</text>
</g>
<!-- app.paper&#45;&gt;app.utils -->
<g id="edge42" class="edge">
<title>app.paper&#45;&gt;app.utils</title>
<path fill="none" stroke="#0f766e" d="M714.88,-1151.07C722.6,-1155.45 730.67,-1160.24 738,-1165 763.57,-1181.61 764.06,-1196.4 793,-1206 805.91,-1210.28 1071.73,-1207.04 1122,-1204 1127.92,-1203.64 1134.14,-1203.12 1140.27,-1202.53"/>
<polygon fill="#0f766e" stroke="#0f766e" points="1140.69,-1204.95 1147.41,-1201.8 1140.2,-1200.08 1140.69,-1204.95"/>
<text text-anchor="middle" x="949" y="-1210.8" font-family="Times,serif" font-size="14.00">3</text>
</g>
<!-- app.services -->
<g id="node14" class="node">
<title>app.services</title>
<path fill="#f8fafc" stroke="#94a3b8" d="M552,-863C552,-863 472,-863 472,-863 466,-863 460,-857 460,-851 460,-851 460,-839 460,-839 460,-833 466,-827 472,-827 472,-827 552,-827 552,-827 558,-827 564,-833 564,-839 564,-839 564,-851 564,-851 564,-857 558,-863 552,-863"/>
<text text-anchor="middle" x="512" y="-841.3" font-family="Inter" font-size="14.00">app.services</text>
</g>
<!-- app.services&#45;&gt;app.config -->
<g id="edge43" class="edge">
<title>app.services&#45;&gt;app.config</title>
<path fill="none" stroke="#0f766e" d="M558.99,-826.98C578.18,-820.2 600.88,-813.15 622,-809 688.45,-795.95 874.11,-831.5 926,-788 941.84,-774.72 1007.21,-477.53 1026.57,-388.18"/>
<polygon fill="#0f766e" stroke="#0f766e" points="1029.01,-388.51 1028.1,-381.15 1024.22,-387.47 1029.01,-388.51"/>
<text text-anchor="middle" x="765.5" y="-812.8" font-family="Times,serif" font-size="14.00">3</text>
</g>
<!-- app.services&#45;&gt;app.data -->
<g id="edge44" class="edge">
<title>app.services&#45;&gt;app.data</title>
<path fill="none" stroke="#0f766e" d="M564.15,-859.24C582.27,-863.61 602.9,-867.84 622,-870 753.91,-884.93 911.2,-875.46 986.9,-869.21"/>
<polygon fill="#0f766e" stroke="#0f766e" points="987.2,-871.64 993.97,-868.62 986.79,-866.76 987.2,-871.64"/>
<text text-anchor="middle" x="765.5" y="-880.8" font-family="Times,serif" font-size="14.00">15</text>
</g>
<!-- app.services&#45;&gt;app.paper -->
<g id="edge45" class="edge">
<title>app.services&#45;&gt;app.paper</title>
<path fill="none" stroke="#0f766e" d="M560.6,-863.11C566.44,-866.96 571.81,-871.56 576,-877 599.29,-907.26 584.94,-923.91 594,-961 605.15,-1006.67 600.47,-1021.21 622,-1063 630.79,-1080.07 644.22,-1096.83 655.84,-1109.67"/>
<polygon fill="#0f766e" stroke="#0f766e" points="654.14,-1111.44 660.68,-1114.92 657.74,-1108.12 654.14,-1111.44"/>
<text text-anchor="middle" x="599" y="-1014.8" font-family="Times,serif" font-size="14.00">2</text>
</g>
<!-- app.services&#45;&gt;app.strategies -->
<g id="edge46" class="edge">
<title>app.services&#45;&gt;app.strategies</title>
<path fill="none" stroke="#0f766e" d="M529.33,-826.88C542.05,-812.75 560.16,-792.64 576,-775 604.35,-743.43 637.02,-706.93 657.83,-683.67"/>
<polygon fill="#0f766e" stroke="#0f766e" points="659.76,-685.19 662.6,-678.34 656.11,-681.92 659.76,-685.19"/>
<text text-anchor="middle" x="599" y="-756.8" font-family="Times,serif" font-size="14.00">1</text>
</g>
<!-- app.services&#45;&gt;app.utils -->
<g id="edge47" class="edge">
<title>app.services&#45;&gt;app.utils</title>
<path fill="none" stroke="#0f766e" d="M552.1,-863.11C560.2,-867.34 568.53,-872.06 576,-877 672.32,-940.67 711.96,-947.27 775,-1044 790.67,-1068.04 772.17,-1086.27 793,-1106 793.2,-1106.19 1038,-1162.93 1140.59,-1186.71"/>
<polygon fill="#0f766e" stroke="#0f766e" points="1140.06,-1189.1 1147.44,-1188.3 1141.17,-1184.33 1140.06,-1189.1"/>
<text text-anchor="middle" x="859.5" y="-1139.8" font-family="Times,serif" font-size="14.00">3</text>
</g>
<!-- app.signals&#45;&gt;app.config -->
<g id="edge48" class="edge">
<title>app.signals&#45;&gt;app.config</title>
<path fill="none" stroke="#0f766e" d="M241.89,-1172.89C243.4,-1171.38 244.79,-1169.76 246,-1168 264.53,-1141.16 261.64,-907.53 264,-875 269.4,-800.49 258.14,-606.59 292,-540 328.82,-467.59 514.83,-352.23 594,-334 737.8,-300.89 779.53,-320.04 926,-338 943.98,-340.21 963.35,-344.26 980.55,-348.47"/>
<polygon fill="#0f766e" stroke="#0f766e" points="980.39,-350.96 987.78,-350.28 981.58,-346.21 980.39,-350.96"/>
<text text-anchor="middle" x="599" y="-337.8" font-family="Times,serif" font-size="14.00">4</text>
</g>
<!-- app.signals&#45;&gt;app.data -->
<g id="edge49" class="edge">
<title>app.signals&#45;&gt;app.data</title>
<path fill="none" stroke="#0f766e" d="M241.57,-1172.64C243.17,-1171.21 244.66,-1169.66 246,-1168 306.65,-1093.05 220.23,-1020.38 292,-956 305.18,-944.17 908.39,-890.87 926,-889 938.45,-887.68 941.7,-888.3 954,-886 964.74,-883.99 976.17,-881.26 986.88,-878.43"/>
<polygon fill="#0f766e" stroke="#0f766e" points="987.67,-880.75 993.79,-876.56 986.39,-876.02 987.67,-880.75"/>
<text text-anchor="middle" x="599" y="-923.8" font-family="Times,serif" font-size="14.00">4</text>
</g>
<!-- app.signals&#45;&gt;app.exchanges -->
<g id="edge50" class="edge">
<title>app.signals&#45;&gt;app.exchanges</title>
<path fill="none" stroke="#0f766e" d="M236.18,-1209.05C245.24,-1212.64 254.86,-1216.17 264,-1219 517.9,-1297.49 830,-1353.21 964.78,-1375.38"/>
<polygon fill="#0f766e" stroke="#0f766e" points="964.54,-1377.82 971.84,-1376.54 965.33,-1372.99 964.54,-1377.82"/>
<text text-anchor="middle" x="599" y="-1309.8" font-family="Times,serif" font-size="14.00">1</text>
</g>
<!-- app.signals&#45;&gt;app.logger -->
<g id="edge51" class="edge">
<title>app.signals&#45;&gt;app.logger</title>
<path fill="none" stroke="#0f766e" d="M202.77,-1209.04C213.24,-1233.65 232.15,-1279.24 246,-1319 255.16,-1345.29 253.92,-1353.05 264,-1379 274.37,-1405.68 269.14,-1419.77 292,-1437 394.28,-1514.1 452.3,-1452.77 576,-1486 597.05,-1491.65 601.13,-1496.72 622,-1503 775,-1549 814.79,-1556.55 972,-1585 1038.07,-1596.96 1054.93,-1606.19 1122,-1603 1125.54,-1602.83 1129.2,-1602.61 1132.87,-1602.35"/>
<polygon fill="#0f766e" stroke="#0f766e" points="1133.16,-1604.79 1139.96,-1601.81 1132.79,-1599.9 1133.16,-1604.79"/>
<text text-anchor="middle" x="680" y="-1539.8" font-family="Times,serif" font-size="14.00">2</text>
</g>
<!-- app.signals&#45;&gt;app.market -->
<g id="edge52" class="edge">
<title>app.signals&#45;&gt;app.market</title>
<path fill="none" stroke="#0f766e" d="M242.32,-1201.9C249.55,-1203.19 256.95,-1204.29 264,-1205 268.42,-1205.44 269.56,-1205.08 274,-1205 496.79,-1200.78 552.58,-1199.53 775,-1186 784.46,-1185.42 794.52,-1184.69 804.26,-1183.91"/>
<polygon fill="#0f766e" stroke="#0f766e" points="804.5,-1186.35 811.28,-1183.34 804.1,-1181.46 804.5,-1186.35"/>
<text text-anchor="middle" x="512" y="-1204.8" font-family="Times,serif" font-size="14.00">3</text>
</g>
<!-- app.signals&#45;&gt;app.ml -->
<g id="edge53" class="edge">
<title>app.signals&#45;&gt;app.ml</title>
<path fill="none" stroke="#0f766e" d="M241.86,-1172.87C243.38,-1171.37 244.77,-1169.75 246,-1168 276.68,-1124.19 239.87,-975.73 264,-928 312.63,-831.8 350.64,-816.26 448,-770 511.62,-739.77 538.66,-768.31 604,-742 612.92,-738.41 612.8,-732.79 622,-730 671.34,-715.06 686.85,-723.53 738,-730 765.99,-733.54 796.78,-741.54 820.24,-748.52"/>
<polygon fill="#0f766e" stroke="#0f766e" points="819.55,-750.87 826.96,-750.56 820.97,-746.18 819.55,-750.87"/>
<text text-anchor="middle" x="512" y="-773.8" font-family="Times,serif" font-size="14.00">1</text>
</g>
<!-- app.signals&#45;&gt;app.paper -->
<g id="edge54" class="edge">
<title>app.signals&#45;&gt;app.paper</title>
<path fill="none" stroke="#0f766e" d="M242.24,-1192.1C252.71,-1192.03 263.74,-1191.73 274,-1191 402.52,-1181.84 552.25,-1156.54 628.61,-1142.57"/>
<polygon fill="#0f766e" stroke="#0f766e" points="629.32,-1144.93 635.77,-1141.26 628.44,-1140.11 629.32,-1144.93"/>
<text text-anchor="middle" x="425" y="-1178.8" font-family="Times,serif" font-size="14.00">1</text>
</g>
<!-- app.signals&#45;&gt;app.strategies -->
<g id="edge55" class="edge">
<title>app.signals&#45;&gt;app.strategies</title>
<path fill="none" stroke="#0f766e" d="M241.88,-1172.88C243.39,-1171.38 244.78,-1169.76 246,-1168 280.05,-1118.98 251.85,-958.44 264,-900 266.69,-887.06 270.23,-884.67 274,-872 283.78,-839.14 269.62,-822.97 292,-797 313.8,-771.71 511.03,-710.04 615.2,-678.8"/>
<polygon fill="#0f766e" stroke="#0f766e" points="615.92,-681.14 621.92,-676.79 614.51,-676.45 615.92,-681.14"/>
<text text-anchor="middle" x="425" y="-743.8" font-family="Times,serif" font-size="14.00">1</text>
</g>
<!-- app.signals&#45;&gt;app.telegram -->
<g id="edge56" class="edge">
<title>app.signals&#45;&gt;app.telegram</title>
<path fill="none" stroke="#0f766e" d="M227.3,-1172.82C238.77,-1166.6 251.84,-1159.76 264,-1154 273.48,-1149.51 283.72,-1145 293.64,-1140.8"/>
<polygon fill="#0f766e" stroke="#0f766e" points="294.6,-1143.06 300.11,-1138.09 292.7,-1138.54 294.6,-1143.06"/>
<text text-anchor="middle" x="269" y="-1157.8" font-family="Times,serif" font-size="14.00">1</text>
</g>
<!-- app.signals&#45;&gt;app.utils -->
<g id="edge57" class="edge">
<title>app.signals&#45;&gt;app.utils</title>
<path fill="none" stroke="#0f766e" d="M202.42,-1209.04C223.59,-1260.28 283.27,-1403.45 292,-1410 342.94,-1448.2 513.28,-1437.03 576,-1448 656.63,-1462.11 674.61,-1478.28 756,-1487 918.52,-1504.4 1026.86,-1583.91 1122,-1451 1173.19,-1379.49 1182.99,-1270.91 1184.72,-1222.2"/>
<polygon fill="#0f766e" stroke="#0f766e" points="1187.17,-1222.25 1184.93,-1215.18 1182.27,-1222.1 1187.17,-1222.25"/>
<text text-anchor="middle" x="680" y="-1487.8" font-family="Times,serif" font-size="14.00">2</text>
</g>
<!-- app.strategies&#45;&gt;app.config -->
<g id="edge58" class="edge">
<title>app.strategies&#45;&gt;app.config</title>
<path fill="none" stroke="#0f766e" d="M717.23,-641.92C782.64,-608.81 917.11,-538.37 954,-501 986.93,-467.64 1010.57,-417.57 1022.71,-387.8"/>
<polygon fill="#0f766e" stroke="#0f766e" points="1025.08,-388.47 1025.4,-381.06 1020.53,-386.65 1025.08,-388.47"/>
<text text-anchor="middle" x="859.5" y="-604.8" font-family="Times,serif" font-size="14.00">4</text>
</g>
<!-- app.strategies&#45;&gt;app.market -->
<g id="edge59" class="edge">
<title>app.strategies&#45;&gt;app.market</title>
<path fill="none" stroke="#0f766e" d="M700.8,-678.21C713.67,-691.29 729.58,-710.08 738,-730 764.83,-793.47 747.2,-815.65 756,-884 756.47,-887.66 790.83,-1144.02 793,-1147 796.35,-1151.61 800.54,-1155.59 805.18,-1159.01"/>
<polygon fill="#0f766e" stroke="#0f766e" points="804.08,-1161.22 811.27,-1163.06 806.8,-1157.14 804.08,-1161.22"/>
<text text-anchor="middle" x="765.5" y="-1026.8" font-family="Times,serif" font-size="14.00">7</text>
</g>
<!-- app.telegram&#45;&gt;app.config -->
<g id="edge60" class="edge">
<title>app.telegram&#45;&gt;app.config</title>
<path fill="none" stroke="#0f766e" d="M358.13,-1101.95C370.33,-1079.45 390.6,-1039.52 402,-1003 415.85,-958.64 408.46,-945.01 420,-900 422.39,-890.67 440.94,-824.54 448,-818 491.1,-778.08 520.74,-804.95 576,-785 737.76,-726.61 807.43,-744.57 926,-620 991.02,-551.69 1018.54,-437.94 1027.92,-387.91"/>
<polygon fill="#0f766e" stroke="#0f766e" points="1030.34,-388.33 1029.18,-381 1025.51,-387.45 1030.34,-388.33"/>
<text text-anchor="middle" x="680" y="-771.8" font-family="Times,serif" font-size="14.00">3</text>
</g>
<!-- app.telegram&#45;&gt;app.data -->
<g id="edge61" class="edge">
<title>app.telegram&#45;&gt;app.data</title>
<path fill="none" stroke="#0f766e" d="M402.11,-1110.28C480.24,-1096.25 629.18,-1069.54 756,-1047 831.54,-1033.58 861.33,-1058.29 926,-1017 974.55,-986 1007.05,-924 1022.19,-889.53"/>
<polygon fill="#0f766e" stroke="#0f766e" points="1024.47,-890.42 1024.99,-883.03 1019.97,-888.49 1024.47,-890.42"/>
<text text-anchor="middle" x="680" y="-1073.8" font-family="Times,serif" font-size="14.00">7</text>
</g>
<!-- app.telegram&#45;&gt;app.logger -->
<g id="edge62" class="edge">
<title>app.telegram&#45;&gt;app.logger</title>
<path fill="none" stroke="#0f766e" d="M364.01,-1138.06C382.99,-1158.97 416.08,-1193.87 448,-1220 662.08,-1395.23 712.32,-1460.59 972,-1556 1024.9,-1575.44 1088.75,-1586.16 1132.67,-1591.72"/>
<polygon fill="#0f766e" stroke="#0f766e" points="1132.56,-1594.17 1139.81,-1592.6 1133.16,-1589.31 1132.56,-1594.17"/>
<text text-anchor="middle" x="765.5" y="-1471.8" font-family="Times,serif" font-size="14.00">1</text>
</g>
<!-- app.telegram&#45;&gt;app.market -->
<g id="edge63" class="edge">
<title>app.telegram&#45;&gt;app.market</title>
<path fill="none" stroke="#0f766e" d="M402.19,-1128.97C457.37,-1137.85 545.45,-1151.35 622,-1160 684.29,-1167.04 756.1,-1172.43 804.1,-1175.63"/>
<polygon fill="#0f766e" stroke="#0f766e" points="804.15,-1178.09 811.3,-1176.11 804.48,-1173.2 804.15,-1178.09"/>
<text text-anchor="middle" x="599" y="-1160.8" font-family="Times,serif" font-size="14.00">2</text>
</g>
<!-- app.telegram&#45;&gt;app.paper -->
<g id="edge64" class="edge">
<title>app.telegram&#45;&gt;app.paper</title>
<path fill="none" stroke="#0f766e" d="M402.46,-1116.02C448.71,-1113.36 516.81,-1111.15 576,-1116 593.31,-1117.42 612.09,-1120.16 628.81,-1123.03"/>
<polygon fill="#0f766e" stroke="#0f766e" points="628.53,-1125.46 635.85,-1124.26 629.37,-1120.64 628.53,-1125.46"/>
<text text-anchor="middle" x="512" y="-1119.8" font-family="Times,serif" font-size="14.00">1</text>
</g>
<!-- app.telegram&#45;&gt;app.services -->
<g id="edge65" class="edge">
<title>app.telegram&#45;&gt;app.services</title>
<path fill="none" stroke="#0f766e" d="M358.44,-1101.82C370.01,-1081.2 388.8,-1046.36 402,-1015 427.08,-955.41 405.8,-925.97 448,-877 451.12,-873.38 454.75,-870.12 458.66,-867.19"/>
<polygon fill="#0f766e" stroke="#0f766e" points="460.18,-869.12 464.57,-863.14 457.41,-865.08 460.18,-869.12"/>
<text text-anchor="middle" x="425" y="-935.8" font-family="Times,serif" font-size="14.00">5</text>
</g>
<!-- app.telegram&#45;&gt;app.signals -->
<g id="edge66" class="edge">
<title>app.telegram&#45;&gt;app.signals</title>
<path fill="none" stroke="#0f766e" d="M323.48,-1138.15C309.84,-1148.41 291.69,-1160.79 274,-1169 266.15,-1172.64 257.58,-1175.79 249.07,-1178.48"/>
<polygon fill="#0f766e" stroke="#0f766e" points="248.26,-1176.17 242.27,-1180.54 249.68,-1180.86 248.26,-1176.17"/>
<text text-anchor="middle" x="269" y="-1175.8" font-family="Times,serif" font-size="14.00">2</text>
</g>
<!-- app.telegram&#45;&gt;app.utils -->
<g id="edge67" class="edge">
<title>app.telegram&#45;&gt;app.utils</title>
<path fill="none" stroke="#0f766e" d="M392.01,-1138.08C409.34,-1144.95 429.49,-1152.66 448,-1159 504.14,-1178.24 520.61,-1175.7 576,-1197 658.75,-1228.83 669.53,-1263.4 756,-1283 896.05,-1314.74 1063.2,-1252.7 1141.05,-1218.08"/>
<polygon fill="#0f766e" stroke="#0f766e" points="1142.47,-1220.13 1147.85,-1215.03 1140.47,-1215.66 1142.47,-1220.13"/>
<text text-anchor="middle" x="765.5" y="-1289.8" font-family="Times,serif" font-size="14.00">2</text>
</g>
<!-- app.web -->
<g id="node19" class="node">
<title>app.web</title>
<path fill="#f8fafc" stroke="#94a3b8" d="M373,-585C373,-585 321,-585 321,-585 315,-585 309,-579 309,-573 309,-573 309,-561 309,-561 309,-555 315,-549 321,-549 321,-549 373,-549 373,-549 379,-549 385,-555 385,-561 385,-561 385,-573 385,-573 385,-579 379,-585 373,-585"/>
<text text-anchor="middle" x="347" y="-563.3" font-family="Inter" font-size="14.00">app.web</text>
</g>
<!-- app.web&#45;&gt;app.config -->
<g id="edge68" class="edge">
<title>app.web&#45;&gt;app.config</title>
<path fill="none" stroke="#0f766e" d="M357.81,-548.81C375.52,-515.06 412.61,-439.96 430,-372 439.64,-334.34 419.89,-224.85 448,-198 529.47,-120.17 874.37,-150.3 954,-230 983.76,-259.78 948.68,-287.95 972,-323 976.46,-329.7 982.46,-335.56 988.96,-340.58"/>
<polygon fill="#0f766e" stroke="#0f766e" points="987.92,-342.85 995.03,-344.95 990.78,-338.87 987.92,-342.85"/>
<text text-anchor="middle" x="680" y="-162.8" font-family="Times,serif" font-size="14.00">2</text>
</g>
<!-- app.web&#45;&gt;app.data -->
<g id="edge69" class="edge">
<title>app.web&#45;&gt;app.data</title>
<path fill="none" stroke="#0f766e" d="M385.33,-565.17C477.48,-561.38 712.75,-556.35 775,-600 784.79,-606.87 783.8,-612.36 793,-620 846.27,-664.19 876.33,-652.8 926,-701 942.37,-716.88 941.6,-724.86 954,-744 975.71,-777.5 1000.69,-816.3 1016.41,-840.75"/>
<polygon fill="#0f766e" stroke="#0f766e" points="1014.55,-842.38 1020.4,-846.94 1018.67,-839.73 1014.55,-842.38"/>
<text text-anchor="middle" x="680" y="-586.8" font-family="Times,serif" font-size="14.00">2</text>
</g>
<!-- app.web&#45;&gt;app.jobs -->
<g id="edge70" class="edge">
<title>app.web&#45;&gt;app.jobs</title>
<path fill="none" stroke="#0f766e" d="M385.29,-552.45C431.59,-533.7 512.25,-498.73 576,-459 604.19,-441.43 633.57,-417.38 653.7,-399.87"/>
<polygon fill="#0f766e" stroke="#0f766e" points="655.48,-401.57 659.13,-395.12 652.25,-397.89 655.48,-401.57"/>
<text text-anchor="middle" x="512" y="-528.8" font-family="Times,serif" font-size="14.00">2</text>
</g>
<!-- app.web&#45;&gt;app.services -->
<g id="edge71" class="edge">
<title>app.web&#45;&gt;app.services</title>
<path fill="none" stroke="#0f766e" d="M362.4,-585.23C373.8,-600.08 389.8,-621.82 402,-642 416.4,-665.81 420.55,-671.83 430,-698 441.94,-731.05 431.73,-743.85 448,-775 457.14,-792.5 471.67,-809.07 484.48,-821.68"/>
<polygon fill="#0f766e" stroke="#0f766e" points="483.1,-823.75 489.84,-826.84 486.49,-820.22 483.1,-823.75"/>
<text text-anchor="middle" x="425" y="-701.8" font-family="Times,serif" font-size="14.00">6</text>
</g>
<!-- tests -->
<g id="node20" class="node">
<title>tests</title>
<path fill="#f8fafc" stroke="#94a3b8" d="M63,-682C63,-682 33,-682 33,-682 27,-682 21,-676 21,-670 21,-670 21,-658 21,-658 21,-652 27,-646 33,-646 33,-646 63,-646 63,-646 69,-646 75,-652 75,-658 75,-658 75,-670 75,-670 75,-676 69,-682 63,-682"/>
<text text-anchor="middle" x="48" y="-660.3" font-family="Inter" font-size="14.00">tests</text>
</g>
<!-- tests&#45;&gt;app.backtesting -->
<g id="edge72" class="edge">
<title>tests&#45;&gt;app.backtesting</title>
<path fill="none" stroke="#0f766e" d="M75.22,-653.06C82.72,-648.92 90.37,-643.58 96,-637 110.54,-620 101.3,-608.41 114,-590 123.47,-576.27 127.67,-573.54 142,-565 238.53,-507.48 363.94,-468.85 440.89,-448.66"/>
<polygon fill="#0f766e" stroke="#0f766e" points="441.56,-451.01 447.72,-446.88 440.33,-446.27 441.56,-451.01"/>
<text text-anchor="middle" x="269" y="-508.8" font-family="Times,serif" font-size="14.00">2</text>
</g>
<!-- tests&#45;&gt;app.config -->
<g id="edge73" class="edge">
<title>tests&#45;&gt;app.config</title>
<path fill="none" stroke="#0f766e" d="M75.43,-654.46C83.31,-650.31 91.13,-644.61 96,-637 120.4,-598.85 107.91,-478.88 114,-434 127.09,-337.51 95.63,-3 193,-3 193,-3 193,-3 426,-3 482.05,-3 882.36,-34.82 926,-70 1010.64,-138.23 1027.72,-279.91 1031.15,-337.67"/>
<polygon fill="#0f766e" stroke="#0f766e" points="1028.71,-338.06 1031.53,-344.92 1033.61,-337.8 1028.71,-338.06"/>
<text text-anchor="middle" x="512" y="-16.8" font-family="Times,serif" font-size="14.00">8</text>
</g>
<!-- tests&#45;&gt;app.data -->
<g id="edge74" class="edge">
<title>tests&#45;&gt;app.data</title>
<path fill="none" stroke="#0f766e" d="M75.23,-649.9C103.48,-636.05 150.13,-617 193,-617 193,-617 193,-617 426,-617 564.85,-617 608.67,-582.49 738,-633 766.4,-644.09 766.73,-658.53 793,-674 848.88,-706.91 874.66,-694.39 926,-734 965.19,-764.24 998.88,-811.73 1017.22,-840.46"/>
<polygon fill="#0f766e" stroke="#0f766e" points="1015.31,-842.03 1021.12,-846.64 1019.46,-839.41 1015.31,-842.03"/>
<text text-anchor="middle" x="512" y="-619.8" font-family="Times,serif" font-size="14.00">1</text>
</g>
<!-- tests&#45;&gt;app.exchanges -->
<g id="edge75" class="edge">
<title>tests&#45;&gt;app.exchanges</title>
<path fill="none" stroke="#0f766e" d="M48.93,-682.11C49.29,-753.5 56.58,-1021.18 142,-1218 194.04,-1337.91 183.77,-1397.7 292,-1471 343.31,-1505.75 368.24,-1496.11 430,-1491 516.22,-1483.86 536.1,-1469.24 622,-1459 695.45,-1450.24 889.76,-1471.67 954,-1435 966.21,-1428.03 960.95,-1417.68 972,-1409 972.27,-1408.78 972.55,-1408.57 972.83,-1408.36"/>
<polygon fill="#0f766e" stroke="#0f766e" points="974.56,-1410.15 978.96,-1404.18 971.8,-1406.1 974.56,-1410.15"/>
<text text-anchor="middle" x="512" y="-1492.8" font-family="Times,serif" font-size="14.00">2</text>
</g>
<!-- tests&#45;&gt;app.market -->
<g id="edge76" class="edge">
<title>tests&#45;&gt;app.market</title>
<path fill="none" stroke="#0f766e" d="M75.23,-678.96C160.2,-727.46 422.85,-877.66 430,-885 441.66,-896.97 436.81,-905.59 448,-918 494.24,-969.26 527.2,-957.17 576,-1006 601.53,-1031.55 592.67,-1051.92 622,-1073 665.53,-1104.28 691.02,-1080.19 738,-1106 766.69,-1121.77 764.91,-1138.18 793,-1155 796.75,-1157.25 800.75,-1159.33 804.84,-1161.27"/>
<polygon fill="#0f766e" stroke="#0f766e" points="803.95,-1163.55 811.34,-1164.18 805.95,-1159.08 803.95,-1163.55"/>
<text text-anchor="middle" x="425" y="-888.8" font-family="Times,serif" font-size="14.00">3</text>
</g>
<!-- tests&#45;&gt;app.paper -->
<g id="edge77" class="edge">
<title>tests&#45;&gt;app.paper</title>
<path fill="none" stroke="#0f766e" d="M52.14,-682.06C58.55,-714.26 75.9,-782.23 114,-825 123.93,-836.15 511.68,-1043.67 638.97,-1111.64"/>
<polygon fill="#0f766e" stroke="#0f766e" points="637.86,-1113.83 645.19,-1114.97 640.17,-1109.51 637.86,-1113.83"/>
<text text-anchor="middle" x="347" y="-987.8" font-family="Times,serif" font-size="14.00">4</text>
</g>
<!-- tests&#45;&gt;app.signals -->
<g id="edge78" class="edge">
<title>tests&#45;&gt;app.signals</title>
<path fill="none" stroke="#0f766e" d="M50.69,-682.07C58.27,-760.14 90.94,-1068.18 142,-1149 146.55,-1156.2 152.74,-1162.75 159.25,-1168.43"/>
<polygon fill="#0f766e" stroke="#0f766e" points="157.81,-1170.42 164.76,-1172.99 160.93,-1166.64 157.81,-1170.42"/>
<text text-anchor="middle" x="119" y="-1106.8" font-family="Times,serif" font-size="14.00">4</text>
</g>
<!-- tests&#45;&gt;app.strategies -->
<g id="edge79" class="edge">
<title>tests&#45;&gt;app.strategies</title>
<path fill="none" stroke="#0f766e" d="M75.27,-663.83C167.58,-663.25 478.85,-661.27 614.69,-660.41"/>
<polygon fill="#0f766e" stroke="#0f766e" points="614.83,-662.86 621.81,-660.36 614.8,-657.96 614.83,-662.86"/>
<text text-anchor="middle" x="347" y="-665.8" font-family="Times,serif" font-size="14.00">2</text>
</g>
<!-- tests&#45;&gt;app.telegram -->
<g id="edge80" class="edge">
<title>tests&#45;&gt;app.telegram</title>
<path fill="none" stroke="#0f766e" d="M52.26,-682.07C59.36,-718.31 78.48,-801.67 114,-863 171.18,-961.71 271.09,-1055.31 318.94,-1097.13"/>
<polygon fill="#0f766e" stroke="#0f766e" points="317.62,-1099.22 324.51,-1101.97 320.84,-1095.53 317.62,-1099.22"/>
<text text-anchor="middle" x="194" y="-1031.8" font-family="Times,serif" font-size="14.00">3</text>
</g>
<!-- tests&#45;&gt;app.web -->
<g id="edge81" class="edge">
<title>tests&#45;&gt;app.web</title>
<path fill="none" stroke="#0f766e" d="M75.23,-652.35C82.56,-648.24 90.12,-643.09 96,-637 107.88,-624.7 101.94,-615.12 114,-603 123.96,-592.99 128.5,-592.13 142,-588 195.26,-571.69 259.61,-567.47 301.61,-566.66"/>
<polygon fill="#0f766e" stroke="#0f766e" points="301.7,-569.11 308.67,-566.55 301.63,-564.21 301.7,-569.11"/>
<text text-anchor="middle" x="194" y="-591.8" font-family="Times,serif" font-size="14.00">1</text>
</g>
<!-- tools -->
<g id="node21" class="node">
<title>tools</title>
<path fill="#f8fafc" stroke="#94a3b8" d="M362,-292C362,-292 332,-292 332,-292 326,-292 320,-286 320,-280 320,-280 320,-268 320,-268 320,-262 326,-256 332,-256 332,-256 362,-256 362,-256 368,-256 374,-262 374,-268 374,-268 374,-280 374,-280 374,-286 368,-292 362,-292"/>
<text text-anchor="middle" x="347" y="-270.3" font-family="Inter" font-size="14.00">tools</text>
</g>
<!-- tests&#45;&gt;tools -->
<g id="edge82" class="edge">
<title>tests&#45;&gt;tools</title>
<path fill="none" stroke="#0f766e" d="M75.39,-654.44C83.26,-650.28 91.1,-644.59 96,-637 140.58,-567.98 74.2,-524.89 114,-453 159.72,-370.41 261.06,-313.5 313.36,-288.44"/>
<polygon fill="#0f766e" stroke="#0f766e" points="314.51,-290.6 319.79,-285.4 312.42,-286.17 314.51,-290.6"/>
<text text-anchor="middle" x="194" y="-413.8" font-family="Times,serif" font-size="14.00">1</text>
</g>
<!-- tools&#45;&gt;app.backtesting -->
<g id="edge83" class="edge">
<title>tools&#45;&gt;app.backtesting</title>
<path fill="none" stroke="#0f766e" d="M366.7,-292.12C396.34,-320.86 454.11,-376.86 486.85,-408.59"/>
<polygon fill="#0f766e" stroke="#0f766e" points="485.54,-410.73 492.27,-413.84 488.95,-407.21 485.54,-410.73"/>
<text text-anchor="middle" x="425" y="-356.8" font-family="Times,serif" font-size="14.00">2</text>
</g>
<!-- tools&#45;&gt;app.config -->
<g id="edge84" class="edge">
<title>tools&#45;&gt;app.config</title>
<path fill="none" stroke="#0f766e" d="M358.28,-255.96C374.03,-230.13 406.68,-183.19 448,-160 541.36,-107.6 842.13,-33.47 926,-100 953.53,-121.84 932.42,-143.82 944,-177 964.91,-236.92 999.18,-303.25 1018.2,-338.24"/>
<polygon fill="#0f766e" stroke="#0f766e" points="1016.28,-339.84 1021.79,-344.81 1020.58,-337.49 1016.28,-339.84"/>
<text text-anchor="middle" x="680" y="-103.8" font-family="Times,serif" font-size="14.00">4</text>
</g>
<!-- tools&#45;&gt;app.data -->
<g id="edge85" class="edge">
<title>tools&#45;&gt;app.data</title>
<path fill="none" stroke="#0f766e" d="M352.51,-292.21C362.74,-329.55 391.33,-415.01 448,-459 454.97,-464.41 747.36,-534.21 756,-536 830.98,-551.52 867.32,-514.8 926,-564 1011.7,-635.85 1028.16,-781.55 1031.28,-839.95"/>
<polygon fill="#0f766e" stroke="#0f766e" points="1028.83,-840.08 1031.61,-846.96 1033.73,-839.85 1028.83,-840.08"/>
<text text-anchor="middle" x="680" y="-534.8" font-family="Times,serif" font-size="14.00">5</text>
</g>
<!-- tools&#45;&gt;app.jobs -->
<g id="edge86" class="edge">
<title>tools&#45;&gt;app.jobs</title>
<path fill="none" stroke="#0f766e" d="M374.1,-267.47C422.48,-256.83 528.05,-240.56 604,-279 634.58,-294.48 656.22,-328.87 668.16,-352.51"/>
<polygon fill="#0f766e" stroke="#0f766e" points="666,-353.65 671.27,-358.86 670.4,-351.5 666,-353.65"/>
<text text-anchor="middle" x="512" y="-271.8" font-family="Times,serif" font-size="14.00">1</text>
</g>
<!-- tools&#45;&gt;app.utils -->
<g id="edge87" class="edge">
<title>tools&#45;&gt;app.utils</title>
<path fill="none" stroke="#0f766e" d="M354.24,-255.79C366.72,-222 397.94,-149.38 448,-109 563.8,-15.59 615.73,0 764.5,0 764.5,0 764.5,0 1034,0 1156.42,0 1181.17,-998.18 1184.55,-1171.5"/>
<polygon fill="#0f766e" stroke="#0f766e" points="1182.11,-1171.72 1184.69,-1178.68 1187,-1171.63 1182.11,-1171.72"/>
<text text-anchor="middle" x="765.5" y="-4.8" font-family="Times,serif" font-size="14.00">1</text>
</g>
</g>
</svg>
