<?xml version="1.0" encoding="UTF-8" standalone="no"?>
<!DOCTYPE svg PUBLIC "-//W3C//DTD SVG 1.1//EN"
 "http://www.w3.org/Graphics/SVG/1.1/DTD/svg11.dtd">
<!-- Generated by graphviz version 2.43.0 (0)
 -->
<!-- Title: dependencies Pages: 1 -->
<svg width="1240pt" height="1805pt"
 viewBox="0.00 0.00 1240.00 1804.85" xmlns="http://www.w3.org/2000/svg" xmlns:xlink="http://www.w3.org/1999/xlink">
<g id="graph0" class="graph" transform="scale(1 1) rotate(0) translate(4 1800.85)">
<title>dependencies</title>
<polygon fill="white" stroke="transparent" points="-4,4 -4,-1800.85 1236,-1800.85 1236,4 -4,4"/>
<!-- app.__init__ -->
<g id="node1" class="node">
<title>app.__init__</title>
<path fill="#f8fafc" stroke="#94a3b8" d="M84,-732.85C84,-732.85 12,-732.85 12,-732.85 6,-732.85 0,-726.85 0,-720.85 0,-720.85 0,-708.85 0,-708.85 0,-702.85 6,-696.85 12,-696.85 12,-696.85 84,-696.85 84,-696.85 90,-696.85 96,-702.85 96,-708.85 96,-708.85 96,-720.85 96,-720.85 96,-726.85 90,-732.85 84,-732.85"/>
<text text-anchor="middle" x="48" y="-711.15" font-family="Inter" font-size="14.00">app.__init__</text>
</g>
<!-- app.analysis -->
<g id="node2" class="node">
<title>app.analysis</title>
<path fill="#f8fafc" stroke="#94a3b8" d="M234,-1654.85C234,-1654.85 154,-1654.85 154,-1654.85 148,-1654.85 142,-1648.85 142,-1642.85 142,-1642.85 142,-1630.85 142,-1630.85 142,-1624.85 148,-1618.85 154,-1618.85 154,-1618.85 234,-1618.85 234,-1618.85 240,-1618.85 246,-1624.85 246,-1630.85 246,-1630.85 246,-1642.85 246,-1642.85 246,-1648.85 240,-1654.85 234,-1654.85"/>
<text text-anchor="middle" x="194" y="-1633.15" font-family="Inter" font-size="14.00">app.analysis</text>
</g>
<!-- app.data -->
<g id="node5" class="node">
<title>app.data</title>
<path fill="#f8fafc" stroke="#94a3b8" d="M1060,-988.85C1060,-988.85 1006,-988.85 1006,-988.85 1000,-988.85 994,-982.85 994,-976.85 994,-976.85 994,-964.85 994,-964.85 994,-958.85 1000,-952.85 1006,-952.85 1006,-952.85 1060,-952.85 1060,-952.85 1066,-952.85 1072,-958.85 1072,-964.85 1072,-964.85 1072,-976.85 1072,-976.85 1072,-982.85 1066,-988.85 1060,-988.85"/>
<text text-anchor="middle" x="1033" y="-967.15" font-family="Inter" font-size="14.00">app.data</text>
</g>
<!-- app.analysis&#45;&gt;app.data -->
<g id="edge1" class="edge">
<title>app.analysis&#45;&gt;app.data</title>
<path fill="none" stroke="#0f766e" d="M235.78,-1618.71C285.45,-1596.9 372.12,-1559.76 448,-1531.85 511.98,-1508.32 528.43,-1503.48 594,-1484.85 630.55,-1474.47 898.08,-1428.63 926,-1402.85 987.06,-1346.47 1020.38,-1079.48 1029.44,-995.91"/>
<polygon fill="#0f766e" stroke="#0f766e" points="1031.89,-996.08 1030.19,-988.86 1027.01,-995.56 1031.89,-996.08"/>
<text text-anchor="middle" x="599" y="-1488.65" font-family="Times,serif" font-size="14.00">3</text>
</g>
<!-- app.logger -->
<g id="node8" class="node">
<title>app.logger</title>
<path fill="#f8fafc" stroke="#94a3b8" d="M1220,-1634.85C1220,-1634.85 1152,-1634.85 1152,-1634.85 1146,-1634.85 1140,-1628.85 1140,-1622.85 1140,-1622.85 1140,-1610.85 1140,-1610.85 1140,-1604.85 1146,-1598.85 1152,-1598.85 1152,-1598.85 1220,-1598.85 1220,-1598.85 1226,-1598.85 1232,-1604.85 1232,-1610.85 1232,-1610.85 1232,-1622.85 1232,-1622.85 1232,-1628.85 1226,-1634.85 1220,-1634.85"/>
<text text-anchor="middle" x="1186" y="-1613.15" font-family="Inter" font-size="14.00">app.logger</text>
</g>
<!-- app.analysis&#45;&gt;app.logger -->
<g id="edge2" class="edge">
<title>app.analysis&#45;&gt;app.logger</title>
<path fill="none" stroke="#0f766e" d="M246.17,-1653.44C252.17,-1655.3 258.21,-1657.14 264,-1658.85 480.05,-1722.62 539.23,-1738.85 764.5,-1738.85 764.5,-1738.85 764.5,-1738.85 1034,-1738.85 1095.81,-1738.85 1146.55,-1676.24 1170.37,-1640.73"/>
<polygon fill="#0f766e" stroke="#0f766e" points="1172.43,-1642.05 1174.22,-1634.85 1168.33,-1639.36 1172.43,-1642.05"/>
<text text-anchor="middle" x="680" y="-1741.65" font-family="Times,serif" font-size="14.00">1</text>
</g>
<!-- app.utils -->
<g id="node17" class="node">
<title>app.utils</title>
<path fill="#f8fafc" stroke="#94a3b8" d="M1212.5,-954.85C1212.5,-954.85 1159.5,-954.85 1159.5,-954.85 1153.5,-954.85 1147.5,-948.85 1147.5,-942.85 1147.5,-942.85 1147.5,-930.85 1147.5,-930.85 1147.5,-924.85 1153.5,-918.85 1159.5,-918.85 1159.5,-918.85 1212.5,-918.85 1212.5,-918.85 1218.5,-918.85 1224.5,-924.85 1224.5,-930.85 1224.5,-930.85 1224.5,-942.85 1224.5,-942.85 1224.5,-948.85 1218.5,-954.85 1212.5,-954.85"/>
<text text-anchor="middle" x="1186" y="-933.15" font-family="Inter" font-size="14.00">app.utils</text>
</g>
<!-- app.analysis&#45;&gt;app.utils -->
<g id="edge3" class="edge">
<title>app.analysis&#45;&gt;app.utils</title>
<path fill="none" stroke="#0f766e" d="M246.03,-1636.62C415.71,-1634.92 957.93,-1621.54 1094,-1520.85 1185.33,-1453.26 1186.75,-1065.58 1185.47,-962.19"/>
<polygon fill="#0f766e" stroke="#0f766e" points="1187.91,-961.93 1185.37,-954.97 1183.01,-962 1187.91,-961.93"/>
<text text-anchor="middle" x="680" y="-1624.65" font-family="Times,serif" font-size="14.00">1</text>
</g>
<!-- app.backtesting -->
<g id="node3" class="node">
<title>app.backtesting</title>
<path fill="#f8fafc" stroke="#94a3b8" d="M564,-371.85C564,-371.85 460,-371.85 460,-371.85 454,-371.85 448,-365.85 448,-359.85 448,-359.85 448,-347.85 448,-347.85 448,-341.85 454,-335.85 460,-335.85 460,-335.85 564,-335.85 564,-335.85 570,-335.85 576,-341.85 576,-347.85 576,-347.85 576,-359.85 576,-359.85 576,-365.85 570,-371.85 564,-371.85"/>
<text text-anchor="middle" x="512" y="-350.15" font-family="Inter" font-size="14.00">app.backtesting</text>
</g>
<!-- app.config -->
<g id="node4" class="node">
<title>app.config</title>
<path fill="#f8fafc" stroke="#94a3b8" d="M1066,-439.85C1066,-439.85 1000,-439.85 1000,-439.85 994,-439.85 988,-433.85 988,-427.85 988,-427.85 988,-415.85 988,-415.85 988,-409.85 994,-403.85 1000,-403.85 1000,-403.85 1066,-403.85 1066,-403.85 1072,-403.85 1078,-409.85 1078,-415.85 1078,-415.85 1078,-427.85 1078,-427.85 1078,-433.85 1072,-439.85 1066,-439.85"/>
<text text-anchor="middle" x="1033" y="-418.15" font-family="Inter" font-size="14.00">app.config</text>
</g>
<!-- app.backtesting&#45;&gt;app.config -->
<g id="edge4" class="edge">
<title>app.backtesting&#45;&gt;app.config</title>
<path fill="none" stroke="#0f766e" d="M549.07,-335.75C557.9,-331.25 567.31,-326.42 576,-321.85 596.6,-311.03 599.45,-302.58 622,-296.85 753.39,-263.45 803.59,-263.59 926,-321.85 962.64,-339.29 994.98,-374.14 1014.03,-397.73"/>
<polygon fill="#0f766e" stroke="#0f766e" points="1012.31,-399.5 1018.57,-403.47 1016.15,-396.46 1012.31,-399.5"/>
<text text-anchor="middle" x="765.5" y="-278.65" font-family="Times,serif" font-size="14.00">1</text>
</g>
<!-- app.backtesting&#45;&gt;app.data -->
<g id="edge5" class="edge">
<title>app.backtesting&#45;&gt;app.data</title>
<path fill="none" stroke="#0f766e" d="M571.03,-371.95C572.81,-373.46 574.48,-375.09 576,-376.85 602.06,-407.09 567.79,-434.74 594,-464.85 638.57,-516.07 683.89,-474.84 738,-515.85 771.81,-541.47 764.46,-562.47 793,-593.85 845.39,-651.44 879.31,-645.55 926,-707.85 935.07,-719.95 950.08,-755.25 954,-769.85 964.32,-808.25 947.85,-916.27 972,-947.85 976.03,-953.12 981.43,-957.19 987.34,-960.32"/>
<polygon fill="#0f766e" stroke="#0f766e" points="986.53,-962.64 993.91,-963.36 988.59,-958.2 986.53,-962.64"/>
<text text-anchor="middle" x="765.5" y="-571.65" font-family="Times,serif" font-size="14.00">5</text>
</g>
<!-- app.exchanges -->
<g id="node6" class="node">
<title>app.exchanges</title>
<path fill="#f8fafc" stroke="#94a3b8" d="M1082,-1372.85C1082,-1372.85 984,-1372.85 984,-1372.85 978,-1372.85 972,-1366.85 972,-1360.85 972,-1360.85 972,-1348.85 972,-1348.85 972,-1342.85 978,-1336.85 984,-1336.85 984,-1336.85 1082,-1336.85 1082,-1336.85 1088,-1336.85 1094,-1342.85 1094,-1348.85 1094,-1348.85 1094,-1360.85 1094,-1360.85 1094,-1366.85 1088,-1372.85 1082,-1372.85"/>
<text text-anchor="middle" x="1033" y="-1351.15" font-family="Inter" font-size="14.00">app.exchanges</text>
</g>
<!-- app.backtesting&#45;&gt;app.exchanges -->
<g id="edge6" class="edge">
<title>app.backtesting&#45;&gt;app.exchanges</title>
<path fill="none" stroke="#0f766e" d="M571.61,-371.93C573.21,-373.44 574.68,-375.08 576,-376.85 596.33,-404.17 591.82,-648.86 594,-682.85 596.87,-727.64 595.32,-1049.75 622,-1085.85 632.75,-1100.4 913.81,-1189.47 926,-1202.85 945.9,-1224.7 929.07,-1241.35 944,-1266.85 958.94,-1292.36 983.05,-1315.75 1002.26,-1331.99"/>
<polygon fill="#0f766e" stroke="#0f766e" points="1001.1,-1334.21 1008.05,-1336.79 1004.23,-1330.43 1001.1,-1334.21"/>
<text text-anchor="middle" x="765.5" y="-1147.65" font-family="Times,serif" font-size="14.00">1</text>
</g>
<!-- app.jobs -->
<g id="node7" class="node">
<title>app.jobs</title>
<path fill="#f8fafc" stroke="#94a3b8" d="M706,-341.85C706,-341.85 654,-341.85 654,-341.85 648,-341.85 642,-335.85 642,-329.85 642,-329.85 642,-317.85 642,-317.85 642,-311.85 648,-305.85 654,-305.85 654,-305.85 706,-305.85 706,-305.85 712,-305.85 718,-311.85 718,-317.85 718,-317.85 718,-329.85 718,-329.85 718,-335.85 712,-341.85 706,-341.85"/>
<text text-anchor="middle" x="680" y="-320.15" font-family="Inter" font-size="14.00">app.jobs</text>
</g>
<!-- app.backtesting&#45;&gt;app.jobs -->
<g id="edge7" class="edge">
<title>app.backtesting&#45;&gt;app.jobs</title>
<path fill="none" stroke="#0f766e" d="M576.2,-343.72C585.53,-342.14 595.02,-340.49 604,-338.85 613.98,-337.03 624.68,-334.96 634.78,-332.95"/>
<polygon fill="#0f766e" stroke="#0f766e" points="635.28,-335.35 641.66,-331.58 634.32,-330.55 635.28,-335.35"/>
<text text-anchor="middle" x="599" y="-344.65" font-family="Times,serif" font-size="14.00">1</text>
</g>
<!-- app.market -->
<g id="node10" class="node">
<title>app.market</title>
<path fill="#f8fafc" stroke="#94a3b8" d="M895.5,-962.85C895.5,-962.85 823.5,-962.85 823.5,-962.85 817.5,-962.85 811.5,-956.85 811.5,-950.85 811.5,-950.85 811.5,-938.85 811.5,-938.85 811.5,-932.85 817.5,-926.85 823.5,-926.85 823.5,-926.85 895.5,-926.85 895.5,-926.85 901.5,-926.85 907.5,-932.85 907.5,-938.85 907.5,-938.85 907.5,-950.85 907.5,-950.85 907.5,-956.85 901.5,-962.85 895.5,-962.85"/>
<text text-anchor="middle" x="859.5" y="-941.15" font-family="Inter" font-size="14.00">app.market</text>
</g>
<!-- app.backtesting&#45;&gt;app.market -->
<g id="edge8" class="edge">
<title>app.backtesting&#45;&gt;app.market</title>
<path fill="none" stroke="#0f766e" d="M571.6,-371.93C573.2,-373.44 574.68,-375.08 576,-376.85 613.87,-427.5 566.28,-604.01 594,-660.85 631.53,-737.82 679.57,-726.25 738,-788.85 778.72,-832.48 819.87,-889.05 841.98,-920.69"/>
<polygon fill="#0f766e" stroke="#0f766e" points="840.13,-922.33 846.14,-926.68 844.16,-919.53 840.13,-922.33"/>
<text text-anchor="middle" x="680" y="-792.65" font-family="Times,serif" font-size="14.00">1</text>
</g>
<!-- app.strategies -->
<g id="node15" class="node">
<title>app.strategies</title>
<path fill="#f8fafc" stroke="#94a3b8" d="M726,-560.85C726,-560.85 634,-560.85 634,-560.85 628,-560.85 622,-554.85 622,-548.85 622,-548.85 622,-536.85 622,-536.85 622,-530.85 628,-524.85 634,-524.85 634,-524.85 726,-524.85 726,-524.85 732,-524.85 738,-530.85 738,-536.85 738,-536.85 738,-548.85 738,-548.85 738,-554.85 732,-560.85 726,-560.85"/>
<text text-anchor="middle" x="680" y="-539.15" font-family="Inter" font-size="14.00">app.strategies</text>
</g>
<!-- app.backtesting&#45;&gt;app.strategies -->
<g id="edge9" class="edge">
<title>app.backtesting&#45;&gt;app.strategies</title>
<path fill="none" stroke="#0f766e" d="M561.11,-372.02C566.8,-375.85 571.99,-380.42 576,-385.85 603.87,-423.59 569.51,-449.84 594,-489.85 601.96,-502.85 614.43,-513.16 627.4,-521.1"/>
<polygon fill="#0f766e" stroke="#0f766e" points="626.5,-523.41 633.78,-524.81 628.96,-519.18 626.5,-523.41"/>
<text text-anchor="middle" x="599" y="-505.65" font-family="Times,serif" font-size="14.00">1</text>
</g>
<!-- app.backtesting&#45;&gt;app.utils -->
<g id="edge10" class="edge">
<title>app.backtesting&#45;&gt;app.utils</title>
<path fill="none" stroke="#0f766e" d="M559.32,-335.81C565.21,-332.59 570.94,-328.94 576,-324.85 586.37,-316.47 585.35,-311 594,-300.85 605.62,-287.21 605.53,-278.91 622,-271.85 815.66,-188.78 939.78,-173.24 1094,-316.85 1182.44,-399.21 1185.91,-805.57 1185.29,-911.54"/>
<polygon fill="#0f766e" stroke="#0f766e" points="1182.84,-911.63 1185.23,-918.64 1187.74,-911.66 1182.84,-911.63"/>
<text text-anchor="middle" x="859.5" y="-220.65" font-family="Times,serif" font-size="14.00">2</text>
</g>
<!-- app.data&#45;&gt;app.utils -->
<g id="edge11" class="edge">
<title>app.data&#45;&gt;app.utils</title>
<path fill="none" stroke="#0f766e" d="M1072.1,-962.27C1092.92,-957.58 1118.8,-951.76 1140.53,-946.86"/>
<polygon fill="#0f766e" stroke="#0f766e" points="1141.14,-949.24 1147.43,-945.31 1140.06,-944.46 1141.14,-949.24"/>
<text text-anchor="middle" x="1117" y="-955.65" font-family="Times,serif" font-size="14.00">2</text>
</g>
<!-- app.exchanges&#45;&gt;app.logger -->
<g id="edge12" class="edge">
<title>app.exchanges&#45;&gt;app.logger</title>
<path fill="none" stroke="#0f766e" d="M1056.2,-1373.03C1075.81,-1390.08 1104,-1417.19 1122,-1445.85 1151.85,-1493.38 1170.58,-1557.14 1179.27,-1591.82"/>
<polygon fill="#0f766e" stroke="#0f766e" points="1176.93,-1592.55 1180.97,-1598.76 1181.68,-1591.38 1176.93,-1592.55"/>
<text text-anchor="middle" x="1117" y="-1449.65" font-family="Times,serif" font-size="14.00">1</text>
</g>
<!-- app.exchanges&#45;&gt;app.utils -->
<g id="edge13" class="edge">
<title>app.exchanges&#45;&gt;app.utils</title>
<path fill="none" stroke="#0f766e" d="M1069.71,-1336.66C1088.2,-1325.39 1109.48,-1309.17 1122,-1288.85 1156.09,-1233.52 1176.56,-1033.25 1182.88,-962.12"/>
<polygon fill="#0f766e" stroke="#0f766e" points="1185.35,-962.06 1183.52,-954.88 1180.47,-961.64 1185.35,-962.06"/>
<text text-anchor="middle" x="1117" y="-1303.65" font-family="Times,serif" font-size="14.00">2</text>
</g>
<!-- app.jobs&#45;&gt;app.backtesting -->
<g id="edge14" class="edge">
<title>app.jobs&#45;&gt;app.backtesting</title>
<path fill="none" stroke="#0f766e" d="M641.88,-318.19C626.89,-316.92 609.5,-316.73 594,-319.85 580.5,-322.57 566.46,-327.6 553.92,-332.97"/>
<polygon fill="#0f766e" stroke="#0f766e" points="552.93,-330.73 547.52,-335.8 554.91,-335.21 552.93,-330.73"/>
<text text-anchor="middle" x="599" y="-323.65" font-family="Times,serif" font-size="14.00">2</text>
</g>
<!-- app.jobs&#45;&gt;app.config -->
<g id="edge15" class="edge">
<title>app.jobs&#45;&gt;app.config</title>
<path fill="none" stroke="#0f766e" d="M718.4,-322.82C767.22,-322.48 854.83,-325.4 926,-346.85 958.16,-356.54 988.79,-380.36 1008.78,-398.57"/>
<polygon fill="#0f766e" stroke="#0f766e" points="1007.33,-400.57 1014.13,-403.55 1010.67,-396.99 1007.33,-400.57"/>
<text text-anchor="middle" x="859.5" y="-350.65" font-family="Times,serif" font-size="14.00">1</text>
</g>
<!-- app.jobs&#45;&gt;app.data -->
<g id="edge16" class="edge">
<title>app.jobs&#45;&gt;app.data</title>
<path fill="none" stroke="#0f766e" d="M705.2,-342C715.81,-350.5 728.08,-361.11 738,-371.85 766.53,-402.75 763.34,-419.04 793,-448.85 844.42,-500.53 889.22,-481.91 926,-544.85 944.05,-575.74 937.65,-669.64 944,-704.85 947.25,-722.88 950.96,-726.78 954,-744.85 961.51,-789.51 944.72,-911.7 972,-947.85 976,-953.15 981.38,-957.22 987.28,-960.36"/>
<polygon fill="#0f766e" stroke="#0f766e" points="986.47,-962.69 993.85,-963.41 988.53,-958.24 986.47,-962.69"/>
<text text-anchor="middle" x="859.5" y="-548.65" font-family="Times,serif" font-size="14.00">4</text>
</g>
<!-- app.optimization -->
<g id="node11" class="node">
<title>app.optimization</title>
<path fill="#f8fafc" stroke="#94a3b8" d="M914,-439.85C914,-439.85 805,-439.85 805,-439.85 799,-439.85 793,-433.85 793,-427.85 793,-427.85 793,-415.85 793,-415.85 793,-409.85 799,-403.85 805,-403.85 805,-403.85 914,-403.85 914,-403.85 920,-403.85 926,-409.85 926,-415.85 926,-415.85 926,-427.85 926,-427.85 926,-433.85 920,-439.85 914,-439.85"/>
<text text-anchor="middle" x="859.5" y="-418.15" font-family="Inter" font-size="14.00">app.optimization</text>
</g>
<!-- app.jobs&#45;&gt;app.optimization -->
<g id="edge17" class="edge">
<title>app.jobs&#45;&gt;app.optimization</title>
<path fill="none" stroke="#0f766e" d="M713.97,-342.05C743.86,-358.56 787.94,-382.9 819.56,-400.35"/>
<polygon fill="#0f766e" stroke="#0f766e" points="818.39,-402.51 825.71,-403.74 820.76,-398.22 818.39,-402.51"/>
<text text-anchor="middle" x="765.5" y="-376.65" font-family="Times,serif" font-size="14.00">1</text>
</g>
<!-- app.jobs&#45;&gt;app.utils -->
<g id="edge18" class="edge">
<title>app.jobs&#45;&gt;app.utils</title>
<path fill="none" stroke="#0f766e" d="M718.15,-316.21C801.7,-301.47 1004.15,-279.94 1094,-394.85 1158.38,-477.18 1179.21,-815.5 1183.88,-911.4"/>
<polygon fill="#0f766e" stroke="#0f766e" points="1181.45,-911.78 1184.23,-918.65 1186.34,-911.54 1181.45,-911.78"/>
<text text-anchor="middle" x="949" y="-318.65" font-family="Times,serif" font-size="14.00">1</text>
</g>
<!-- app.main -->
<g id="node9" class="node">
<title>app.main</title>
<path fill="#f8fafc" stroke="#94a3b8" d="M77,-1467.85C77,-1467.85 19,-1467.85 19,-1467.85 13,-1467.85 7,-1461.85 7,-1455.85 7,-1455.85 7,-1443.85 7,-1443.85 7,-1437.85 13,-1431.85 19,-1431.85 19,-1431.85 77,-1431.85 77,-1431.85 83,-1431.85 89,-1437.85 89,-1443.85 89,-1443.85 89,-1455.85 89,-1455.85 89,-1461.85 83,-1467.85 77,-1467.85"/>
<text text-anchor="middle" x="48" y="-1446.15" font-family="Inter" font-size="14.00">app.main</text>
</g>
<!-- app.main&#45;&gt;app.analysis -->
<g id="edge19" class="edge">
<title>app.main&#45;&gt;app.analysis</title>
<path fill="none" stroke="#0f766e" d="M54.41,-1468.07C63.29,-1495.59 83.12,-1548.34 114,-1583.85 124.53,-1595.96 138.44,-1606.5 151.65,-1614.93"/>
<polygon fill="#0f766e" stroke="#0f766e" points="150.41,-1617.05 157.65,-1618.66 152.99,-1612.89 150.41,-1617.05"/>
<text text-anchor="middle" x="119" y="-1596.65" font-family="Times,serif" font-size="14.00">1</text>
</g>
<!-- app.main&#45;&gt;app.config -->
<g id="edge20" class="edge">
<title>app.main&#45;&gt;app.config</title>
<path fill="none" stroke="#0f766e" d="M49.33,-1431.83C51.36,-1341.2 64.67,-935.93 142,-842.85 228.41,-738.84 298.67,-772.07 402,-684.85 425.84,-664.73 424.59,-652.46 448,-631.85 517.75,-570.43 533.55,-544.39 622,-515.85 750.67,-474.34 799.01,-551.24 926,-504.85 959.66,-492.56 991.01,-465.22 1010.76,-445.27"/>
<polygon fill="#0f766e" stroke="#0f766e" points="1012.65,-446.84 1015.77,-440.11 1009.13,-443.43 1012.65,-446.84"/>
<text text-anchor="middle" x="512" y="-635.65" font-family="Times,serif" font-size="14.00">1</text>
</g>
<!-- app.main&#45;&gt;app.data -->
<g id="edge21" class="edge">
<title>app.main&#45;&gt;app.data</title>
<path fill="none" stroke="#0f766e" d="M89.07,-1439.96C117.81,-1433.73 157.56,-1426.85 193,-1426.85 193,-1426.85 193,-1426.85 600,-1426.85 679.07,-1426.85 702.2,-1425.7 775,-1394.85 865.05,-1356.69 898.47,-1347.36 954,-1266.85 1013.8,-1180.16 1027.76,-1050.3 1031.01,-996.06"/>
<polygon fill="#0f766e" stroke="#0f766e" points="1033.47,-996.05 1031.4,-988.92 1028.57,-995.78 1033.47,-996.05"/>
<text text-anchor="middle" x="512" y="-1430.65" font-family="Times,serif" font-size="14.00">2</text>
</g>
<!-- app.main&#45;&gt;app.exchanges -->
<g id="edge22" class="edge">
<title>app.main&#45;&gt;app.exchanges</title>
<path fill="none" stroke="#0f766e" d="M85.6,-1467.86C170.67,-1507.64 388.78,-1597.55 576,-1572.85 615.92,-1567.58 893.02,-1501.96 926,-1478.85 943.77,-1466.4 944.58,-1458.4 954,-1438.85 966.27,-1413.38 952.82,-1398.61 972,-1377.85 972.1,-1377.74 972.21,-1377.63 972.31,-1377.51"/>
<polygon fill="#0f766e" stroke="#0f766e" points="973.91,-1379.38 977.43,-1372.85 970.6,-1375.76 973.91,-1379.38"/>
<text text-anchor="middle" x="512" y="-1580.65" font-family="Times,serif" font-size="14.00">2</text>
</g>
<!-- app.main&#45;&gt;app.logger -->
<g id="edge23" class="edge">
<title>app.main&#45;&gt;app.logger</title>
<path fill="none" stroke="#0f766e" d="M48.54,-1468.17C47.81,-1537.77 55.09,-1781.85 193,-1781.85 193,-1781.85 193,-1781.85 1034,-1781.85 1108.98,-1781.85 1156.75,-1687.98 1175.71,-1641.85"/>
<polygon fill="#0f766e" stroke="#0f766e" points="1178.07,-1642.55 1178.4,-1635.14 1173.52,-1640.72 1178.07,-1642.55"/>
<text text-anchor="middle" x="599" y="-1785.65" font-family="Times,serif" font-size="14.00">1</text>
</g>
<!-- app.main&#45;&gt;app.market -->
<g id="edge24" class="edge">
<title>app.main&#45;&gt;app.market</title>
<path fill="none" stroke="#0f766e" d="M50.21,-1431.83C55.6,-1356.83 80.03,-1070.43 142,-1009.85 235.27,-918.68 653.23,-933 804.03,-941.37"/>
<polygon fill="#0f766e" stroke="#0f766e" points="804.31,-943.84 811.43,-941.79 804.58,-938.95 804.31,-943.84"/>
<text text-anchor="middle" x="425" y="-943.65" font-family="Times,serif" font-size="14.00">3</text>
</g>
<!-- app.paper -->
<g id="node12" class="node">
<title>app.paper</title>
<path fill="#f8fafc" stroke="#94a3b8" d="M712,-1272.85C712,-1272.85 648,-1272.85 648,-1272.85 642,-1272.85 636,-1266.85 636,-1260.85 636,-1260.85 636,-1248.85 636,-1248.85 636,-1242.85 642,-1236.85 648,-1236.85 648,-1236.85 712,-1236.85 712,-1236.85 718,-1236.85 724,-1242.85 724,-1248.85 724,-1248.85 724,-1260.85 724,-1260.85 724,-1266.85 718,-1272.85 712,-1272.85"/>
<text text-anchor="middle" x="680" y="-1251.15" font-family="Inter" font-size="14.00">app.paper</text>
</g>
<!-- app.main&#45;&gt;app.paper -->
<g id="edge25" class="edge">
<title>app.main&#45;&gt;app.paper</title>
<path fill="none" stroke="#0f766e" d="M89,-1451.31C129.08,-1452 192.34,-1451.01 246,-1440.85 411.16,-1409.59 463.69,-1411.42 604,-1318.85 613.98,-1312.27 613.23,-1306.98 622,-1298.85 629.97,-1291.46 639.1,-1284.02 647.68,-1277.41"/>
<polygon fill="#0f766e" stroke="#0f766e" points="649.43,-1279.16 653.52,-1272.97 646.46,-1275.26 649.43,-1279.16"/>
<text text-anchor="middle" x="347" y="-1435.65" font-family="Times,serif" font-size="14.00">1</text>
</g>
<!-- app.signals -->
<g id="node14" class="node">
<title>app.signals</title>
<path fill="#f8fafc" stroke="#94a3b8" d="M230,-1054.85C230,-1054.85 158,-1054.85 158,-1054.85 152,-1054.85 146,-1048.85 146,-1042.85 146,-1042.85 146,-1030.85 146,-1030.85 146,-1024.85 152,-1018.85 158,-1018.85 158,-1018.85 230,-1018.85 230,-1018.85 236,-1018.85 242,-1024.85 242,-1030.85 242,-1030.85 242,-1042.85 242,-1042.85 242,-1048.85 236,-1054.85 230,-1054.85"/>
<text text-anchor="middle" x="194" y="-1033.15" font-family="Inter" font-size="14.00">app.signals</text>
</g>
<!-- app.main&#45;&gt;app.signals -->
<g id="edge26" class="edge">
<title>app.main&#45;&gt;app.signals</title>
<path fill="none" stroke="#0f766e" d="M49.14,-1431.55C50.42,-1373.68 61.04,-1191.44 142,-1072.85 145.38,-1067.9 149.68,-1063.4 154.35,-1059.4"/>
<polygon fill="#0f766e" stroke="#0f766e" points="156.02,-1061.21 159.97,-1054.93 152.96,-1057.37 156.02,-1061.21"/>
<text text-anchor="middle" x="119" y="-1121.65" font-family="Times,serif" font-size="14.00">2</text>
</g>
<!-- app.telegram -->
<g id="node16" class="node">
<title>app.telegram</title>
<path fill="#f8fafc" stroke="#94a3b8" d="M390,-1030.85C390,-1030.85 304,-1030.85 304,-1030.85 298,-1030.85 292,-1024.85 292,-1018.85 292,-1018.85 292,-1006.85 292,-1006.85 292,-1000.85 298,-994.85 304,-994.85 304,-994.85 390,-994.85 390,-994.85 396,-994.85 402,-1000.85 402,-1006.85 402,-1006.85 402,-1018.85 402,-1018.85 402,-1024.85 396,-1030.85 390,-1030.85"/>
<text text-anchor="middle" x="347" y="-1009.15" font-family="Inter" font-size="14.00">app.telegram</text>
</g>
<!-- app.main&#45;&gt;app.telegram -->
<g id="edge27" class="edge">
<title>app.main&#45;&gt;app.telegram</title>
<path fill="none" stroke="#0f766e" d="M61.38,-1431.63C108.37,-1362.5 275.66,-1116.34 329.31,-1037.4"/>
<polygon fill="#0f766e" stroke="#0f766e" points="331.66,-1038.32 333.56,-1031.15 327.6,-1035.56 331.66,-1038.32"/>
<text text-anchor="middle" x="194" y="-1313.65" font-family="Times,serif" font-size="14.00">1</text>
</g>
<!-- app.main&#45;&gt;app.utils -->
<g id="edge28" class="edge">
<title>app.main&#45;&gt;app.utils</title>
<path fill="none" stroke="#0f766e" d="M50.23,-1468.15C54.29,-1511.83 71.4,-1621.68 142,-1663.85 233.36,-1718.42 1010.64,-1625 1094,-1558.85 1114.26,-1542.78 1114.21,-1532.51 1122,-1507.85 1186.03,-1305.17 1187.11,-1044.21 1185.68,-962.48"/>
<polygon fill="#0f766e" stroke="#0f766e" points="1188.12,-962.09 1185.53,-955.14 1183.22,-962.18 1188.12,-962.09"/>
<text text-anchor="middle" x="599" y="-1662.65" font-family="Times,serif" font-size="14.00">3</text>
</g>
<!-- app.market&#45;&gt;app.config -->
<g id="edge29" class="edge">
<title>app.market&#45;&gt;app.config</title>
<path fill="none" stroke="#0f766e" d="M866.61,-926.76C878.25,-892.22 904.41,-814.45 926,-748.85 963.05,-636.28 1006.41,-501.59 1023.99,-446.83"/>
<polygon fill="#0f766e" stroke="#0f766e" points="1026.39,-447.36 1026.2,-439.95 1021.72,-445.86 1026.39,-447.36"/>
<text text-anchor="middle" x="949" y="-689.65" font-family="Times,serif" font-size="14.00">1</text>
</g>
<!-- app.market&#45;&gt;app.data -->
<g id="edge30" class="edge">
<title>app.market&#45;&gt;app.data</title>
<path fill="none" stroke="#0f766e" d="M907.82,-952.02C932.45,-955.76 962.42,-960.3 986.75,-963.99"/>
<polygon fill="#0f766e" stroke="#0f766e" points="986.49,-966.43 993.78,-965.06 987.22,-961.58 986.49,-966.43"/>
<text text-anchor="middle" x="949" y="-961.65" font-family="Times,serif" font-size="14.00">2</text>
</g>
<!-- app.market&#45;&gt;app.exchanges -->
<g id="edge31" class="edge">
<title>app.market&#45;&gt;app.exchanges</title>
<path fill="none" stroke="#0f766e" d="M898.92,-963.06C908.94,-969.38 918.9,-977.32 926,-986.85 1007.33,-1095.96 1026.37,-1265.84 1030.73,-1329.57"/>
<polygon fill="#0f766e" stroke="#0f766e" points="1028.3,-1329.97 1031.2,-1336.8 1033.19,-1329.66 1028.3,-1329.97"/>
<text text-anchor="middle" x="949" y="-1033.65" font-family="Times,serif" font-size="14.00">4</text>
</g>
<!-- app.market&#45;&gt;app.logger -->
<g id="edge32" class="edge">
<title>app.market&#45;&gt;app.logger</title>
<path fill="none" stroke="#0f766e" d="M901.71,-962.99C911.25,-969.17 920.27,-977.06 926,-986.85 960.52,-1045.83 931.54,-1226.66 944,-1293.85 951.48,-1334.21 951.12,-1346.52 972,-1381.85 1021.26,-1465.21 1057.97,-1467.22 1122,-1539.85 1137.33,-1557.24 1153.9,-1577.55 1166.19,-1592.95"/>
<polygon fill="#0f766e" stroke="#0f766e" points="1164.58,-1594.85 1170.85,-1598.8 1168.41,-1591.8 1164.58,-1594.85"/>
<text text-anchor="middle" x="1033" y="-1513.65" font-family="Times,serif" font-size="14.00">2</text>
</g>
<!-- app.market&#45;&gt;app.utils -->
<g id="edge33" class="edge">
<title>app.market&#45;&gt;app.utils</title>
<path fill="none" stroke="#0f766e" d="M907.54,-936.58C927.37,-933.49 950.74,-930.37 972,-928.85 1026.08,-924.99 1039.83,-926.47 1094,-928.85 1109.11,-929.51 1125.6,-930.79 1140.34,-932.14"/>
<polygon fill="#0f766e" stroke="#0f766e" points="1140.22,-934.59 1147.42,-932.8 1140.67,-929.71 1140.22,-934.59"/>
<text text-anchor="middle" x="1033" y="-932.65" font-family="Times,serif" font-size="14.00">3</text>
</g>
<!-- app.optimization&#45;&gt;app.backtesting -->
<g id="edge34" class="edge">
<title>app.optimization&#45;&gt;app.backtesting</title>
<path fill="none" stroke="#0f766e" d="M792.89,-408.94C732.99,-397.15 644.68,-379.77 583.34,-367.69"/>
<polygon fill="#0f766e" stroke="#0f766e" points="583.71,-365.27 576.37,-366.32 582.77,-370.08 583.71,-365.27"/>
<text text-anchor="middle" x="680" y="-402.65" font-family="Times,serif" font-size="14.00">4</text>
</g>
<!-- app.optimization&#45;&gt;app.config -->
<g id="edge35" class="edge">
<title>app.optimization&#45;&gt;app.config</title>
<path fill="none" stroke="#0f766e" d="M926.32,-421.85C944.33,-421.85 963.6,-421.85 980.67,-421.85"/>
<polygon fill="#0f766e" stroke="#0f766e" points="980.85,-424.3 987.85,-421.85 980.85,-419.4 980.85,-424.3"/>
<text text-anchor="middle" x="949" y="-425.65" font-family="Times,serif" font-size="14.00">1</text>
</g>
<!-- app.optimization&#45;&gt;app.data -->
<g id="edge36" class="edge">
<title>app.optimization&#45;&gt;app.data</title>
<path fill="none" stroke="#0f766e" d="M910.97,-439.86C916.74,-443.71 921.98,-448.33 926,-453.85 977.55,-524.62 945.06,-561.75 954,-648.85 957.3,-680.97 954.54,-911.7 972,-938.85 975.93,-944.96 981.43,-949.98 987.52,-954.08"/>
<polygon fill="#0f766e" stroke="#0f766e" points="986.53,-956.34 993.78,-957.88 989.07,-952.15 986.53,-956.34"/>
<text text-anchor="middle" x="949" y="-652.65" font-family="Times,serif" font-size="14.00">2</text>
</g>
<!-- app.paper&#45;&gt;app.config -->
<g id="edge37" class="edge">
<title>app.paper&#45;&gt;app.config</title>
<path fill="none" stroke="#0f766e" d="M685.33,-1236.8C693.92,-1204.23 715.84,-1134.95 756,-1090.85 824.37,-1015.77 897.17,-1061 954,-976.85 984.12,-932.26 1020.43,-550.31 1029.74,-447.34"/>
<polygon fill="#0f766e" stroke="#0f766e" points="1032.2,-447.33 1030.39,-440.14 1027.32,-446.89 1032.2,-447.33"/>
<text text-anchor="middle" x="859.5" y="-1062.65" font-family="Times,serif" font-size="14.00">4</text>
</g>
<!-- app.paper&#45;&gt;app.data -->
<g id="edge38" class="edge">
<title>app.paper&#45;&gt;app.data</title>
<path fill="none" stroke="#0f766e" d="M724.17,-1250.08C792.72,-1241.64 922.02,-1221.86 954,-1189.85 1008.31,-1135.49 1024.98,-1040.85 1029.96,-995.91"/>
<polygon fill="#0f766e" stroke="#0f766e" points="1032.4,-996.1 1030.69,-988.89 1027.53,-995.6 1032.4,-996.1"/>
<text text-anchor="middle" x="859.5" y="-1242.65" font-family="Times,serif" font-size="14.00">6</text>
</g>
<!-- app.paper&#45;&gt;app.logger -->
<g id="edge39" class="edge">
<title>app.paper&#45;&gt;app.logger</title>
<path fill="none" stroke="#0f766e" d="M701.3,-1272.95C720.42,-1290.06 749.82,-1316.52 775,-1339.85 863.55,-1421.9 870.99,-1460.74 972,-1526.85 1022.96,-1560.21 1088.32,-1585.64 1133.13,-1600.82"/>
<polygon fill="#0f766e" stroke="#0f766e" points="1132.44,-1603.17 1139.86,-1603.08 1134,-1598.53 1132.44,-1603.17"/>
<text text-anchor="middle" x="949" y="-1516.65" font-family="Times,serif" font-size="14.00">2</text>
</g>
<!-- app.paper&#45;&gt;app.utils -->
<g id="edge40" class="edge">
<title>app.paper&#45;&gt;app.utils</title>
<path fill="none" stroke="#0f766e" d="M724.18,-1266.4C775.14,-1277.62 861.14,-1288.86 926,-1257.85 1059.08,-1194.23 1145.69,-1025.15 1174.45,-961.53"/>
<polygon fill="#0f766e" stroke="#0f766e" points="1176.74,-962.39 1177.36,-955 1172.27,-960.4 1176.74,-962.39"/>
<text text-anchor="middle" x="949" y="-1251.65" font-family="Times,serif" font-size="14.00">3</text>
</g>
<!-- app.services -->
<g id="node13" class="node">
<title>app.services</title>
<path fill="#f8fafc" stroke="#94a3b8" d="M552,-776.85C552,-776.85 472,-776.85 472,-776.85 466,-776.85 460,-770.85 460,-764.85 460,-764.85 460,-752.85 460,-752.85 460,-746.85 466,-740.85 472,-740.85 472,-740.85 552,-740.85 552,-740.85 558,-740.85 564,-746.85 564,-752.85 564,-752.85 564,-764.85 564,-764.85 564,-770.85 558,-776.85 552,-776.85"/>
<text text-anchor="middle" x="512" y="-755.15" font-family="Inter" font-size="14.00">app.services</text>
</g>
<!-- app.services&#45;&gt;app.config -->
<g id="edge41" class="edge">
<title>app.services&#45;&gt;app.config</title>
<path fill="none" stroke="#0f766e" d="M554.52,-740.83C574.69,-732.4 599.4,-722.55 622,-714.85 694.52,-690.14 897.22,-673.29 954,-621.85 1005.72,-575 1023.51,-489.68 1029.34,-447.23"/>
<polygon fill="#0f766e" stroke="#0f766e" points="1031.79,-447.33 1030.26,-440.07 1026.94,-446.7 1031.79,-447.33"/>
<text text-anchor="middle" x="765.5" y="-688.65" font-family="Times,serif" font-size="14.00">3</text>
</g>
<!-- app.services&#45;&gt;app.data -->
<g id="edge42" class="edge">
<title>app.services&#45;&gt;app.data</title>
<path fill="none" stroke="#0f766e" d="M530.52,-776.94C550.72,-796.7 585.8,-827.8 622,-844.85 684.93,-874.49 707.36,-861.61 775,-877.85 842.51,-894.06 862.56,-889.64 926,-917.85 948.3,-927.77 950.26,-936.75 972,-947.85 976.82,-950.31 981.97,-952.67 987.15,-954.87"/>
<polygon fill="#0f766e" stroke="#0f766e" points="986.3,-957.16 993.7,-957.56 988.16,-952.63 986.3,-957.16"/>
<text text-anchor="middle" x="765.5" y="-881.65" font-family="Times,serif" font-size="14.00">15</text>
</g>
<!-- app.services&#45;&gt;app.paper -->
<g id="edge43" class="edge">
<title>app.services&#45;&gt;app.paper</title>
<path fill="none" stroke="#0f766e" d="M522.1,-776.97C535.73,-804.86 561.42,-860.25 576,-909.85 588.86,-953.6 584.51,-966.25 594,-1010.85 599.38,-1036.15 613.7,-1099.35 622,-1123.85 634.86,-1161.8 654.19,-1204.03 666.7,-1230.02"/>
<polygon fill="#0f766e" stroke="#0f766e" points="664.63,-1231.35 669.88,-1236.58 669.03,-1229.21 664.63,-1231.35"/>
<text text-anchor="middle" x="599" y="-1057.65" font-family="Times,serif" font-size="14.00">2</text>
</g>
<!-- app.services&#45;&gt;app.strategies -->
<g id="edge44" class="edge">
<title>app.services&#45;&gt;app.strategies</title>
<path fill="none" stroke="#0f766e" d="M532.62,-740.72C546.17,-727.38 563.88,-708.27 576,-688.85 590.47,-665.68 603.96,-595.36 622,-574.85 625.12,-571.3 628.74,-568.06 632.6,-565.12"/>
<polygon fill="#0f766e" stroke="#0f766e" points="634.1,-567.06 638.42,-561.03 631.28,-563.05 634.1,-567.06"/>
<text text-anchor="middle" x="599" y="-645.65" font-family="Times,serif" font-size="14.00">1</text>
</g>
<!-- app.services&#45;&gt;app.utils -->
<g id="edge45" class="edge">
<title>app.services&#45;&gt;app.utils</title>
<path fill="none" stroke="#0f766e" d="M564.05,-748.56C661.45,-729.12 870.65,-688.35 944,-681.85 948.43,-681.46 949.94,-680.05 954,-681.85 1063.15,-730.25 1142.67,-858.52 1172.3,-912.43"/>
<polygon fill="#0f766e" stroke="#0f766e" points="1170.17,-913.65 1175.66,-918.63 1174.47,-911.31 1170.17,-913.65"/>
<text text-anchor="middle" x="859.5" y="-707.65" font-family="Times,serif" font-size="14.00">3</text>
</g>
<!-- app.signals&#45;&gt;app.config -->
<g id="edge46" class="edge">
<title>app.signals&#45;&gt;app.config</title>
<path fill="none" stroke="#0f766e" d="M207.11,-1018.77C218.57,-1000.91 235.55,-972.49 246,-945.85 265.37,-896.48 262.74,-881.68 274,-829.85 282.94,-788.71 270.12,-772.82 292,-736.85 324.39,-683.59 364.33,-699.51 402,-649.85 414.52,-633.35 408.03,-623.76 420,-606.85 474.01,-530.58 517.71,-538.9 576,-465.85 602.07,-433.19 585.94,-404.97 622,-383.85 680.33,-349.69 859.28,-384.01 926,-394.85 944.12,-397.79 963.67,-402.37 980.99,-406.91"/>
<polygon fill="#0f766e" stroke="#0f766e" points="980.36,-409.28 987.76,-408.72 981.62,-404.55 980.36,-409.28"/>
<text text-anchor="middle" x="599" y="-429.65" font-family="Times,serif" font-size="14.00">4</text>
</g>
<!-- app.signals&#45;&gt;app.data -->
<g id="edge47" class="edge">
<title>app.signals&#45;&gt;app.data</title>
<path fill="none" stroke="#0f766e" d="M242.12,-1041.85C249.44,-1042.56 256.92,-1043.25 264,-1043.85 333.24,-1049.69 514.35,-1032.79 576,-1064.85 604.88,-1079.87 593.29,-1106.51 622,-1121.85 682.17,-1153.98 708.47,-1148.9 775,-1133.85 862.24,-1114.12 884.41,-1098.05 954,-1041.85 972.78,-1026.69 992.9,-1008.31 1008,-994.06"/>
<polygon fill="#0f766e" stroke="#0f766e" points="1009.93,-995.6 1013.32,-989.01 1006.56,-992.05 1009.93,-995.6"/>
<text text-anchor="middle" x="599" y="-1107.65" font-family="Times,serif" font-size="14.00">4</text>
</g>
<!-- app.signals&#45;&gt;app.exchanges -->
<g id="edge48" class="edge">
<title>app.signals&#45;&gt;app.exchanges</title>
<path fill="none" stroke="#0f766e" d="M202.46,-1054.91C215.79,-1084.89 246.64,-1144.69 292,-1175.85 505.67,-1322.62 826.25,-1349.57 964.54,-1354.14"/>
<polygon fill="#0f766e" stroke="#0f766e" points="964.72,-1356.6 971.79,-1354.37 964.87,-1351.7 964.72,-1356.6"/>
<text text-anchor="middle" x="599" y="-1309.65" font-family="Times,serif" font-size="14.00">1</text>
</g>
<!-- app.signals&#45;&gt;app.logger -->
<g id="edge49" class="edge">
<title>app.signals&#45;&gt;app.logger</title>
<path fill="none" stroke="#0f766e" d="M204.19,-1055.02C217.25,-1080.72 242.02,-1129.1 264,-1169.85 276.09,-1192.27 276.25,-1199.84 292,-1219.85 333.24,-1272.24 364.95,-1266.42 402,-1321.85 434.66,-1370.72 406.91,-1403.81 448,-1445.85 506.12,-1505.32 789.84,-1582.3 972,-1617.85 1037.68,-1630.67 1055.48,-1638.15 1122,-1630.85 1125.53,-1630.46 1129.15,-1629.96 1132.79,-1629.37"/>
<polygon fill="#0f766e" stroke="#0f766e" points="1133.3,-1631.76 1139.77,-1628.14 1132.46,-1626.94 1133.3,-1631.76"/>
<text text-anchor="middle" x="680" y="-1565.65" font-family="Times,serif" font-size="14.00">2</text>
</g>
<!-- app.signals&#45;&gt;app.market -->
<g id="edge50" class="edge">
<title>app.signals&#45;&gt;app.market</title>
<path fill="none" stroke="#0f766e" d="M222.17,-1018.76C240.95,-1007.24 266.98,-993.14 292,-985.85 358.79,-966.38 378.56,-977.23 448,-972.85 593.18,-963.7 630.33,-974.02 775,-958.85 784.53,-957.85 794.62,-956.45 804.36,-954.93"/>
<polygon fill="#0f766e" stroke="#0f766e" points="804.87,-957.33 811.39,-953.79 804.09,-952.49 804.87,-957.33"/>
<text text-anchor="middle" x="512" y="-976.65" font-family="Times,serif" font-size="14.00">3</text>
</g>
<!-- app.signals&#45;&gt;app.paper -->
<g id="edge51" class="edge">
<title>app.signals&#45;&gt;app.paper</title>
<path fill="none" stroke="#0f766e" d="M204.28,-1054.94C215.71,-1075.57 236.98,-1108.98 264,-1128.85 316.43,-1167.42 343,-1150.37 402,-1177.85 423.49,-1187.86 425.92,-1196.23 448,-1204.85 507.81,-1228.19 580.8,-1241.67 628.52,-1248.64"/>
<polygon fill="#0f766e" stroke="#0f766e" points="628.39,-1251.09 635.66,-1249.66 629.08,-1246.24 628.39,-1251.09"/>
<text text-anchor="middle" x="425" y="-1198.65" font-family="Times,serif" font-size="14.00">1</text>
</g>
<!-- app.signals&#45;&gt;app.strategies -->
<g id="edge52" class="edge">
<title>app.signals&#45;&gt;app.strategies</title>
<path fill="none" stroke="#0f766e" d="M213.96,-1018.63C224.66,-1007.44 237.54,-992.33 246,-976.85 259.15,-952.8 250.92,-941.94 264,-917.85 294.33,-861.99 396.1,-735.55 448,-698.85 497.61,-663.78 531.87,-692.62 576,-650.85 590.45,-637.17 583.7,-626.88 594,-609.85 604.31,-592.81 606.81,-587.74 622,-574.85 626.2,-571.29 630.85,-567.93 635.64,-564.82"/>
<polygon fill="#0f766e" stroke="#0f766e" points="637.1,-566.8 641.75,-561.02 634.51,-562.63 637.1,-566.8"/>
<text text-anchor="middle" x="425" y="-724.65" font-family="Times,serif" font-size="14.00">1</text>
</g>
<!-- app.signals&#45;&gt;app.telegram -->
<g id="edge53" class="edge">
<title>app.signals&#45;&gt;app.telegram</title>
<path fill="none" stroke="#0f766e" d="M232.15,-1018.73C242.25,-1014.66 253.34,-1010.93 264,-1008.85 270.71,-1007.54 277.79,-1006.86 284.87,-1006.62"/>
<polygon fill="#0f766e" stroke="#0f766e" points="284.96,-1009.07 291.92,-1006.53 284.89,-1004.17 284.96,-1009.07"/>
<text text-anchor="middle" x="269" y="-1012.65" font-family="Times,serif" font-size="14.00">1</text>
</g>
<!-- app.signals&#45;&gt;app.utils -->
<g id="edge54" class="edge">
<title>app.signals&#45;&gt;app.utils</title>
<path fill="none" stroke="#0f766e" d="M208.36,-1018.78C220.57,-1001.16 237.92,-973.11 246,-945.85 257.12,-908.32 278.75,-279.68 292,-242.85 332.09,-131.43 347.17,-88.95 448,-26.85 505.49,8.55 530.49,-2.85 598,-2.85 598,-2.85 598,-2.85 1034,-2.85 1153.89,-2.85 1109.09,-138.66 1122,-257.85 1149.62,-512.86 1175.61,-822.57 1182.95,-911.74"/>
<polygon fill="#0f766e" stroke="#0f766e" points="1180.51,-911.96 1183.52,-918.73 1185.39,-911.55 1180.51,-911.96"/>
<text text-anchor="middle" x="680" y="-6.65" font-family="Times,serif" font-size="14.00">2</text>
</g>
<!-- app.strategies&#45;&gt;app.config -->
<g id="edge55" class="edge">
<title>app.strategies&#45;&gt;app.config</title>
<path fill="none" stroke="#0f766e" d="M738.14,-560.76C796.39,-575.48 887.4,-588.41 954,-550.85 993.25,-528.71 1014.99,-477.99 1025.02,-447.16"/>
<polygon fill="#0f766e" stroke="#0f766e" points="1027.46,-447.56 1027.2,-440.15 1022.78,-446.1 1027.46,-447.56"/>
<text text-anchor="middle" x="859.5" y="-578.65" font-family="Times,serif" font-size="14.00">3</text>
</g>
<!-- app.strategies&#45;&gt;app.market -->
<g id="edge56" class="edge">
<title>app.strategies&#45;&gt;app.market</title>
<path fill="none" stroke="#0f766e" d="M723.89,-560.91C729.34,-564.8 734.29,-569.41 738,-574.85 770.86,-623.04 740.41,-648.64 756,-704.85 778.76,-786.91 823.35,-877.84 845.45,-920.38"/>
<polygon fill="#0f766e" stroke="#0f766e" points="843.38,-921.72 848.79,-926.79 847.72,-919.45 843.38,-921.72"/>
<text text-anchor="middle" x="765.5" y="-762.65" font-family="Times,serif" font-size="14.00">6</text>
</g>
<!-- app.telegram&#45;&gt;app.config -->
<g id="edge57" class="edge">
<title>app.telegram&#45;&gt;app.config</title>
<path fill="none" stroke="#0f766e" d="M352.59,-994.82C362.73,-955.91 388.67,-861.48 420,-785.85 430.35,-760.87 427.47,-749.44 448,-731.85 493.58,-692.81 524.99,-720.46 576,-688.85 590.96,-679.58 594.57,-675.71 604,-660.85 616.66,-640.91 603.06,-624.97 622,-610.85 730.5,-529.98 802.47,-649.11 926,-593.85 985.81,-567.1 1014.77,-487.82 1026.06,-446.9"/>
<polygon fill="#0f766e" stroke="#0f766e" points="1028.47,-447.36 1027.9,-439.97 1023.74,-446.1 1028.47,-447.36"/>
<text text-anchor="middle" x="680" y="-614.65" font-family="Times,serif" font-size="14.00">3</text>
</g>
<!-- app.telegram&#45;&gt;app.data -->
<g id="edge58" class="edge">
<title>app.telegram&#45;&gt;app.data</title>
<path fill="none" stroke="#0f766e" d="M402.14,-1011.34C449.39,-1011.7 519.1,-1016.31 576,-1036.85 585.04,-1040.12 584.8,-1046.06 594,-1048.85 598.25,-1050.14 599.56,-1048.93 604,-1048.85 747.17,-1046.41 789.15,-1080.02 926,-1037.85 955.54,-1028.75 984.92,-1009.13 1005.23,-993.47"/>
<polygon fill="#0f766e" stroke="#0f766e" points="1006.98,-995.21 1010.97,-988.96 1003.95,-991.35 1006.98,-995.21"/>
<text text-anchor="middle" x="680" y="-1058.65" font-family="Times,serif" font-size="14.00">7</text>
</g>
<!-- app.telegram&#45;&gt;app.logger -->
<g id="edge59" class="edge">
<title>app.telegram&#45;&gt;app.logger</title>
<path fill="none" stroke="#0f766e" d="M353.73,-1030.94C366.02,-1067.46 397.93,-1151.07 448,-1204.85 503.47,-1264.44 550.26,-1239.7 604,-1300.85 616.87,-1315.49 610.09,-1325.42 622,-1340.85 739.12,-1492.59 791.27,-1528.99 972,-1592.85 1024.51,-1611.41 1088.43,-1616.47 1132.46,-1617.47"/>
<polygon fill="#0f766e" stroke="#0f766e" points="1132.58,-1619.92 1139.63,-1617.6 1132.67,-1615.03 1132.58,-1619.92"/>
<text text-anchor="middle" x="765.5" y="-1503.65" font-family="Times,serif" font-size="14.00">1</text>
</g>
<!-- app.telegram&#45;&gt;app.market -->
<g id="edge60" class="edge">
<title>app.telegram&#45;&gt;app.market</title>
<path fill="none" stroke="#0f766e" d="M402.12,-1001.41C408.13,-1000.42 414.18,-999.53 420,-998.85 496.87,-989.88 516.62,-993.41 594,-991.85 598.44,-991.76 599.6,-991.25 604,-991.85 612.23,-992.97 613.77,-995.73 622,-996.85 689.38,-1006.03 709.62,-1015.54 775,-996.85 795.44,-991.01 815.74,-978.55 831.21,-967.3"/>
<polygon fill="#0f766e" stroke="#0f766e" points="832.96,-969.05 837.1,-962.9 830.03,-965.12 832.96,-969.05"/>
<text text-anchor="middle" x="599" y="-995.65" font-family="Times,serif" font-size="14.00">2</text>
</g>
<!-- app.telegram&#45;&gt;app.paper -->
<g id="edge61" class="edge">
<title>app.telegram&#45;&gt;app.paper</title>
<path fill="none" stroke="#0f766e" d="M402.04,-1028.74C450.49,-1044.62 522.04,-1072.24 576,-1110.85 598.92,-1127.25 641.86,-1194.05 664.37,-1230.63"/>
<polygon fill="#0f766e" stroke="#0f766e" points="662.32,-1231.97 668.07,-1236.66 666.5,-1229.41 662.32,-1231.97"/>
<text text-anchor="middle" x="512" y="-1114.65" font-family="Times,serif" font-size="14.00">1</text>
</g>
<!-- app.telegram&#45;&gt;app.services -->
<g id="edge62" class="edge">
<title>app.telegram&#45;&gt;app.services</title>
<path fill="none" stroke="#0f766e" d="M353.48,-994.35C363.44,-962.53 386.63,-896.21 420,-847.85 437.48,-822.52 462.87,-798.41 482.39,-781.69"/>
<polygon fill="#0f766e" stroke="#0f766e" points="484.22,-783.35 487.99,-776.96 481.06,-779.61 484.22,-783.35"/>
<text text-anchor="middle" x="425" y="-851.65" font-family="Times,serif" font-size="14.00">5</text>
</g>
<!-- app.telegram&#45;&gt;app.signals -->
<g id="edge63" class="edge">
<title>app.telegram&#45;&gt;app.signals</title>
<path fill="none" stroke="#0f766e" d="M291.96,-1021.44C278.16,-1023.63 263.31,-1025.99 249.49,-1028.19"/>
<polygon fill="#0f766e" stroke="#0f766e" points="248.89,-1025.8 242.36,-1029.32 249.66,-1030.64 248.89,-1025.8"/>
<text text-anchor="middle" x="269" y="-1028.65" font-family="Times,serif" font-size="14.00">2</text>
</g>
<!-- app.telegram&#45;&gt;app.utils -->
<g id="edge64" class="edge">
<title>app.telegram&#45;&gt;app.utils</title>
<path fill="none" stroke="#0f766e" d="M359.24,-1030.95C375.69,-1055.95 408.68,-1100.79 448,-1125.85 498.04,-1157.75 532.33,-1123.67 576,-1163.85 617.42,-1201.96 588.11,-1236.91 622,-1281.85 628.77,-1290.82 933.35,-1523.26 944,-1526.85 948.21,-1528.27 949.59,-1527.44 954,-1526.85 1017.91,-1518.33 1050.79,-1536.7 1094,-1488.85 1112.08,-1468.83 1167.32,-1067.82 1181.6,-962.18"/>
<polygon fill="#0f766e" stroke="#0f766e" points="1184.05,-962.35 1182.56,-955.09 1179.19,-961.7 1184.05,-962.35"/>
<text text-anchor="middle" x="765.5" y="-1404.65" font-family="Times,serif" font-size="14.00">2</text>
</g>
<!-- app.web -->
<g id="node18" class="node">
<title>app.web</title>
<path fill="#f8fafc" stroke="#94a3b8" d="M373,-574.85C373,-574.85 321,-574.85 321,-574.85 315,-574.85 309,-568.85 309,-562.85 309,-562.85 309,-550.85 309,-550.85 309,-544.85 315,-538.85 321,-538.85 321,-538.85 373,-538.85 373,-538.85 379,-538.85 385,-544.85 385,-550.85 385,-550.85 385,-562.85 385,-562.85 385,-568.85 379,-574.85 373,-574.85"/>
<text text-anchor="middle" x="347" y="-553.15" font-family="Inter" font-size="14.00">app.web</text>
</g>
<!-- app.web&#45;&gt;app.config -->
<g id="edge65" class="edge">
<title>app.web&#45;&gt;app.config</title>
<path fill="none" stroke="#0f766e" d="M350.44,-538.74C357.28,-495.23 380.77,-384.23 448,-326.85 492.69,-288.71 534.32,-335.26 576,-293.85 598.18,-271.82 569.23,-244.92 594,-225.85 712.09,-134.95 797.72,-197 926,-272.85 974.8,-301.71 1007.1,-362.82 1022.17,-397.14"/>
<polygon fill="#0f766e" stroke="#0f766e" points="1019.95,-398.16 1024.96,-403.62 1024.45,-396.23 1019.95,-398.16"/>
<text text-anchor="middle" x="680" y="-210.65" font-family="Times,serif" font-size="14.00">1</text>
</g>
<!-- app.web&#45;&gt;app.data -->
<g id="edge66" class="edge">
<title>app.web&#45;&gt;app.data</title>
<path fill="none" stroke="#0f766e" d="M366.3,-575.01C377.99,-587.51 392.64,-605.02 402,-622.85 422.85,-662.58 417.87,-676.65 430,-719.85 438.22,-749.12 425.7,-765.18 448,-785.85 527.34,-859.37 836.1,-817.69 926,-877.85 956.94,-898.56 943,-924.51 972,-947.85 976.62,-951.57 981.91,-954.74 987.4,-957.42"/>
<polygon fill="#0f766e" stroke="#0f766e" points="986.5,-959.71 993.89,-960.35 988.52,-955.24 986.5,-959.71"/>
<text text-anchor="middle" x="680" y="-843.65" font-family="Times,serif" font-size="14.00">1</text>
</g>
<!-- app.web&#45;&gt;app.jobs -->
<g id="edge67" class="edge">
<title>app.web&#45;&gt;app.jobs</title>
<path fill="none" stroke="#0f766e" d="M362.11,-538.69C380.25,-516.15 413.56,-477.44 448,-450.85 499.32,-411.23 519.19,-412.1 576,-380.85 597.24,-369.17 620.9,-356.08 640.19,-345.39"/>
<polygon fill="#0f766e" stroke="#0f766e" points="641.62,-347.4 646.55,-341.86 639.24,-343.11 641.62,-347.4"/>
<text text-anchor="middle" x="512" y="-454.65" font-family="Times,serif" font-size="14.00">2</text>
</g>
<!-- app.web&#45;&gt;app.services -->
<g id="edge68" class="edge">
<title>app.web&#45;&gt;app.services</title>
<path fill="none" stroke="#0f766e" d="M383.97,-574.95C390.36,-579.03 396.67,-583.7 402,-588.85 425.76,-611.79 473.59,-693.06 497.19,-734.36"/>
<polygon fill="#0f766e" stroke="#0f766e" points="495.17,-735.76 500.76,-740.63 499.43,-733.34 495.17,-735.76"/>
<text text-anchor="middle" x="425" y="-625.65" font-family="Times,serif" font-size="14.00">6</text>
</g>
<!-- tests -->
<g id="node19" class="node">
<title>tests</title>
<path fill="#f8fafc" stroke="#94a3b8" d="M63,-786.85C63,-786.85 33,-786.85 33,-786.85 27,-786.85 21,-780.85 21,-774.85 21,-774.85 21,-762.85 21,-762.85 21,-756.85 27,-750.85 33,-750.85 33,-750.85 63,-750.85 63,-750.85 69,-750.85 75,-756.85 75,-762.85 75,-762.85 75,-774.85 75,-774.85 75,-780.85 69,-786.85 63,-786.85"/>
<text text-anchor="middle" x="48" y="-765.15" font-family="Inter" font-size="14.00">tests</text>
</g>
<!-- tests&#45;&gt;app.backtesting -->
<g id="edge69" class="edge">
<title>tests&#45;&gt;app.backtesting</title>
<path fill="none" stroke="#0f766e" d="M75.32,-759.24C83.2,-755.09 91.04,-749.4 96,-741.85 135.26,-682.02 89.46,-649.07 114,-581.85 121.69,-560.78 125.37,-554.91 142,-539.85 233.09,-457.32 367.53,-401.95 446.5,-374.35"/>
<polygon fill="#0f766e" stroke="#0f766e" points="447.68,-376.53 453.49,-371.93 446.08,-371.9 447.68,-376.53"/>
<text text-anchor="middle" x="269" y="-456.65" font-family="Times,serif" font-size="14.00">1</text>
</g>
<!-- tests&#45;&gt;app.config -->
<g id="edge70" class="edge">
<title>tests&#45;&gt;app.config</title>
<path fill="none" stroke="#0f766e" d="M75.15,-759.7C83.21,-755.54 91.22,-749.74 96,-741.85 121.54,-699.72 105.5,-347.38 114,-298.85 134.1,-184.07 76.47,-48.85 193,-48.85 193,-48.85 193,-48.85 426,-48.85 481.83,-48.85 880.35,-66.7 926,-98.85 1024.76,-168.42 1033.36,-333.22 1032.83,-396.5"/>
<polygon fill="#0f766e" stroke="#0f766e" points="1030.38,-396.67 1032.73,-403.7 1035.28,-396.74 1030.38,-396.67"/>
<text text-anchor="middle" x="512" y="-59.65" font-family="Times,serif" font-size="14.00">7</text>
</g>
<!-- tests&#45;&gt;app.data -->
<g id="edge71" class="edge">
<title>tests&#45;&gt;app.data</title>
<path fill="none" stroke="#0f766e" d="M49.74,-786.9C53.34,-864.76 71.82,-1170.46 142,-1227.85 278.39,-1339.38 779.51,-1207.74 926,-1109.85 969.82,-1080.57 1002.96,-1027.06 1019.75,-995.66"/>
<polygon fill="#0f766e" stroke="#0f766e" points="1022,-996.65 1023.09,-989.31 1017.66,-994.37 1022,-996.65"/>
<text text-anchor="middle" x="512" y="-1263.65" font-family="Times,serif" font-size="14.00">1</text>
</g>
<!-- tests&#45;&gt;app.exchanges -->
<g id="edge72" class="edge">
<title>tests&#45;&gt;app.exchanges</title>
<path fill="none" stroke="#0f766e" d="M50.52,-786.96C57.76,-870.47 90.55,-1218.27 142,-1312.85 185.29,-1392.43 210.52,-1411.26 292,-1450.85 470.67,-1537.66 542.8,-1516.68 738,-1479.85 822.23,-1463.96 853.69,-1482.87 926,-1436.85 954.05,-1419 945.28,-1397.64 972,-1377.85 972.44,-1377.53 972.88,-1377.21 973.33,-1376.89"/>
<polygon fill="#0f766e" stroke="#0f766e" points="974.81,-1378.85 979.38,-1373.01 972.16,-1374.73 974.81,-1378.85"/>
<text text-anchor="middle" x="512" y="-1514.65" font-family="Times,serif" font-size="14.00">1</text>
</g>
<!-- tests&#45;&gt;app.market -->
<g id="edge73" class="edge">
<title>tests&#45;&gt;app.market</title>
<path fill="none" stroke="#0f766e" d="M75.07,-769.56C117.07,-770.9 202.28,-774.48 274,-782.85 331.33,-789.54 345.97,-790.98 402,-804.85 422.87,-810.02 427.49,-813.39 448,-819.85 575.42,-860.02 725.77,-905.25 804.39,-928.74"/>
<polygon fill="#0f766e" stroke="#0f766e" points="803.9,-931.15 811.31,-930.81 805.3,-926.46 803.9,-931.15"/>
<text text-anchor="middle" x="425" y="-816.65" font-family="Times,serif" font-size="14.00">1</text>
</g>
<!-- tests&#45;&gt;app.paper -->
<g id="edge74" class="edge">
<title>tests&#45;&gt;app.paper</title>
<path fill="none" stroke="#0f766e" d="M50.03,-786.87C55.01,-871.2 77.92,-1224.14 114,-1255.85 260.67,-1384.78 520.91,-1312.58 629.38,-1274.1"/>
<polygon fill="#0f766e" stroke="#0f766e" points="630.23,-1276.4 635.99,-1271.73 628.58,-1271.78 630.23,-1276.4"/>
<text text-anchor="middle" x="347" y="-1332.65" font-family="Times,serif" font-size="14.00">4</text>
</g>
<!-- tests&#45;&gt;app.signals -->
<g id="edge75" class="edge">
<title>tests&#45;&gt;app.signals</title>
<path fill="none" stroke="#0f766e" d="M55.51,-787.17C66.15,-816.27 88.64,-874.53 114,-920.85 132.26,-954.2 157.62,-990 174.63,-1012.86"/>
<polygon fill="#0f766e" stroke="#0f766e" points="172.82,-1014.54 178.98,-1018.67 176.74,-1011.6 172.82,-1014.54"/>
<text text-anchor="middle" x="119" y="-940.65" font-family="Times,serif" font-size="14.00">4</text>
</g>
<!-- tests&#45;&gt;app.strategies -->
<g id="edge76" class="edge">
<title>tests&#45;&gt;app.strategies</title>
<path fill="none" stroke="#0f766e" d="M75.28,-757.35C138.65,-729.83 305.18,-658.89 448,-609.85 503.6,-590.76 567.9,-572.41 614.52,-559.75"/>
<polygon fill="#0f766e" stroke="#0f766e" points="615.44,-562.04 621.56,-557.85 614.16,-557.31 615.44,-562.04"/>
<text text-anchor="middle" x="347" y="-669.65" font-family="Times,serif" font-size="14.00">1</text>
</g>
<!-- tests&#45;&gt;app.telegram -->
<g id="edge77" class="edge">
<title>tests&#45;&gt;app.telegram</title>
<path fill="none" stroke="#0f766e" d="M71.32,-787.19C124.67,-831.01 259.45,-941.74 318.06,-989.9"/>
<polygon fill="#0f766e" stroke="#0f766e" points="316.86,-992.08 323.82,-994.63 319.97,-988.29 316.86,-992.08"/>
<text text-anchor="middle" x="194" y="-930.65" font-family="Times,serif" font-size="14.00">3</text>
</g>
<!-- tests&#45;&gt;app.web -->
<g id="edge78" class="edge">
<title>tests&#45;&gt;app.web</title>
<path fill="none" stroke="#0f766e" d="M75.27,-759.21C83.14,-755.05 91,-749.38 96,-741.85 131.94,-687.76 77.27,-650.4 114,-596.85 154.05,-538.47 246.12,-540.78 301.48,-548.38"/>
<polygon fill="#0f766e" stroke="#0f766e" points="301.43,-550.85 308.7,-549.43 302.13,-546 301.43,-550.85"/>
<text text-anchor="middle" x="194" y="-572.65" font-family="Times,serif" font-size="14.00">1</text>
</g>
<!-- tools -->
<g id="node20" class="node">
<title>tools</title>
<path fill="#f8fafc" stroke="#94a3b8" d="M362,-287.85C362,-287.85 332,-287.85 332,-287.85 326,-287.85 320,-281.85 320,-275.85 320,-275.85 320,-263.85 320,-263.85 320,-257.85 326,-251.85 332,-251.85 332,-251.85 362,-251.85 362,-251.85 368,-251.85 374,-257.85 374,-263.85 374,-263.85 374,-275.85 374,-275.85 374,-281.85 368,-287.85 362,-287.85"/>
<text text-anchor="middle" x="347" y="-266.15" font-family="Inter" font-size="14.00">tools</text>
</g>
<!-- tests&#45;&gt;tools -->
<g id="edge79" class="edge">
<title>tests&#45;&gt;tools</title>
<path fill="none" stroke="#0f766e" d="M75.14,-759.7C83.2,-755.54 91.21,-749.73 96,-741.85 145.41,-660.48 63.39,-394.48 114,-313.85 154.67,-249.05 259.34,-255.35 313.08,-263.52"/>
<polygon fill="#0f766e" stroke="#0f766e" points="312.7,-265.94 320,-264.62 313.47,-261.1 312.7,-265.94"/>
<text text-anchor="middle" x="194" y="-289.65" font-family="Times,serif" font-size="14.00">1</text>
</g>
<!-- tools&#45;&gt;app.backtesting -->
<g id="edge80" class="edge">
<title>tools&#45;&gt;app.backtesting</title>
<path fill="none" stroke="#0f766e" d="M374.19,-277.22C390.65,-282.31 412.08,-289.79 430,-298.85 448.21,-308.06 467.16,-320.73 482.14,-331.59"/>
<polygon fill="#0f766e" stroke="#0f766e" points="480.8,-333.64 487.89,-335.8 483.69,-329.69 480.8,-333.64"/>
<text text-anchor="middle" x="425" y="-302.65" font-family="Times,serif" font-size="14.00">2</text>
</g>
<!-- tools&#45;&gt;app.config -->
<g id="edge81" class="edge">
<title>tools&#45;&gt;app.config</title>
<path fill="none" stroke="#0f766e" d="M373.73,-251.71C460.06,-193.28 744.14,-20.89 926,-145.85 1010.62,-204 1027.72,-339.77 1031.15,-396.37"/>
<polygon fill="#0f766e" stroke="#0f766e" points="1028.71,-396.64 1031.53,-403.5 1033.6,-396.38 1028.71,-396.64"/>
<text text-anchor="middle" x="680" y="-130.65" font-family="Times,serif" font-size="14.00">4</text>
</g>
<!-- tools&#45;&gt;app.data -->
<g id="edge82" class="edge">
<title>tools&#45;&gt;app.data</title>
<path fill="none" stroke="#0f766e" d="M355.02,-287.88C369.54,-324.08 405.12,-407.46 448,-469.85 495.75,-539.33 526.1,-541.89 576,-609.85 585.43,-622.69 581.49,-630.99 594,-640.85 646.46,-682.19 692.61,-634.85 738,-683.85 763.65,-711.54 732.06,-737.66 756,-766.85 808.26,-830.57 865.35,-785.06 926,-840.85 945.32,-858.62 943.65,-868.73 954,-892.85 964.14,-916.49 954.27,-929.22 972,-947.85 976.26,-952.32 981.48,-955.94 987.04,-958.85"/>
<polygon fill="#0f766e" stroke="#0f766e" points="986.32,-961.22 993.7,-961.97 988.4,-956.78 986.32,-961.22"/>
<text text-anchor="middle" x="680" y="-687.65" font-family="Times,serif" font-size="14.00">5</text>
</g>
<!-- tools&#45;&gt;app.jobs -->
<g id="edge83" class="edge">
<title>tools&#45;&gt;app.jobs</title>
<path fill="none" stroke="#0f766e" d="M374.25,-274.13C430.87,-283.37 564.99,-305.25 634.89,-316.66"/>
<polygon fill="#0f766e" stroke="#0f766e" points="634.56,-319.08 641.86,-317.79 635.35,-314.25 634.56,-319.08"/>
<text text-anchor="middle" x="512" y="-310.65" font-family="Times,serif" font-size="14.00">1</text>
</g>
<!-- tools&#45;&gt;app.utils -->
<g id="edge84" class="edge">
<title>tools&#45;&gt;app.utils</title>
<path fill="none" stroke="#0f766e" d="M357.37,-251.68C372.63,-223.9 405.44,-171.03 448,-141.85 569.23,-58.72 617.5,-45.85 764.5,-45.85 764.5,-45.85 764.5,-45.85 1034,-45.85 1124.27,-45.85 1174.27,-765.88 1183.45,-911.4"/>
<polygon fill="#0f766e" stroke="#0f766e" points="1181.02,-911.82 1183.9,-918.65 1185.91,-911.51 1181.02,-911.82"/>
<text text-anchor="middle" x="765.5" y="-50.65" font-family="Times,serif" font-size="14.00">1</text>
</g>
</g>
</svg>
