<?xml version="1.0" encoding="UTF-8" standalone="no"?>
<!DOCTYPE svg PUBLIC "-//W3C//DTD SVG 1.1//EN"
 "http://www.w3.org/Graphics/SVG/1.1/DTD/svg11.dtd">
<!-- Generated by graphviz version 2.43.0 (0)
 -->
<!-- Title: dependencies Pages: 1 -->
<svg width="858pt" height="918pt"
 viewBox="0.00 0.00 858.00 917.90" xmlns="http://www.w3.org/2000/svg" xmlns:xlink="http://www.w3.org/1999/xlink">
<g id="graph0" class="graph" transform="scale(1 1) rotate(0) translate(4 913.9)">
<title>dependencies</title>
<polygon fill="white" stroke="transparent" points="-4,4 -4,-913.9 854,-913.9 854,4 -4,4"/>
<!-- app.__init__ -->
<g id="node1" class="node">
<title>app.__init__</title>
<path fill="#f8fafc" stroke="#94a3b8" d="M84,-101.9C84,-101.9 12,-101.9 12,-101.9 6,-101.9 0,-95.9 0,-89.9 0,-89.9 0,-77.9 0,-77.9 0,-71.9 6,-65.9 12,-65.9 12,-65.9 84,-65.9 84,-65.9 90,-65.9 96,-71.9 96,-77.9 96,-77.9 96,-89.9 96,-89.9 96,-95.9 90,-101.9 84,-101.9"/>
<text text-anchor="middle" x="48" y="-80.2" font-family="Inter" font-size="14.00">app.__init__</text>
</g>
<!-- app.analysis -->
<g id="node2" class="node">
<title>app.analysis</title>
<path fill="#f8fafc" stroke="#94a3b8" d="M234,-731.9C234,-731.9 154,-731.9 154,-731.9 148,-731.9 142,-725.9 142,-719.9 142,-719.9 142,-707.9 142,-707.9 142,-701.9 148,-695.9 154,-695.9 154,-695.9 234,-695.9 234,-695.9 240,-695.9 246,-701.9 246,-707.9 246,-707.9 246,-719.9 246,-719.9 246,-725.9 240,-731.9 234,-731.9"/>
<text text-anchor="middle" x="194" y="-710.2" font-family="Inter" font-size="14.00">app.analysis</text>
</g>
<!-- app.data -->
<g id="node4" class="node">
<title>app.data</title>
<path fill="#f8fafc" stroke="#94a3b8" d="M678,-382.9C678,-382.9 624,-382.9 624,-382.9 618,-382.9 612,-376.9 612,-370.9 612,-370.9 612,-358.9 612,-358.9 612,-352.9 618,-346.9 624,-346.9 624,-346.9 678,-346.9 678,-346.9 684,-346.9 690,-352.9 690,-358.9 690,-358.9 690,-370.9 690,-370.9 690,-376.9 684,-382.9 678,-382.9"/>
<text text-anchor="middle" x="651" y="-361.2" font-family="Inter" font-size="14.00">app.data</text>
</g>
<!-- app.analysis&#45;&gt;app.data -->
<g id="edge1" class="edge">
<title>app.analysis&#45;&gt;app.data</title>
<path fill="none" stroke="#0f766e" d="M246.12,-722.92C298,-729.06 377.88,-729.82 430,-688.9 448.58,-674.32 435.81,-659.13 448,-638.9 490.22,-568.84 536.52,-576.6 572,-502.9 594.06,-457.08 558.54,-429.86 590,-389.9 594.1,-384.69 599.48,-380.56 605.33,-377.28"/>
<polygon fill="#0f766e" stroke="#0f766e" points="606.66,-379.36 611.84,-374.04 604.48,-374.97 606.66,-379.36"/>
<text text-anchor="middle" x="425" y="-699.7" font-family="Times,serif" font-size="14.00">3</text>
</g>
<!-- app.logger -->
<g id="node6" class="node">
<title>app.logger</title>
<path fill="#f8fafc" stroke="#94a3b8" d="M838,-692.9C838,-692.9 770,-692.9 770,-692.9 764,-692.9 758,-686.9 758,-680.9 758,-680.9 758,-668.9 758,-668.9 758,-662.9 764,-656.9 770,-656.9 770,-656.9 838,-656.9 838,-656.9 844,-656.9 850,-662.9 850,-668.9 850,-668.9 850,-680.9 850,-680.9 850,-686.9 844,-692.9 838,-692.9"/>
<text text-anchor="middle" x="804" y="-671.2" font-family="Inter" font-size="14.00">app.logger</text>
</g>
<!-- app.analysis&#45;&gt;app.logger -->
<g id="edge2" class="edge">
<title>app.analysis&#45;&gt;app.logger</title>
<path fill="none" stroke="#0f766e" d="M203.57,-732.19C214.73,-754.34 236.17,-791.57 264,-814.9 294.64,-840.59 306.02,-851.9 346,-851.9 346,-851.9 346,-851.9 652,-851.9 694.43,-851.9 709.63,-844.53 740,-814.9 772.68,-783.03 789.83,-731.14 797.6,-700.28"/>
<polygon fill="#0f766e" stroke="#0f766e" points="800.03,-700.67 799.3,-693.29 795.27,-699.52 800.03,-700.67"/>
<text text-anchor="middle" x="496" y="-855.7" font-family="Times,serif" font-size="14.00">1</text>
</g>
<!-- app.utils -->
<g id="node12" class="node">
<title>app.utils</title>
<path fill="#f8fafc" stroke="#94a3b8" d="M830.5,-382.9C830.5,-382.9 777.5,-382.9 777.5,-382.9 771.5,-382.9 765.5,-376.9 765.5,-370.9 765.5,-370.9 765.5,-358.9 765.5,-358.9 765.5,-352.9 771.5,-346.9 777.5,-346.9 777.5,-346.9 830.5,-346.9 830.5,-346.9 836.5,-346.9 842.5,-352.9 842.5,-358.9 842.5,-358.9 842.5,-370.9 842.5,-370.9 842.5,-376.9 836.5,-382.9 830.5,-382.9"/>
<text text-anchor="middle" x="804" y="-361.2" font-family="Inter" font-size="14.00">app.utils</text>
</g>
<!-- app.analysis&#45;&gt;app.utils -->
<g id="edge3" class="edge">
<title>app.analysis&#45;&gt;app.utils</title>
<path fill="none" stroke="#0f766e" d="M212.19,-731.93C238.43,-757.41 291.24,-800.9 346,-800.9 346,-800.9 346,-800.9 652,-800.9 739.55,-800.9 787.68,-483.05 799.88,-390.12"/>
<polygon fill="#0f766e" stroke="#0f766e" points="802.32,-390.34 800.79,-383.08 797.46,-389.71 802.32,-390.34"/>
<text text-anchor="middle" x="496" y="-804.7" font-family="Times,serif" font-size="14.00">1</text>
</g>
<!-- app.config -->
<g id="node3" class="node">
<title>app.config</title>
<path fill="#f8fafc" stroke="#94a3b8" d="M684,-156.9C684,-156.9 618,-156.9 618,-156.9 612,-156.9 606,-150.9 606,-144.9 606,-144.9 606,-132.9 606,-132.9 606,-126.9 612,-120.9 618,-120.9 618,-120.9 684,-120.9 684,-120.9 690,-120.9 696,-126.9 696,-132.9 696,-132.9 696,-144.9 696,-144.9 696,-150.9 690,-156.9 684,-156.9"/>
<text text-anchor="middle" x="651" y="-135.2" font-family="Inter" font-size="14.00">app.config</text>
</g>
<!-- app.data&#45;&gt;app.utils -->
<g id="edge4" class="edge">
<title>app.data&#45;&gt;app.utils</title>
<path fill="none" stroke="#0f766e" d="M690.1,-364.9C710.83,-364.9 736.58,-364.9 758.25,-364.9"/>
<polygon fill="#0f766e" stroke="#0f766e" points="758.43,-367.35 765.43,-364.9 758.43,-362.45 758.43,-367.35"/>
<text text-anchor="middle" x="735" y="-368.7" font-family="Times,serif" font-size="14.00">2</text>
</g>
<!-- app.exchanges -->
<g id="node5" class="node">
<title>app.exchanges</title>
<path fill="#f8fafc" stroke="#94a3b8" d="M700,-595.9C700,-595.9 602,-595.9 602,-595.9 596,-595.9 590,-589.9 590,-583.9 590,-583.9 590,-571.9 590,-571.9 590,-565.9 596,-559.9 602,-559.9 602,-559.9 700,-559.9 700,-559.9 706,-559.9 712,-565.9 712,-571.9 712,-571.9 712,-583.9 712,-583.9 712,-589.9 706,-595.9 700,-595.9"/>
<text text-anchor="middle" x="651" y="-574.2" font-family="Inter" font-size="14.00">app.exchanges</text>
</g>
<!-- app.exchanges&#45;&gt;app.logger -->
<g id="edge5" class="edge">
<title>app.exchanges&#45;&gt;app.logger</title>
<path fill="none" stroke="#0f766e" d="M712.22,-589.98C721.92,-593.32 731.55,-597.55 740,-602.9 759.33,-615.14 776.09,-635.04 787.46,-650.83"/>
<polygon fill="#0f766e" stroke="#0f766e" points="785.67,-652.54 791.69,-656.87 789.68,-649.73 785.67,-652.54"/>
<text text-anchor="middle" x="735" y="-606.7" font-family="Times,serif" font-size="14.00">1</text>
</g>
<!-- app.exchanges&#45;&gt;app.utils -->
<g id="edge6" class="edge">
<title>app.exchanges&#45;&gt;app.utils</title>
<path fill="none" stroke="#0f766e" d="M694.03,-559.84C700.53,-555.86 706.8,-551.22 712,-545.9 756.68,-500.13 783.81,-428.04 795.77,-390.12"/>
<polygon fill="#0f766e" stroke="#0f766e" points="798.24,-390.43 797.96,-383.02 793.56,-388.98 798.24,-390.43"/>
<text text-anchor="middle" x="735" y="-523.7" font-family="Times,serif" font-size="14.00">2</text>
</g>
<!-- app.main -->
<g id="node7" class="node">
<title>app.main</title>
<path fill="#f8fafc" stroke="#94a3b8" d="M77,-625.9C77,-625.9 19,-625.9 19,-625.9 13,-625.9 7,-619.9 7,-613.9 7,-613.9 7,-601.9 7,-601.9 7,-595.9 13,-589.9 19,-589.9 19,-589.9 77,-589.9 77,-589.9 83,-589.9 89,-595.9 89,-601.9 89,-601.9 89,-613.9 89,-613.9 89,-619.9 83,-625.9 77,-625.9"/>
<text text-anchor="middle" x="48" y="-604.2" font-family="Inter" font-size="14.00">app.main</text>
</g>
<!-- app.main&#45;&gt;app.analysis -->
<g id="edge7" class="edge">
<title>app.main&#45;&gt;app.analysis</title>
<path fill="none" stroke="#0f766e" d="M61.28,-626.2C73.12,-642.66 92.39,-666.56 114,-681.9 120.47,-686.49 127.69,-690.56 135.06,-694.13"/>
<polygon fill="#0f766e" stroke="#0f766e" points="134.48,-696.56 141.87,-697.27 136.53,-692.11 134.48,-696.56"/>
<text text-anchor="middle" x="119" y="-691.7" font-family="Times,serif" font-size="14.00">1</text>
</g>
<!-- app.main&#45;&gt;app.config -->
<g id="edge8" class="edge">
<title>app.main&#45;&gt;app.config</title>
<path fill="none" stroke="#0f766e" d="M50.58,-589.62C57.28,-516.1 85.65,-242.97 142,-180.9 258.73,-52.32 495.01,-96.19 598.96,-123.68"/>
<polygon fill="#0f766e" stroke="#0f766e" points="598.52,-126.1 605.91,-125.55 599.79,-121.36 598.52,-126.1"/>
<text text-anchor="middle" x="347" y="-105.7" font-family="Times,serif" font-size="14.00">1</text>
</g>
<!-- app.main&#45;&gt;app.data -->
<g id="edge9" class="edge">
<title>app.main&#45;&gt;app.data</title>
<path fill="none" stroke="#0f766e" d="M89.08,-606.16C181.87,-601.76 405.41,-588.87 430,-565.9 463,-535.08 419.24,-500.71 448,-465.9 477.12,-430.65 504.25,-451.5 544,-428.9 557.76,-421.08 560.01,-417.23 572,-406.9 580.33,-399.72 580.77,-395.89 590,-389.9 594.73,-386.83 599.89,-384.01 605.14,-381.46"/>
<polygon fill="#0f766e" stroke="#0f766e" points="606.49,-383.53 611.81,-378.36 604.43,-379.08 606.49,-383.53"/>
<text text-anchor="middle" x="347" y="-595.7" font-family="Times,serif" font-size="14.00">2</text>
</g>
<!-- app.main&#45;&gt;app.exchanges -->
<g id="edge10" class="edge">
<title>app.main&#45;&gt;app.exchanges</title>
<path fill="none" stroke="#0f766e" d="M55.06,-626.28C66.4,-657.16 94.1,-718.29 142,-740.9 183.8,-760.63 199.81,-742.53 246,-740.9 391.63,-735.77 481.76,-820.32 572,-705.9 599.95,-670.47 563.68,-640.44 590.26,-601.86"/>
<polygon fill="#0f766e" stroke="#0f766e" points="592.35,-603.16 594.65,-596.1 588.46,-600.18 592.35,-603.16"/>
<text text-anchor="middle" x="347" y="-763.7" font-family="Times,serif" font-size="14.00">2</text>
</g>
<!-- app.main&#45;&gt;app.logger -->
<g id="edge11" class="edge">
<title>app.main&#45;&gt;app.logger</title>
<path fill="none" stroke="#0f766e" d="M49.61,-626.29C52.76,-689.63 72.31,-894.9 193,-894.9 193,-894.9 193,-894.9 652,-894.9 745.74,-894.9 785.63,-757.46 798.23,-699.84"/>
<polygon fill="#0f766e" stroke="#0f766e" points="800.65,-700.26 799.7,-692.9 795.86,-699.24 800.65,-700.26"/>
<text text-anchor="middle" x="425" y="-898.7" font-family="Times,serif" font-size="14.00">1</text>
</g>
<!-- app.market -->
<g id="node8" class="node">
<title>app.market</title>
<path fill="#f8fafc" stroke="#94a3b8" d="M532,-510.9C532,-510.9 460,-510.9 460,-510.9 454,-510.9 448,-504.9 448,-498.9 448,-498.9 448,-486.9 448,-486.9 448,-480.9 454,-474.9 460,-474.9 460,-474.9 532,-474.9 532,-474.9 538,-474.9 544,-480.9 544,-486.9 544,-486.9 544,-498.9 544,-498.9 544,-504.9 538,-510.9 532,-510.9"/>
<text text-anchor="middle" x="496" y="-489.2" font-family="Inter" font-size="14.00">app.market</text>
</g>
<!-- app.main&#45;&gt;app.market -->
<g id="edge12" class="edge">
<title>app.main&#45;&gt;app.market</title>
<path fill="none" stroke="#0f766e" d="M89.15,-612.92C175.98,-622.89 377.63,-640.92 430,-600.9 444.85,-589.55 438.77,-579.15 448,-562.9 456.97,-547.12 468.28,-530.2 477.55,-516.95"/>
<polygon fill="#0f766e" stroke="#0f766e" points="479.62,-518.27 481.66,-511.14 475.62,-515.44 479.62,-518.27"/>
<text text-anchor="middle" x="269" y="-628.7" font-family="Times,serif" font-size="14.00">3</text>
</g>
<!-- app.paper -->
<g id="node9" class="node">
<title>app.paper</title>
<path fill="#f8fafc" stroke="#94a3b8" d="M528,-202.9C528,-202.9 464,-202.9 464,-202.9 458,-202.9 452,-196.9 452,-190.9 452,-190.9 452,-178.9 452,-178.9 452,-172.9 458,-166.9 464,-166.9 464,-166.9 528,-166.9 528,-166.9 534,-166.9 540,-172.9 540,-178.9 540,-178.9 540,-190.9 540,-190.9 540,-196.9 534,-202.9 528,-202.9"/>
<text text-anchor="middle" x="496" y="-181.2" font-family="Inter" font-size="14.00">app.paper</text>
</g>
<!-- app.main&#45;&gt;app.paper -->
<g id="edge13" class="edge">
<title>app.main&#45;&gt;app.paper</title>
<path fill="none" stroke="#0f766e" d="M50.81,-589.8C58.09,-520.64 87.51,-274.38 142,-221.9 187.39,-178.19 357.29,-172.15 420,-165.9 427.98,-165.1 436.32,-165.71 444.42,-167.12"/>
<polygon fill="#0f766e" stroke="#0f766e" points="444.42,-169.62 451.77,-168.61 445.39,-164.81 444.42,-169.62"/>
<text text-anchor="middle" x="269" y="-185.7" font-family="Times,serif" font-size="14.00">1</text>
</g>
<!-- app.signals -->
<g id="node10" class="node">
<title>app.signals</title>
<path fill="#f8fafc" stroke="#94a3b8" d="M230,-346.9C230,-346.9 158,-346.9 158,-346.9 152,-346.9 146,-340.9 146,-334.9 146,-334.9 146,-322.9 146,-322.9 146,-316.9 152,-310.9 158,-310.9 158,-310.9 230,-310.9 230,-310.9 236,-310.9 242,-316.9 242,-322.9 242,-322.9 242,-334.9 242,-334.9 242,-340.9 236,-346.9 230,-346.9"/>
<text text-anchor="middle" x="194" y="-325.2" font-family="Inter" font-size="14.00">app.signals</text>
</g>
<!-- app.main&#45;&gt;app.signals -->
<g id="edge14" class="edge">
<title>app.main&#45;&gt;app.signals</title>
<path fill="none" stroke="#0f766e" d="M54.75,-589.6C64.8,-558.65 87.06,-494.44 114,-443.9 131.67,-410.74 156.94,-375.54 174.1,-352.95"/>
<polygon fill="#0f766e" stroke="#0f766e" points="176.19,-354.25 178.5,-347.2 172.3,-351.27 176.19,-354.25"/>
<text text-anchor="middle" x="119" y="-447.7" font-family="Times,serif" font-size="14.00">2</text>
</g>
<!-- app.telegram -->
<g id="node11" class="node">
<title>app.telegram</title>
<path fill="#f8fafc" stroke="#94a3b8" d="M390,-327.9C390,-327.9 304,-327.9 304,-327.9 298,-327.9 292,-321.9 292,-315.9 292,-315.9 292,-303.9 292,-303.9 292,-297.9 298,-291.9 304,-291.9 304,-291.9 390,-291.9 390,-291.9 396,-291.9 402,-297.9 402,-303.9 402,-303.9 402,-315.9 402,-315.9 402,-321.9 396,-327.9 390,-327.9"/>
<text text-anchor="middle" x="347" y="-306.2" font-family="Inter" font-size="14.00">app.telegram</text>
</g>
<!-- app.main&#45;&gt;app.telegram -->
<g id="edge15" class="edge">
<title>app.main&#45;&gt;app.telegram</title>
<path fill="none" stroke="#0f766e" d="M67.13,-589.71C118.5,-538.17 264.98,-391.19 322.45,-333.53"/>
<polygon fill="#0f766e" stroke="#0f766e" points="324.52,-334.92 327.73,-328.23 321.05,-331.46 324.52,-334.92"/>
<text text-anchor="middle" x="194" y="-515.7" font-family="Times,serif" font-size="14.00">1</text>
</g>
<!-- app.main&#45;&gt;app.utils -->
<g id="edge16" class="edge">
<title>app.main&#45;&gt;app.utils</title>
<path fill="none" stroke="#0f766e" d="M89.29,-622.58C97.4,-625.24 105.92,-627.82 114,-629.9 126.24,-633.05 129.5,-633.03 142,-634.9 173.88,-639.68 401.4,-655.03 430,-669.9 440.61,-675.42 437.08,-685.04 448,-689.9 486.98,-707.26 509.41,-714.89 544,-689.9 570.37,-670.85 566.96,-573.88 590,-550.9 630.4,-510.61 667.1,-546.12 712,-510.9 753.25,-478.55 780.71,-421.93 793.9,-389.53"/>
<polygon fill="#0f766e" stroke="#0f766e" points="796.19,-390.41 796.5,-383 791.64,-388.59 796.19,-390.41"/>
<text text-anchor="middle" x="425" y="-673.7" font-family="Times,serif" font-size="14.00">3</text>
</g>
<!-- app.market&#45;&gt;app.config -->
<g id="edge17" class="edge">
<title>app.market&#45;&gt;app.config</title>
<path fill="none" stroke="#0f766e" d="M506.71,-474.74C522.98,-443.46 555.58,-376.97 572,-316.9 588.19,-257.66 557.85,-232.22 590,-179.9 594.39,-172.76 600.53,-166.57 607.23,-161.31"/>
<polygon fill="#0f766e" stroke="#0f766e" points="608.77,-163.22 612.97,-157.11 605.87,-159.27 608.77,-163.22"/>
<text text-anchor="middle" x="567" y="-350.7" font-family="Times,serif" font-size="14.00">1</text>
</g>
<!-- app.market&#45;&gt;app.data -->
<g id="edge18" class="edge">
<title>app.market&#45;&gt;app.data</title>
<path fill="none" stroke="#0f766e" d="M544.3,-490.69C554.44,-488.2 564.38,-483.96 572,-476.9 592.74,-457.69 574.59,-439.6 590,-415.9 596.98,-405.17 606.88,-395.47 616.63,-387.48"/>
<polygon fill="#0f766e" stroke="#0f766e" points="618.35,-389.23 622.33,-382.97 615.32,-385.39 618.35,-389.23"/>
<text text-anchor="middle" x="567" y="-487.7" font-family="Times,serif" font-size="14.00">2</text>
</g>
<!-- app.market&#45;&gt;app.exchanges -->
<g id="edge19" class="edge">
<title>app.market&#45;&gt;app.exchanges</title>
<path fill="none" stroke="#0f766e" d="M528.83,-511.01C534.35,-515.09 539.69,-519.76 544,-524.9 556.53,-539.84 546.45,-553.14 562,-564.9 568.23,-569.61 575.42,-572.96 582.96,-575.31"/>
<polygon fill="#0f766e" stroke="#0f766e" points="582.57,-577.75 589.97,-577.2 583.85,-573.02 582.57,-577.75"/>
<text text-anchor="middle" x="567" y="-573.7" font-family="Times,serif" font-size="14.00">4</text>
</g>
<!-- app.market&#45;&gt;app.logger -->
<g id="edge20" class="edge">
<title>app.market&#45;&gt;app.logger</title>
<path fill="none" stroke="#0f766e" d="M530.43,-511.25C535.53,-515.21 540.31,-519.77 544,-524.9 561.25,-548.89 543.82,-565.61 562,-588.9 570.82,-600.2 576.9,-599.08 590,-604.9 597.62,-608.29 690.51,-638.52 751.08,-658.13"/>
<polygon fill="#0f766e" stroke="#0f766e" points="750.52,-660.52 757.93,-660.35 752.03,-655.86 750.52,-660.52"/>
<text text-anchor="middle" x="651" y="-648.7" font-family="Times,serif" font-size="14.00">2</text>
</g>
<!-- app.market&#45;&gt;app.utils -->
<g id="edge21" class="edge">
<title>app.market&#45;&gt;app.utils</title>
<path fill="none" stroke="#0f766e" d="M544.01,-509.33C553.93,-510.13 563.85,-508.67 572,-502.9 591.62,-489.02 573.42,-469.3 590,-451.9 613.91,-426.8 703.32,-395.74 758.41,-378.34"/>
<polygon fill="#0f766e" stroke="#0f766e" points="759.34,-380.62 765.29,-376.19 757.87,-375.94 759.34,-380.62"/>
<text text-anchor="middle" x="651" y="-455.7" font-family="Times,serif" font-size="14.00">3</text>
</g>
<!-- app.paper&#45;&gt;app.config -->
<g id="edge22" class="edge">
<title>app.paper&#45;&gt;app.config</title>
<path fill="none" stroke="#0f766e" d="M540.03,-171.96C558.37,-166.45 579.91,-159.97 599.04,-154.22"/>
<polygon fill="#0f766e" stroke="#0f766e" points="599.97,-156.5 605.97,-152.14 598.56,-151.81 599.97,-156.5"/>
<text text-anchor="middle" x="567" y="-168.7" font-family="Times,serif" font-size="14.00">4</text>
</g>
<!-- app.paper&#45;&gt;app.data -->
<g id="edge23" class="edge">
<title>app.paper&#45;&gt;app.data</title>
<path fill="none" stroke="#0f766e" d="M527.06,-203.03C532.97,-207.23 538.91,-211.93 544,-216.9 583.05,-255.04 617.66,-309.08 636.04,-340.21"/>
<polygon fill="#0f766e" stroke="#0f766e" points="634.07,-341.68 639.72,-346.49 638.3,-339.21 634.07,-341.68"/>
<text text-anchor="middle" x="567" y="-250.7" font-family="Times,serif" font-size="14.00">6</text>
</g>
<!-- app.paper&#45;&gt;app.logger -->
<g id="edge24" class="edge">
<title>app.paper&#45;&gt;app.logger</title>
<path fill="none" stroke="#0f766e" d="M539.63,-203.02C541.23,-204.53 542.7,-206.15 544,-207.9 573.31,-247.29 553.49,-268.54 562,-316.9 567.87,-350.3 567.11,-441.89 590,-466.9 636.74,-517.97 688.9,-462.19 740,-508.9 780.89,-546.28 795.42,-612.99 800.44,-649.42"/>
<polygon fill="#0f766e" stroke="#0f766e" points="798.06,-650.08 801.38,-656.72 802.92,-649.46 798.06,-650.08"/>
<text text-anchor="middle" x="651" y="-495.7" font-family="Times,serif" font-size="14.00">2</text>
</g>
<!-- app.paper&#45;&gt;app.utils -->
<g id="edge25" class="edge">
<title>app.paper&#45;&gt;app.utils</title>
<path fill="none" stroke="#0f766e" d="M540.34,-193.89C592.56,-206.53 680.63,-233.82 740,-283.9 759.28,-300.17 776.51,-323.22 788.06,-340.58"/>
<polygon fill="#0f766e" stroke="#0f766e" points="786.17,-342.17 792.04,-346.69 790.27,-339.49 786.17,-342.17"/>
<text text-anchor="middle" x="651" y="-266.7" font-family="Times,serif" font-size="14.00">3</text>
</g>
<!-- app.signals&#45;&gt;app.config -->
<g id="edge26" class="edge">
<title>app.signals&#45;&gt;app.config</title>
<path fill="none" stroke="#0f766e" d="M215.7,-310.62C225.32,-301.73 236.67,-290.66 246,-279.9 268.95,-253.43 264.15,-237.15 292,-215.9 383.19,-146.32 523.68,-136.57 598.67,-136.88"/>
<polygon fill="#0f766e" stroke="#0f766e" points="598.7,-139.33 605.72,-136.94 598.74,-134.43 598.7,-139.33"/>
<text text-anchor="middle" x="425" y="-160.7" font-family="Times,serif" font-size="14.00">4</text>
</g>
<!-- app.signals&#45;&gt;app.data -->
<g id="edge27" class="edge">
<title>app.signals&#45;&gt;app.data</title>
<path fill="none" stroke="#0f766e" d="M242.07,-336.9C249.4,-338 256.89,-339.05 264,-339.9 386.63,-354.65 532.31,-361.11 604.61,-363.58"/>
<polygon fill="#0f766e" stroke="#0f766e" points="604.72,-366.03 611.79,-363.82 604.88,-361.14 604.72,-366.03"/>
<text text-anchor="middle" x="425" y="-358.7" font-family="Times,serif" font-size="14.00">4</text>
</g>
<!-- app.signals&#45;&gt;app.exchanges -->
<g id="edge28" class="edge">
<title>app.signals&#45;&gt;app.exchanges</title>
<path fill="none" stroke="#0f766e" d="M206.09,-346.94C222.04,-371.33 253.77,-414.47 292,-437.9 336.1,-464.93 366.1,-438.66 402,-475.9 421.03,-495.64 404.87,-512.04 420,-534.9 459.69,-594.89 503.2,-579.66 544,-638.9 557.87,-659.04 542.08,-676.71 562,-690.9 565.62,-693.48 568.56,-693.72 572,-690.9 603.55,-665.04 563.69,-632.07 590,-600.9 590.09,-600.79 590.19,-600.68 590.29,-600.57"/>
<polygon fill="#0f766e" stroke="#0f766e" points="591.71,-602.6 594.97,-595.94 588.27,-599.12 591.71,-602.6"/>
<text text-anchor="middle" x="425" y="-550.7" font-family="Times,serif" font-size="14.00">1</text>
</g>
<!-- app.signals&#45;&gt;app.logger -->
<g id="edge29" class="edge">
<title>app.signals&#45;&gt;app.logger</title>
<path fill="none" stroke="#0f766e" d="M206.36,-346.98C219.76,-368.1 242.87,-403.96 264,-433.9 275.89,-450.75 275.06,-459.13 292,-470.9 333.92,-500.02 366.07,-467.65 402,-503.9 422.2,-524.28 408.92,-539.43 420,-565.9 429.84,-589.39 431.47,-596.53 448,-615.9 489.91,-665 501.02,-684.73 562,-705.9 624.61,-727.64 701.14,-711.02 750.93,-694.93"/>
<polygon fill="#0f766e" stroke="#0f766e" points="751.89,-697.2 757.77,-692.67 750.35,-692.54 751.89,-697.2"/>
<text text-anchor="middle" x="496" y="-701.7" font-family="Times,serif" font-size="14.00">2</text>
</g>
<!-- app.signals&#45;&gt;app.market -->
<g id="edge30" class="edge">
<title>app.signals&#45;&gt;app.market</title>
<path fill="none" stroke="#0f766e" d="M208.85,-346.95C221.53,-362.15 241.67,-383.23 264,-394.9 319.46,-423.89 344.93,-397.23 402,-422.9 427.89,-434.55 453.37,-454.49 471.09,-470.11"/>
<polygon fill="#0f766e" stroke="#0f766e" points="469.49,-471.96 476.33,-474.81 472.75,-468.32 469.49,-471.96"/>
<text text-anchor="middle" x="347" y="-426.7" font-family="Times,serif" font-size="14.00">3</text>
</g>
<!-- app.signals&#45;&gt;app.paper -->
<g id="edge31" class="edge">
<title>app.signals&#45;&gt;app.paper</title>
<path fill="none" stroke="#0f766e" d="M221.03,-310.79C240.16,-297.93 267.05,-280.72 292,-267.9 342.52,-241.93 403.11,-218.04 444.86,-202.63"/>
<polygon fill="#0f766e" stroke="#0f766e" points="445.93,-204.85 451.66,-200.13 444.24,-200.25 445.93,-204.85"/>
<text text-anchor="middle" x="347" y="-271.7" font-family="Times,serif" font-size="14.00">1</text>
</g>
<!-- app.signals&#45;&gt;app.telegram -->
<g id="edge32" class="edge">
<title>app.signals&#45;&gt;app.telegram</title>
<path fill="none" stroke="#0f766e" d="M242.36,-322.94C255.77,-321.25 270.55,-319.39 284.66,-317.62"/>
<polygon fill="#0f766e" stroke="#0f766e" points="285.32,-320.01 291.96,-316.7 284.71,-315.14 285.32,-320.01"/>
<text text-anchor="middle" x="269" y="-324.7" font-family="Times,serif" font-size="14.00">1</text>
</g>
<!-- app.signals&#45;&gt;app.utils -->
<g id="edge33" class="edge">
<title>app.signals&#45;&gt;app.utils</title>
<path fill="none" stroke="#0f766e" d="M220.31,-310.87C229.98,-302.58 240.11,-291.92 246,-279.9 289.8,-190.61 215.97,-125.02 292,-60.9 331.54,-27.55 353.13,-39.84 402,-22.9 422.45,-15.81 426.66,-10.51 448,-6.9 490.07,0.21 501.48,-3.38 544,-6.9 619.44,-13.14 654.18,13.95 712,-34.9 759.41,-74.96 790.04,-269.36 799.71,-339.56"/>
<polygon fill="#0f766e" stroke="#0f766e" points="797.31,-340.11 800.68,-346.72 802.16,-339.46 797.31,-340.11"/>
<text text-anchor="middle" x="496" y="-10.7" font-family="Times,serif" font-size="14.00">2</text>
</g>
<!-- app.telegram&#45;&gt;app.config -->
<g id="edge34" class="edge">
<title>app.telegram&#45;&gt;app.config</title>
<path fill="none" stroke="#0f766e" d="M392.61,-291.89C395.83,-290.29 398.99,-288.62 402,-286.9 424.07,-274.28 425.94,-265.53 448,-252.9 488.26,-229.85 503.41,-234.38 544,-211.9 565.79,-199.84 569.5,-194.04 590,-179.9 598.86,-173.79 608.48,-167.2 617.37,-161.13"/>
<polygon fill="#0f766e" stroke="#0f766e" points="618.99,-162.99 623.38,-157.02 616.22,-158.94 618.99,-162.99"/>
<text text-anchor="middle" x="496" y="-256.7" font-family="Times,serif" font-size="14.00">3</text>
</g>
<!-- app.telegram&#45;&gt;app.data -->
<g id="edge35" class="edge">
<title>app.telegram&#45;&gt;app.data</title>
<path fill="none" stroke="#0f766e" d="M402.25,-315.42C447.86,-320.59 514.61,-329.41 572,-341.9 582.75,-344.24 594.18,-347.29 604.89,-350.39"/>
<polygon fill="#0f766e" stroke="#0f766e" points="604.4,-352.8 611.8,-352.44 605.78,-348.1 604.4,-352.8"/>
<text text-anchor="middle" x="496" y="-339.7" font-family="Times,serif" font-size="14.00">7</text>
</g>
<!-- app.telegram&#45;&gt;app.logger -->
<g id="edge36" class="edge">
<title>app.telegram&#45;&gt;app.logger</title>
<path fill="none" stroke="#0f766e" d="M359.85,-328.1C371.44,-346.33 389.16,-375.4 402,-401.9 426.55,-452.56 417.14,-472.83 448,-519.9 496.76,-594.28 508.93,-624.33 590,-660.9 641.14,-683.97 706.29,-684.65 750.99,-681.35"/>
<polygon fill="#0f766e" stroke="#0f766e" points="751.21,-683.79 757.99,-680.79 750.81,-678.91 751.21,-683.79"/>
<text text-anchor="middle" x="567" y="-654.7" font-family="Times,serif" font-size="14.00">1</text>
</g>
<!-- app.telegram&#45;&gt;app.market -->
<g id="edge37" class="edge">
<title>app.telegram&#45;&gt;app.market</title>
<path fill="none" stroke="#0f766e" d="M365.25,-328.07C382.28,-346.27 408.76,-375.32 430,-401.9 447.53,-423.84 466,-450.04 478.75,-468.68"/>
<polygon fill="#0f766e" stroke="#0f766e" points="476.89,-470.29 482.85,-474.7 480.94,-467.53 476.89,-470.29"/>
<text text-anchor="middle" x="425" y="-405.7" font-family="Times,serif" font-size="14.00">2</text>
</g>
<!-- app.telegram&#45;&gt;app.paper -->
<g id="edge38" class="edge">
<title>app.telegram&#45;&gt;app.paper</title>
<path fill="none" stroke="#0f766e" d="M372.32,-291.83C381.85,-284.42 392.7,-275.56 402,-266.9 424.1,-246.32 425.15,-236.64 448,-216.9 451.8,-213.62 455.95,-210.38 460.15,-207.29"/>
<polygon fill="#0f766e" stroke="#0f766e" points="461.62,-209.25 465.89,-203.18 458.77,-205.26 461.62,-209.25"/>
<text text-anchor="middle" x="425" y="-251.7" font-family="Times,serif" font-size="14.00">2</text>
</g>
<!-- app.telegram&#45;&gt;app.signals -->
<g id="edge39" class="edge">
<title>app.telegram&#45;&gt;app.signals</title>
<path fill="none" stroke="#0f766e" d="M291.99,-299.34C282.62,-298.83 273,-299.14 264,-300.9 255.67,-302.53 247.08,-305.16 238.91,-308.17"/>
<polygon fill="#0f766e" stroke="#0f766e" points="237.8,-305.97 232.15,-310.78 239.57,-310.55 237.8,-305.97"/>
<text text-anchor="middle" x="269" y="-304.7" font-family="Times,serif" font-size="14.00">2</text>
</g>
<!-- app.telegram&#45;&gt;app.utils -->
<g id="edge40" class="edge">
<title>app.telegram&#45;&gt;app.utils</title>
<path fill="none" stroke="#0f766e" d="M402.26,-309.77C473.92,-310.58 603.71,-315.43 712,-337.9 727.25,-341.07 743.65,-345.58 758.27,-350"/>
<polygon fill="#0f766e" stroke="#0f766e" points="757.87,-352.45 765.28,-352.17 759.32,-347.76 757.87,-352.45"/>
<text text-anchor="middle" x="567" y="-322.7" font-family="Times,serif" font-size="14.00">3</text>
</g>
<!-- tests -->
<g id="node13" class="node">
<title>tests</title>
<path fill="#f8fafc" stroke="#94a3b8" d="M63,-155.9C63,-155.9 33,-155.9 33,-155.9 27,-155.9 21,-149.9 21,-143.9 21,-143.9 21,-131.9 21,-131.9 21,-125.9 27,-119.9 33,-119.9 33,-119.9 63,-119.9 63,-119.9 69,-119.9 75,-125.9 75,-131.9 75,-131.9 75,-143.9 75,-143.9 75,-149.9 69,-155.9 63,-155.9"/>
<text text-anchor="middle" x="48" y="-134.2" font-family="Inter" font-size="14.00">tests</text>
</g>
<!-- tests&#45;&gt;app.config -->
<g id="edge41" class="edge">
<title>tests&#45;&gt;app.config</title>
<path fill="none" stroke="#0f766e" d="M75.37,-125.61C82.53,-121.54 89.97,-116.58 96,-110.9 123.1,-85.38 111,-61.52 142,-40.9 198.47,-3.34 224.47,-19.15 292,-12.9 403.59,-2.57 437.52,13.07 544,-21.9 558.06,-26.52 563.45,-27.83 572,-39.9 592.06,-68.23 567.15,-89.77 590,-115.9 592.78,-119.07 596.04,-121.81 599.59,-124.17"/>
<polygon fill="#0f766e" stroke="#0f766e" points="598.51,-126.38 605.79,-127.8 600.99,-122.15 598.51,-126.38"/>
<text text-anchor="middle" x="347" y="-16.7" font-family="Times,serif" font-size="14.00">4</text>
</g>
<!-- tests&#45;&gt;app.data -->
<g id="edge42" class="edge">
<title>tests&#45;&gt;app.data</title>
<path fill="none" stroke="#0f766e" d="M53.67,-155.92C72.06,-226.74 138.59,-482.28 142,-484.9 178.67,-513.04 200.2,-491.1 246,-484.9 316.93,-475.3 515.42,-410.28 605.06,-380.16"/>
<polygon fill="#0f766e" stroke="#0f766e" points="605.99,-382.43 611.84,-377.88 604.42,-377.79 605.99,-382.43"/>
<text text-anchor="middle" x="347" y="-478.7" font-family="Times,serif" font-size="14.00">1</text>
</g>
<!-- tests&#45;&gt;app.paper -->
<g id="edge43" class="edge">
<title>tests&#45;&gt;app.paper</title>
<path fill="none" stroke="#0f766e" d="M75.37,-132.41C138.67,-120.42 303.35,-96.29 430,-139.9 444.15,-144.77 458.03,-153.65 469.31,-162.25"/>
<polygon fill="#0f766e" stroke="#0f766e" points="467.94,-164.29 474.96,-166.69 470.97,-160.44 467.94,-164.29"/>
<text text-anchor="middle" x="269" y="-119.7" font-family="Times,serif" font-size="14.00">3</text>
</g>
<!-- tests&#45;&gt;app.signals -->
<g id="edge44" class="edge">
<title>tests&#45;&gt;app.signals</title>
<path fill="none" stroke="#0f766e" d="M59.81,-156.02C76.25,-183.08 109.14,-235.23 142,-275.9 150.18,-286.03 159.94,-296.5 168.72,-305.43"/>
<polygon fill="#0f766e" stroke="#0f766e" points="167.08,-307.26 173.76,-310.5 170.56,-303.81 167.08,-307.26"/>
<text text-anchor="middle" x="119" y="-254.7" font-family="Times,serif" font-size="14.00">3</text>
</g>
<!-- tests&#45;&gt;app.telegram -->
<g id="edge45" class="edge">
<title>tests&#45;&gt;app.telegram</title>
<path fill="none" stroke="#0f766e" d="M75.22,-155.76C118.99,-185.16 210.2,-244.69 292,-286.9 293.22,-287.53 294.47,-288.16 295.73,-288.78"/>
<polygon fill="#0f766e" stroke="#0f766e" points="294.76,-291.04 302.13,-291.86 296.88,-286.62 294.76,-291.04"/>
<text text-anchor="middle" x="194" y="-264.7" font-family="Times,serif" font-size="14.00">3</text>
</g>
<!-- tools -->
<g id="node14" class="node">
<title>tools</title>
<path fill="#f8fafc" stroke="#94a3b8" d="M511,-66.9C511,-66.9 481,-66.9 481,-66.9 475,-66.9 469,-60.9 469,-54.9 469,-54.9 469,-42.9 469,-42.9 469,-36.9 475,-30.9 481,-30.9 481,-30.9 511,-30.9 511,-30.9 517,-30.9 523,-36.9 523,-42.9 523,-42.9 523,-54.9 523,-54.9 523,-60.9 517,-66.9 511,-66.9"/>
<text text-anchor="middle" x="496" y="-45.2" font-family="Inter" font-size="14.00">tools</text>
</g>
<!-- tests&#45;&gt;tools -->
<g id="edge46" class="edge">
<title>tests&#45;&gt;tools</title>
<path fill="none" stroke="#0f766e" d="M75.37,-124.02C123.8,-98.81 225.47,-47.35 264,-38.9 333.23,-23.73 416.84,-34.24 462.07,-42.23"/>
<polygon fill="#0f766e" stroke="#0f766e" points="461.67,-44.64 468.99,-43.48 462.54,-39.82 461.67,-44.64"/>
<text text-anchor="middle" x="269" y="-42.7" font-family="Times,serif" font-size="14.00">1</text>
</g>
<!-- tools&#45;&gt;app.config -->
<g id="edge47" class="edge">
<title>tools&#45;&gt;app.config</title>
<path fill="none" stroke="#0f766e" d="M523.15,-42.64C538.12,-40.39 556.87,-39.89 572,-46.9 601.74,-60.68 624.28,-92.01 637.3,-114.27"/>
<polygon fill="#0f766e" stroke="#0f766e" points="635.29,-115.69 640.87,-120.57 639.55,-113.28 635.29,-115.69"/>
<text text-anchor="middle" x="567" y="-50.7" font-family="Times,serif" font-size="14.00">1</text>
</g>
<!-- tools&#45;&gt;app.data -->
<g id="edge48" class="edge">
<title>tools&#45;&gt;app.data</title>
<path fill="none" stroke="#0f766e" d="M515.2,-67.09C532.35,-85.27 557.53,-114.78 572,-144.9 587.03,-176.19 579.29,-187.88 590,-220.9 603.93,-263.83 625.15,-311.89 638.26,-340.21"/>
<polygon fill="#0f766e" stroke="#0f766e" points="636.08,-341.31 641.25,-346.62 640.52,-339.24 636.08,-341.31"/>
<text text-anchor="middle" x="567" y="-148.7" font-family="Times,serif" font-size="14.00">2</text>
</g>
<!-- tools&#45;&gt;app.utils -->
<g id="edge49" class="edge">
<title>tools&#45;&gt;app.utils</title>
<path fill="none" stroke="#0f766e" d="M523.16,-44.44C534.99,-42.64 549.16,-40.79 562,-39.9 633.15,-35 663.09,-45 712,-96.9 778.17,-167.11 796.37,-287.27 801.26,-339.46"/>
<polygon fill="#0f766e" stroke="#0f766e" points="798.84,-339.89 801.89,-346.65 803.72,-339.47 798.84,-339.89"/>
<text text-anchor="middle" x="651" y="-100.7" font-family="Times,serif" font-size="14.00">1</text>
</g>
</g>
</svg>
