<?xml version="1.0" encoding="UTF-8" standalone="no"?>
<!DOCTYPE svg PUBLIC "-//W3C//DTD SVG 1.1//EN"
 "http://www.w3.org/Graphics/SVG/1.1/DTD/svg11.dtd">
<!-- Generated by graphviz version 2.43.0 (0)
 -->
<!-- Title: dependencies Pages: 1 -->
<svg width="850pt" height="798pt"
 viewBox="0.00 0.00 850.00 798.00" xmlns="http://www.w3.org/2000/svg" xmlns:xlink="http://www.w3.org/1999/xlink">
<g id="graph0" class="graph" transform="scale(1 1) rotate(0) translate(4 794)">
<title>dependencies</title>
<polygon fill="white" stroke="transparent" points="-4,4 -4,-794 846,-794 846,4 -4,4"/>
<!-- app.__init__ -->
<g id="node1" class="node">
<title>app.__init__</title>
<path fill="#f8fafc" stroke="#94a3b8" d="M84,-193C84,-193 12,-193 12,-193 6,-193 0,-187 0,-181 0,-181 0,-169 0,-169 0,-163 6,-157 12,-157 12,-157 84,-157 84,-157 90,-157 96,-163 96,-169 96,-169 96,-181 96,-181 96,-187 90,-193 84,-193"/>
<text text-anchor="middle" x="48" y="-171.3" font-family="Inter" font-size="14.00">app.__init__</text>
</g>
<!-- app.config -->
<g id="node2" class="node">
<title>app.config</title>
<path fill="#f8fafc" stroke="#94a3b8" d="M676,-410C676,-410 610,-410 610,-410 604,-410 598,-404 598,-398 598,-398 598,-386 598,-386 598,-380 604,-374 610,-374 610,-374 676,-374 676,-374 682,-374 688,-380 688,-386 688,-386 688,-398 688,-398 688,-404 682,-410 676,-410"/>
<text text-anchor="middle" x="643" y="-388.3" font-family="Inter" font-size="14.00">app.config</text>
</g>
<!-- app.data -->
<g id="node3" class="node">
<title>app.data</title>
<path fill="#f8fafc" stroke="#94a3b8" d="M670,-652C670,-652 616,-652 616,-652 610,-652 604,-646 604,-640 604,-640 604,-628 604,-628 604,-622 610,-616 616,-616 616,-616 670,-616 670,-616 676,-616 682,-622 682,-628 682,-628 682,-640 682,-640 682,-646 676,-652 670,-652"/>
<text text-anchor="middle" x="643" y="-630.3" font-family="Inter" font-size="14.00">app.data</text>
</g>
<!-- app.utils -->
<g id="node11" class="node">
<title>app.utils</title>
<path fill="#f8fafc" stroke="#94a3b8" d="M822.5,-535C822.5,-535 769.5,-535 769.5,-535 763.5,-535 757.5,-529 757.5,-523 757.5,-523 757.5,-511 757.5,-511 757.5,-505 763.5,-499 769.5,-499 769.5,-499 822.5,-499 822.5,-499 828.5,-499 834.5,-505 834.5,-511 834.5,-511 834.5,-523 834.5,-523 834.5,-529 828.5,-535 822.5,-535"/>
<text text-anchor="middle" x="796" y="-513.3" font-family="Inter" font-size="14.00">app.utils</text>
</g>
<!-- app.data&#45;&gt;app.utils -->
<g id="edge1" class="edge">
<title>app.data&#45;&gt;app.utils</title>
<path fill="none" stroke="#0f766e" d="M682.35,-625.35C698.74,-620.37 717.41,-612.89 732,-602 753.69,-585.82 771.29,-560.11 782.31,-541.19"/>
<polygon fill="#0f766e" stroke="#0f766e" points="784.47,-542.36 785.79,-535.06 780.21,-539.94 784.47,-542.36"/>
<text text-anchor="middle" x="727" y="-610.8" font-family="Times,serif" font-size="14.00">2</text>
</g>
<!-- app.exchanges -->
<g id="node4" class="node">
<title>app.exchanges</title>
<path fill="#f8fafc" stroke="#94a3b8" d="M692,-150C692,-150 594,-150 594,-150 588,-150 582,-144 582,-138 582,-138 582,-126 582,-126 582,-120 588,-114 594,-114 594,-114 692,-114 692,-114 698,-114 704,-120 704,-126 704,-126 704,-138 704,-138 704,-144 698,-150 692,-150"/>
<text text-anchor="middle" x="643" y="-128.3" font-family="Inter" font-size="14.00">app.exchanges</text>
</g>
<!-- app.logger -->
<g id="node5" class="node">
<title>app.logger</title>
<path fill="#f8fafc" stroke="#94a3b8" d="M830,-112C830,-112 762,-112 762,-112 756,-112 750,-106 750,-100 750,-100 750,-88 750,-88 750,-82 756,-76 762,-76 762,-76 830,-76 830,-76 836,-76 842,-82 842,-88 842,-88 842,-100 842,-100 842,-106 836,-112 830,-112"/>
<text text-anchor="middle" x="796" y="-90.3" font-family="Inter" font-size="14.00">app.logger</text>
</g>
<!-- app.exchanges&#45;&gt;app.logger -->
<g id="edge2" class="edge">
<title>app.exchanges&#45;&gt;app.logger</title>
<path fill="none" stroke="#0f766e" d="M704.41,-115.52C710.35,-113.96 716.29,-112.43 722,-111 728.72,-109.31 735.8,-107.59 742.81,-105.93"/>
<polygon fill="#0f766e" stroke="#0f766e" points="743.52,-108.27 749.77,-104.28 742.39,-103.51 743.52,-108.27"/>
<text text-anchor="middle" x="727" y="-114.8" font-family="Times,serif" font-size="14.00">1</text>
</g>
<!-- app.exchanges&#45;&gt;app.utils -->
<g id="edge3" class="edge">
<title>app.exchanges&#45;&gt;app.utils</title>
<path fill="none" stroke="#0f766e" d="M704.24,-133.68C714.63,-136.56 724.49,-141.33 732,-149 779.89,-197.92 791.64,-416.68 794.29,-491.68"/>
<polygon fill="#0f766e" stroke="#0f766e" points="791.85,-491.97 794.53,-498.88 796.74,-491.8 791.85,-491.97"/>
<text text-anchor="middle" x="727" y="-152.8" font-family="Times,serif" font-size="14.00">2</text>
</g>
<!-- app.main -->
<g id="node6" class="node">
<title>app.main</title>
<path fill="#f8fafc" stroke="#94a3b8" d="M77,-247C77,-247 19,-247 19,-247 13,-247 7,-241 7,-235 7,-235 7,-223 7,-223 7,-217 13,-211 19,-211 19,-211 77,-211 77,-211 83,-211 89,-217 89,-223 89,-223 89,-235 89,-235 89,-241 83,-247 77,-247"/>
<text text-anchor="middle" x="48" y="-225.3" font-family="Inter" font-size="14.00">app.main</text>
</g>
<!-- app.main&#45;&gt;app.config -->
<g id="edge4" class="edge">
<title>app.main&#45;&gt;app.config</title>
<path fill="none" stroke="#0f766e" d="M89.24,-221.01C158.16,-208.71 302.87,-188.94 422,-213 475.89,-223.88 493.43,-226.22 536,-261 553.09,-274.96 554.78,-281.95 564,-302 576.88,-330.02 561.36,-346.1 582,-369 584.82,-372.13 588.12,-374.84 591.69,-377.18"/>
<polygon fill="#0f766e" stroke="#0f766e" points="590.63,-379.4 597.92,-380.79 593.09,-375.16 590.63,-379.4"/>
<text text-anchor="middle" x="339" y="-211.8" font-family="Times,serif" font-size="14.00">1</text>
</g>
<!-- app.main&#45;&gt;app.data -->
<g id="edge5" class="edge">
<title>app.main&#45;&gt;app.data</title>
<path fill="none" stroke="#0f766e" d="M51.62,-247.02C61.06,-309.49 95.27,-515.38 142,-560 277.48,-689.38 366.73,-644.08 554,-649 558.44,-649.12 559.58,-649.42 564,-649 574.7,-647.98 586.11,-646.19 596.81,-644.2"/>
<polygon fill="#0f766e" stroke="#0f766e" points="597.32,-646.59 603.73,-642.86 596.39,-641.78 597.32,-646.59"/>
<text text-anchor="middle" x="339" y="-655.8" font-family="Times,serif" font-size="14.00">1</text>
</g>
<!-- app.main&#45;&gt;app.exchanges -->
<g id="edge6" class="edge">
<title>app.main&#45;&gt;app.exchanges</title>
<path fill="none" stroke="#0f766e" d="M87.92,-210.77C90.99,-208.17 93.76,-205.26 96,-202 125.09,-159.75 76.51,-123.01 114,-88 205.09,-2.95 270.23,-58.48 394,-73 456.87,-80.38 526.9,-97.93 576.46,-111.98"/>
<polygon fill="#0f766e" stroke="#0f766e" points="575.91,-114.37 583.32,-113.94 577.26,-109.66 575.91,-114.37"/>
<text text-anchor="middle" x="339" y="-76.8" font-family="Times,serif" font-size="14.00">2</text>
</g>
<!-- app.main&#45;&gt;app.logger -->
<g id="edge7" class="edge">
<title>app.main&#45;&gt;app.logger</title>
<path fill="none" stroke="#0f766e" d="M87.98,-210.8C91.03,-208.2 93.78,-205.27 96,-202 127.96,-154.79 92.1,-127.63 114,-75 132.11,-31.48 141.86,0 189,0 189,0 189,0 644,0 697.27,0 747.31,-42.68 774.29,-70.52"/>
<polygon fill="#0f766e" stroke="#0f766e" points="772.77,-72.49 779.37,-75.88 776.33,-69.11 772.77,-72.49"/>
<text text-anchor="middle" x="417" y="-3.8" font-family="Times,serif" font-size="14.00">1</text>
</g>
<!-- app.market -->
<g id="node7" class="node">
<title>app.market</title>
<path fill="#f8fafc" stroke="#94a3b8" d="M524,-306C524,-306 452,-306 452,-306 446,-306 440,-300 440,-294 440,-294 440,-282 440,-282 440,-276 446,-270 452,-270 452,-270 524,-270 524,-270 530,-270 536,-276 536,-282 536,-282 536,-294 536,-294 536,-300 530,-306 524,-306"/>
<text text-anchor="middle" x="488" y="-284.3" font-family="Inter" font-size="14.00">app.market</text>
</g>
<!-- app.main&#45;&gt;app.market -->
<g id="edge8" class="edge">
<title>app.main&#45;&gt;app.market</title>
<path fill="none" stroke="#0f766e" d="M89.2,-226.18C132.91,-223.8 204.74,-221.95 266,-230 324.05,-237.63 388.63,-255.74 432.91,-269.71"/>
<polygon fill="#0f766e" stroke="#0f766e" points="432.43,-272.13 439.84,-271.92 433.91,-267.46 432.43,-272.13"/>
<text text-anchor="middle" x="261" y="-233.8" font-family="Times,serif" font-size="14.00">3</text>
</g>
<!-- app.paper -->
<g id="node8" class="node">
<title>app.paper</title>
<path fill="#f8fafc" stroke="#94a3b8" d="M520,-523C520,-523 456,-523 456,-523 450,-523 444,-517 444,-511 444,-511 444,-499 444,-499 444,-493 450,-487 456,-487 456,-487 520,-487 520,-487 526,-487 532,-493 532,-499 532,-499 532,-511 532,-511 532,-517 526,-523 520,-523"/>
<text text-anchor="middle" x="488" y="-501.3" font-family="Inter" font-size="14.00">app.paper</text>
</g>
<!-- app.main&#45;&gt;app.paper -->
<g id="edge9" class="edge">
<title>app.main&#45;&gt;app.paper</title>
<path fill="none" stroke="#0f766e" d="M89.28,-236.95C175.78,-254.39 373.2,-296.24 394,-319 426.83,-354.92 396.78,-380.78 412,-427 420.58,-453.05 420.45,-462.76 440,-482 440.11,-482.1 440.21,-482.21 440.32,-482.31"/>
<polygon fill="#0f766e" stroke="#0f766e" points="438.52,-483.99 445.43,-486.68 441.7,-480.27 438.52,-483.99"/>
<text text-anchor="middle" x="261" y="-278.8" font-family="Times,serif" font-size="14.00">1</text>
</g>
<!-- app.signals -->
<g id="node9" class="node">
<title>app.signals</title>
<path fill="#f8fafc" stroke="#94a3b8" d="M226,-489C226,-489 154,-489 154,-489 148,-489 142,-483 142,-477 142,-477 142,-465 142,-465 142,-459 148,-453 154,-453 154,-453 226,-453 226,-453 232,-453 238,-459 238,-465 238,-465 238,-477 238,-477 238,-483 232,-489 226,-489"/>
<text text-anchor="middle" x="190" y="-467.3" font-family="Inter" font-size="14.00">app.signals</text>
</g>
<!-- app.main&#45;&gt;app.signals -->
<g id="edge10" class="edge">
<title>app.main&#45;&gt;app.signals</title>
<path fill="none" stroke="#0f766e" d="M59.52,-247.19C84.41,-290.22 146.92,-398.26 174.98,-446.77"/>
<polygon fill="#0f766e" stroke="#0f766e" points="172.92,-448.1 178.55,-452.93 177.16,-445.64 172.92,-448.1"/>
<text text-anchor="middle" x="119" y="-360.8" font-family="Times,serif" font-size="14.00">2</text>
</g>
<!-- app.telegram -->
<g id="node10" class="node">
<title>app.telegram</title>
<path fill="#f8fafc" stroke="#94a3b8" d="M382,-560C382,-560 296,-560 296,-560 290,-560 284,-554 284,-548 284,-548 284,-536 284,-536 284,-530 290,-524 296,-524 296,-524 382,-524 382,-524 388,-524 394,-530 394,-536 394,-536 394,-548 394,-548 394,-554 388,-560 382,-560"/>
<text text-anchor="middle" x="339" y="-538.3" font-family="Inter" font-size="14.00">app.telegram</text>
</g>
<!-- app.main&#45;&gt;app.telegram -->
<g id="edge11" class="edge">
<title>app.main&#45;&gt;app.telegram</title>
<path fill="none" stroke="#0f766e" d="M50.14,-247.05C54.08,-294.58 71.14,-424.58 142,-498 176.41,-533.66 233.01,-543.29 276.56,-544.8"/>
<polygon fill="#0f766e" stroke="#0f766e" points="276.64,-547.25 283.7,-544.98 276.77,-542.35 276.64,-547.25"/>
<text text-anchor="middle" x="190" y="-544.8" font-family="Times,serif" font-size="14.00">1</text>
</g>
<!-- app.main&#45;&gt;app.utils -->
<g id="edge12" class="edge">
<title>app.main&#45;&gt;app.utils</title>
<path fill="none" stroke="#0f766e" d="M89.11,-213.29C105.28,-207.69 124.27,-202.02 142,-199 203.56,-188.5 654.24,-154.26 704,-192 752.76,-228.98 782.53,-422 791.84,-491.79"/>
<polygon fill="#0f766e" stroke="#0f766e" points="789.44,-492.29 792.78,-498.91 794.3,-491.65 789.44,-492.29"/>
<text text-anchor="middle" x="417" y="-181.8" font-family="Times,serif" font-size="14.00">2</text>
</g>
<!-- app.market&#45;&gt;app.config -->
<g id="edge13" class="edge">
<title>app.market&#45;&gt;app.config</title>
<path fill="none" stroke="#0f766e" d="M536.17,-299.21C545.77,-302.54 555.51,-306.75 564,-312 587.86,-326.76 609.66,-350.38 624.11,-368.14"/>
<polygon fill="#0f766e" stroke="#0f766e" points="622.44,-369.97 628.72,-373.91 626.27,-366.91 622.44,-369.97"/>
<text text-anchor="middle" x="559" y="-315.8" font-family="Times,serif" font-size="14.00">1</text>
</g>
<!-- app.market&#45;&gt;app.data -->
<g id="edge14" class="edge">
<title>app.market&#45;&gt;app.data</title>
<path fill="none" stroke="#0f766e" d="M500.89,-306.27C517.62,-332.84 547.85,-384.2 564,-432 579.01,-476.44 565.46,-492.1 582,-536 592.18,-563 610.01,-590.78 623.6,-609.83"/>
<polygon fill="#0f766e" stroke="#0f766e" points="621.93,-611.71 628.02,-615.95 625.9,-608.84 621.93,-611.71"/>
<text text-anchor="middle" x="559" y="-435.8" font-family="Times,serif" font-size="14.00">2</text>
</g>
<!-- app.market&#45;&gt;app.exchanges -->
<g id="edge15" class="edge">
<title>app.market&#45;&gt;app.exchanges</title>
<path fill="none" stroke="#0f766e" d="M506.85,-269.8C534.72,-241.38 588.54,-186.51 619.19,-155.26"/>
<polygon fill="#0f766e" stroke="#0f766e" points="621.11,-156.8 624.26,-150.08 617.61,-153.37 621.11,-156.8"/>
<text text-anchor="middle" x="559" y="-222.8" font-family="Times,serif" font-size="14.00">4</text>
</g>
<!-- app.market&#45;&gt;app.logger -->
<g id="edge16" class="edge">
<title>app.market&#45;&gt;app.logger</title>
<path fill="none" stroke="#0f766e" d="M536.07,-271.38C587.52,-251.78 670.77,-215.73 732,-168 750.09,-153.9 766.74,-133.9 778.37,-118.25"/>
<polygon fill="#0f766e" stroke="#0f766e" points="780.58,-119.37 782.73,-112.27 776.62,-116.49 780.58,-119.37"/>
<text text-anchor="middle" x="643" y="-254.8" font-family="Times,serif" font-size="14.00">2</text>
</g>
<!-- app.market&#45;&gt;app.utils -->
<g id="edge17" class="edge">
<title>app.market&#45;&gt;app.utils</title>
<path fill="none" stroke="#0f766e" d="M536.1,-290.61C583.49,-295.53 656.21,-309.66 704,-350 749.53,-388.44 776.09,-455.67 787.8,-492"/>
<polygon fill="#0f766e" stroke="#0f766e" points="785.51,-492.89 789.95,-498.84 790.19,-491.43 785.51,-492.89"/>
<text text-anchor="middle" x="643" y="-353.8" font-family="Times,serif" font-size="14.00">3</text>
</g>
<!-- app.paper&#45;&gt;app.config -->
<g id="edge18" class="edge">
<title>app.paper&#45;&gt;app.config</title>
<path fill="none" stroke="#0f766e" d="M514.42,-486.71C521.42,-481.65 529.02,-476.13 536,-471 561.7,-452.13 590.73,-430.47 611.9,-414.61"/>
<polygon fill="#0f766e" stroke="#0f766e" points="613.52,-416.46 617.65,-410.3 610.58,-412.54 613.52,-416.46"/>
<text text-anchor="middle" x="559" y="-458.8" font-family="Times,serif" font-size="14.00">4</text>
</g>
<!-- app.paper&#45;&gt;app.data -->
<g id="edge19" class="edge">
<title>app.paper&#45;&gt;app.data</title>
<path fill="none" stroke="#0f766e" d="M522.76,-523.12C536.14,-530.95 551.33,-540.68 564,-551 585.91,-568.83 607.65,-592.61 622.6,-610.14"/>
<polygon fill="#0f766e" stroke="#0f766e" points="621.01,-612.06 627.39,-615.83 624.75,-608.9 621.01,-612.06"/>
<text text-anchor="middle" x="559" y="-554.8" font-family="Times,serif" font-size="14.00">6</text>
</g>
<!-- app.paper&#45;&gt;app.logger -->
<g id="edge20" class="edge">
<title>app.paper&#45;&gt;app.logger</title>
<path fill="none" stroke="#0f766e" d="M532.19,-499.24C580.85,-490.46 659.01,-469.1 704,-419 783.21,-330.78 794.06,-178.98 795.12,-119.22"/>
<polygon fill="#0f766e" stroke="#0f766e" points="797.57,-119.1 795.21,-112.07 792.67,-119.04 797.57,-119.1"/>
<text text-anchor="middle" x="643" y="-490.8" font-family="Times,serif" font-size="14.00">1</text>
</g>
<!-- app.paper&#45;&gt;app.utils -->
<g id="edge21" class="edge">
<title>app.paper&#45;&gt;app.utils</title>
<path fill="none" stroke="#0f766e" d="M532.19,-506.69C589.86,-508.96 691.51,-512.94 750.05,-515.24"/>
<polygon fill="#0f766e" stroke="#0f766e" points="750.23,-517.7 757.32,-515.52 750.42,-512.8 750.23,-517.7"/>
<text text-anchor="middle" x="643" y="-516.8" font-family="Times,serif" font-size="14.00">3</text>
</g>
<!-- app.signals&#45;&gt;app.config -->
<g id="edge22" class="edge">
<title>app.signals&#45;&gt;app.config</title>
<path fill="none" stroke="#0f766e" d="M238.1,-460.41C288.05,-449.4 369.33,-432.12 440,-420 491.02,-411.25 549.66,-403.36 590.57,-398.2"/>
<polygon fill="#0f766e" stroke="#0f766e" points="591.1,-400.61 597.74,-397.3 590.49,-395.74 591.1,-400.61"/>
<text text-anchor="middle" x="417" y="-427.8" font-family="Times,serif" font-size="14.00">4</text>
</g>
<!-- app.signals&#45;&gt;app.data -->
<g id="edge23" class="edge">
<title>app.signals&#45;&gt;app.data</title>
<path fill="none" stroke="#0f766e" d="M232.8,-489.1C234.66,-490.62 236.41,-492.25 238,-494 253.32,-510.87 243.49,-522.96 256,-542 265.49,-556.45 269.26,-559.96 284,-569 383.17,-629.83 524.94,-636.78 596.69,-635.89"/>
<polygon fill="#0f766e" stroke="#0f766e" points="596.87,-638.33 603.83,-635.77 596.79,-633.44 596.87,-638.33"/>
<text text-anchor="middle" x="417" y="-622.8" font-family="Times,serif" font-size="14.00">4</text>
</g>
<!-- app.signals&#45;&gt;app.exchanges -->
<g id="edge24" class="edge">
<title>app.signals&#45;&gt;app.exchanges</title>
<path fill="none" stroke="#0f766e" d="M197.31,-452.92C209.47,-420.36 238.98,-351.31 284,-309 369.09,-229.03 497.16,-177.67 574.84,-151.89"/>
<polygon fill="#0f766e" stroke="#0f766e" points="575.85,-154.14 581.73,-149.63 574.32,-149.49 575.85,-154.14"/>
<text text-anchor="middle" x="417" y="-222.8" font-family="Times,serif" font-size="14.00">1</text>
</g>
<!-- app.signals&#45;&gt;app.logger -->
<g id="edge25" class="edge">
<title>app.signals&#45;&gt;app.logger</title>
<path fill="none" stroke="#0f766e" d="M198.77,-452.75C212.87,-419.34 243.34,-345.99 266,-283 274.85,-258.4 266.61,-246.52 284,-227 319.72,-186.9 346.93,-202.85 394,-177 415.39,-165.25 418.72,-158.96 440,-147 500.99,-112.7 513.76,-94.5 582,-79 647.01,-64.24 665.87,-71.54 732,-80 735.52,-80.45 739.14,-81 742.77,-81.63"/>
<polygon fill="#0f766e" stroke="#0f766e" points="742.42,-84.06 749.75,-82.91 743.31,-79.24 742.42,-84.06"/>
<text text-anchor="middle" x="488" y="-150.8" font-family="Times,serif" font-size="14.00">2</text>
</g>
<!-- app.signals&#45;&gt;app.market -->
<g id="edge26" class="edge">
<title>app.signals&#45;&gt;app.market</title>
<path fill="none" stroke="#0f766e" d="M202.74,-452.81C218.62,-429.53 249,-389.28 284,-365 329.62,-333.35 389.95,-312.63 432.96,-300.74"/>
<polygon fill="#0f766e" stroke="#0f766e" points="433.86,-303.03 439.97,-298.83 432.57,-298.3 433.86,-303.03"/>
<text text-anchor="middle" x="339" y="-368.8" font-family="Times,serif" font-size="14.00">3</text>
</g>
<!-- app.signals&#45;&gt;app.paper -->
<g id="edge27" class="edge">
<title>app.signals&#45;&gt;app.paper</title>
<path fill="none" stroke="#0f766e" d="M238.23,-476.42C292.43,-482.65 380.98,-492.82 436.52,-499.2"/>
<polygon fill="#0f766e" stroke="#0f766e" points="436.56,-501.67 443.79,-500.04 437.12,-496.8 436.56,-501.67"/>
<text text-anchor="middle" x="339" y="-497.8" font-family="Times,serif" font-size="14.00">1</text>
</g>
<!-- app.signals&#45;&gt;app.telegram -->
<g id="edge28" class="edge">
<title>app.signals&#45;&gt;app.telegram</title>
<path fill="none" stroke="#0f766e" d="M232.04,-489.17C243.11,-494.19 255.06,-499.71 266,-505 276.27,-509.96 287.26,-515.5 297.49,-520.74"/>
<polygon fill="#0f766e" stroke="#0f766e" points="296.4,-522.94 303.75,-523.96 298.64,-518.58 296.4,-522.94"/>
<text text-anchor="middle" x="261" y="-508.8" font-family="Times,serif" font-size="14.00">1</text>
</g>
<!-- app.signals&#45;&gt;app.utils -->
<g id="edge29" class="edge">
<title>app.signals&#45;&gt;app.utils</title>
<path fill="none" stroke="#0f766e" d="M233.43,-489.28C235.08,-490.74 236.62,-492.31 238,-494 257.83,-518.17 247.97,-531.79 256,-562 268.4,-608.68 248.46,-634.29 284,-667 335.83,-714.7 369.84,-688.75 440,-695 557.84,-705.49 604.22,-724.56 704,-661 748.01,-632.97 774.58,-575.17 786.85,-541.95"/>
<polygon fill="#0f766e" stroke="#0f766e" points="789.19,-542.67 789.25,-535.26 784.58,-541.02 789.19,-542.67"/>
<text text-anchor="middle" x="488" y="-707.8" font-family="Times,serif" font-size="14.00">2</text>
</g>
<!-- app.telegram&#45;&gt;app.config -->
<g id="edge30" class="edge">
<title>app.telegram&#45;&gt;app.config</title>
<path fill="none" stroke="#0f766e" d="M377.62,-523.92C383.31,-520.59 388.96,-516.91 394,-513 417.86,-494.49 414.78,-479.61 440,-463 465.25,-446.36 539.99,-422.2 591.12,-406.79"/>
<polygon fill="#0f766e" stroke="#0f766e" points="591.86,-409.13 597.86,-404.77 590.45,-404.43 591.86,-409.13"/>
<text text-anchor="middle" x="488" y="-466.8" font-family="Times,serif" font-size="14.00">3</text>
</g>
<!-- app.telegram&#45;&gt;app.data -->
<g id="edge31" class="edge">
<title>app.telegram&#45;&gt;app.data</title>
<path fill="none" stroke="#0f766e" d="M388.65,-560.07C396.43,-562.81 404.41,-565.54 412,-568 475.72,-588.62 550.41,-609.45 596.97,-622.04"/>
<polygon fill="#0f766e" stroke="#0f766e" points="596.52,-624.45 603.91,-623.91 597.79,-619.72 596.52,-624.45"/>
<text text-anchor="middle" x="488" y="-607.8" font-family="Times,serif" font-size="14.00">6</text>
</g>
<!-- app.telegram&#45;&gt;app.logger -->
<g id="edge32" class="edge">
<title>app.telegram&#45;&gt;app.logger</title>
<path fill="none" stroke="#0f766e" d="M383.6,-523.86C387.6,-520.74 391.2,-517.14 394,-513 414.05,-483.37 404.76,-388.04 412,-353 420.65,-311.14 418.88,-298.16 440,-261 486.34,-179.5 497.25,-145.1 582,-105 632.67,-81.02 697.91,-81.56 742.76,-86"/>
<polygon fill="#0f766e" stroke="#0f766e" points="742.56,-88.44 749.78,-86.74 743.07,-83.57 742.56,-88.44"/>
<text text-anchor="middle" x="559" y="-121.8" font-family="Times,serif" font-size="14.00">1</text>
</g>
<!-- app.telegram&#45;&gt;app.market -->
<g id="edge33" class="edge">
<title>app.telegram&#45;&gt;app.market</title>
<path fill="none" stroke="#0f766e" d="M380.42,-523.85C385.68,-519.96 390.46,-515.36 394,-510 427.6,-459.12 386.89,-429.56 412,-374 422.99,-349.67 443.2,-327.12 459.87,-311.22"/>
<polygon fill="#0f766e" stroke="#0f766e" points="461.92,-312.66 465.37,-306.09 458.58,-309.08 461.92,-312.66"/>
<text text-anchor="middle" x="417" y="-377.8" font-family="Times,serif" font-size="14.00">2</text>
</g>
<!-- app.telegram&#45;&gt;app.paper -->
<g id="edge34" class="edge">
<title>app.telegram&#45;&gt;app.paper</title>
<path fill="none" stroke="#0f766e" d="M394.32,-528.33C408.25,-524.82 423.17,-521.07 436.87,-517.62"/>
<polygon fill="#0f766e" stroke="#0f766e" points="437.73,-519.93 443.92,-515.84 436.53,-515.18 437.73,-519.93"/>
<text text-anchor="middle" x="417" y="-526.8" font-family="Times,serif" font-size="14.00">1</text>
</g>
<!-- app.telegram&#45;&gt;app.signals -->
<g id="edge35" class="edge">
<title>app.telegram&#45;&gt;app.signals</title>
<path fill="none" stroke="#0f766e" d="M283.99,-530.68C274.43,-527.8 264.74,-524.27 256,-520 241.81,-513.08 227.63,-502.86 216.15,-493.55"/>
<polygon fill="#0f766e" stroke="#0f766e" points="217.69,-491.65 210.74,-489.07 214.57,-495.42 217.69,-491.65"/>
<text text-anchor="middle" x="261" y="-526.8" font-family="Times,serif" font-size="14.00">2</text>
</g>
<!-- app.telegram&#45;&gt;app.utils -->
<g id="edge36" class="edge">
<title>app.telegram&#45;&gt;app.utils</title>
<path fill="none" stroke="#0f766e" d="M394.39,-549.8C437.56,-555.58 499.5,-562.95 554,-566 623.68,-569.9 702.64,-548.84 750.61,-533.11"/>
<polygon fill="#0f766e" stroke="#0f766e" points="751.59,-535.36 757.46,-530.83 750.04,-530.71 751.59,-535.36"/>
<text text-anchor="middle" x="559" y="-569.8" font-family="Times,serif" font-size="14.00">2</text>
</g>
<!-- tests -->
<g id="node12" class="node">
<title>tests</title>
<path fill="#f8fafc" stroke="#94a3b8" d="M63,-704C63,-704 33,-704 33,-704 27,-704 21,-698 21,-692 21,-692 21,-680 21,-680 21,-674 27,-668 33,-668 33,-668 63,-668 63,-668 69,-668 75,-674 75,-680 75,-680 75,-692 75,-692 75,-698 69,-704 63,-704"/>
<text text-anchor="middle" x="48" y="-682.3" font-family="Inter" font-size="14.00">tests</text>
</g>
<!-- tests&#45;&gt;app.config -->
<g id="edge37" class="edge">
<title>tests&#45;&gt;app.config</title>
<path fill="none" stroke="#0f766e" d="M50.58,-667.73C55.82,-611.65 74.6,-443.68 114,-409 207.91,-326.34 286.32,-443.7 394,-380 406.1,-372.84 399.55,-360.52 412,-354 415.94,-351.94 417.57,-353.62 422,-354 480.29,-359 546.31,-371.31 590.69,-380.58"/>
<polygon fill="#0f766e" stroke="#0f766e" points="590.27,-382.99 597.63,-382.03 591.28,-378.2 590.27,-382.99"/>
<text text-anchor="middle" x="339" y="-402.8" font-family="Times,serif" font-size="14.00">3</text>
</g>
<!-- tests&#45;&gt;app.data -->
<g id="edge38" class="edge">
<title>tests&#45;&gt;app.data</title>
<path fill="none" stroke="#0f766e" d="M75.04,-700.55C81.91,-704.5 89.28,-708.84 96,-713 138.23,-739.16 139.32,-775 189,-775 189,-775 189,-775 418,-775 504.94,-775 585.72,-697.99 621.96,-657.79"/>
<polygon fill="#0f766e" stroke="#0f766e" points="624.16,-659 626.98,-652.14 620.5,-655.75 624.16,-659"/>
<text text-anchor="middle" x="339" y="-778.8" font-family="Times,serif" font-size="14.00">1</text>
</g>
<!-- tests&#45;&gt;app.paper -->
<g id="edge39" class="edge">
<title>tests&#45;&gt;app.paper</title>
<path fill="none" stroke="#0f766e" d="M75.08,-691.38C135.25,-702.41 286.78,-722.16 394,-667 409.93,-658.8 413.11,-653.56 422,-638 436.87,-611.97 427.3,-600.15 440,-573 447.31,-557.36 458.14,-541.4 467.55,-528.88"/>
<polygon fill="#0f766e" stroke="#0f766e" points="469.72,-530.07 472.04,-523.02 465.84,-527.09 469.72,-530.07"/>
<text text-anchor="middle" x="261" y="-705.8" font-family="Times,serif" font-size="14.00">1</text>
</g>
<!-- tests&#45;&gt;app.signals -->
<g id="edge40" class="edge">
<title>tests&#45;&gt;app.signals</title>
<path fill="none" stroke="#0f766e" d="M60.94,-667.67C86.15,-628.95 144.82,-538.85 173.14,-495.35"/>
<polygon fill="#0f766e" stroke="#0f766e" points="175.33,-496.49 177.09,-489.28 171.22,-493.81 175.33,-496.49"/>
<text text-anchor="middle" x="119" y="-587.8" font-family="Times,serif" font-size="14.00">3</text>
</g>
<!-- tests&#45;&gt;app.telegram -->
<g id="edge41" class="edge">
<title>tests&#45;&gt;app.telegram</title>
<path fill="none" stroke="#0f766e" d="M75.19,-680.17C117.51,-669.98 202.61,-646.3 266,-608 285.09,-596.47 303.57,-579.36 317.03,-565.45"/>
<polygon fill="#0f766e" stroke="#0f766e" points="319.07,-566.87 322.11,-560.1 315.52,-563.49 319.07,-566.87"/>
<text text-anchor="middle" x="190" y="-664.8" font-family="Times,serif" font-size="14.00">2</text>
</g>
<!-- tools -->
<g id="node13" class="node">
<title>tools</title>
<path fill="#f8fafc" stroke="#94a3b8" d="M63,-758C63,-758 33,-758 33,-758 27,-758 21,-752 21,-746 21,-746 21,-734 21,-734 21,-728 27,-722 33,-722 33,-722 63,-722 63,-722 69,-722 75,-728 75,-734 75,-734 75,-746 75,-746 75,-752 69,-758 63,-758"/>
<text text-anchor="middle" x="48" y="-736.3" font-family="Inter" font-size="14.00">tools</text>
</g>
</g>
</svg>
