<?xml version="1.0" encoding="UTF-8" standalone="no"?>
<!DOCTYPE svg PUBLIC "-//W3C//DTD SVG 1.1//EN"
 "http://www.w3.org/Graphics/SVG/1.1/DTD/svg11.dtd">
<!-- Generated by graphviz version 2.43.0 (0)
 -->
<!-- Title: dependencies Pages: 1 -->
<svg width="989pt" height="1293pt"
 viewBox="0.00 0.00 989.00 1293.00" xmlns="http://www.w3.org/2000/svg" xmlns:xlink="http://www.w3.org/1999/xlink">
<g id="graph0" class="graph" transform="scale(1 1) rotate(0) translate(4 1289)">
<title>dependencies</title>
<polygon fill="white" stroke="transparent" points="-4,4 -4,-1289 985,-1289 985,4 -4,4"/>
<!-- app.__init__ -->
<g id="node1" class="node">
<title>app.__init__</title>
<path fill="#f8fafc" stroke="#94a3b8" d="M84,-216C84,-216 12,-216 12,-216 6,-216 0,-210 0,-204 0,-204 0,-192 0,-192 0,-186 6,-180 12,-180 12,-180 84,-180 84,-180 90,-180 96,-186 96,-192 96,-192 96,-204 96,-204 96,-210 90,-216 84,-216"/>
<text text-anchor="middle" x="48" y="-194.3" font-family="Inter" font-size="14.00">app.__init__</text>
</g>
<!-- app.analysis -->
<g id="node2" class="node">
<title>app.analysis</title>
<path fill="#f8fafc" stroke="#94a3b8" d="M234,-1149C234,-1149 154,-1149 154,-1149 148,-1149 142,-1143 142,-1137 142,-1137 142,-1125 142,-1125 142,-1119 148,-1113 154,-1113 154,-1113 234,-1113 234,-1113 240,-1113 246,-1119 246,-1125 246,-1125 246,-1137 246,-1137 246,-1143 240,-1149 234,-1149"/>
<text text-anchor="middle" x="194" y="-1127.3" font-family="Inter" font-size="14.00">app.analysis</text>
</g>
<!-- app.data -->
<g id="node4" class="node">
<title>app.data</title>
<path fill="#f8fafc" stroke="#94a3b8" d="M839,-435C839,-435 785,-435 785,-435 779,-435 773,-429 773,-423 773,-423 773,-411 773,-411 773,-405 779,-399 785,-399 785,-399 839,-399 839,-399 845,-399 851,-405 851,-411 851,-411 851,-423 851,-423 851,-429 845,-435 839,-435"/>
<text text-anchor="middle" x="812" y="-413.3" font-family="Inter" font-size="14.00">app.data</text>
</g>
<!-- app.analysis&#45;&gt;app.data -->
<g id="edge1" class="edge">
<title>app.analysis&#45;&gt;app.data</title>
<path fill="none" stroke="#0f766e" d="M246.17,-1118.03C288.4,-1106.89 349.68,-1089.69 402,-1071 438.19,-1058.07 695.13,-964.3 720,-935 765.59,-881.28 758.9,-623.2 766,-582 774.72,-531.4 792.19,-473.88 802.61,-441.87"/>
<polygon fill="#0f766e" stroke="#0f766e" points="804.99,-442.47 804.85,-435.06 800.34,-440.94 804.99,-442.47"/>
<text text-anchor="middle" x="500" y="-1057.8" font-family="Times,serif" font-size="14.00">3</text>
</g>
<!-- app.logger -->
<g id="node6" class="node">
<title>app.logger</title>
<path fill="#f8fafc" stroke="#94a3b8" d="M846,-964C846,-964 778,-964 778,-964 772,-964 766,-958 766,-952 766,-952 766,-940 766,-940 766,-934 772,-928 778,-928 778,-928 846,-928 846,-928 852,-928 858,-934 858,-940 858,-940 858,-952 858,-952 858,-958 852,-964 846,-964"/>
<text text-anchor="middle" x="812" y="-942.3" font-family="Inter" font-size="14.00">app.logger</text>
</g>
<!-- app.analysis&#45;&gt;app.logger -->
<g id="edge2" class="edge">
<title>app.analysis&#45;&gt;app.logger</title>
<path fill="none" stroke="#0f766e" d="M246.29,-1137.11C275.47,-1140.07 312.73,-1143 346,-1143 346,-1143 346,-1143 660,-1143 732.74,-1143 714.49,-1069.56 748,-1005 756.24,-989.12 753.41,-981.7 766,-969 766.11,-968.89 766.22,-968.78 766.33,-968.67"/>
<polygon fill="#0f766e" stroke="#0f766e" points="767.93,-970.52 771.61,-964.08 764.72,-966.82 767.93,-970.52"/>
<text text-anchor="middle" x="500" y="-1146.8" font-family="Times,serif" font-size="14.00">1</text>
</g>
<!-- app.utils -->
<g id="node13" class="node">
<title>app.utils</title>
<path fill="#f8fafc" stroke="#94a3b8" d="M969,-730C969,-730 916,-730 916,-730 910,-730 904,-724 904,-718 904,-718 904,-706 904,-706 904,-700 910,-694 916,-694 916,-694 969,-694 969,-694 975,-694 981,-700 981,-706 981,-706 981,-718 981,-718 981,-724 975,-730 969,-730"/>
<text text-anchor="middle" x="942.5" y="-708.3" font-family="Inter" font-size="14.00">app.utils</text>
</g>
<!-- app.analysis&#45;&gt;app.utils -->
<g id="edge3" class="edge">
<title>app.analysis&#45;&gt;app.utils</title>
<path fill="none" stroke="#0f766e" d="M225.06,-1149.01C254.73,-1165.05 301.92,-1186 346,-1186 346,-1186 346,-1186 813,-1186 906.9,-1186 934.34,-835.11 940.18,-737.13"/>
<polygon fill="#0f766e" stroke="#0f766e" points="942.63,-737.13 940.59,-730 937.74,-736.85 942.63,-737.13"/>
<text text-anchor="middle" x="575" y="-1189.8" font-family="Times,serif" font-size="14.00">1</text>
</g>
<!-- app.config -->
<g id="node3" class="node">
<title>app.config</title>
<path fill="#f8fafc" stroke="#94a3b8" d="M845,-212C845,-212 779,-212 779,-212 773,-212 767,-206 767,-200 767,-200 767,-188 767,-188 767,-182 773,-176 779,-176 779,-176 845,-176 845,-176 851,-176 857,-182 857,-188 857,-188 857,-200 857,-200 857,-206 851,-212 845,-212"/>
<text text-anchor="middle" x="812" y="-190.3" font-family="Inter" font-size="14.00">app.config</text>
</g>
<!-- app.data&#45;&gt;app.utils -->
<g id="edge4" class="edge">
<title>app.data&#45;&gt;app.utils</title>
<path fill="none" stroke="#0f766e" d="M831.14,-435.16C847.66,-452.67 871.63,-480.62 886,-509 916.3,-568.83 931.69,-647.24 937.96,-686.82"/>
<polygon fill="#0f766e" stroke="#0f766e" points="935.54,-687.2 939.03,-693.74 940.39,-686.45 935.54,-687.2"/>
<text text-anchor="middle" x="881" y="-512.8" font-family="Times,serif" font-size="14.00">2</text>
</g>
<!-- app.exchanges -->
<g id="node5" class="node">
<title>app.exchanges</title>
<path fill="#f8fafc" stroke="#94a3b8" d="M708,-1048C708,-1048 610,-1048 610,-1048 604,-1048 598,-1042 598,-1036 598,-1036 598,-1024 598,-1024 598,-1018 604,-1012 610,-1012 610,-1012 708,-1012 708,-1012 714,-1012 720,-1018 720,-1024 720,-1024 720,-1036 720,-1036 720,-1042 714,-1048 708,-1048"/>
<text text-anchor="middle" x="659" y="-1026.3" font-family="Inter" font-size="14.00">app.exchanges</text>
</g>
<!-- app.exchanges&#45;&gt;app.logger -->
<g id="edge5" class="edge">
<title>app.exchanges&#45;&gt;app.logger</title>
<path fill="none" stroke="#0f766e" d="M694.36,-1011.9C702.77,-1007.4 711.73,-1002.57 720,-998 737.72,-988.22 757.22,-977.12 773.61,-967.69"/>
<polygon fill="#0f766e" stroke="#0f766e" points="775.12,-969.65 779.96,-964.04 772.67,-965.41 775.12,-969.65"/>
<text text-anchor="middle" x="743" y="-989.8" font-family="Times,serif" font-size="14.00">1</text>
</g>
<!-- app.exchanges&#45;&gt;app.utils -->
<g id="edge6" class="edge">
<title>app.exchanges&#45;&gt;app.utils</title>
<path fill="none" stroke="#0f766e" d="M720.26,-1027.35C763.87,-1022.29 821.35,-1008.69 858,-973 924.92,-907.83 938.31,-789.1 940.91,-737.3"/>
<polygon fill="#0f766e" stroke="#0f766e" points="943.37,-737.26 941.22,-730.16 938.47,-737.04 943.37,-737.26"/>
<text text-anchor="middle" x="812" y="-1021.8" font-family="Times,serif" font-size="14.00">2</text>
</g>
<!-- app.main -->
<g id="node7" class="node">
<title>app.main</title>
<path fill="#f8fafc" stroke="#94a3b8" d="M77,-942C77,-942 19,-942 19,-942 13,-942 7,-936 7,-930 7,-930 7,-918 7,-918 7,-912 13,-906 19,-906 19,-906 77,-906 77,-906 83,-906 89,-912 89,-918 89,-918 89,-930 89,-930 89,-936 83,-942 77,-942"/>
<text text-anchor="middle" x="48" y="-920.3" font-family="Inter" font-size="14.00">app.main</text>
</g>
<!-- app.main&#45;&gt;app.analysis -->
<g id="edge7" class="edge">
<title>app.main&#45;&gt;app.analysis</title>
<path fill="none" stroke="#0f766e" d="M53.24,-942.1C61.05,-972.46 80.11,-1034.38 114,-1076 124.52,-1088.92 138.84,-1100.13 152.39,-1108.98"/>
<polygon fill="#0f766e" stroke="#0f766e" points="151.32,-1111.21 158.55,-1112.89 153.95,-1107.07 151.32,-1111.21"/>
<text text-anchor="middle" x="119" y="-1088.8" font-family="Times,serif" font-size="14.00">1</text>
</g>
<!-- app.main&#45;&gt;app.config -->
<g id="edge8" class="edge">
<title>app.main&#45;&gt;app.config</title>
<path fill="none" stroke="#0f766e" d="M49.17,-905.68C50.24,-836.81 57.99,-587.44 114,-392 122.11,-363.71 126.75,-357.17 142,-332 149.11,-320.27 279.85,-142.36 292,-136 460.58,-47.76 543.81,-54.15 720,-126 746.48,-136.8 742.78,-154.3 766,-171 766.43,-171.31 766.86,-171.61 767.3,-171.92"/>
<polygon fill="#0f766e" stroke="#0f766e" points="765.97,-173.98 773.17,-175.75 768.65,-169.87 765.97,-173.98"/>
<text text-anchor="middle" x="425" y="-86.8" font-family="Times,serif" font-size="14.00">1</text>
</g>
<!-- app.main&#45;&gt;app.data -->
<g id="edge9" class="edge">
<title>app.main&#45;&gt;app.data</title>
<path fill="none" stroke="#0f766e" d="M48.95,-905.87C49.14,-818.36 55.05,-441.12 142,-375 244.32,-297.2 597.73,-313.35 720,-353 745.42,-361.24 769.94,-379.27 787.12,-394.1"/>
<polygon fill="#0f766e" stroke="#0f766e" points="785.78,-396.19 792.65,-398.99 789.02,-392.52 785.78,-396.19"/>
<text text-anchor="middle" x="425" y="-323.8" font-family="Times,serif" font-size="14.00">2</text>
</g>
<!-- app.main&#45;&gt;app.exchanges -->
<g id="edge10" class="edge">
<title>app.main&#45;&gt;app.exchanges</title>
<path fill="none" stroke="#0f766e" d="M54.71,-942.14C63.3,-965.99 82.03,-1006.97 114,-1025 193.53,-1069.85 463.23,-1049.81 590.48,-1037.31"/>
<polygon fill="#0f766e" stroke="#0f766e" points="590.82,-1039.74 597.55,-1036.61 590.34,-1034.86 590.82,-1039.74"/>
<text text-anchor="middle" x="347" y="-1055.8" font-family="Times,serif" font-size="14.00">2</text>
</g>
<!-- app.main&#45;&gt;app.logger -->
<g id="edge11" class="edge">
<title>app.main&#45;&gt;app.logger</title>
<path fill="none" stroke="#0f766e" d="M49.27,-942.31C51.26,-1007.45 67.34,-1224 193,-1224 193,-1224 193,-1224 660,-1224 746.03,-1224 734.92,-1026.07 766.64,-970.1"/>
<polygon fill="#0f766e" stroke="#0f766e" points="768.86,-971.18 770.72,-964 764.79,-968.45 768.86,-971.18"/>
<text text-anchor="middle" x="425" y="-1227.8" font-family="Times,serif" font-size="14.00">1</text>
</g>
<!-- app.market -->
<g id="node8" class="node">
<title>app.market</title>
<path fill="#f8fafc" stroke="#94a3b8" d="M536,-843C536,-843 464,-843 464,-843 458,-843 452,-837 452,-831 452,-831 452,-819 452,-819 452,-813 458,-807 464,-807 464,-807 536,-807 536,-807 542,-807 548,-813 548,-819 548,-819 548,-831 548,-831 548,-837 542,-843 536,-843"/>
<text text-anchor="middle" x="500" y="-821.3" font-family="Inter" font-size="14.00">app.market</text>
</g>
<!-- app.main&#45;&gt;app.market -->
<g id="edge12" class="edge">
<title>app.main&#45;&gt;app.market</title>
<path fill="none" stroke="#0f766e" d="M89.33,-915.13C170.49,-897.27 353.55,-857 444.96,-836.89"/>
<polygon fill="#0f766e" stroke="#0f766e" points="445.6,-839.26 451.91,-835.36 444.55,-834.47 445.6,-839.26"/>
<text text-anchor="middle" x="269" y="-878.8" font-family="Times,serif" font-size="14.00">3</text>
</g>
<!-- app.paper -->
<g id="node9" class="node">
<title>app.paper</title>
<path fill="#f8fafc" stroke="#94a3b8" d="M691,-524C691,-524 627,-524 627,-524 621,-524 615,-518 615,-512 615,-512 615,-500 615,-500 615,-494 621,-488 627,-488 627,-488 691,-488 691,-488 697,-488 703,-494 703,-500 703,-500 703,-512 703,-512 703,-518 697,-524 691,-524"/>
<text text-anchor="middle" x="659" y="-502.3" font-family="Inter" font-size="14.00">app.paper</text>
</g>
<!-- app.main&#45;&gt;app.paper -->
<g id="edge13" class="edge">
<title>app.main&#45;&gt;app.paper</title>
<path fill="none" stroke="#0f766e" d="M80.71,-942.18C146.3,-977.13 299.34,-1044.69 402,-979 418.08,-968.71 409.73,-956.09 420,-940 430.35,-923.79 433.01,-919.05 448,-907 488.76,-874.25 521.18,-894.24 552,-852 578.88,-815.17 558.29,-795.07 570,-751 573.39,-738.23 577.02,-735.87 580,-723 596.22,-652.85 565.67,-626.34 598,-562 604.43,-549.21 615.05,-537.83 625.59,-528.73"/>
<polygon fill="#0f766e" stroke="#0f766e" points="627.25,-530.53 631.07,-524.18 624.12,-526.76 627.25,-530.53"/>
<text text-anchor="middle" x="347" y="-1009.8" font-family="Times,serif" font-size="14.00">1</text>
</g>
<!-- app.signals -->
<g id="node11" class="node">
<title>app.signals</title>
<path fill="#f8fafc" stroke="#94a3b8" d="M230,-704C230,-704 158,-704 158,-704 152,-704 146,-698 146,-692 146,-692 146,-680 146,-680 146,-674 152,-668 158,-668 158,-668 230,-668 230,-668 236,-668 242,-674 242,-680 242,-680 242,-692 242,-692 242,-698 236,-704 230,-704"/>
<text text-anchor="middle" x="194" y="-682.3" font-family="Inter" font-size="14.00">app.signals</text>
</g>
<!-- app.main&#45;&gt;app.signals -->
<g id="edge14" class="edge">
<title>app.main&#45;&gt;app.signals</title>
<path fill="none" stroke="#0f766e" d="M54.69,-905.99C64.33,-876.85 85.66,-818.2 114,-774 129.47,-749.88 151.55,-725.9 168.44,-709.09"/>
<polygon fill="#0f766e" stroke="#0f766e" points="170.23,-710.76 173.5,-704.1 166.79,-707.27 170.23,-710.76"/>
<text text-anchor="middle" x="119" y="-777.8" font-family="Times,serif" font-size="14.00">2</text>
</g>
<!-- app.telegram -->
<g id="node12" class="node">
<title>app.telegram</title>
<path fill="#f8fafc" stroke="#94a3b8" d="M390,-666C390,-666 304,-666 304,-666 298,-666 292,-660 292,-654 292,-654 292,-642 292,-642 292,-636 298,-630 304,-630 304,-630 390,-630 390,-630 396,-630 402,-636 402,-642 402,-642 402,-654 402,-654 402,-660 396,-666 390,-666"/>
<text text-anchor="middle" x="347" y="-644.3" font-family="Inter" font-size="14.00">app.telegram</text>
</g>
<!-- app.main&#45;&gt;app.telegram -->
<g id="edge15" class="edge">
<title>app.main&#45;&gt;app.telegram</title>
<path fill="none" stroke="#0f766e" d="M58.36,-905.71C69.72,-884.58 90.31,-849.47 114,-824 146.64,-788.9 258.18,-709.26 313.85,-670.3"/>
<polygon fill="#0f766e" stroke="#0f766e" points="315.37,-672.23 319.71,-666.21 312.57,-668.21 315.37,-672.23"/>
<text text-anchor="middle" x="194" y="-799.8" font-family="Times,serif" font-size="14.00">1</text>
</g>
<!-- app.main&#45;&gt;app.utils -->
<g id="edge16" class="edge">
<title>app.main&#45;&gt;app.utils</title>
<path fill="none" stroke="#0f766e" d="M49.91,-942.14C52.9,-988.41 65.27,-1113.45 114,-1203 136.01,-1243.44 146.96,-1270 193,-1270 193,-1270 193,-1270 813,-1270 923.79,-1270 939.07,-846.97 941.17,-737.57"/>
<polygon fill="#0f766e" stroke="#0f766e" points="943.62,-737.29 941.3,-730.25 938.72,-737.2 943.62,-737.29"/>
<text text-anchor="middle" x="500" y="-1273.8" font-family="Times,serif" font-size="14.00">3</text>
</g>
<!-- app.market&#45;&gt;app.config -->
<g id="edge17" class="edge">
<title>app.market&#45;&gt;app.config</title>
<path fill="none" stroke="#0f766e" d="M509,-806.75C520.99,-779.98 544.91,-728.85 570,-688 580.98,-670.12 582.93,-664.59 598,-650 645.29,-604.2 683.47,-620.77 720,-566 741.43,-533.88 727.48,-518.16 738,-481 741.6,-468.29 744.21,-465.66 748,-453 773.38,-368.2 796,-265.54 805.82,-219.04"/>
<polygon fill="#0f766e" stroke="#0f766e" points="808.24,-219.43 807.29,-212.07 803.45,-218.42 808.24,-219.43"/>
<text text-anchor="middle" x="659" y="-653.8" font-family="Times,serif" font-size="14.00">1</text>
</g>
<!-- app.market&#45;&gt;app.data -->
<g id="edge18" class="edge">
<title>app.market&#45;&gt;app.data</title>
<path fill="none" stroke="#0f766e" d="M548.31,-809.73C597.09,-791.84 672.54,-757.88 720,-706 740.14,-683.99 737.77,-673.02 748,-645 751.55,-635.27 788.68,-499.11 804.22,-441.97"/>
<polygon fill="#0f766e" stroke="#0f766e" points="806.62,-442.48 806.09,-435.09 801.89,-441.2 806.62,-442.48"/>
<text text-anchor="middle" x="659" y="-790.8" font-family="Times,serif" font-size="14.00">2</text>
</g>
<!-- app.market&#45;&gt;app.exchanges -->
<g id="edge19" class="edge">
<title>app.market&#45;&gt;app.exchanges</title>
<path fill="none" stroke="#0f766e" d="M514.93,-843.19C543.33,-880.27 607.89,-964.58 639.66,-1006.05"/>
<polygon fill="#0f766e" stroke="#0f766e" points="637.9,-1007.78 644.1,-1011.85 641.79,-1004.8 637.9,-1007.78"/>
<text text-anchor="middle" x="575" y="-930.8" font-family="Times,serif" font-size="14.00">4</text>
</g>
<!-- app.market&#45;&gt;app.logger -->
<g id="edge20" class="edge">
<title>app.market&#45;&gt;app.logger</title>
<path fill="none" stroke="#0f766e" d="M525.98,-843.15C538.71,-851.81 554.69,-861.82 570,-869 571.11,-869.52 688.31,-906.9 758.84,-929.38"/>
<polygon fill="#0f766e" stroke="#0f766e" points="758.52,-931.85 765.94,-931.64 760.01,-927.18 758.52,-931.85"/>
<text text-anchor="middle" x="659" y="-919.8" font-family="Times,serif" font-size="14.00">2</text>
</g>
<!-- app.market&#45;&gt;app.utils -->
<g id="edge21" class="edge">
<title>app.market&#45;&gt;app.utils</title>
<path fill="none" stroke="#0f766e" d="M548.02,-824.08C592.68,-822.47 661.5,-818.06 720,-806 796.12,-790.31 816.57,-785.94 886,-751 895.32,-746.31 904.83,-740.2 913.29,-734.21"/>
<polygon fill="#0f766e" stroke="#0f766e" points="914.73,-736.19 918.96,-730.1 911.85,-732.22 914.73,-736.19"/>
<text text-anchor="middle" x="743" y="-805.8" font-family="Times,serif" font-size="14.00">3</text>
</g>
<!-- app.paper&#45;&gt;app.config -->
<g id="edge22" class="edge">
<title>app.paper&#45;&gt;app.config</title>
<path fill="none" stroke="#0f766e" d="M678.77,-487.79C691.72,-474.41 708.59,-455.29 720,-436 763.49,-362.47 792.61,-264.52 804.69,-219.1"/>
<polygon fill="#0f766e" stroke="#0f766e" points="807.08,-219.66 806.48,-212.27 802.34,-218.42 807.08,-219.66"/>
<text text-anchor="middle" x="743" y="-402.8" font-family="Times,serif" font-size="14.00">4</text>
</g>
<!-- app.paper&#45;&gt;app.data -->
<g id="edge23" class="edge">
<title>app.paper&#45;&gt;app.data</title>
<path fill="none" stroke="#0f766e" d="M690.56,-487.99C714.63,-473.8 748.28,-453.97 773.9,-438.87"/>
<polygon fill="#0f766e" stroke="#0f766e" points="775.44,-440.8 780.23,-435.14 772.96,-436.58 775.44,-440.8"/>
<text text-anchor="middle" x="743" y="-462.8" font-family="Times,serif" font-size="14.00">6</text>
</g>
<!-- app.paper&#45;&gt;app.logger -->
<g id="edge24" class="edge">
<title>app.paper&#45;&gt;app.logger</title>
<path fill="none" stroke="#0f766e" d="M671.81,-524.06C685.06,-544.98 706.47,-580.83 720,-614 765.04,-724.42 795.16,-864.41 806.25,-920.79"/>
<polygon fill="#0f766e" stroke="#0f766e" points="803.88,-921.47 807.62,-927.87 808.69,-920.53 803.88,-921.47"/>
<text text-anchor="middle" x="743" y="-688.8" font-family="Times,serif" font-size="14.00">2</text>
</g>
<!-- app.paper&#45;&gt;app.utils -->
<g id="edge25" class="edge">
<title>app.paper&#45;&gt;app.utils</title>
<path fill="none" stroke="#0f766e" d="M684.98,-524.28C736.52,-562 854.52,-648.35 910.69,-689.45"/>
<polygon fill="#0f766e" stroke="#0f766e" points="909.48,-691.6 916.57,-693.76 912.37,-687.65 909.48,-691.6"/>
<text text-anchor="middle" x="812" y="-653.8" font-family="Times,serif" font-size="14.00">3</text>
</g>
<!-- app.services -->
<g id="node10" class="node">
<title>app.services</title>
<path fill="#f8fafc" stroke="#94a3b8" d="M540,-436C540,-436 460,-436 460,-436 454,-436 448,-430 448,-424 448,-424 448,-412 448,-412 448,-406 454,-400 460,-400 460,-400 540,-400 540,-400 546,-400 552,-406 552,-412 552,-412 552,-424 552,-424 552,-430 546,-436 540,-436"/>
<text text-anchor="middle" x="500" y="-414.3" font-family="Inter" font-size="14.00">app.services</text>
</g>
<!-- app.services&#45;&gt;app.config -->
<g id="edge26" class="edge">
<title>app.services&#45;&gt;app.config</title>
<path fill="none" stroke="#0f766e" d="M530.65,-399.94C537.71,-395.49 545.18,-390.66 552,-386 637.55,-327.58 734.78,-253.27 782.08,-216.59"/>
<polygon fill="#0f766e" stroke="#0f766e" points="783.85,-218.32 787.87,-212.09 780.84,-214.45 783.85,-218.32"/>
<text text-anchor="middle" x="659" y="-356.8" font-family="Times,serif" font-size="14.00">2</text>
</g>
<!-- app.services&#45;&gt;app.data -->
<g id="edge27" class="edge">
<title>app.services&#45;&gt;app.data</title>
<path fill="none" stroke="#0f766e" d="M552.24,-417.17C558.23,-417.1 564.25,-417.04 570,-417 638.05,-416.51 716.91,-416.64 765.38,-416.8"/>
<polygon fill="#0f766e" stroke="#0f766e" points="765.59,-419.25 772.6,-416.83 765.61,-414.35 765.59,-419.25"/>
<text text-anchor="middle" x="659" y="-420.8" font-family="Times,serif" font-size="14.00">12</text>
</g>
<!-- app.services&#45;&gt;app.paper -->
<g id="edge28" class="edge">
<title>app.services&#45;&gt;app.paper</title>
<path fill="none" stroke="#0f766e" d="M534.78,-436.04C548.9,-443.78 565.39,-453.08 580,-462 588.21,-467.01 589.75,-469.07 598,-474 603.93,-477.54 610.28,-481.14 616.55,-484.58"/>
<polygon fill="#0f766e" stroke="#0f766e" points="615.46,-486.77 622.78,-487.96 617.79,-482.47 615.46,-486.77"/>
<text text-anchor="middle" x="575" y="-465.8" font-family="Times,serif" font-size="14.00">2</text>
</g>
<!-- app.services&#45;&gt;app.utils -->
<g id="edge29" class="edge">
<title>app.services&#45;&gt;app.utils</title>
<path fill="none" stroke="#0f766e" d="M552.06,-426.66C597.71,-435.69 665.62,-452.3 720,-479 788.7,-512.73 805.82,-526.02 858,-582 888.48,-614.7 914.66,-659.91 929.22,-687.49"/>
<polygon fill="#0f766e" stroke="#0f766e" points="927.09,-688.7 932.5,-693.77 931.43,-686.43 927.09,-688.7"/>
<text text-anchor="middle" x="743" y="-496.8" font-family="Times,serif" font-size="14.00">3</text>
</g>
<!-- app.signals&#45;&gt;app.config -->
<g id="edge30" class="edge">
<title>app.signals&#45;&gt;app.config</title>
<path fill="none" stroke="#0f766e" d="M201.09,-667.55C210.78,-638.1 230.22,-578.63 246,-528 267.13,-460.21 241.37,-424.79 292,-375 337.44,-330.31 370.08,-357.71 430,-336 506.88,-308.14 521.54,-289.98 598,-261 652.54,-240.33 716.54,-220.81 760.05,-208.23"/>
<polygon fill="#0f766e" stroke="#0f766e" points="760.8,-210.57 766.85,-206.28 759.44,-205.86 760.8,-210.57"/>
<text text-anchor="middle" x="500" y="-332.8" font-family="Times,serif" font-size="14.00">4</text>
</g>
<!-- app.signals&#45;&gt;app.data -->
<g id="edge31" class="edge">
<title>app.signals&#45;&gt;app.data</title>
<path fill="none" stroke="#0f766e" d="M201.9,-667.97C215.43,-634.25 247.98,-560.49 292,-510 332.07,-464.03 357.12,-469.28 402,-428 424.71,-407.11 419.87,-388.67 448,-376 554.43,-328.05 695.47,-370.25 766.33,-397.75"/>
<polygon fill="#0f766e" stroke="#0f766e" points="765.55,-400.08 772.97,-400.36 767.35,-395.52 765.55,-400.08"/>
<text text-anchor="middle" x="500" y="-379.8" font-family="Times,serif" font-size="14.00">4</text>
</g>
<!-- app.signals&#45;&gt;app.exchanges -->
<g id="edge32" class="edge">
<title>app.signals&#45;&gt;app.exchanges</title>
<path fill="none" stroke="#0f766e" d="M235.04,-704.23C239.29,-707.6 243.11,-711.51 246,-716 288.02,-781.41 215.75,-829.04 264,-890 304.3,-940.92 340.78,-916.35 402,-938 470.61,-962.26 549.37,-990.64 601.2,-1009.4"/>
<polygon fill="#0f766e" stroke="#0f766e" points="600.6,-1011.79 608.02,-1011.87 602.27,-1007.18 600.6,-1011.79"/>
<text text-anchor="middle" x="425" y="-950.8" font-family="Times,serif" font-size="14.00">1</text>
</g>
<!-- app.signals&#45;&gt;app.logger -->
<g id="edge33" class="edge">
<title>app.signals&#45;&gt;app.logger</title>
<path fill="none" stroke="#0f766e" d="M234.96,-704.28C239.22,-707.65 243.07,-711.53 246,-716 281.88,-770.66 220.19,-813.47 264,-862 287.37,-887.89 535.47,-927.08 570,-932 634.66,-941.21 709.9,-944.39 758.88,-945.48"/>
<polygon fill="#0f766e" stroke="#0f766e" points="758.87,-947.93 765.92,-945.62 758.97,-943.03 758.87,-947.93"/>
<text text-anchor="middle" x="500" y="-932.8" font-family="Times,serif" font-size="14.00">2</text>
</g>
<!-- app.signals&#45;&gt;app.market -->
<g id="edge34" class="edge">
<title>app.signals&#45;&gt;app.market</title>
<path fill="none" stroke="#0f766e" d="M206.5,-704.04C218.67,-721.68 239.5,-748.01 264,-763 294.09,-781.41 385.12,-802.22 444.65,-814.44"/>
<polygon fill="#0f766e" stroke="#0f766e" points="444.4,-816.89 451.75,-815.89 445.38,-812.09 444.4,-816.89"/>
<text text-anchor="middle" x="347" y="-807.8" font-family="Times,serif" font-size="14.00">3</text>
</g>
<!-- app.signals&#45;&gt;app.paper -->
<g id="edge35" class="edge">
<title>app.signals&#45;&gt;app.paper</title>
<path fill="none" stroke="#0f766e" d="M209.77,-667.81C242.63,-628.99 326.3,-538.87 420,-506 437.13,-499.99 542.89,-502.23 607.53,-504.23"/>
<polygon fill="#0f766e" stroke="#0f766e" points="607.73,-506.69 614.81,-504.46 607.89,-501.79 607.73,-506.69"/>
<text text-anchor="middle" x="425" y="-509.8" font-family="Times,serif" font-size="14.00">1</text>
</g>
<!-- app.signals&#45;&gt;app.telegram -->
<g id="edge36" class="edge">
<title>app.signals&#45;&gt;app.telegram</title>
<path fill="none" stroke="#0f766e" d="M242.36,-674.08C255.89,-670.68 270.82,-666.92 285.04,-663.34"/>
<polygon fill="#0f766e" stroke="#0f766e" points="285.77,-665.68 291.96,-661.6 284.57,-660.93 285.77,-665.68"/>
<text text-anchor="middle" x="269" y="-672.8" font-family="Times,serif" font-size="14.00">1</text>
</g>
<!-- app.signals&#45;&gt;app.utils -->
<g id="edge37" class="edge">
<title>app.signals&#45;&gt;app.utils</title>
<path fill="none" stroke="#0f766e" d="M239.31,-704.16C284.02,-721.44 355.49,-746.2 420,-756 490.39,-766.7 509.46,-757.65 580,-748 588.12,-746.89 589.9,-745.25 598,-744 724.99,-724.47 758.24,-732.6 886,-719 889.53,-718.62 893.19,-718.21 896.86,-717.78"/>
<polygon fill="#0f766e" stroke="#0f766e" points="897.25,-720.2 903.91,-716.94 896.67,-715.34 897.25,-720.2"/>
<text text-anchor="middle" x="575" y="-752.8" font-family="Times,serif" font-size="14.00">2</text>
</g>
<!-- app.telegram&#45;&gt;app.config -->
<g id="edge38" class="edge">
<title>app.telegram&#45;&gt;app.config</title>
<path fill="none" stroke="#0f766e" d="M387.42,-629.99C405.64,-622.04 427.69,-612.95 448,-606 507.21,-585.73 676.47,-577.97 720,-533 744.44,-507.75 729.28,-490.05 738,-456 749.77,-410.05 788.03,-274.86 803.95,-218.8"/>
<polygon fill="#0f766e" stroke="#0f766e" points="806.31,-219.45 805.86,-212.05 801.59,-218.11 806.31,-219.45"/>
<text text-anchor="middle" x="575" y="-585.8" font-family="Times,serif" font-size="14.00">3</text>
</g>
<!-- app.telegram&#45;&gt;app.data -->
<g id="edge39" class="edge">
<title>app.telegram&#45;&gt;app.data</title>
<path fill="none" stroke="#0f766e" d="M402.26,-635.63C452.66,-624.82 529.95,-609.94 598,-604 652.02,-599.28 668.41,-587.32 720,-604 733.05,-608.22 736.94,-625.11 748,-617 762.47,-606.38 792.04,-493.42 804.85,-442.11"/>
<polygon fill="#0f766e" stroke="#0f766e" points="807.23,-442.68 806.54,-435.29 802.48,-441.5 807.23,-442.68"/>
<text text-anchor="middle" x="575" y="-610.8" font-family="Times,serif" font-size="14.00">7</text>
</g>
<!-- app.telegram&#45;&gt;app.logger -->
<g id="edge40" class="edge">
<title>app.telegram&#45;&gt;app.logger</title>
<path fill="none" stroke="#0f766e" d="M385.39,-666.13C396.42,-671.21 408.6,-676.55 420,-681 489.66,-708.18 528.99,-678.33 580,-733 602.5,-757.12 578.02,-778.75 598,-805 635.73,-854.57 668.31,-839.24 720,-874 742.53,-889.15 766.56,-908.3 784.26,-923.05"/>
<polygon fill="#0f766e" stroke="#0f766e" points="783.07,-925.25 790.01,-927.86 786.22,-921.49 783.07,-925.25"/>
<text text-anchor="middle" x="575" y="-736.8" font-family="Times,serif" font-size="14.00">1</text>
</g>
<!-- app.telegram&#45;&gt;app.market -->
<g id="edge41" class="edge">
<title>app.telegram&#45;&gt;app.market</title>
<path fill="none" stroke="#0f766e" d="M363.59,-666.28C391.13,-698.55 448.34,-765.62 478.84,-801.37"/>
<polygon fill="#0f766e" stroke="#0f766e" points="477.09,-803.09 483.49,-806.82 480.81,-799.91 477.09,-803.09"/>
<text text-anchor="middle" x="425" y="-744.8" font-family="Times,serif" font-size="14.00">2</text>
</g>
<!-- app.telegram&#45;&gt;app.paper -->
<g id="edge42" class="edge">
<title>app.telegram&#45;&gt;app.paper</title>
<path fill="none" stroke="#0f766e" d="M365.22,-629.99C379.31,-615.69 400.1,-595.58 420,-580 478.67,-534.08 508.16,-549.74 580,-530 589.12,-527.49 598.8,-524.66 608.11,-521.84"/>
<polygon fill="#0f766e" stroke="#0f766e" points="608.83,-524.18 614.82,-519.8 607.41,-519.5 608.83,-524.18"/>
<text text-anchor="middle" x="500" y="-564.8" font-family="Times,serif" font-size="14.00">1</text>
</g>
<!-- app.telegram&#45;&gt;app.services -->
<g id="edge43" class="edge">
<title>app.telegram&#45;&gt;app.services</title>
<path fill="none" stroke="#0f766e" d="M359.66,-629.89C373.86,-607.88 398.58,-569.65 420,-537 441.61,-504.08 466.81,-466.21 482.83,-442.2"/>
<polygon fill="#0f766e" stroke="#0f766e" points="485.05,-443.29 486.89,-436.1 480.97,-440.57 485.05,-443.29"/>
<text text-anchor="middle" x="425" y="-540.8" font-family="Times,serif" font-size="14.00">4</text>
</g>
<!-- app.telegram&#45;&gt;app.signals -->
<g id="edge44" class="edge">
<title>app.telegram&#45;&gt;app.signals</title>
<path fill="none" stroke="#0f766e" d="M291.7,-644.17C282.36,-644.6 272.82,-645.73 264,-648 251.04,-651.33 237.9,-657.67 226.62,-664.23"/>
<polygon fill="#0f766e" stroke="#0f766e" points="225.29,-662.17 220.55,-667.88 227.81,-666.37 225.29,-662.17"/>
<text text-anchor="middle" x="269" y="-651.8" font-family="Times,serif" font-size="14.00">2</text>
</g>
<!-- app.telegram&#45;&gt;app.utils -->
<g id="edge45" class="edge">
<title>app.telegram&#45;&gt;app.utils</title>
<path fill="none" stroke="#0f766e" d="M402.24,-653.85C518.47,-666.38 789.66,-695.63 896.8,-707.18"/>
<polygon fill="#0f766e" stroke="#0f766e" points="896.7,-709.63 903.92,-707.95 897.23,-704.76 896.7,-709.63"/>
<text text-anchor="middle" x="659" y="-691.8" font-family="Times,serif" font-size="14.00">2</text>
</g>
<!-- app.web -->
<g id="node14" class="node">
<title>app.web</title>
<path fill="#f8fafc" stroke="#94a3b8" d="M373,-181C373,-181 321,-181 321,-181 315,-181 309,-175 309,-169 309,-169 309,-157 309,-157 309,-151 315,-145 321,-145 321,-145 373,-145 373,-145 379,-145 385,-151 385,-157 385,-157 385,-169 385,-169 385,-175 379,-181 373,-181"/>
<text text-anchor="middle" x="347" y="-159.3" font-family="Inter" font-size="14.00">app.web</text>
</g>
<!-- app.web&#45;&gt;app.config -->
<g id="edge46" class="edge">
<title>app.web&#45;&gt;app.config</title>
<path fill="none" stroke="#0f766e" d="M385.14,-155.98C429.08,-148.07 504.55,-135.69 570,-131 637.27,-126.18 655.25,-135.11 720,-154 736.38,-158.78 753.68,-165.83 768.74,-172.69"/>
<polygon fill="#0f766e" stroke="#0f766e" points="768.12,-175.1 775.5,-175.82 770.18,-170.65 768.12,-175.1"/>
<text text-anchor="middle" x="575" y="-134.8" font-family="Times,serif" font-size="14.00">1</text>
</g>
<!-- app.web&#45;&gt;app.data -->
<g id="edge47" class="edge">
<title>app.web&#45;&gt;app.data</title>
<path fill="none" stroke="#0f766e" d="M385.12,-158.06C462.46,-149.96 642.41,-142.78 748,-233 795.49,-273.58 807.24,-351.59 810.11,-391.75"/>
<polygon fill="#0f766e" stroke="#0f766e" points="807.67,-391.95 810.55,-398.79 812.56,-391.65 807.67,-391.95"/>
<text text-anchor="middle" x="575" y="-165.8" font-family="Times,serif" font-size="14.00">1</text>
</g>
<!-- app.web&#45;&gt;app.services -->
<g id="edge48" class="edge">
<title>app.web&#45;&gt;app.services</title>
<path fill="none" stroke="#0f766e" d="M385.32,-171.81C401.67,-177.62 419.49,-187.03 430,-202 477.22,-269.25 404.77,-316.12 448,-386 450.06,-389.33 452.61,-392.38 455.47,-395.14"/>
<polygon fill="#0f766e" stroke="#0f766e" points="453.99,-397.11 460.89,-399.83 457.2,-393.4 453.99,-397.11"/>
<text text-anchor="middle" x="425" y="-205.8" font-family="Times,serif" font-size="14.00">5</text>
</g>
<!-- tests -->
<g id="node15" class="node">
<title>tests</title>
<path fill="#f8fafc" stroke="#94a3b8" d="M63,-270C63,-270 33,-270 33,-270 27,-270 21,-264 21,-258 21,-258 21,-246 21,-246 21,-240 27,-234 33,-234 33,-234 63,-234 63,-234 69,-234 75,-240 75,-246 75,-246 75,-258 75,-258 75,-264 69,-270 63,-270"/>
<text text-anchor="middle" x="48" y="-248.3" font-family="Inter" font-size="14.00">tests</text>
</g>
<!-- tests&#45;&gt;app.config -->
<g id="edge49" class="edge">
<title>tests&#45;&gt;app.config</title>
<path fill="none" stroke="#0f766e" d="M75.22,-241.72C82.9,-237.56 90.66,-232.05 96,-225 121.2,-191.75 119.88,-78.37 142,-43 157.72,-17.86 163.35,0 193,0 193,0 193,0 660,0 705.89,0 729.55,-11.98 748,-54 768.24,-100.1 738.01,-126.06 766.02,-169.78"/>
<polygon fill="#0f766e" stroke="#0f766e" points="764.16,-171.4 770.15,-175.77 768.2,-168.62 764.16,-171.4"/>
<text text-anchor="middle" x="425" y="-3.8" font-family="Times,serif" font-size="14.00">6</text>
</g>
<!-- tests&#45;&gt;app.data -->
<g id="edge50" class="edge">
<title>tests&#45;&gt;app.data</title>
<path fill="none" stroke="#0f766e" d="M75.08,-249.03C184.78,-237.02 608.17,-195.77 720,-261 769,-289.59 794.2,-355.69 804.76,-392"/>
<polygon fill="#0f766e" stroke="#0f766e" points="802.43,-392.77 806.68,-398.85 807.14,-391.45 802.43,-392.77"/>
<text text-anchor="middle" x="425" y="-229.8" font-family="Times,serif" font-size="14.00">1</text>
</g>
<!-- tests&#45;&gt;app.exchanges -->
<g id="edge51" class="edge">
<title>tests&#45;&gt;app.exchanges</title>
<path fill="none" stroke="#0f766e" d="M48.88,-270.21C48.94,-337.57 53.63,-578.23 114,-764 121.99,-788.59 125.48,-795.11 142,-815 197.08,-881.33 214.08,-901.11 292,-938 337.06,-959.33 355.41,-942.25 402,-960 424.15,-968.44 425.87,-978.51 448,-987 493.98,-1004.64 548.55,-1015.54 590.53,-1021.94"/>
<polygon fill="#0f766e" stroke="#0f766e" points="590.4,-1024.4 597.68,-1023.01 591.12,-1019.56 590.4,-1024.4"/>
<text text-anchor="middle" x="347" y="-963.8" font-family="Times,serif" font-size="14.00">1</text>
</g>
<!-- tests&#45;&gt;app.paper -->
<g id="edge52" class="edge">
<title>tests&#45;&gt;app.paper</title>
<path fill="none" stroke="#0f766e" d="M75.4,-266.7C138.36,-301.33 302.89,-389.28 448,-445 501.38,-465.5 564.64,-482.99 607.68,-493.92"/>
<polygon fill="#0f766e" stroke="#0f766e" points="607.28,-496.35 614.67,-495.68 608.48,-491.6 607.28,-496.35"/>
<text text-anchor="middle" x="347" y="-429.8" font-family="Times,serif" font-size="14.00">4</text>
</g>
<!-- tests&#45;&gt;app.signals -->
<g id="edge53" class="edge">
<title>tests&#45;&gt;app.signals</title>
<path fill="none" stroke="#0f766e" d="M55,-270.1C77.74,-338.62 158.57,-582.24 184.75,-661.14"/>
<polygon fill="#0f766e" stroke="#0f766e" points="182.44,-661.95 186.97,-667.83 187.09,-660.41 182.44,-661.95"/>
<text text-anchor="middle" x="119" y="-472.8" font-family="Times,serif" font-size="14.00">4</text>
</g>
<!-- tests&#45;&gt;app.telegram -->
<g id="edge54" class="edge">
<title>tests&#45;&gt;app.telegram</title>
<path fill="none" stroke="#0f766e" d="M62.53,-270.04C110.66,-334.21 273.53,-551.38 328.05,-624.07"/>
<polygon fill="#0f766e" stroke="#0f766e" points="326.23,-625.72 332.39,-629.85 330.15,-622.78 326.23,-625.72"/>
<text text-anchor="middle" x="194" y="-512.8" font-family="Times,serif" font-size="14.00">3</text>
</g>
<!-- tests&#45;&gt;app.web -->
<g id="edge55" class="edge">
<title>tests&#45;&gt;app.web</title>
<path fill="none" stroke="#0f766e" d="M75.3,-238.44C93.62,-229.41 118.83,-217.81 142,-210 195.88,-191.83 260.09,-178.31 301.89,-170.55"/>
<polygon fill="#0f766e" stroke="#0f766e" points="302.47,-172.93 308.91,-169.26 301.58,-168.12 302.47,-172.93"/>
<text text-anchor="middle" x="194" y="-213.8" font-family="Times,serif" font-size="14.00">1</text>
</g>
<!-- tools -->
<g id="node16" class="node">
<title>tools</title>
<path fill="#f8fafc" stroke="#94a3b8" d="M674,-64C674,-64 644,-64 644,-64 638,-64 632,-58 632,-52 632,-52 632,-40 632,-40 632,-34 638,-28 644,-28 644,-28 674,-28 674,-28 680,-28 686,-34 686,-40 686,-40 686,-52 686,-52 686,-58 680,-64 674,-64"/>
<text text-anchor="middle" x="659" y="-42.3" font-family="Inter" font-size="14.00">tools</text>
</g>
<!-- tests&#45;&gt;tools -->
<g id="edge56" class="edge">
<title>tests&#45;&gt;tools</title>
<path fill="none" stroke="#0f766e" d="M75.19,-240.3C82.51,-236.19 90.08,-231.06 96,-225 158.99,-160.58 102.9,-47 193,-47 193,-47 193,-47 501,-47 543.65,-47 592.81,-46.63 624.59,-46.34"/>
<polygon fill="#0f766e" stroke="#0f766e" points="624.91,-48.78 631.89,-46.27 624.87,-43.88 624.91,-48.78"/>
<text text-anchor="middle" x="347" y="-50.8" font-family="Times,serif" font-size="14.00">1</text>
</g>
<!-- tools&#45;&gt;app.config -->
<g id="edge57" class="edge">
<title>tools&#45;&gt;app.config</title>
<path fill="none" stroke="#0f766e" d="M686.4,-45.09C705.34,-45.76 730.5,-49.51 748,-63 782.09,-89.28 798.72,-138.68 806.02,-168.74"/>
<polygon fill="#0f766e" stroke="#0f766e" points="803.72,-169.67 807.68,-175.94 808.5,-168.57 803.72,-169.67"/>
<text text-anchor="middle" x="743" y="-66.8" font-family="Times,serif" font-size="14.00">1</text>
</g>
<!-- tools&#45;&gt;app.data -->
<g id="edge58" class="edge">
<title>tools&#45;&gt;app.data</title>
<path fill="none" stroke="#0f766e" d="M673.43,-64.19C692.41,-90.66 727.11,-141.89 748,-190 778.49,-260.22 798.07,-349.1 806.4,-391.82"/>
<polygon fill="#0f766e" stroke="#0f766e" points="804,-392.35 807.73,-398.76 808.82,-391.43 804,-392.35"/>
<text text-anchor="middle" x="743" y="-193.8" font-family="Times,serif" font-size="14.00">2</text>
</g>
<!-- tools&#45;&gt;app.utils -->
<g id="edge59" class="edge">
<title>tools&#45;&gt;app.utils</title>
<path fill="none" stroke="#0f766e" d="M686.08,-44.17C704.17,-43.89 728.44,-45.52 748,-54 808.07,-80.05 826.87,-94.4 858,-152 909.3,-246.92 934.02,-590.86 940.02,-686.92"/>
<polygon fill="#0f766e" stroke="#0f766e" points="937.58,-687.08 940.45,-693.92 942.47,-686.78 937.58,-687.08"/>
<text text-anchor="middle" x="812" y="-155.8" font-family="Times,serif" font-size="14.00">1</text>
</g>
</g>
</svg>
