<?xml version="1.0" encoding="UTF-8" standalone="no"?>
<!DOCTYPE svg PUBLIC "-//W3C//DTD SVG 1.1//EN"
 "http://www.w3.org/Graphics/SVG/1.1/DTD/svg11.dtd">
<!-- Generated by graphviz version 2.43.0 (0)
 -->
<!-- Title: dependencies Pages: 1 -->
<svg width="1826pt" height="1985pt"
 viewBox="0.00 0.00 1826.00 1985.00" xmlns="http://www.w3.org/2000/svg" xmlns:xlink="http://www.w3.org/1999/xlink">
<g id="graph0" class="graph" transform="scale(1 1) rotate(0) translate(4 1981)">
<title>dependencies</title>
<polygon fill="white" stroke="transparent" points="-4,4 -4,-1981 1822,-1981 1822,4 -4,4"/>
<!-- app.__init__ -->
<g id="node1" class="node">
<title>app.__init__</title>
<path fill="#f8fafc" stroke="#94a3b8" d="M84,-1485C84,-1485 12,-1485 12,-1485 6,-1485 0,-1479 0,-1473 0,-1473 0,-1461 0,-1461 0,-1455 6,-1449 12,-1449 12,-1449 84,-1449 84,-1449 90,-1449 96,-1455 96,-1461 96,-1461 96,-1473 96,-1473 96,-1479 90,-1485 84,-1485"/>
<text text-anchor="middle" x="48" y="-1463.3" font-family="Inter" font-size="14.00">app.__init__</text>
</g>
<!-- app.analysis -->
<g id="node2" class="node">
<title>app.analysis</title>
<path fill="#f8fafc" stroke="#94a3b8" d="M881,-545C881,-545 801,-545 801,-545 795,-545 789,-539 789,-533 789,-533 789,-521 789,-521 789,-515 795,-509 801,-509 801,-509 881,-509 881,-509 887,-509 893,-515 893,-521 893,-521 893,-533 893,-533 893,-539 887,-545 881,-545"/>
<text text-anchor="middle" x="841" y="-523.3" font-family="Inter" font-size="14.00">app.analysis</text>
</g>
<!-- app.data -->
<g id="node5" class="node">
<title>app.data</title>
<path fill="#f8fafc" stroke="#94a3b8" d="M1646,-432C1646,-432 1592,-432 1592,-432 1586,-432 1580,-426 1580,-420 1580,-420 1580,-408 1580,-408 1580,-402 1586,-396 1592,-396 1592,-396 1646,-396 1646,-396 1652,-396 1658,-402 1658,-408 1658,-408 1658,-420 1658,-420 1658,-426 1652,-432 1646,-432"/>
<text text-anchor="middle" x="1619" y="-410.3" font-family="Inter" font-size="14.00">app.data</text>
</g>
<!-- app.analysis&#45;&gt;app.data -->
<g id="edge1" class="edge">
<title>app.analysis&#45;&gt;app.data</title>
<path fill="none" stroke="#0f766e" d="M871.57,-508.98C883.43,-502.57 897.47,-495.97 911,-492 1180.63,-412.88 1261.73,-467.07 1540,-428 1550.62,-426.51 1562,-424.63 1572.7,-422.73"/>
<polygon fill="#0f766e" stroke="#0f766e" points="1573.15,-425.14 1579.61,-421.49 1572.29,-420.32 1573.15,-425.14"/>
<text text-anchor="middle" x="1222" y="-448.8" font-family="Times,serif" font-size="14.00">3</text>
</g>
<!-- app.logger -->
<g id="node8" class="node">
<title>app.logger</title>
<path fill="#f8fafc" stroke="#94a3b8" d="M1806,-1462C1806,-1462 1738,-1462 1738,-1462 1732,-1462 1726,-1456 1726,-1450 1726,-1450 1726,-1438 1726,-1438 1726,-1432 1732,-1426 1738,-1426 1738,-1426 1806,-1426 1806,-1426 1812,-1426 1818,-1432 1818,-1438 1818,-1438 1818,-1450 1818,-1450 1818,-1456 1812,-1462 1806,-1462"/>
<text text-anchor="middle" x="1772" y="-1440.3" font-family="Inter" font-size="14.00">app.logger</text>
</g>
<!-- app.analysis&#45;&gt;app.logger -->
<g id="edge2" class="edge">
<title>app.analysis&#45;&gt;app.logger</title>
<path fill="none" stroke="#0f766e" d="M893.36,-529.22C996.8,-533.81 1220.98,-544.38 1227,-550 1272.54,-592.5 1211.28,-636.62 1245,-689 1288.33,-756.3 1334.05,-735.87 1398,-784 1441.73,-816.91 1678.36,-1041.14 1680,-1044 1753.1,-1171.25 1767.48,-1352.8 1770.31,-1418.8"/>
<polygon fill="#0f766e" stroke="#0f766e" points="1767.86,-1419.01 1770.59,-1425.9 1772.76,-1418.81 1767.86,-1419.01"/>
<text text-anchor="middle" x="1303" y="-764.8" font-family="Times,serif" font-size="14.00">1</text>
</g>
<!-- app.utils -->
<g id="node18" class="node">
<title>app.utils</title>
<path fill="#f8fafc" stroke="#94a3b8" d="M1798.5,-754C1798.5,-754 1745.5,-754 1745.5,-754 1739.5,-754 1733.5,-748 1733.5,-742 1733.5,-742 1733.5,-730 1733.5,-730 1733.5,-724 1739.5,-718 1745.5,-718 1745.5,-718 1798.5,-718 1798.5,-718 1804.5,-718 1810.5,-724 1810.5,-730 1810.5,-730 1810.5,-742 1810.5,-742 1810.5,-748 1804.5,-754 1798.5,-754"/>
<text text-anchor="middle" x="1772" y="-732.3" font-family="Inter" font-size="14.00">app.utils</text>
</g>
<!-- app.analysis&#45;&gt;app.utils -->
<g id="edge3" class="edge">
<title>app.analysis&#45;&gt;app.utils</title>
<path fill="none" stroke="#0f766e" d="M893.35,-524.9C944.46,-522.92 1025.14,-520.1 1095,-519 1376.31,-514.55 1465.56,-534.24 1708,-677 1723.9,-686.36 1739.08,-700.37 1750.56,-712.39"/>
<polygon fill="#0f766e" stroke="#0f766e" points="1748.99,-714.3 1755.56,-717.74 1752.57,-710.95 1748.99,-714.3"/>
<text text-anchor="middle" x="1303" y="-534.8" font-family="Times,serif" font-size="14.00">1</text>
</g>
<!-- app.backtesting -->
<g id="node3" class="node">
<title>app.backtesting</title>
<path fill="#f8fafc" stroke="#94a3b8" d="M358,-1290C358,-1290 254,-1290 254,-1290 248,-1290 242,-1284 242,-1278 242,-1278 242,-1266 242,-1266 242,-1260 248,-1254 254,-1254 254,-1254 358,-1254 358,-1254 364,-1254 370,-1260 370,-1266 370,-1266 370,-1278 370,-1278 370,-1284 364,-1290 358,-1290"/>
<text text-anchor="middle" x="306" y="-1268.3" font-family="Inter" font-size="14.00">app.backtesting</text>
</g>
<!-- app.config -->
<g id="node4" class="node">
<title>app.config</title>
<path fill="#f8fafc" stroke="#94a3b8" d="M1652,-1293C1652,-1293 1586,-1293 1586,-1293 1580,-1293 1574,-1287 1574,-1281 1574,-1281 1574,-1269 1574,-1269 1574,-1263 1580,-1257 1586,-1257 1586,-1257 1652,-1257 1652,-1257 1658,-1257 1664,-1263 1664,-1269 1664,-1269 1664,-1281 1664,-1281 1664,-1287 1658,-1293 1652,-1293"/>
<text text-anchor="middle" x="1619" y="-1271.3" font-family="Inter" font-size="14.00">app.config</text>
</g>
<!-- app.backtesting&#45;&gt;app.config -->
<g id="edge4" class="edge">
<title>app.backtesting&#45;&gt;app.config</title>
<path fill="none" stroke="#0f766e" d="M346.63,-1290.04C421.04,-1323.55 579.43,-1393.11 638,-1405 829.24,-1443.84 884.51,-1445.08 1077,-1413 1141.88,-1402.19 1153.36,-1381.63 1217,-1365 1345.96,-1331.29 1382.99,-1344.52 1512,-1311 1530.18,-1306.28 1549.75,-1299.99 1567.06,-1293.99"/>
<polygon fill="#0f766e" stroke="#0f766e" points="1568.03,-1296.24 1573.83,-1291.62 1566.41,-1291.62 1568.03,-1296.24"/>
<text text-anchor="middle" x="994" y="-1435.8" font-family="Times,serif" font-size="14.00">1</text>
</g>
<!-- app.backtesting&#45;&gt;app.data -->
<g id="edge5" class="edge">
<title>app.backtesting&#45;&gt;app.data</title>
<path fill="none" stroke="#0f766e" d="M333.02,-1253.81C346.22,-1243.17 361.27,-1228.57 370,-1212 570.18,-831.83 223.06,-552.25 538,-260 649.64,-156.4 1068.69,-203 1221,-203 1221,-203 1221,-203 1465,-203 1555.72,-203 1598.19,-332.43 1612.34,-388.55"/>
<polygon fill="#0f766e" stroke="#0f766e" points="1610.03,-389.43 1614.07,-395.64 1614.79,-388.26 1610.03,-389.43"/>
<text text-anchor="middle" x="994" y="-199.8" font-family="Times,serif" font-size="14.00">5</text>
</g>
<!-- app.exchanges -->
<g id="node6" class="node">
<title>app.exchanges</title>
<path fill="#f8fafc" stroke="#94a3b8" d="M1668,-1750C1668,-1750 1570,-1750 1570,-1750 1564,-1750 1558,-1744 1558,-1738 1558,-1738 1558,-1726 1558,-1726 1558,-1720 1564,-1714 1570,-1714 1570,-1714 1668,-1714 1668,-1714 1674,-1714 1680,-1720 1680,-1726 1680,-1726 1680,-1738 1680,-1738 1680,-1744 1674,-1750 1668,-1750"/>
<text text-anchor="middle" x="1619" y="-1728.3" font-family="Inter" font-size="14.00">app.exchanges</text>
</g>
<!-- app.backtesting&#45;&gt;app.exchanges -->
<g id="edge6" class="edge">
<title>app.backtesting&#45;&gt;app.exchanges</title>
<path fill="none" stroke="#0f766e" d="M315.47,-1290.38C327.87,-1317.47 351.51,-1369.8 370,-1415 383.32,-1447.55 385.71,-1456.05 398,-1489 406.11,-1510.74 400.3,-1520.92 416,-1538 483.7,-1611.62 530.22,-1588.93 620,-1633 687.81,-1666.28 708.52,-1668.55 771,-1711 905.2,-1802.18 908.75,-1919 1071,-1919 1071,-1919 1071,-1919 1465,-1919 1547.73,-1919 1593.8,-1808.01 1610.59,-1757.05"/>
<polygon fill="#0f766e" stroke="#0f766e" points="1612.96,-1757.68 1612.77,-1750.27 1608.29,-1756.19 1612.96,-1757.68"/>
<text text-anchor="middle" x="994" y="-1921.8" font-family="Times,serif" font-size="14.00">1</text>
</g>
<!-- app.jobs -->
<g id="node7" class="node">
<title>app.jobs</title>
<path fill="#f8fafc" stroke="#94a3b8" d="M480,-1202C480,-1202 428,-1202 428,-1202 422,-1202 416,-1196 416,-1190 416,-1190 416,-1178 416,-1178 416,-1172 422,-1166 428,-1166 428,-1166 480,-1166 480,-1166 486,-1166 492,-1172 492,-1178 492,-1178 492,-1190 492,-1190 492,-1196 486,-1202 480,-1202"/>
<text text-anchor="middle" x="454" y="-1180.3" font-family="Inter" font-size="14.00">app.jobs</text>
</g>
<!-- app.backtesting&#45;&gt;app.jobs -->
<g id="edge7" class="edge">
<title>app.backtesting&#45;&gt;app.jobs</title>
<path fill="none" stroke="#0f766e" d="M324.82,-1253.82C340.32,-1238.91 364,-1218.17 388,-1205 394.61,-1201.38 401.94,-1198.26 409.23,-1195.61"/>
<polygon fill="#0f766e" stroke="#0f766e" points="410.07,-1197.92 415.89,-1193.32 408.47,-1193.28 410.07,-1197.92"/>
<text text-anchor="middle" x="393" y="-1208.8" font-family="Times,serif" font-size="14.00">1</text>
</g>
<!-- app.market -->
<g id="node10" class="node">
<title>app.market</title>
<path fill="#f8fafc" stroke="#94a3b8" d="M1500,-1468C1500,-1468 1428,-1468 1428,-1468 1422,-1468 1416,-1462 1416,-1456 1416,-1456 1416,-1444 1416,-1444 1416,-1438 1422,-1432 1428,-1432 1428,-1432 1500,-1432 1500,-1432 1506,-1432 1512,-1438 1512,-1444 1512,-1444 1512,-1456 1512,-1456 1512,-1462 1506,-1468 1500,-1468"/>
<text text-anchor="middle" x="1464" y="-1446.3" font-family="Inter" font-size="14.00">app.market</text>
</g>
<!-- app.backtesting&#45;&gt;app.market -->
<g id="edge8" class="edge">
<title>app.backtesting&#45;&gt;app.market</title>
<path fill="none" stroke="#0f766e" d="M324.53,-1290.15C360.76,-1326.5 448.04,-1408.22 538,-1449 841.8,-1586.71 1261.53,-1501.62 1409.09,-1464.61"/>
<polygon fill="#0f766e" stroke="#0f766e" points="1409.73,-1466.98 1415.91,-1462.89 1408.52,-1462.23 1409.73,-1466.98"/>
<text text-anchor="middle" x="916" y="-1527.8" font-family="Times,serif" font-size="14.00">1</text>
</g>
<!-- app.strategies -->
<g id="node16" class="node">
<title>app.strategies</title>
<path fill="#f8fafc" stroke="#94a3b8" d="M1349,-1552C1349,-1552 1257,-1552 1257,-1552 1251,-1552 1245,-1546 1245,-1540 1245,-1540 1245,-1528 1245,-1528 1245,-1522 1251,-1516 1257,-1516 1257,-1516 1349,-1516 1349,-1516 1355,-1516 1361,-1522 1361,-1528 1361,-1528 1361,-1540 1361,-1540 1361,-1546 1355,-1552 1349,-1552"/>
<text text-anchor="middle" x="1303" y="-1530.3" font-family="Inter" font-size="14.00">app.strategies</text>
</g>
<!-- app.backtesting&#45;&gt;app.strategies -->
<g id="edge9" class="edge">
<title>app.backtesting&#45;&gt;app.strategies</title>
<path fill="none" stroke="#0f766e" d="M316.05,-1290.17C340.77,-1339.7 408.12,-1473.81 416,-1481 459.29,-1520.49 480.73,-1518.6 538,-1531 791.82,-1585.96 1104.3,-1558.6 1237.23,-1542.7"/>
<polygon fill="#0f766e" stroke="#0f766e" points="1237.92,-1545.08 1244.58,-1541.81 1237.33,-1540.22 1237.92,-1545.08"/>
<text text-anchor="middle" x="841" y="-1566.8" font-family="Times,serif" font-size="14.00">1</text>
</g>
<!-- app.backtesting&#45;&gt;app.utils -->
<g id="edge10" class="edge">
<title>app.backtesting&#45;&gt;app.utils</title>
<path fill="none" stroke="#0f766e" d="M334.07,-1253.92C347.41,-1243.4 362.25,-1228.89 370,-1212 412.09,-1120.29 368.28,-393.91 416,-305 509,-131.73 599.03,-117.81 789,-67 974.9,-17.28 1028.57,-38 1221,-38 1221,-38 1221,-38 1620,-38 1686.86,-38 1694.37,-94.55 1708,-160 1751.7,-369.89 1766.3,-629.53 1769.97,-710.6"/>
<polygon fill="#0f766e" stroke="#0f766e" points="1767.53,-711 1770.29,-717.89 1772.43,-710.78 1767.53,-711"/>
<text text-anchor="middle" x="1072" y="-38.8" font-family="Times,serif" font-size="14.00">2</text>
</g>
<!-- app.data&#45;&gt;app.utils -->
<g id="edge11" class="edge">
<title>app.data&#45;&gt;app.utils</title>
<path fill="none" stroke="#0f766e" d="M1628.55,-432.23C1654.19,-486.92 1730.47,-649.57 1759.56,-711.6"/>
<polygon fill="#0f766e" stroke="#0f766e" points="1757.35,-712.67 1762.54,-717.97 1761.79,-710.59 1757.35,-712.67"/>
<text text-anchor="middle" x="1703" y="-597.8" font-family="Times,serif" font-size="14.00">2</text>
</g>
<!-- app.exchanges&#45;&gt;app.logger -->
<g id="edge12" class="edge">
<title>app.exchanges&#45;&gt;app.logger</title>
<path fill="none" stroke="#0f766e" d="M1629.45,-1713.98C1655.5,-1664.28 1728.44,-1525.18 1758.15,-1468.5"/>
<polygon fill="#0f766e" stroke="#0f766e" points="1760.48,-1469.35 1761.56,-1462.01 1756.14,-1467.07 1760.48,-1469.35"/>
<text text-anchor="middle" x="1703" y="-1582.8" font-family="Times,serif" font-size="14.00">1</text>
</g>
<!-- app.exchanges&#45;&gt;app.utils -->
<g id="edge13" class="edge">
<title>app.exchanges&#45;&gt;app.utils</title>
<path fill="none" stroke="#0f766e" d="M1625.18,-1713.95C1636.63,-1673.48 1664.3,-1572.28 1680,-1486 1731.32,-1203.93 1761.35,-856.77 1769.03,-761.31"/>
<polygon fill="#0f766e" stroke="#0f766e" points="1771.48,-761.29 1769.6,-754.11 1766.6,-760.9 1771.48,-761.29"/>
<text text-anchor="middle" x="1703" y="-1367.8" font-family="Times,serif" font-size="14.00">2</text>
</g>
<!-- app.jobs&#45;&gt;app.backtesting -->
<g id="edge14" class="edge">
<title>app.jobs&#45;&gt;app.backtesting</title>
<path fill="none" stroke="#0f766e" d="M426.07,-1202.09C417.2,-1207.92 407.25,-1214.34 398,-1220 381.15,-1230.32 362.22,-1241.24 346.01,-1250.39"/>
<polygon fill="#0f766e" stroke="#0f766e" points="344.61,-1248.37 339.71,-1253.94 347.01,-1252.64 344.61,-1248.37"/>
<text text-anchor="middle" x="393" y="-1228.8" font-family="Times,serif" font-size="14.00">2</text>
</g>
<!-- app.jobs&#45;&gt;app.config -->
<g id="edge15" class="edge">
<title>app.jobs&#45;&gt;app.config</title>
<path fill="none" stroke="#0f766e" d="M472.43,-1202.15C478.64,-1208.69 485.67,-1216.14 492,-1223 557.92,-1294.51 549.2,-1346.33 638,-1386 691.97,-1410.11 711.99,-1389.53 771,-1386 928.3,-1376.6 1408.07,-1306.32 1566.57,-1282.71"/>
<polygon fill="#0f766e" stroke="#0f766e" points="1567.31,-1285.08 1573.88,-1281.62 1566.59,-1280.23 1567.31,-1285.08"/>
<text text-anchor="middle" x="1072" y="-1356.8" font-family="Times,serif" font-size="14.00">2</text>
</g>
<!-- app.jobs&#45;&gt;app.data -->
<g id="edge16" class="edge">
<title>app.jobs&#45;&gt;app.data</title>
<path fill="none" stroke="#0f766e" d="M455.36,-1165.97C457.92,-1046.44 475.11,-371.09 538,-308 645.66,-199.98 1068.49,-241 1221,-241 1221,-241 1221,-241 1465,-241 1543.15,-241 1590.99,-341.29 1609.37,-389.15"/>
<polygon fill="#0f766e" stroke="#0f766e" points="1607.12,-390.12 1611.87,-395.81 1611.71,-388.4 1607.12,-390.12"/>
<text text-anchor="middle" x="1072" y="-239.8" font-family="Times,serif" font-size="14.00">6</text>
</g>
<!-- app.jobs&#45;&gt;app.logger -->
<g id="edge17" class="edge">
<title>app.jobs&#45;&gt;app.logger</title>
<path fill="none" stroke="#0f766e" d="M492.31,-1197.48C529.32,-1212.6 585.39,-1240.42 620,-1281 634.25,-1297.7 619.87,-1314.62 638,-1327 686.82,-1360.32 712.47,-1335.23 771,-1327 919.35,-1306.13 948.26,-1264.18 1095,-1234 1219.62,-1208.37 1252.02,-1206.02 1379,-1198 1425.04,-1195.09 1490.8,-1204.57 1512,-1208 1587.77,-1220.28 1620.56,-1199.44 1680,-1248 1734.41,-1292.44 1757.91,-1376.74 1766.61,-1418.81"/>
<polygon fill="#0f766e" stroke="#0f766e" points="1764.25,-1419.52 1768.02,-1425.91 1769.06,-1418.56 1764.25,-1419.52"/>
<text text-anchor="middle" x="1147" y="-1237.8" font-family="Times,serif" font-size="14.00">1</text>
</g>
<!-- app.main -->
<g id="node9" class="node">
<title>app.main</title>
<path fill="#f8fafc" stroke="#94a3b8" d="M608,-1202C608,-1202 550,-1202 550,-1202 544,-1202 538,-1196 538,-1190 538,-1190 538,-1178 538,-1178 538,-1172 544,-1166 550,-1166 550,-1166 608,-1166 608,-1166 614,-1166 620,-1172 620,-1178 620,-1178 620,-1190 620,-1190 620,-1196 614,-1202 608,-1202"/>
<text text-anchor="middle" x="579" y="-1180.3" font-family="Inter" font-size="14.00">app.main</text>
</g>
<!-- app.jobs&#45;&gt;app.main -->
<g id="edge18" class="edge">
<title>app.jobs&#45;&gt;app.main</title>
<path fill="none" stroke="#0f766e" d="M492.24,-1184C504.41,-1184 518.09,-1184 530.89,-1184"/>
<polygon fill="#0f766e" stroke="#0f766e" points="530.89,-1186.45 537.89,-1184 530.89,-1181.55 530.89,-1186.45"/>
<text text-anchor="middle" x="515" y="-1187.8" font-family="Times,serif" font-size="14.00">1</text>
</g>
<!-- app.ml -->
<g id="node11" class="node">
<title>app.ml</title>
<path fill="#f8fafc" stroke="#94a3b8" d="M1014.5,-389C1014.5,-389 973.5,-389 973.5,-389 967.5,-389 961.5,-383 961.5,-377 961.5,-377 961.5,-365 961.5,-365 961.5,-359 967.5,-353 973.5,-353 973.5,-353 1014.5,-353 1014.5,-353 1020.5,-353 1026.5,-359 1026.5,-365 1026.5,-365 1026.5,-377 1026.5,-377 1026.5,-383 1020.5,-389 1014.5,-389"/>
<text text-anchor="middle" x="994" y="-367.3" font-family="Inter" font-size="14.00">app.ml</text>
</g>
<!-- app.jobs&#45;&gt;app.ml -->
<g id="edge19" class="edge">
<title>app.jobs&#45;&gt;app.ml</title>
<path fill="none" stroke="#0f766e" d="M455.89,-1165.79C460.57,-1075.05 484.13,-671.58 538,-560 566.44,-501.09 581.36,-484.74 638,-452 741.5,-392.18 885.81,-376.54 954.15,-372.45"/>
<polygon fill="#0f766e" stroke="#0f766e" points="954.47,-374.88 961.32,-372.04 954.19,-369.99 954.47,-374.88"/>
<text text-anchor="middle" x="704.5" y="-455.8" font-family="Times,serif" font-size="14.00">1</text>
</g>
<!-- app.optimization -->
<g id="node12" class="node">
<title>app.optimization</title>
<path fill="#f8fafc" stroke="#94a3b8" d="M759,-532C759,-532 650,-532 650,-532 644,-532 638,-526 638,-520 638,-520 638,-508 638,-508 638,-502 644,-496 650,-496 650,-496 759,-496 759,-496 765,-496 771,-502 771,-508 771,-508 771,-520 771,-520 771,-526 765,-532 759,-532"/>
<text text-anchor="middle" x="704.5" y="-510.3" font-family="Inter" font-size="14.00">app.optimization</text>
</g>
<!-- app.jobs&#45;&gt;app.optimization -->
<g id="edge20" class="edge">
<title>app.jobs&#45;&gt;app.optimization</title>
<path fill="none" stroke="#0f766e" d="M454.42,-1165.89C452.73,-1082.64 456.74,-732.49 637.38,-537.25"/>
<polygon fill="#0f766e" stroke="#0f766e" points="639.22,-538.87 642.23,-532.09 635.65,-535.51 639.22,-538.87"/>
<text text-anchor="middle" x="515" y="-762.8" font-family="Times,serif" font-size="14.00">1</text>
</g>
<!-- app.jobs&#45;&gt;app.utils -->
<g id="edge21" class="edge">
<title>app.jobs&#45;&gt;app.utils</title>
<path fill="none" stroke="#0f766e" d="M455.26,-1165.78C457.24,-1041.94 471.5,-326.6 538,-260 626.13,-171.73 946.27,-84 1071,-84 1071,-84 1071,-84 1620,-84 1751.16,-84 1768.42,-591.12 1770.67,-710.88"/>
<polygon fill="#0f766e" stroke="#0f766e" points="1768.22,-710.93 1770.79,-717.88 1773.12,-710.84 1768.22,-710.93"/>
<text text-anchor="middle" x="1147" y="-87.8" font-family="Times,serif" font-size="14.00">1</text>
</g>
<!-- app.main&#45;&gt;app.analysis -->
<g id="edge22" class="edge">
<title>app.main&#45;&gt;app.analysis</title>
<path fill="none" stroke="#0f766e" d="M609.05,-1165.95C613.43,-1161.91 617.37,-1157.25 620,-1152 646.52,-1099.13 604.92,-669.03 638,-620 674.17,-566.39 712.43,-588.41 771,-561 779.66,-556.95 788.88,-552.5 797.66,-548.2"/>
<polygon fill="#0f766e" stroke="#0f766e" points="798.76,-550.39 803.96,-545.1 796.6,-545.99 798.76,-550.39"/>
<text text-anchor="middle" x="704.5" y="-623.8" font-family="Times,serif" font-size="14.00">1</text>
</g>
<!-- app.main&#45;&gt;app.config -->
<g id="edge23" class="edge">
<title>app.main&#45;&gt;app.config</title>
<path fill="none" stroke="#0f766e" d="M620.03,-1194.96C626.01,-1196.22 632.14,-1197.3 638,-1198 750.54,-1211.39 779.76,-1202.71 893,-1198 962.51,-1195.11 981.23,-1200.73 1049,-1185 1070.39,-1180.04 1073.43,-1171.07 1095,-1167 1140.42,-1158.43 1153.14,-1161.19 1199,-1167 1334.46,-1184.18 1488.79,-1231.41 1566.9,-1257.36"/>
<polygon fill="#0f766e" stroke="#0f766e" points="1566.35,-1259.75 1573.77,-1259.64 1567.9,-1255.1 1566.35,-1259.75"/>
<text text-anchor="middle" x="1147" y="-1170.8" font-family="Times,serif" font-size="14.00">1</text>
</g>
<!-- app.main&#45;&gt;app.data -->
<g id="edge24" class="edge">
<title>app.main&#45;&gt;app.data</title>
<path fill="none" stroke="#0f766e" d="M583.13,-1165.79C590.72,-1120.83 610.24,-1000.86 620,-900 623.63,-862.46 613.47,-589.65 638,-561 677.29,-515.12 722.53,-569.05 771,-533 784.41,-523.03 779.12,-513.47 789,-500 789.89,-498.79 937.62,-344.59 939,-344 1056.43,-294.01 1386.71,-358.69 1512,-383 1532.28,-386.94 1554.27,-393.05 1572.94,-398.81"/>
<polygon fill="#0f766e" stroke="#0f766e" points="1572.25,-401.16 1579.66,-400.92 1573.71,-396.49 1572.25,-401.16"/>
<text text-anchor="middle" x="1147" y="-335.8" font-family="Times,serif" font-size="14.00">2</text>
</g>
<!-- app.main&#45;&gt;app.exchanges -->
<g id="edge25" class="edge">
<title>app.main&#45;&gt;app.exchanges</title>
<path fill="none" stroke="#0f766e" d="M584.03,-1202.35C591,-1230.65 607.55,-1285.47 638,-1322 734.21,-1437.43 800.49,-1417.23 921,-1507 1002.19,-1567.48 1007.07,-1603.83 1095,-1654 1218.06,-1724.2 1256.49,-1759.74 1398,-1753 1449.37,-1750.55 1507.26,-1744.91 1550.76,-1740.09"/>
<polygon fill="#0f766e" stroke="#0f766e" points="1551.2,-1742.51 1557.88,-1739.3 1550.65,-1737.64 1551.2,-1742.51"/>
<text text-anchor="middle" x="1147" y="-1716.8" font-family="Times,serif" font-size="14.00">2</text>
</g>
<!-- app.main&#45;&gt;app.logger -->
<g id="edge26" class="edge">
<title>app.main&#45;&gt;app.logger</title>
<path fill="none" stroke="#0f766e" d="M620.3,-1181.67C658.99,-1179.29 719.06,-1175.2 771,-1170 1034.02,-1143.66 1099.91,-1136.27 1361,-1095 1436.51,-1083.06 1453.89,-1070.14 1530,-1063 1610.27,-1055.47 1651.71,-1040.27 1708,-1098 1752.62,-1143.76 1766.4,-1346.11 1769.93,-1418.3"/>
<polygon fill="#0f766e" stroke="#0f766e" points="1767.5,-1418.78 1770.28,-1425.66 1772.4,-1418.55 1767.5,-1418.78"/>
<text text-anchor="middle" x="1222" y="-1120.8" font-family="Times,serif" font-size="14.00">1</text>
</g>
<!-- app.main&#45;&gt;app.market -->
<g id="edge27" class="edge">
<title>app.main&#45;&gt;app.market</title>
<path fill="none" stroke="#0f766e" d="M606.88,-1202.17C611.82,-1206.54 616.51,-1211.54 620,-1217 637.05,-1243.71 615.47,-1263.71 638,-1286 672.92,-1320.55 1018.79,-1383.54 1067,-1393 1188.16,-1416.77 1332,-1435.01 1408.6,-1443.94"/>
<polygon fill="#0f766e" stroke="#0f766e" points="1408.57,-1446.4 1415.8,-1444.78 1409.13,-1441.54 1408.57,-1446.4"/>
<text text-anchor="middle" x="1072" y="-1397.8" font-family="Times,serif" font-size="14.00">3</text>
</g>
<!-- app.paper -->
<g id="node13" class="node">
<title>app.paper</title>
<path fill="#f8fafc" stroke="#94a3b8" d="M1335,-887C1335,-887 1271,-887 1271,-887 1265,-887 1259,-881 1259,-875 1259,-875 1259,-863 1259,-863 1259,-857 1265,-851 1271,-851 1271,-851 1335,-851 1335,-851 1341,-851 1347,-857 1347,-863 1347,-863 1347,-875 1347,-875 1347,-881 1341,-887 1335,-887"/>
<text text-anchor="middle" x="1303" y="-865.3" font-family="Inter" font-size="14.00">app.paper</text>
</g>
<!-- app.main&#45;&gt;app.paper -->
<g id="edge28" class="edge">
<title>app.main&#45;&gt;app.paper</title>
<path fill="none" stroke="#0f766e" d="M580.86,-1165.99C583.51,-1129.71 594.28,-1047.04 638,-997 735.07,-885.89 796.03,-893.46 939,-857 1063.08,-825.36 1100.71,-827.85 1227,-849 1235.1,-850.36 1243.59,-852.2 1251.83,-854.22"/>
<polygon fill="#0f766e" stroke="#0f766e" points="1251.29,-856.61 1258.68,-855.96 1252.5,-851.86 1251.29,-856.61"/>
<text text-anchor="middle" x="994" y="-860.8" font-family="Times,serif" font-size="14.00">1</text>
</g>
<!-- app.signals -->
<g id="node15" class="node">
<title>app.signals</title>
<path fill="#f8fafc" stroke="#94a3b8" d="M877,-1075C877,-1075 805,-1075 805,-1075 799,-1075 793,-1069 793,-1063 793,-1063 793,-1051 793,-1051 793,-1045 799,-1039 805,-1039 805,-1039 877,-1039 877,-1039 883,-1039 889,-1045 889,-1051 889,-1051 889,-1063 889,-1063 889,-1069 883,-1075 877,-1075"/>
<text text-anchor="middle" x="841" y="-1053.3" font-family="Inter" font-size="14.00">app.signals</text>
</g>
<!-- app.main&#45;&gt;app.signals -->
<g id="edge29" class="edge">
<title>app.main&#45;&gt;app.signals</title>
<path fill="none" stroke="#0f766e" d="M615.86,-1165.99C623.17,-1162.34 630.83,-1158.53 638,-1155 692.27,-1128.27 754.98,-1097.93 795.95,-1078.18"/>
<polygon fill="#0f766e" stroke="#0f766e" points="797.09,-1080.35 802.33,-1075.11 794.96,-1075.94 797.09,-1080.35"/>
<text text-anchor="middle" x="704.5" y="-1158.8" font-family="Times,serif" font-size="14.00">2</text>
</g>
<!-- app.telegram -->
<g id="node17" class="node">
<title>app.telegram</title>
<path fill="#f8fafc" stroke="#94a3b8" d="M1037,-1007C1037,-1007 951,-1007 951,-1007 945,-1007 939,-1001 939,-995 939,-995 939,-983 939,-983 939,-977 945,-971 951,-971 951,-971 1037,-971 1037,-971 1043,-971 1049,-977 1049,-983 1049,-983 1049,-995 1049,-995 1049,-1001 1043,-1007 1037,-1007"/>
<text text-anchor="middle" x="994" y="-985.3" font-family="Inter" font-size="14.00">app.telegram</text>
</g>
<!-- app.main&#45;&gt;app.telegram -->
<g id="edge30" class="edge">
<title>app.main&#45;&gt;app.telegram</title>
<path fill="none" stroke="#0f766e" d="M607.65,-1165.74C612.29,-1161.67 616.67,-1157.05 620,-1152 636.51,-1126.98 618.73,-1109.97 638,-1087 721.45,-987.53 782.23,-999.61 911,-983 917.55,-982.16 924.41,-981.81 931.26,-981.82"/>
<polygon fill="#0f766e" stroke="#0f766e" points="931.62,-984.27 938.66,-981.95 931.71,-979.37 931.62,-984.27"/>
<text text-anchor="middle" x="841" y="-1000.8" font-family="Times,serif" font-size="14.00">1</text>
</g>
<!-- app.main&#45;&gt;app.utils -->
<g id="edge31" class="edge">
<title>app.main&#45;&gt;app.utils</title>
<path fill="none" stroke="#0f766e" d="M581.8,-1165.69C587.62,-1109.4 607.36,-939.92 638,-895 765.75,-707.7 862.82,-717.56 1067,-619 1134.22,-586.55 1165.65,-525.49 1227,-568 1245.73,-580.98 1227.82,-601.04 1245,-616 1250.73,-620.99 1504.59,-674.31 1512,-676 1587.21,-693.16 1674.62,-713.49 1726.23,-725.53"/>
<polygon fill="#0f766e" stroke="#0f766e" points="1725.9,-727.97 1733.27,-727.18 1727.01,-723.2 1725.9,-727.97"/>
<text text-anchor="middle" x="1222" y="-571.8" font-family="Times,serif" font-size="14.00">3</text>
</g>
<!-- app.market&#45;&gt;app.config -->
<g id="edge32" class="edge">
<title>app.market&#45;&gt;app.config</title>
<path fill="none" stroke="#0f766e" d="M1475.08,-1431.75C1492.87,-1399.6 1528.13,-1336.02 1530,-1334 1543.44,-1319.44 1561.14,-1306.69 1577.15,-1296.8"/>
<polygon fill="#0f766e" stroke="#0f766e" points="1578.69,-1298.73 1583.42,-1293.02 1576.16,-1294.54 1578.69,-1298.73"/>
<text text-anchor="middle" x="1535" y="-1337.8" font-family="Times,serif" font-size="14.00">1</text>
</g>
<!-- app.market&#45;&gt;app.data -->
<g id="edge33" class="edge">
<title>app.market&#45;&gt;app.data</title>
<path fill="none" stroke="#0f766e" d="M1467.72,-1431.58C1486.17,-1306.63 1592.89,-584 1614.27,-439.24"/>
<polygon fill="#0f766e" stroke="#0f766e" points="1616.74,-439.32 1615.34,-432.03 1611.89,-438.6 1616.74,-439.32"/>
<text text-anchor="middle" x="1535" y="-997.8" font-family="Times,serif" font-size="14.00">2</text>
</g>
<!-- app.market&#45;&gt;app.exchanges -->
<g id="edge34" class="edge">
<title>app.market&#45;&gt;app.exchanges</title>
<path fill="none" stroke="#0f766e" d="M1485.38,-1468.24C1494.31,-1476.94 1504.46,-1487.88 1512,-1499 1559.34,-1568.83 1594.76,-1663.23 1609.91,-1707.35"/>
<polygon fill="#0f766e" stroke="#0f766e" points="1607.59,-1708.15 1612.16,-1713.99 1612.23,-1706.57 1607.59,-1708.15"/>
<text text-anchor="middle" x="1535" y="-1543.8" font-family="Times,serif" font-size="14.00">5</text>
</g>
<!-- app.market&#45;&gt;app.logger -->
<g id="edge35" class="edge">
<title>app.market&#45;&gt;app.logger</title>
<path fill="none" stroke="#0f766e" d="M1512.14,-1449.08C1567.93,-1447.98 1660.55,-1446.17 1718.55,-1445.03"/>
<polygon fill="#0f766e" stroke="#0f766e" points="1718.85,-1447.47 1725.8,-1444.89 1718.75,-1442.57 1718.85,-1447.47"/>
<text text-anchor="middle" x="1619" y="-1451.8" font-family="Times,serif" font-size="14.00">2</text>
</g>
<!-- app.market&#45;&gt;app.utils -->
<g id="edge36" class="edge">
<title>app.market&#45;&gt;app.utils</title>
<path fill="none" stroke="#0f766e" d="M1488.88,-1431.94C1501.08,-1422.82 1516.22,-1411.67 1530,-1402 1595.58,-1355.97 1636.69,-1369.41 1680,-1302 1739.12,-1209.99 1763.8,-858.81 1769.6,-761.27"/>
<polygon fill="#0f766e" stroke="#0f766e" points="1772.05,-761.3 1770.02,-754.17 1767.16,-761.01 1772.05,-761.3"/>
<text text-anchor="middle" x="1619" y="-1387.8" font-family="Times,serif" font-size="14.00">3</text>
</g>
<!-- app.ml&#45;&gt;app.data -->
<g id="edge37" class="edge">
<title>app.ml&#45;&gt;app.data</title>
<path fill="none" stroke="#0f766e" d="M1026.8,-370.98C1110.93,-371.28 1346.24,-374.55 1540,-400 1550.63,-401.4 1562.02,-403.24 1572.71,-405.13"/>
<polygon fill="#0f766e" stroke="#0f766e" points="1572.31,-407.54 1579.63,-406.37 1573.17,-402.72 1572.31,-407.54"/>
<text text-anchor="middle" x="1303" y="-385.8" font-family="Times,serif" font-size="14.00">3</text>
</g>
<!-- app.optimization&#45;&gt;app.backtesting -->
<g id="edge38" class="edge">
<title>app.optimization&#45;&gt;app.backtesting</title>
<path fill="none" stroke="#0f766e" d="M641.77,-532.15C640.43,-533.35 639.17,-534.64 638,-536 607.71,-571.25 628.06,-593.23 620,-639 614.48,-670.34 540.77,-1178.89 520,-1203 484.65,-1244.04 424.67,-1260.85 377.36,-1267.64"/>
<polygon fill="#0f766e" stroke="#0f766e" points="376.78,-1265.25 370.17,-1268.61 377.44,-1270.1 376.78,-1265.25"/>
<text text-anchor="middle" x="454" y="-1262.8" font-family="Times,serif" font-size="14.00">4</text>
</g>
<!-- app.optimization&#45;&gt;app.config -->
<g id="edge39" class="edge">
<title>app.optimization&#45;&gt;app.config</title>
<path fill="none" stroke="#0f766e" d="M739.34,-532.14C750.24,-539 761.86,-547.48 771,-557 781.77,-568.22 779.76,-574.49 789,-587 848.27,-667.25 862.69,-689.73 939,-754 1001.63,-806.74 1020.34,-818.38 1095,-852 1158.35,-880.53 1178.26,-876.71 1245,-896 1246.85,-896.54 1510.6,-970.68 1512,-972 1522.64,-982.02 1587.03,-1179.11 1609.93,-1249.93"/>
<polygon fill="#0f766e" stroke="#0f766e" points="1607.65,-1250.86 1612.14,-1256.77 1612.31,-1249.35 1607.65,-1250.86"/>
<text text-anchor="middle" x="1147" y="-887.8" font-family="Times,serif" font-size="14.00">1</text>
</g>
<!-- app.optimization&#45;&gt;app.data -->
<g id="edge40" class="edge">
<title>app.optimization&#45;&gt;app.data</title>
<path fill="none" stroke="#0f766e" d="M741.13,-495.91C751.78,-489.2 762.79,-480.8 771,-471 784.04,-455.43 776.64,-445.11 789,-429 874.43,-317.68 930.67,-287 1071,-287 1071,-287 1071,-287 1465,-287 1500,-287 1511.44,-290.77 1540,-311 1568.95,-331.5 1591.89,-365.97 1605.21,-389.34"/>
<polygon fill="#0f766e" stroke="#0f766e" points="1603.16,-390.69 1608.71,-395.61 1607.44,-388.3 1603.16,-390.69"/>
<text text-anchor="middle" x="1147" y="-290.8" font-family="Times,serif" font-size="14.00">2</text>
</g>
<!-- app.paper&#45;&gt;app.config -->
<g id="edge41" class="edge">
<title>app.paper&#45;&gt;app.config</title>
<path fill="none" stroke="#0f766e" d="M1347.06,-876.58C1400.74,-886.83 1488.33,-906.44 1512,-929 1605.09,-1017.71 1617.08,-1185.75 1618.15,-1249.55"/>
<polygon fill="#0f766e" stroke="#0f766e" points="1615.7,-1249.84 1618.23,-1256.81 1620.6,-1249.78 1615.7,-1249.84"/>
<text text-anchor="middle" x="1464" y="-932.8" font-family="Times,serif" font-size="14.00">4</text>
</g>
<!-- app.paper&#45;&gt;app.data -->
<g id="edge42" class="edge">
<title>app.paper&#45;&gt;app.data</title>
<path fill="none" stroke="#0f766e" d="M1341.59,-850.78C1359.59,-841.14 1380.9,-828.33 1398,-814 1457.92,-763.77 1470.93,-746.53 1512,-680 1528.74,-652.89 1527.99,-643.51 1540,-614 1565.53,-551.28 1594.11,-476.85 1608.55,-438.92"/>
<polygon fill="#0f766e" stroke="#0f766e" points="1610.88,-439.68 1611.08,-432.27 1606.3,-437.94 1610.88,-439.68"/>
<text text-anchor="middle" x="1464" y="-801.8" font-family="Times,serif" font-size="14.00">6</text>
</g>
<!-- app.paper&#45;&gt;app.logger -->
<g id="edge43" class="edge">
<title>app.paper&#45;&gt;app.logger</title>
<path fill="none" stroke="#0f766e" d="M1309.96,-887.05C1338.55,-972.52 1464.15,-1335.25 1558,-1403 1583.13,-1421.14 1664.01,-1432.9 1718.55,-1438.99"/>
<polygon fill="#0f766e" stroke="#0f766e" points="1718.51,-1441.45 1725.73,-1439.78 1719.04,-1436.58 1718.51,-1441.45"/>
<text text-anchor="middle" x="1535" y="-1387.8" font-family="Times,serif" font-size="14.00">2</text>
</g>
<!-- app.paper&#45;&gt;app.utils -->
<g id="edge44" class="edge">
<title>app.paper&#45;&gt;app.utils</title>
<path fill="none" stroke="#0f766e" d="M1347.1,-871.62C1424.41,-874.4 1589.59,-871.48 1708,-807 1728.06,-796.08 1744.86,-776.17 1756.06,-760.21"/>
<polygon fill="#0f766e" stroke="#0f766e" points="1758.31,-761.26 1760.22,-754.09 1754.26,-758.5 1758.31,-761.26"/>
<text text-anchor="middle" x="1535" y="-864.8" font-family="Times,serif" font-size="14.00">3</text>
</g>
<!-- app.services -->
<g id="node14" class="node">
<title>app.services</title>
<path fill="#f8fafc" stroke="#94a3b8" d="M1187,-1003C1187,-1003 1107,-1003 1107,-1003 1101,-1003 1095,-997 1095,-991 1095,-991 1095,-979 1095,-979 1095,-973 1101,-967 1107,-967 1107,-967 1187,-967 1187,-967 1193,-967 1199,-973 1199,-979 1199,-979 1199,-991 1199,-991 1199,-997 1193,-1003 1187,-1003"/>
<text text-anchor="middle" x="1147" y="-981.3" font-family="Inter" font-size="14.00">app.services</text>
</g>
<!-- app.services&#45;&gt;app.config -->
<g id="edge45" class="edge">
<title>app.services&#45;&gt;app.config</title>
<path fill="none" stroke="#0f766e" d="M1199.26,-994.03C1294.22,-1011.2 1489.88,-1048.81 1512,-1071 1536.81,-1095.89 1515.74,-1115.88 1530,-1148 1547.43,-1187.27 1577.5,-1227.11 1597.56,-1251.44"/>
<polygon fill="#0f766e" stroke="#0f766e" points="1595.82,-1253.17 1602.19,-1256.98 1599.58,-1250.04 1595.82,-1253.17"/>
<text text-anchor="middle" x="1388.5" y="-1036.8" font-family="Times,serif" font-size="14.00">3</text>
</g>
<!-- app.services&#45;&gt;app.data -->
<g id="edge46" class="edge">
<title>app.services&#45;&gt;app.data</title>
<path fill="none" stroke="#0f766e" d="M1194.58,-966.65C1196.18,-965.21 1197.66,-963.67 1199,-962 1230.16,-923.24 1213.24,-781.27 1245,-743 1280.63,-700.07 1312.26,-722.16 1361,-695 1446.66,-647.27 1476.06,-640.35 1540,-566 1573.62,-526.9 1597.55,-470.81 1609.45,-438.83"/>
<polygon fill="#0f766e" stroke="#0f766e" points="1611.84,-439.42 1611.94,-432.01 1607.23,-437.74 1611.84,-439.42"/>
<text text-anchor="middle" x="1388.5" y="-687.8" font-family="Times,serif" font-size="14.00">15</text>
</g>
<!-- app.services&#45;&gt;app.paper -->
<g id="edge47" class="edge">
<title>app.services&#45;&gt;app.paper</title>
<path fill="none" stroke="#0f766e" d="M1178.07,-966.99C1185.05,-962.58 1192.37,-957.75 1199,-953 1226.08,-933.58 1255.39,-909.33 1275.79,-891.89"/>
<polygon fill="#0f766e" stroke="#0f766e" points="1277.58,-893.58 1281.3,-887.16 1274.39,-889.86 1277.58,-893.58"/>
<text text-anchor="middle" x="1222" y="-940.8" font-family="Times,serif" font-size="14.00">2</text>
</g>
<!-- app.services&#45;&gt;app.strategies -->
<g id="edge48" class="edge">
<title>app.services&#45;&gt;app.strategies</title>
<path fill="none" stroke="#0f766e" d="M1155.68,-1003.08C1166.93,-1030.31 1187.78,-1083.71 1199,-1131 1213.27,-1191.18 1203.5,-1208.64 1217,-1269 1237.16,-1359.15 1274.62,-1462.45 1292.29,-1508.98"/>
<polygon fill="#0f766e" stroke="#0f766e" points="1290.07,-1510.02 1294.85,-1515.68 1294.64,-1508.27 1290.07,-1510.02"/>
<text text-anchor="middle" x="1222" y="-1308.8" font-family="Times,serif" font-size="14.00">1</text>
</g>
<!-- app.services&#45;&gt;app.utils -->
<g id="edge49" class="edge">
<title>app.services&#45;&gt;app.utils</title>
<path fill="none" stroke="#0f766e" d="M1199.08,-986.34C1270.74,-986.76 1404.41,-982.23 1512,-948 1610.69,-916.61 1642.61,-902.3 1708,-822 1724.45,-801.8 1741.85,-777.83 1754.18,-760.33"/>
<polygon fill="#0f766e" stroke="#0f766e" points="1756.47,-761.33 1758.49,-754.19 1752.46,-758.51 1756.47,-761.33"/>
<text text-anchor="middle" x="1464" y="-973.8" font-family="Times,serif" font-size="14.00">3</text>
</g>
<!-- app.signals&#45;&gt;app.config -->
<g id="edge50" class="edge">
<title>app.signals&#45;&gt;app.config</title>
<path fill="none" stroke="#0f766e" d="M889.01,-1057.28C962.33,-1058.71 1107.88,-1065.56 1227,-1096 1372.94,-1133.3 1406.2,-1156.8 1540,-1226 1555.4,-1233.96 1571.74,-1243.97 1585.47,-1252.86"/>
<polygon fill="#0f766e" stroke="#0f766e" points="1584.38,-1255.07 1591.58,-1256.85 1587.06,-1250.97 1584.38,-1255.07"/>
<text text-anchor="middle" x="1222" y="-1099.8" font-family="Times,serif" font-size="14.00">4</text>
</g>
<!-- app.signals&#45;&gt;app.data -->
<g id="edge51" class="edge">
<title>app.signals&#45;&gt;app.data</title>
<path fill="none" stroke="#0f766e" d="M872.75,-1038.83C880.66,-1032.61 888.27,-1024.94 893,-1016 916.37,-971.87 883.89,-833.94 911,-792 949.01,-733.19 1007.16,-772.14 1049,-716 1071.56,-685.73 1041.21,-660.56 1067,-633 1117.55,-578.97 1157.45,-612.25 1227,-587 1356.61,-539.94 1503.99,-470.09 1575.12,-435.3"/>
<polygon fill="#0f766e" stroke="#0f766e" points="1576.55,-437.32 1581.76,-432.04 1574.39,-432.92 1576.55,-437.32"/>
<text text-anchor="middle" x="1222" y="-593.8" font-family="Times,serif" font-size="14.00">4</text>
</g>
<!-- app.signals&#45;&gt;app.exchanges -->
<g id="edge52" class="edge">
<title>app.signals&#45;&gt;app.exchanges</title>
<path fill="none" stroke="#0f766e" d="M850.44,-1075.17C866.11,-1108.25 901.52,-1180.06 939,-1236 1049.43,-1400.82 1080.5,-1450.1 1245,-1561 1347.2,-1629.9 1481.65,-1683.78 1558.06,-1711.47"/>
<polygon fill="#0f766e" stroke="#0f766e" points="1557.4,-1713.84 1564.82,-1713.9 1559.06,-1709.23 1557.4,-1713.84"/>
<text text-anchor="middle" x="1222" y="-1551.8" font-family="Times,serif" font-size="14.00">1</text>
</g>
<!-- app.signals&#45;&gt;app.logger -->
<g id="edge53" class="edge">
<title>app.signals&#45;&gt;app.logger</title>
<path fill="none" stroke="#0f766e" d="M846.25,-1075.29C857.19,-1120.23 888.98,-1238.84 939,-1327 977.03,-1394.01 1003.91,-1398.52 1049,-1461 1079.83,-1503.72 1249.32,-1862 1302,-1862 1302,-1862 1302,-1862 1620,-1862 1660.64,-1862 1656.76,-1826.34 1680,-1793 1752.64,-1688.82 1767.3,-1530.65 1770.25,-1469.43"/>
<polygon fill="#0f766e" stroke="#0f766e" points="1772.72,-1469.22 1770.57,-1462.12 1767.82,-1469.01 1772.72,-1469.22"/>
<text text-anchor="middle" x="1303" y="-1865.8" font-family="Times,serif" font-size="14.00">2</text>
</g>
<!-- app.signals&#45;&gt;app.market -->
<g id="edge54" class="edge">
<title>app.signals&#45;&gt;app.market</title>
<path fill="none" stroke="#0f766e" d="M889.05,-1071.85C934.68,-1088.26 1003.52,-1118.52 1049,-1164 1080.48,-1195.49 1062.34,-1222.73 1095,-1253 1141.74,-1296.32 1172.05,-1276.72 1227,-1309 1235.74,-1314.13 1236.6,-1317.33 1245,-1323 1304.84,-1363.44 1378.04,-1404.47 1422.56,-1428.56"/>
<polygon fill="#0f766e" stroke="#0f766e" points="1421.59,-1430.82 1428.91,-1431.99 1423.91,-1426.51 1421.59,-1430.82"/>
<text text-anchor="middle" x="1147" y="-1298.8" font-family="Times,serif" font-size="14.00">3</text>
</g>
<!-- app.signals&#45;&gt;app.ml -->
<g id="edge55" class="edge">
<title>app.signals&#45;&gt;app.ml</title>
<path fill="none" stroke="#0f766e" d="M846.16,-1038.7C855.59,-996.71 878.86,-890.1 893,-800 906.77,-712.26 890.66,-477.5 939,-403 943.13,-396.63 949.02,-391.36 955.39,-387.06"/>
<polygon fill="#0f766e" stroke="#0f766e" points="956.68,-389.14 961.35,-383.38 954.1,-384.97 956.68,-389.14"/>
<text text-anchor="middle" x="916" y="-499.8" font-family="Times,serif" font-size="14.00">1</text>
</g>
<!-- app.signals&#45;&gt;app.paper -->
<g id="edge56" class="edge">
<title>app.signals&#45;&gt;app.paper</title>
<path fill="none" stroke="#0f766e" d="M868.4,-1038.98C876.9,-1032.39 885.93,-1024.45 893,-1016 903.72,-1003.18 900.07,-995.63 911,-983 948.61,-939.54 966.67,-898.92 1095,-861 1146.95,-845.65 1209.42,-851.13 1252.05,-858.25"/>
<polygon fill="#0f766e" stroke="#0f766e" points="1251.67,-860.67 1258.98,-859.45 1252.51,-855.84 1251.67,-860.67"/>
<text text-anchor="middle" x="1072" y="-872.8" font-family="Times,serif" font-size="14.00">1</text>
</g>
<!-- app.signals&#45;&gt;app.strategies -->
<g id="edge57" class="edge">
<title>app.signals&#45;&gt;app.strategies</title>
<path fill="none" stroke="#0f766e" d="M857.64,-1075.2C871.46,-1091.16 892.27,-1114.89 911,-1135 1046.69,-1280.72 1216.21,-1449.33 1278.04,-1510.4"/>
<polygon fill="#0f766e" stroke="#0f766e" points="1276.63,-1512.46 1283.34,-1515.63 1280.08,-1508.97 1276.63,-1512.46"/>
<text text-anchor="middle" x="1072" y="-1308.8" font-family="Times,serif" font-size="14.00">1</text>
</g>
<!-- app.signals&#45;&gt;app.telegram -->
<g id="edge58" class="edge">
<title>app.signals&#45;&gt;app.telegram</title>
<path fill="none" stroke="#0f766e" d="M854.34,-1038.87C866.57,-1022.64 886.92,-999.94 911,-990 917.51,-987.31 924.58,-985.62 931.73,-984.65"/>
<polygon fill="#0f766e" stroke="#0f766e" points="932.18,-987.07 938.89,-983.91 931.68,-982.2 932.18,-987.07"/>
<text text-anchor="middle" x="916" y="-993.8" font-family="Times,serif" font-size="14.00">1</text>
</g>
<!-- app.signals&#45;&gt;app.utils -->
<g id="edge59" class="edge">
<title>app.signals&#45;&gt;app.utils</title>
<path fill="none" stroke="#0f766e" d="M870.43,-1038.9C878.66,-1032.5 887.02,-1024.71 893,-1016 912.01,-988.3 922.02,-900.99 939,-872 975.23,-810.13 1002.98,-808.98 1049,-754 1057.56,-743.78 1055.52,-736.78 1067,-730 1194.48,-654.76 1276.33,-608.68 1398,-693 1416.73,-705.98 1397.27,-728.02 1416,-741 1451.07,-765.3 1469.34,-741.41 1512,-741 1587.16,-740.27 1674.58,-738.37 1726.21,-737.13"/>
<polygon fill="#0f766e" stroke="#0f766e" points="1726.32,-739.58 1733.26,-736.96 1726.2,-734.68 1726.32,-739.58"/>
<text text-anchor="middle" x="1303" y="-673.8" font-family="Times,serif" font-size="14.00">2</text>
</g>
<!-- app.strategies&#45;&gt;app.config -->
<g id="edge60" class="edge">
<title>app.strategies&#45;&gt;app.config</title>
<path fill="none" stroke="#0f766e" d="M1361.46,-1534.1C1408.73,-1530.94 1473.93,-1518.54 1512,-1477 1536.04,-1450.77 1519.1,-1432.87 1530,-1399 1539.89,-1368.28 1539.69,-1358.57 1558,-1332 1566.61,-1319.51 1578.32,-1307.62 1589.12,-1297.97"/>
<polygon fill="#0f766e" stroke="#0f766e" points="1591,-1299.58 1594.66,-1293.13 1587.77,-1295.89 1591,-1299.58"/>
<text text-anchor="middle" x="1464" y="-1529.8" font-family="Times,serif" font-size="14.00">4</text>
</g>
<!-- app.strategies&#45;&gt;app.market -->
<g id="edge61" class="edge">
<title>app.strategies&#45;&gt;app.market</title>
<path fill="none" stroke="#0f766e" d="M1340.3,-1515.82C1357.81,-1506.96 1379.07,-1496.07 1398,-1486 1406.61,-1481.42 1415.81,-1476.4 1424.5,-1471.6"/>
<polygon fill="#0f766e" stroke="#0f766e" points="1425.78,-1473.7 1430.72,-1468.16 1423.41,-1469.41 1425.78,-1473.7"/>
<text text-anchor="middle" x="1388.5" y="-1498.8" font-family="Times,serif" font-size="14.00">7</text>
</g>
<!-- app.telegram&#45;&gt;app.config -->
<g id="edge62" class="edge">
<title>app.telegram&#45;&gt;app.config</title>
<path fill="none" stroke="#0f766e" d="M1049.08,-1001.79C1150.48,-1025.77 1359.2,-1075.19 1361,-1076 1459.51,-1120.17 1554.32,-1209.46 1595.94,-1251.77"/>
<polygon fill="#0f766e" stroke="#0f766e" points="1594.34,-1253.63 1600.98,-1256.93 1597.84,-1250.21 1594.34,-1253.63"/>
<text text-anchor="middle" x="1303" y="-1079.8" font-family="Times,serif" font-size="14.00">3</text>
</g>
<!-- app.telegram&#45;&gt;app.data -->
<g id="edge63" class="edge">
<title>app.telegram&#45;&gt;app.data</title>
<path fill="none" stroke="#0f766e" d="M1001.24,-970.87C1011.74,-940.05 1033.33,-875.43 1049,-820 1058.09,-787.84 1047.22,-773.93 1067,-747 1204.15,-560.3 1357.75,-671.01 1540,-528 1570.65,-503.95 1593.82,-464.5 1606.65,-438.9"/>
<polygon fill="#0f766e" stroke="#0f766e" points="1608.96,-439.75 1609.84,-432.38 1604.56,-437.59 1608.96,-439.75"/>
<text text-anchor="middle" x="1303" y="-632.8" font-family="Times,serif" font-size="14.00">7</text>
</g>
<!-- app.telegram&#45;&gt;app.logger -->
<g id="edge64" class="edge">
<title>app.telegram&#45;&gt;app.logger</title>
<path fill="none" stroke="#0f766e" d="M996.17,-1007.29C1000.07,-1059.18 1015.4,-1210.88 1067,-1324 1117.5,-1434.72 1306.85,-1692.19 1416,-1746 1521.37,-1797.94 1586.11,-1829.61 1680,-1759 1727.3,-1723.43 1757.8,-1537.84 1767.58,-1469.39"/>
<polygon fill="#0f766e" stroke="#0f766e" points="1770.02,-1469.66 1768.57,-1462.39 1765.17,-1468.98 1770.02,-1469.66"/>
<text text-anchor="middle" x="1388.5" y="-1737.8" font-family="Times,serif" font-size="14.00">1</text>
</g>
<!-- app.telegram&#45;&gt;app.market -->
<g id="edge65" class="edge">
<title>app.telegram&#45;&gt;app.market</title>
<path fill="none" stroke="#0f766e" d="M1002.46,-1007.01C1024.94,-1061.17 1090.68,-1219.05 1095,-1223 1140.53,-1264.65 1171.21,-1239.65 1227,-1266 1308.5,-1304.49 1329.77,-1316.11 1398,-1375 1415.62,-1390.21 1432.74,-1410.25 1444.98,-1425.78"/>
<polygon fill="#0f766e" stroke="#0f766e" points="1443.36,-1427.69 1449.59,-1431.71 1447.23,-1424.68 1443.36,-1427.69"/>
<text text-anchor="middle" x="1222" y="-1269.8" font-family="Times,serif" font-size="14.00">2</text>
</g>
<!-- app.telegram&#45;&gt;app.paper -->
<g id="edge66" class="edge">
<title>app.telegram&#45;&gt;app.paper</title>
<path fill="none" stroke="#0f766e" d="M1032.17,-970.96C1050.85,-962.13 1073.94,-951.59 1095,-943 1147.89,-921.43 1209.69,-899.79 1251.9,-885.53"/>
<polygon fill="#0f766e" stroke="#0f766e" points="1252.92,-887.78 1258.77,-883.22 1251.35,-883.13 1252.92,-887.78"/>
<text text-anchor="middle" x="1147" y="-946.8" font-family="Times,serif" font-size="14.00">1</text>
</g>
<!-- app.telegram&#45;&gt;app.services -->
<g id="edge67" class="edge">
<title>app.telegram&#45;&gt;app.services</title>
<path fill="none" stroke="#0f766e" d="M1049.09,-987.57C1061.54,-987.24 1074.84,-986.89 1087.47,-986.55"/>
<polygon fill="#0f766e" stroke="#0f766e" points="1087.88,-988.99 1094.81,-986.36 1087.75,-984.09 1087.88,-988.99"/>
<text text-anchor="middle" x="1072" y="-990.8" font-family="Times,serif" font-size="14.00">5</text>
</g>
<!-- app.telegram&#45;&gt;app.signals -->
<g id="edge68" class="edge">
<title>app.telegram&#45;&gt;app.signals</title>
<path fill="none" stroke="#0f766e" d="M953.01,-1007.01C933.23,-1015.92 909.24,-1026.72 888.63,-1036"/>
<polygon fill="#0f766e" stroke="#0f766e" points="887.45,-1033.85 882.07,-1038.96 889.46,-1038.32 887.45,-1033.85"/>
<text text-anchor="middle" x="916" y="-1028.8" font-family="Times,serif" font-size="14.00">2</text>
</g>
<!-- app.telegram&#45;&gt;app.utils -->
<g id="edge69" class="edge">
<title>app.telegram&#45;&gt;app.utils</title>
<path fill="none" stroke="#0f766e" d="M999.79,-970.91C1008.26,-942.79 1028.7,-889.12 1067,-863 1304.87,-700.75 1434.15,-857.95 1708,-769 1717.08,-766.05 1726.42,-761.88 1735.03,-757.48"/>
<polygon fill="#0f766e" stroke="#0f766e" points="1736.41,-759.52 1741.46,-754.1 1734.13,-755.19 1736.41,-759.52"/>
<text text-anchor="middle" x="1388.5" y="-793.8" font-family="Times,serif" font-size="14.00">2</text>
</g>
<!-- app.web -->
<g id="node19" class="node">
<title>app.web</title>
<path fill="#f8fafc" stroke="#94a3b8" d="M332,-1460C332,-1460 280,-1460 280,-1460 274,-1460 268,-1454 268,-1448 268,-1448 268,-1436 268,-1436 268,-1430 274,-1424 280,-1424 280,-1424 332,-1424 332,-1424 338,-1424 344,-1430 344,-1436 344,-1436 344,-1448 344,-1448 344,-1454 338,-1460 332,-1460"/>
<text text-anchor="middle" x="306" y="-1438.3" font-family="Inter" font-size="14.00">app.web</text>
</g>
<!-- app.web&#45;&gt;app.config -->
<g id="edge70" class="edge">
<title>app.web&#45;&gt;app.config</title>
<path fill="none" stroke="#0f766e" d="M344.38,-1459.38C363.4,-1470.14 385.15,-1485.79 398,-1506 422.7,-1544.85 390.58,-1569.62 416,-1608 480.94,-1706.05 525.23,-1718.63 638,-1752 757.62,-1787.4 1079.62,-1768.2 1199,-1732 1276.54,-1708.49 1465.35,-1611.25 1512,-1545 1549.03,-1492.4 1528.34,-1466.26 1540,-1403 1548.58,-1356.44 1527.96,-1334.6 1558,-1298 1560.72,-1294.69 1563.98,-1291.85 1567.55,-1289.42"/>
<polygon fill="#0f766e" stroke="#0f766e" points="1569.04,-1291.38 1573.81,-1285.7 1566.54,-1287.17 1569.04,-1291.38"/>
<text text-anchor="middle" x="994" y="-1770.8" font-family="Times,serif" font-size="14.00">2</text>
</g>
<!-- app.web&#45;&gt;app.data -->
<g id="edge71" class="edge">
<title>app.web&#45;&gt;app.data</title>
<path fill="none" stroke="#0f766e" d="M335.01,-1423.84C374.99,-1396.6 448.41,-1341.53 492,-1278 512.13,-1248.66 510.81,-1237.37 520,-1203 540.6,-1125.95 582.05,-551.83 638,-495 643.96,-488.94 930.55,-440.93 939,-440 1176.57,-413.88 1463.37,-412.82 1572.7,-413.51"/>
<polygon fill="#0f766e" stroke="#0f766e" points="1572.93,-415.96 1579.95,-413.56 1572.97,-411.06 1572.93,-415.96"/>
<text text-anchor="middle" x="994" y="-443.8" font-family="Times,serif" font-size="14.00">2</text>
</g>
<!-- app.web&#45;&gt;app.jobs -->
<g id="edge72" class="edge">
<title>app.web&#45;&gt;app.jobs</title>
<path fill="none" stroke="#0f766e" d="M317.27,-1423.86C342.97,-1378.43 410.13,-1259.76 439.23,-1208.34"/>
<polygon fill="#0f766e" stroke="#0f766e" points="441.43,-1209.42 442.74,-1202.12 437.17,-1207.01 441.43,-1209.42"/>
<text text-anchor="middle" x="393" y="-1300.8" font-family="Times,serif" font-size="14.00">2</text>
</g>
<!-- app.web&#45;&gt;app.services -->
<g id="edge73" class="edge">
<title>app.web&#45;&gt;app.services</title>
<path fill="none" stroke="#0f766e" d="M344.37,-1440.24C361.25,-1438.44 381.14,-1434.91 398,-1428 407.13,-1424.26 407.52,-1420.04 416,-1415 453.6,-1392.66 733.19,-1266.97 771,-1245 906.03,-1166.53 1055.48,-1054.73 1117.06,-1007.47"/>
<polygon fill="#0f766e" stroke="#0f766e" points="1118.69,-1009.31 1122.74,-1003.1 1115.7,-1005.42 1118.69,-1009.31"/>
<text text-anchor="middle" x="704.5" y="-1311.8" font-family="Times,serif" font-size="14.00">6</text>
</g>
<!-- tests -->
<g id="node20" class="node">
<title>tests</title>
<path fill="#f8fafc" stroke="#94a3b8" d="M63,-1539C63,-1539 33,-1539 33,-1539 27,-1539 21,-1533 21,-1527 21,-1527 21,-1515 21,-1515 21,-1509 27,-1503 33,-1503 33,-1503 63,-1503 63,-1503 69,-1503 75,-1509 75,-1515 75,-1515 75,-1527 75,-1527 75,-1533 69,-1539 63,-1539"/>
<text text-anchor="middle" x="48" y="-1517.3" font-family="Inter" font-size="14.00">tests</text>
</g>
<!-- tests&#45;&gt;app.backtesting -->
<g id="edge74" class="edge">
<title>tests&#45;&gt;app.backtesting</title>
<path fill="none" stroke="#0f766e" d="M75.25,-1507.73C82.26,-1503.71 89.65,-1499.02 96,-1494 175.15,-1431.49 252.26,-1339.05 286.52,-1295.86"/>
<polygon fill="#0f766e" stroke="#0f766e" points="288.65,-1297.12 291.06,-1290.1 284.8,-1294.08 288.65,-1297.12"/>
<text text-anchor="middle" x="169" y="-1454.8" font-family="Times,serif" font-size="14.00">2</text>
</g>
<!-- tests&#45;&gt;app.config -->
<g id="edge75" class="edge">
<title>tests&#45;&gt;app.config</title>
<path fill="none" stroke="#0f766e" d="M51.13,-1539.43C59.99,-1611.86 96.88,-1873 168,-1873 168,-1873 168,-1873 917,-1873 1119.57,-1873 1179.94,-1860.85 1361,-1770 1436.88,-1731.92 1464.02,-1723.04 1512,-1653 1536.63,-1617.04 1532.23,-1601.89 1540,-1559 1545.18,-1530.4 1540.71,-1321.37 1558,-1298 1560.7,-1294.35 1564.06,-1291.28 1567.79,-1288.7"/>
<polygon fill="#0f766e" stroke="#0f766e" points="1569.19,-1290.72 1573.94,-1285.03 1566.67,-1286.51 1569.19,-1290.72"/>
<text text-anchor="middle" x="841" y="-1876.8" font-family="Times,serif" font-size="14.00">8</text>
</g>
<!-- tests&#45;&gt;app.data -->
<g id="edge76" class="edge">
<title>tests&#45;&gt;app.data</title>
<path fill="none" stroke="#0f766e" d="M75.25,-1511.91C83.32,-1507.75 91.31,-1501.94 96,-1494 109.48,-1471.21 112.76,-567.45 114,-541 119.06,-432.67 59.56,-56 168,-56 168,-56 168,-56 516,-56 830.92,-56 906.08,-127 1221,-127 1221,-127 1221,-127 1465,-127 1582.95,-127 1610.28,-318.09 1616.35,-388.42"/>
<polygon fill="#0f766e" stroke="#0f766e" points="1613.92,-388.83 1616.93,-395.61 1618.81,-388.44 1613.92,-388.83"/>
<text text-anchor="middle" x="841" y="-98.8" font-family="Times,serif" font-size="14.00">1</text>
</g>
<!-- tests&#45;&gt;app.exchanges -->
<g id="edge77" class="edge">
<title>tests&#45;&gt;app.exchanges</title>
<path fill="none" stroke="#0f766e" d="M49.9,-1539.11C54.52,-1622.09 78.89,-1962 168,-1962 168,-1962 168,-1962 1465,-1962 1562.5,-1962 1601.64,-1816.94 1613.61,-1757.22"/>
<polygon fill="#0f766e" stroke="#0f766e" points="1616.08,-1757.39 1615,-1750.05 1611.27,-1756.45 1616.08,-1757.39"/>
<text text-anchor="middle" x="841" y="-1965.8" font-family="Times,serif" font-size="14.00">2</text>
</g>
<!-- tests&#45;&gt;app.market -->
<g id="edge78" class="edge">
<title>tests&#45;&gt;app.market</title>
<path fill="none" stroke="#0f766e" d="M49.98,-1539.27C53.94,-1593.38 73.56,-1749 168,-1749 168,-1749 168,-1749 394,-1749 754.26,-1749 856.95,-1767.09 1199,-1654 1277.82,-1627.94 1298.18,-1615.27 1361,-1561 1381.12,-1543.62 1384.32,-1536.8 1398,-1514 1408.24,-1496.93 1402.22,-1487.36 1416,-1473 1416.1,-1472.89 1416.2,-1472.79 1416.31,-1472.68"/>
<polygon fill="#0f766e" stroke="#0f766e" points="1417.73,-1474.7 1421.32,-1468.21 1414.46,-1471.05 1417.73,-1474.7"/>
<text text-anchor="middle" x="704.5" y="-1753.8" font-family="Times,serif" font-size="14.00">3</text>
</g>
<!-- tests&#45;&gt;app.paper -->
<g id="edge79" class="edge">
<title>tests&#45;&gt;app.paper</title>
<path fill="none" stroke="#0f766e" d="M75.09,-1511.82C83.14,-1507.65 91.17,-1501.85 96,-1494 134.62,-1431.27 94.34,-170 168,-170 168,-170 168,-170 394,-170 547.68,-170 514.9,-323 638,-415 691.84,-455.24 729.34,-434.25 771,-487 790.11,-511.2 767.69,-531.71 789,-554 822.51,-589.05 849.45,-565.67 893,-587 1049.02,-663.41 1212.72,-794.16 1275.43,-846.43"/>
<polygon fill="#0f766e" stroke="#0f766e" points="1273.89,-848.34 1280.83,-850.95 1277.03,-844.58 1273.89,-848.34"/>
<text text-anchor="middle" x="579" y="-403.8" font-family="Times,serif" font-size="14.00">4</text>
</g>
<!-- tests&#45;&gt;app.signals -->
<g id="edge80" class="edge">
<title>tests&#45;&gt;app.signals</title>
<path fill="none" stroke="#0f766e" d="M75.12,-1519.8C130.78,-1516.59 264.62,-1505.42 370,-1469 426.93,-1449.33 444.21,-1446.66 492,-1410 570.76,-1349.59 559.74,-1302.05 638,-1241 690.19,-1200.29 725.67,-1222.22 771,-1174 784.91,-1159.2 779.25,-1149.81 789,-1132 798.73,-1114.24 811.56,-1095.39 821.91,-1081.03"/>
<polygon fill="#0f766e" stroke="#0f766e" points="824.04,-1082.27 826.18,-1075.17 820.08,-1079.39 824.04,-1082.27"/>
<text text-anchor="middle" x="393" y="-1465.8" font-family="Times,serif" font-size="14.00">4</text>
</g>
<!-- tests&#45;&gt;app.strategies -->
<g id="edge81" class="edge">
<title>tests&#45;&gt;app.strategies</title>
<path fill="none" stroke="#0f766e" d="M57.42,-1539.06C73.8,-1571.21 113.21,-1635 168,-1635 168,-1635 168,-1635 394,-1635 531.57,-1635 565.93,-1640 703.5,-1640 703.5,-1640 703.5,-1640 1148,-1640 1202.22,-1640 1199.69,-1595.79 1245,-1566 1250.36,-1562.47 1256.14,-1558.95 1261.88,-1555.59"/>
<polygon fill="#0f766e" stroke="#0f766e" points="1263.23,-1557.63 1268.08,-1552.02 1260.79,-1553.39 1263.23,-1557.63"/>
<text text-anchor="middle" x="579" y="-1642.8" font-family="Times,serif" font-size="14.00">2</text>
</g>
<!-- tests&#45;&gt;app.telegram -->
<g id="edge82" class="edge">
<title>tests&#45;&gt;app.telegram</title>
<path fill="none" stroke="#0f766e" d="M75.1,-1537.51C109.05,-1556.95 170.37,-1585.15 224,-1573 492.36,-1512.2 566.12,-1466.69 771,-1283 864.72,-1198.97 861.79,-1154.41 939,-1055 950.1,-1040.7 962.92,-1025.01 973.28,-1012.51"/>
<polygon fill="#0f766e" stroke="#0f766e" points="975.26,-1013.96 977.85,-1007.01 971.49,-1010.83 975.26,-1013.96"/>
<text text-anchor="middle" x="454" y="-1522.8" font-family="Times,serif" font-size="14.00">3</text>
</g>
<!-- tests&#45;&gt;app.web -->
<g id="edge83" class="edge">
<title>tests&#45;&gt;app.web</title>
<path fill="none" stroke="#0f766e" d="M75.05,-1512.84C93.69,-1507.01 119.38,-1499 142,-1492 182.26,-1479.55 228.16,-1465.48 260.96,-1455.45"/>
<polygon fill="#0f766e" stroke="#0f766e" points="261.78,-1457.76 267.76,-1453.37 260.35,-1453.07 261.78,-1457.76"/>
<text text-anchor="middle" x="169" y="-1495.8" font-family="Times,serif" font-size="14.00">2</text>
</g>
<!-- tools -->
<g id="node21" class="node">
<title>tools</title>
<path fill="#f8fafc" stroke="#94a3b8" d="M184,-1215C184,-1215 154,-1215 154,-1215 148,-1215 142,-1209 142,-1203 142,-1203 142,-1191 142,-1191 142,-1185 148,-1179 154,-1179 154,-1179 184,-1179 184,-1179 190,-1179 196,-1185 196,-1191 196,-1191 196,-1203 196,-1203 196,-1209 190,-1215 184,-1215"/>
<text text-anchor="middle" x="169" y="-1193.3" font-family="Inter" font-size="14.00">tools</text>
</g>
<!-- tests&#45;&gt;tools -->
<g id="edge84" class="edge">
<title>tests&#45;&gt;tools</title>
<path fill="none" stroke="#0f766e" d="M75.35,-1511.41C83.23,-1507.26 91.07,-1501.57 96,-1494 116.85,-1461.98 104.37,-1359.98 114,-1323 123.58,-1286.21 142.23,-1246.28 154.9,-1221.45"/>
<polygon fill="#0f766e" stroke="#0f766e" points="157.11,-1222.51 158.14,-1215.17 152.75,-1220.26 157.11,-1222.51"/>
<text text-anchor="middle" x="119" y="-1326.8" font-family="Times,serif" font-size="14.00">1</text>
</g>
<!-- tools&#45;&gt;app.backtesting -->
<g id="edge85" class="edge">
<title>tools&#45;&gt;app.backtesting</title>
<path fill="none" stroke="#0f766e" d="M196.03,-1211.46C215.92,-1222.51 243.65,-1237.92 266.16,-1250.42"/>
<polygon fill="#0f766e" stroke="#0f766e" points="265.05,-1252.61 272.36,-1253.87 267.43,-1248.33 265.05,-1252.61"/>
<text text-anchor="middle" x="219" y="-1228.8" font-family="Times,serif" font-size="14.00">2</text>
</g>
<!-- tools&#45;&gt;app.config -->
<g id="edge86" class="edge">
<title>tools&#45;&gt;app.config</title>
<path fill="none" stroke="#0f766e" d="M171.86,-1215.25C177.1,-1260.63 194.78,-1381.25 242,-1469 327.38,-1627.66 374.41,-1670.5 538,-1746 640.44,-1793.28 676.26,-1779.52 789,-1784 1061.72,-1794.84 1172.56,-1858.85 1398,-1705 1409.31,-1697.28 1406.73,-1690.07 1416,-1680 1454,-1638.71 1483.17,-1646.14 1512,-1598 1541.92,-1548.04 1530.73,-1527.49 1540,-1470 1546.12,-1432.06 1534.6,-1328.49 1558,-1298 1560.72,-1294.46 1564.05,-1291.46 1567.75,-1288.92"/>
<polygon fill="#0f766e" stroke="#0f766e" points="1569.05,-1291 1573.81,-1285.31 1566.54,-1286.79 1569.05,-1291"/>
<text text-anchor="middle" x="916" y="-1796.8" font-family="Times,serif" font-size="14.00">4</text>
</g>
<!-- tools&#45;&gt;app.data -->
<g id="edge87" class="edge">
<title>tools&#45;&gt;app.data</title>
<path fill="none" stroke="#0f766e" d="M170.32,-1178.96C173.04,-1039.01 194.92,-132 305,-132 305,-132 305,-132 705.5,-132 935.08,-132 991.42,-165 1221,-165 1221,-165 1221,-165 1465,-165 1569.09,-165 1604.61,-324.92 1614.61,-388.44"/>
<polygon fill="#0f766e" stroke="#0f766e" points="1612.24,-389.14 1615.71,-395.69 1617.08,-388.4 1612.24,-389.14"/>
<text text-anchor="middle" x="916" y="-146.8" font-family="Times,serif" font-size="14.00">5</text>
</g>
<!-- tools&#45;&gt;app.jobs -->
<g id="edge88" class="edge">
<title>tools&#45;&gt;app.jobs</title>
<path fill="none" stroke="#0f766e" d="M196.12,-1195.8C244.64,-1193.57 349.16,-1188.77 408.84,-1186.03"/>
<polygon fill="#0f766e" stroke="#0f766e" points="409.01,-1188.47 415.89,-1185.7 408.79,-1183.58 409.01,-1188.47"/>
<text text-anchor="middle" x="306" y="-1196.8" font-family="Times,serif" font-size="14.00">1</text>
</g>
<!-- tools&#45;&gt;app.utils -->
<g id="edge89" class="edge">
<title>tools&#45;&gt;app.utils</title>
<path fill="none" stroke="#0f766e" d="M170.49,-1178.96C172.99,-1089.74 185.4,-686.77 214,-358 224.76,-234.36 180.89,-94 305,-94 305,-94 305,-94 516,-94 571.35,-94 583.71,-79.78 638,-69 829.14,-31.06 876.13,0 1071,0 1071,0 1071,0 1620,0 1648.72,0 1660.41,-3 1680,-24 1707.71,-53.7 1699.69,-71.24 1708,-111 1755.94,-340.53 1767.79,-625.38 1770.36,-710.72"/>
<polygon fill="#0f766e" stroke="#0f766e" points="1767.92,-710.96 1770.57,-717.89 1772.81,-710.82 1767.92,-710.96"/>
<text text-anchor="middle" x="994" y="-10.8" font-family="Times,serif" font-size="14.00">1</text>
</g>
</g>
</svg>
