<?xml version="1.0" encoding="UTF-8" standalone="no"?>
<!DOCTYPE svg PUBLIC "-//W3C//DTD SVG 1.1//EN"
 "http://www.w3.org/Graphics/SVG/1.1/DTD/svg11.dtd">
<!-- Generated by graphviz version 2.43.0 (0)
 -->
<!-- Title: imports Pages: 1 -->
<svg width="1960pt" height="2413pt"
 viewBox="0.00 0.00 1960.00 2413.08" xmlns="http://www.w3.org/2000/svg" xmlns:xlink="http://www.w3.org/1999/xlink">
<g id="graph0" class="graph" transform="scale(1 1) rotate(0) translate(4 2409.08)">
<title>imports</title>
<polygon fill="white" stroke="transparent" points="-4,4 -4,-2409.08 1956,-2409.08 1956,4 -4,4"/>
<!-- app.__init__ -->
<g id="node1" class="node">
<title>app.__init__</title>
<path fill="#f8fafc" stroke="#94a3b8" d="M161,-1649.08C161,-1649.08 89,-1649.08 89,-1649.08 83,-1649.08 77,-1643.08 77,-1637.08 77,-1637.08 77,-1625.08 77,-1625.08 77,-1619.08 83,-1613.08 89,-1613.08 89,-1613.08 161,-1613.08 161,-1613.08 167,-1613.08 173,-1619.08 173,-1625.08 173,-1625.08 173,-1637.08 173,-1637.08 173,-1643.08 167,-1649.08 161,-1649.08"/>
<text text-anchor="middle" x="125" y="-1627.38" font-family="Inter" font-size="14.00">app.__init__</text>
</g>
<!-- app.config -->
<g id="node2" class="node">
<title>app.config</title>
<path fill="#f8fafc" stroke="#94a3b8" d="M1527,-971.08C1527,-971.08 1461,-971.08 1461,-971.08 1455,-971.08 1449,-965.08 1449,-959.08 1449,-959.08 1449,-947.08 1449,-947.08 1449,-941.08 1455,-935.08 1461,-935.08 1461,-935.08 1527,-935.08 1527,-935.08 1533,-935.08 1539,-941.08 1539,-947.08 1539,-947.08 1539,-959.08 1539,-959.08 1539,-965.08 1533,-971.08 1527,-971.08"/>
<text text-anchor="middle" x="1494" y="-949.38" font-family="Inter" font-size="14.00">app.config</text>
</g>
<!-- app.data.__init__ -->
<g id="node3" class="node">
<title>app.data.__init__</title>
<path fill="#f8fafc" stroke="#94a3b8" d="M178.5,-1757.08C178.5,-1757.08 71.5,-1757.08 71.5,-1757.08 65.5,-1757.08 59.5,-1751.08 59.5,-1745.08 59.5,-1745.08 59.5,-1733.08 59.5,-1733.08 59.5,-1727.08 65.5,-1721.08 71.5,-1721.08 71.5,-1721.08 178.5,-1721.08 178.5,-1721.08 184.5,-1721.08 190.5,-1727.08 190.5,-1733.08 190.5,-1733.08 190.5,-1745.08 190.5,-1745.08 190.5,-1751.08 184.5,-1757.08 178.5,-1757.08"/>
<text text-anchor="middle" x="125" y="-1735.38" font-family="Inter" font-size="14.00">app.data.__init__</text>
</g>
<!-- app.data.database -->
<g id="node4" class="node">
<title>app.data.database</title>
<path fill="#f8fafc" stroke="#94a3b8" d="M1555,-296.08C1555,-296.08 1433,-296.08 1433,-296.08 1427,-296.08 1421,-290.08 1421,-284.08 1421,-284.08 1421,-272.08 1421,-272.08 1421,-266.08 1427,-260.08 1433,-260.08 1433,-260.08 1555,-260.08 1555,-260.08 1561,-260.08 1567,-266.08 1567,-272.08 1567,-272.08 1567,-284.08 1567,-284.08 1567,-290.08 1561,-296.08 1555,-296.08"/>
<text text-anchor="middle" x="1494" y="-274.38" font-family="Inter" font-size="14.00">app.data.database</text>
</g>
<!-- app.data.models -->
<g id="node5" class="node">
<title>app.data.models</title>
<path fill="#f8fafc" stroke="#94a3b8" d="M1773,-582.08C1773,-582.08 1664,-582.08 1664,-582.08 1658,-582.08 1652,-576.08 1652,-570.08 1652,-570.08 1652,-558.08 1652,-558.08 1652,-552.08 1658,-546.08 1664,-546.08 1664,-546.08 1773,-546.08 1773,-546.08 1779,-546.08 1785,-552.08 1785,-558.08 1785,-558.08 1785,-570.08 1785,-570.08 1785,-576.08 1779,-582.08 1773,-582.08"/>
<text text-anchor="middle" x="1718.5" y="-560.38" font-family="Inter" font-size="14.00">app.data.models</text>
</g>
<!-- app.data.database&#45;&gt;app.data.models -->
<g id="edge1" class="edge">
<title>app.data.database&#45;&gt;app.data.models</title>
<path fill="none" stroke="#2563eb" d="M1518.12,-296.33C1539.95,-314.23 1572.84,-343 1597,-372.08 1643.01,-427.44 1684.79,-501.71 1704.89,-539.61"/>
<polygon fill="#2563eb" stroke="#2563eb" points="1702.73,-540.76 1708.16,-545.81 1707.07,-538.47 1702.73,-540.76"/>
</g>
<!-- app.utils.time -->
<g id="node40" class="node">
<title>app.utils.time</title>
<path fill="#f8fafc" stroke="#94a3b8" d="M1940,-1288.08C1940,-1288.08 1852,-1288.08 1852,-1288.08 1846,-1288.08 1840,-1282.08 1840,-1276.08 1840,-1276.08 1840,-1264.08 1840,-1264.08 1840,-1258.08 1846,-1252.08 1852,-1252.08 1852,-1252.08 1940,-1252.08 1940,-1252.08 1946,-1252.08 1952,-1258.08 1952,-1264.08 1952,-1264.08 1952,-1276.08 1952,-1276.08 1952,-1282.08 1946,-1288.08 1940,-1288.08"/>
<text text-anchor="middle" x="1896" y="-1266.38" font-family="Inter" font-size="14.00">app.utils.time</text>
</g>
<!-- app.data.models&#45;&gt;app.utils.time -->
<g id="edge2" class="edge">
<title>app.data.models&#45;&gt;app.utils.time</title>
<path fill="none" stroke="#2563eb" d="M1743.38,-582.38C1763.05,-598.86 1789.92,-624.94 1804,-654.08 1855.98,-761.61 1886.03,-1142.46 1893.27,-1244.67"/>
<polygon fill="#2563eb" stroke="#2563eb" points="1890.84,-1245 1893.78,-1251.82 1895.73,-1244.66 1890.84,-1245"/>
</g>
<!-- app.data.repositories -->
<g id="node6" class="node">
<title>app.data.repositories</title>
<path fill="#f8fafc" stroke="#94a3b8" d="M1564,-507.08C1564,-507.08 1424,-507.08 1424,-507.08 1418,-507.08 1412,-501.08 1412,-495.08 1412,-495.08 1412,-483.08 1412,-483.08 1412,-477.08 1418,-471.08 1424,-471.08 1424,-471.08 1564,-471.08 1564,-471.08 1570,-471.08 1576,-477.08 1576,-483.08 1576,-483.08 1576,-495.08 1576,-495.08 1576,-501.08 1570,-507.08 1564,-507.08"/>
<text text-anchor="middle" x="1494" y="-485.38" font-family="Inter" font-size="14.00">app.data.repositories</text>
</g>
<!-- app.data.repositories&#45;&gt;app.data.models -->
<g id="edge3" class="edge">
<title>app.data.repositories&#45;&gt;app.data.models</title>
<path fill="none" stroke="#2563eb" d="M1553.92,-507.14C1568.06,-511.59 1583.1,-516.42 1597,-521.08 1618.19,-528.18 1641.34,-536.34 1661.64,-543.64"/>
<polygon fill="#2563eb" stroke="#2563eb" points="1660.99,-546.01 1668.4,-546.07 1662.65,-541.4 1660.99,-546.01"/>
</g>
<!-- app.data.repositories&#45;&gt;app.utils.time -->
<g id="edge4" class="edge">
<title>app.data.repositories&#45;&gt;app.utils.time</title>
<path fill="none" stroke="#2563eb" d="M1576.04,-477.23C1646.45,-471.92 1745.98,-477.26 1804,-537.08 1854.5,-589.15 1886.82,-1121.77 1893.65,-1244.81"/>
<polygon fill="#2563eb" stroke="#2563eb" points="1891.21,-1245.14 1894.04,-1251.99 1896.1,-1244.87 1891.21,-1245.14"/>
</g>
<!-- app.exchanges.__init__ -->
<g id="node7" class="node">
<title>app.exchanges.__init__</title>
<path fill="#f8fafc" stroke="#94a3b8" d="M201,-1811.08C201,-1811.08 49,-1811.08 49,-1811.08 43,-1811.08 37,-1805.08 37,-1799.08 37,-1799.08 37,-1787.08 37,-1787.08 37,-1781.08 43,-1775.08 49,-1775.08 49,-1775.08 201,-1775.08 201,-1775.08 207,-1775.08 213,-1781.08 213,-1787.08 213,-1787.08 213,-1799.08 213,-1799.08 213,-1805.08 207,-1811.08 201,-1811.08"/>
<text text-anchor="middle" x="125" y="-1789.38" font-family="Inter" font-size="14.00">app.exchanges.__init__</text>
</g>
<!-- app.exchanges.base -->
<g id="node8" class="node">
<title>app.exchanges.base</title>
<path fill="#f8fafc" stroke="#94a3b8" d="M1786.5,-1852.08C1786.5,-1852.08 1650.5,-1852.08 1650.5,-1852.08 1644.5,-1852.08 1638.5,-1846.08 1638.5,-1840.08 1638.5,-1840.08 1638.5,-1828.08 1638.5,-1828.08 1638.5,-1822.08 1644.5,-1816.08 1650.5,-1816.08 1650.5,-1816.08 1786.5,-1816.08 1786.5,-1816.08 1792.5,-1816.08 1798.5,-1822.08 1798.5,-1828.08 1798.5,-1828.08 1798.5,-1840.08 1798.5,-1840.08 1798.5,-1846.08 1792.5,-1852.08 1786.5,-1852.08"/>
<text text-anchor="middle" x="1718.5" y="-1830.38" font-family="Inter" font-size="14.00">app.exchanges.base</text>
</g>
<!-- app.exchanges.bybit_client -->
<g id="node9" class="node">
<title>app.exchanges.bybit_client</title>
<path fill="#f8fafc" stroke="#94a3b8" d="M1585,-1898.08C1585,-1898.08 1403,-1898.08 1403,-1898.08 1397,-1898.08 1391,-1892.08 1391,-1886.08 1391,-1886.08 1391,-1874.08 1391,-1874.08 1391,-1868.08 1397,-1862.08 1403,-1862.08 1403,-1862.08 1585,-1862.08 1585,-1862.08 1591,-1862.08 1597,-1868.08 1597,-1874.08 1597,-1874.08 1597,-1886.08 1597,-1886.08 1597,-1892.08 1591,-1898.08 1585,-1898.08"/>
<text text-anchor="middle" x="1494" y="-1876.38" font-family="Inter" font-size="14.00">app.exchanges.bybit_client</text>
</g>
<!-- app.exchanges.bybit_client&#45;&gt;app.exchanges.base -->
<g id="edge5" class="edge">
<title>app.exchanges.bybit_client&#45;&gt;app.exchanges.base</title>
<path fill="none" stroke="#2563eb" d="M1582.3,-1862.03C1598.49,-1858.68 1615.39,-1855.19 1631.55,-1851.85"/>
<polygon fill="#2563eb" stroke="#2563eb" points="1632.06,-1854.24 1638.42,-1850.43 1631.07,-1849.45 1632.06,-1854.24"/>
</g>
<!-- app.logger -->
<g id="node11" class="node">
<title>app.logger</title>
<path fill="#f8fafc" stroke="#94a3b8" d="M1752.5,-1509.08C1752.5,-1509.08 1684.5,-1509.08 1684.5,-1509.08 1678.5,-1509.08 1672.5,-1503.08 1672.5,-1497.08 1672.5,-1497.08 1672.5,-1485.08 1672.5,-1485.08 1672.5,-1479.08 1678.5,-1473.08 1684.5,-1473.08 1684.5,-1473.08 1752.5,-1473.08 1752.5,-1473.08 1758.5,-1473.08 1764.5,-1479.08 1764.5,-1485.08 1764.5,-1485.08 1764.5,-1497.08 1764.5,-1497.08 1764.5,-1503.08 1758.5,-1509.08 1752.5,-1509.08"/>
<text text-anchor="middle" x="1718.5" y="-1487.38" font-family="Inter" font-size="14.00">app.logger</text>
</g>
<!-- app.exchanges.bybit_client&#45;&gt;app.logger -->
<g id="edge6" class="edge">
<title>app.exchanges.bybit_client&#45;&gt;app.logger</title>
<path fill="none" stroke="#2563eb" d="M1518.23,-1862.01C1541.76,-1842.42 1577.4,-1808.97 1597,-1772.08 1631.4,-1707.33 1603.32,-1678.13 1633,-1611.08 1649.16,-1574.56 1677.21,-1537.78 1696.52,-1514.75"/>
<polygon fill="#2563eb" stroke="#2563eb" points="1698.57,-1516.12 1701.23,-1509.2 1694.84,-1512.95 1698.57,-1516.12"/>
</g>
<!-- app.utils.math -->
<g id="node38" class="node">
<title>app.utils.math</title>
<path fill="#f8fafc" stroke="#94a3b8" d="M1765,-1906.08C1765,-1906.08 1672,-1906.08 1672,-1906.08 1666,-1906.08 1660,-1900.08 1660,-1894.08 1660,-1894.08 1660,-1882.08 1660,-1882.08 1660,-1876.08 1666,-1870.08 1672,-1870.08 1672,-1870.08 1765,-1870.08 1765,-1870.08 1771,-1870.08 1777,-1876.08 1777,-1882.08 1777,-1882.08 1777,-1894.08 1777,-1894.08 1777,-1900.08 1771,-1906.08 1765,-1906.08"/>
<text text-anchor="middle" x="1718.5" y="-1884.38" font-family="Inter" font-size="14.00">app.utils.math</text>
</g>
<!-- app.exchanges.bybit_client&#45;&gt;app.utils.math -->
<g id="edge7" class="edge">
<title>app.exchanges.bybit_client&#45;&gt;app.utils.math</title>
<path fill="none" stroke="#2563eb" d="M1597.13,-1883.75C1615.93,-1884.43 1635.07,-1885.11 1652.39,-1885.74"/>
<polygon fill="#2563eb" stroke="#2563eb" points="1652.62,-1888.2 1659.7,-1886 1652.8,-1883.3 1652.62,-1888.2"/>
</g>
<!-- app.exchanges.bybit_client&#45;&gt;app.utils.time -->
<g id="edge8" class="edge">
<title>app.exchanges.bybit_client&#45;&gt;app.utils.time</title>
<path fill="none" stroke="#2563eb" d="M1528.61,-1898.29C1591.06,-1929.38 1725.75,-1983.06 1804,-1915.08 1851.88,-1873.48 1885.72,-1409.52 1893.36,-1295.35"/>
<polygon fill="#2563eb" stroke="#2563eb" points="1895.81,-1295.49 1893.83,-1288.34 1890.92,-1295.16 1895.81,-1295.49"/>
</g>
<!-- app.exchanges.hyperliquid_client -->
<g id="node10" class="node">
<title>app.exchanges.hyperliquid_client</title>
<path fill="#f8fafc" stroke="#94a3b8" d="M238,-1865.08C238,-1865.08 12,-1865.08 12,-1865.08 6,-1865.08 0,-1859.08 0,-1853.08 0,-1853.08 0,-1841.08 0,-1841.08 0,-1835.08 6,-1829.08 12,-1829.08 12,-1829.08 238,-1829.08 238,-1829.08 244,-1829.08 250,-1835.08 250,-1841.08 250,-1841.08 250,-1853.08 250,-1853.08 250,-1859.08 244,-1865.08 238,-1865.08"/>
<text text-anchor="middle" x="125" y="-1843.38" font-family="Inter" font-size="14.00">app.exchanges.hyperliquid_client</text>
</g>
<!-- app.main -->
<g id="node12" class="node">
<title>app.main</title>
<path fill="#f8fafc" stroke="#94a3b8" d="M154,-1703.08C154,-1703.08 96,-1703.08 96,-1703.08 90,-1703.08 84,-1697.08 84,-1691.08 84,-1691.08 84,-1679.08 84,-1679.08 84,-1673.08 90,-1667.08 96,-1667.08 96,-1667.08 154,-1667.08 154,-1667.08 160,-1667.08 166,-1673.08 166,-1679.08 166,-1679.08 166,-1691.08 166,-1691.08 166,-1697.08 160,-1703.08 154,-1703.08"/>
<text text-anchor="middle" x="125" y="-1681.38" font-family="Inter" font-size="14.00">app.main</text>
</g>
<!-- app.main&#45;&gt;app.config -->
<g id="edge9" class="edge">
<title>app.main&#45;&gt;app.config</title>
<path fill="none" stroke="#2563eb" d="M166.23,-1687.54C193.86,-1686.88 229.17,-1680.98 250,-1658.08 295.17,-1608.4 266.59,-1422.36 286,-1358.08 360.89,-1110.1 326.46,-858.08 585.5,-858.08 585.5,-858.08 585.5,-858.08 1011.5,-858.08 1165.15,-858.08 1206.1,-859.17 1355,-897.08 1387.8,-905.43 1423.14,-919.88 1449.85,-932.01"/>
<polygon fill="#2563eb" stroke="#2563eb" points="1449.06,-934.35 1456.44,-935.04 1451.1,-929.89 1449.06,-934.35"/>
</g>
<!-- app.main&#45;&gt;app.data.database -->
<g id="edge10" class="edge">
<title>app.main&#45;&gt;app.data.database</title>
<path fill="none" stroke="#2563eb" d="M166.29,-1688.11C194.33,-1687.8 230.11,-1682.09 250,-1658.08 296.9,-1601.46 257.58,-402.89 286,-335.08 357.01,-165.61 401.75,-50.08 585.5,-50.08 585.5,-50.08 585.5,-50.08 1011.5,-50.08 1164.91,-50.08 1222.29,-7.11 1355,-84.08 1422.57,-123.27 1465.58,-210.32 1483.47,-253.21"/>
<polygon fill="#2563eb" stroke="#2563eb" points="1481.31,-254.39 1486.22,-259.95 1485.84,-252.54 1481.31,-254.39"/>
</g>
<!-- app.main&#45;&gt;app.exchanges.base -->
<g id="edge11" class="edge">
<title>app.main&#45;&gt;app.exchanges.base</title>
<path fill="none" stroke="#2563eb" d="M166.15,-1682.98C193.55,-1683.84 228.64,-1689.83 250,-1712.08 314.07,-1778.8 220,-1852.26 286,-1917.08 382.14,-2011.48 450.76,-1964.08 585.5,-1964.08 585.5,-1964.08 585.5,-1964.08 1248,-1964.08 1405.17,-1964.08 1461.74,-1987.12 1597,-1907.08 1619.34,-1893.86 1611.69,-1875.91 1633,-1861.08 1635.85,-1859.09 1638.86,-1857.25 1641.97,-1855.53"/>
<polygon fill="#2563eb" stroke="#2563eb" points="1643.37,-1857.57 1648.48,-1852.2 1641.14,-1853.21 1643.37,-1857.57"/>
</g>
<!-- app.main&#45;&gt;app.exchanges.bybit_client -->
<g id="edge12" class="edge">
<title>app.main&#45;&gt;app.exchanges.bybit_client</title>
<path fill="none" stroke="#2563eb" d="M166.13,-1683.3C193.34,-1684.34 228.21,-1690.41 250,-1712.08 301.99,-1763.78 233,-1822.41 286,-1873.08 383.7,-1966.5 450.32,-1926.08 585.5,-1926.08 585.5,-1926.08 585.5,-1926.08 1011.5,-1926.08 1164.4,-1926.08 1203.28,-1926.03 1355,-1907.08 1370.9,-1905.09 1387.71,-1902.35 1403.93,-1899.37"/>
<polygon fill="#2563eb" stroke="#2563eb" points="1404.41,-1901.77 1410.84,-1898.08 1403.51,-1896.96 1404.41,-1901.77"/>
</g>
<!-- app.main&#45;&gt;app.logger -->
<g id="edge13" class="edge">
<title>app.main&#45;&gt;app.logger</title>
<path fill="none" stroke="#2563eb" d="M166.13,-1679.94C322.79,-1659.91 908.35,-1585.38 1391,-1528.08 1487.68,-1516.6 1600.57,-1503.98 1665.09,-1496.84"/>
<polygon fill="#2563eb" stroke="#2563eb" points="1665.64,-1499.25 1672.32,-1496.04 1665.1,-1494.38 1665.64,-1499.25"/>
</g>
<!-- app.market.features -->
<g id="node14" class="node">
<title>app.market.features</title>
<path fill="#f8fafc" stroke="#94a3b8" d="M1561,-1730.08C1561,-1730.08 1427,-1730.08 1427,-1730.08 1421,-1730.08 1415,-1724.08 1415,-1718.08 1415,-1718.08 1415,-1706.08 1415,-1706.08 1415,-1700.08 1421,-1694.08 1427,-1694.08 1427,-1694.08 1561,-1694.08 1561,-1694.08 1567,-1694.08 1573,-1700.08 1573,-1706.08 1573,-1706.08 1573,-1718.08 1573,-1718.08 1573,-1724.08 1567,-1730.08 1561,-1730.08"/>
<text text-anchor="middle" x="1494" y="-1708.38" font-family="Inter" font-size="14.00">app.market.features</text>
</g>
<!-- app.main&#45;&gt;app.market.features -->
<g id="edge14" class="edge">
<title>app.main&#45;&gt;app.market.features</title>
<path fill="none" stroke="#2563eb" d="M166.2,-1689.39C191.17,-1693.13 223.45,-1699.94 250,-1712.08 268.19,-1720.4 267.12,-1732.47 286,-1739.08 383.36,-1773.17 414.85,-1744.52 518,-1746.08 847.11,-1751.04 1238.41,-1728.88 1407.82,-1717.91"/>
<polygon fill="#2563eb" stroke="#2563eb" points="1408.16,-1720.34 1414.98,-1717.45 1407.84,-1715.45 1408.16,-1720.34"/>
</g>
<!-- app.market.oi_tracker -->
<g id="node17" class="node">
<title>app.market.oi_tracker</title>
<path fill="#f8fafc" stroke="#94a3b8" d="M1319,-1898.08C1319,-1898.08 1175,-1898.08 1175,-1898.08 1169,-1898.08 1163,-1892.08 1163,-1886.08 1163,-1886.08 1163,-1874.08 1163,-1874.08 1163,-1868.08 1169,-1862.08 1175,-1862.08 1175,-1862.08 1319,-1862.08 1319,-1862.08 1325,-1862.08 1331,-1868.08 1331,-1874.08 1331,-1874.08 1331,-1886.08 1331,-1886.08 1331,-1892.08 1325,-1898.08 1319,-1898.08"/>
<text text-anchor="middle" x="1247" y="-1876.38" font-family="Inter" font-size="14.00">app.market.oi_tracker</text>
</g>
<!-- app.main&#45;&gt;app.market.oi_tracker -->
<g id="edge15" class="edge">
<title>app.main&#45;&gt;app.market.oi_tracker</title>
<path fill="none" stroke="#2563eb" d="M166.24,-1683.82C193.15,-1685.15 227.61,-1691.35 250,-1712.08 290.86,-1749.91 243.87,-1795.67 286,-1832.08 387.8,-1920.04 450.96,-1876.08 585.5,-1876.08 585.5,-1876.08 585.5,-1876.08 787.5,-1876.08 915.32,-1876.08 1063.17,-1877.65 1155.64,-1878.83"/>
<polygon fill="#2563eb" stroke="#2563eb" points="1155.72,-1881.28 1162.75,-1878.92 1155.79,-1876.38 1155.72,-1881.28"/>
</g>
<!-- app.market.symbol_selector -->
<g id="node19" class="node">
<title>app.market.symbol_selector</title>
<path fill="#f8fafc" stroke="#94a3b8" d="M1341,-1616.08C1341,-1616.08 1153,-1616.08 1153,-1616.08 1147,-1616.08 1141,-1610.08 1141,-1604.08 1141,-1604.08 1141,-1592.08 1141,-1592.08 1141,-1586.08 1147,-1580.08 1153,-1580.08 1153,-1580.08 1341,-1580.08 1341,-1580.08 1347,-1580.08 1353,-1586.08 1353,-1592.08 1353,-1592.08 1353,-1604.08 1353,-1604.08 1353,-1610.08 1347,-1616.08 1341,-1616.08"/>
<text text-anchor="middle" x="1247" y="-1594.38" font-family="Inter" font-size="14.00">app.market.symbol_selector</text>
</g>
<!-- app.main&#45;&gt;app.market.symbol_selector -->
<g id="edge16" class="edge">
<title>app.main&#45;&gt;app.market.symbol_selector</title>
<path fill="none" stroke="#2563eb" d="M166.3,-1693.83C209.72,-1703.2 274.22,-1716.88 286,-1718.08 549.53,-1744.97 618.06,-1735.6 882,-1713.08 980.95,-1704.63 1009.19,-1712.68 1103,-1680.08 1144.22,-1665.76 1187.06,-1639.41 1214.98,-1620.44"/>
<polygon fill="#2563eb" stroke="#2563eb" points="1216.66,-1622.25 1221.05,-1616.27 1213.89,-1618.21 1216.66,-1622.25"/>
</g>
<!-- app.paper.manager -->
<g id="node23" class="node">
<title>app.paper.manager</title>
<path fill="#f8fafc" stroke="#94a3b8" d="M851,-1281.08C851,-1281.08 722,-1281.08 722,-1281.08 716,-1281.08 710,-1275.08 710,-1269.08 710,-1269.08 710,-1257.08 710,-1257.08 710,-1251.08 716,-1245.08 722,-1245.08 722,-1245.08 851,-1245.08 851,-1245.08 857,-1245.08 863,-1251.08 863,-1257.08 863,-1257.08 863,-1269.08 863,-1269.08 863,-1275.08 857,-1281.08 851,-1281.08"/>
<text text-anchor="middle" x="786.5" y="-1259.38" font-family="Inter" font-size="14.00">app.paper.manager</text>
</g>
<!-- app.main&#45;&gt;app.paper.manager -->
<g id="edge17" class="edge">
<title>app.main&#45;&gt;app.paper.manager</title>
<path fill="none" stroke="#2563eb" d="M166.16,-1680.69C191.12,-1676.92 223.4,-1670.11 250,-1658.08 471.57,-1557.81 690.85,-1355.34 761.78,-1286.56"/>
<polygon fill="#2563eb" stroke="#2563eb" points="763.71,-1288.1 767.02,-1281.46 760.29,-1284.59 763.71,-1288.1"/>
</g>
<!-- app.signals.outcome_tracker -->
<g id="node27" class="node">
<title>app.signals.outcome_tracker</title>
<path fill="#f8fafc" stroke="#94a3b8" d="M1343,-479.08C1343,-479.08 1151,-479.08 1151,-479.08 1145,-479.08 1139,-473.08 1139,-467.08 1139,-467.08 1139,-455.08 1139,-455.08 1139,-449.08 1145,-443.08 1151,-443.08 1151,-443.08 1343,-443.08 1343,-443.08 1349,-443.08 1355,-449.08 1355,-455.08 1355,-455.08 1355,-467.08 1355,-467.08 1355,-473.08 1349,-479.08 1343,-479.08"/>
<text text-anchor="middle" x="1247" y="-457.38" font-family="Inter" font-size="14.00">app.signals.outcome_tracker</text>
</g>
<!-- app.main&#45;&gt;app.signals.outcome_tracker -->
<g id="edge18" class="edge">
<title>app.main&#45;&gt;app.signals.outcome_tracker</title>
<path fill="none" stroke="#2563eb" d="M166.23,-1688.06C194.23,-1687.73 230.01,-1682 250,-1658.08 321.44,-1572.6 251.02,-761.85 286,-656.08 343.1,-483.44 357.04,-403.68 518,-319.08 760.23,-191.75 1101.98,-373.68 1211.09,-439.16"/>
<polygon fill="#2563eb" stroke="#2563eb" points="1210.07,-441.41 1217.33,-442.93 1212.61,-437.21 1210.07,-441.41"/>
</g>
<!-- app.signals.signal_engine -->
<g id="node30" class="node">
<title>app.signals.signal_engine</title>
<path fill="#f8fafc" stroke="#94a3b8" d="M470,-1403.08C470,-1403.08 298,-1403.08 298,-1403.08 292,-1403.08 286,-1397.08 286,-1391.08 286,-1391.08 286,-1379.08 286,-1379.08 286,-1373.08 292,-1367.08 298,-1367.08 298,-1367.08 470,-1367.08 470,-1367.08 476,-1367.08 482,-1373.08 482,-1379.08 482,-1379.08 482,-1391.08 482,-1391.08 482,-1397.08 476,-1403.08 470,-1403.08"/>
<text text-anchor="middle" x="384" y="-1381.38" font-family="Inter" font-size="14.00">app.signals.signal_engine</text>
</g>
<!-- app.main&#45;&gt;app.signals.signal_engine -->
<g id="edge19" class="edge">
<title>app.main&#45;&gt;app.signals.signal_engine</title>
<path fill="none" stroke="#2563eb" d="M166.09,-1685.09C192.42,-1683.15 226.26,-1676.73 250,-1658.08 332.36,-1593.38 366.99,-1464.7 378.37,-1410.3"/>
<polygon fill="#2563eb" stroke="#2563eb" points="380.83,-1410.47 379.82,-1403.13 376.03,-1409.5 380.83,-1410.47"/>
</g>
<!-- app.telegram.bot -->
<g id="node32" class="node">
<title>app.telegram.bot</title>
<path fill="#f8fafc" stroke="#94a3b8" d="M643,-701.08C643,-701.08 530,-701.08 530,-701.08 524,-701.08 518,-695.08 518,-689.08 518,-689.08 518,-677.08 518,-677.08 518,-671.08 524,-665.08 530,-665.08 530,-665.08 643,-665.08 643,-665.08 649,-665.08 655,-671.08 655,-677.08 655,-677.08 655,-689.08 655,-689.08 655,-695.08 649,-701.08 643,-701.08"/>
<text text-anchor="middle" x="586.5" y="-679.38" font-family="Inter" font-size="14.00">app.telegram.bot</text>
</g>
<!-- app.main&#45;&gt;app.telegram.bot -->
<g id="edge20" class="edge">
<title>app.main&#45;&gt;app.telegram.bot</title>
<path fill="none" stroke="#2563eb" d="M166.17,-1688.01C194.14,-1687.65 229.91,-1681.92 250,-1658.08 308.34,-1588.85 237.84,-920.74 286,-844.08 314.65,-798.47 454.65,-736.07 532.69,-704"/>
<polygon fill="#2563eb" stroke="#2563eb" points="534.03,-706.09 539.58,-701.18 532.17,-701.56 534.03,-706.09"/>
</g>
<!-- app.main&#45;&gt;app.utils.math -->
<g id="edge21" class="edge">
<title>app.main&#45;&gt;app.utils.math</title>
<path fill="none" stroke="#2563eb" d="M166.06,-1682.78C193.6,-1683.51 228.89,-1689.43 250,-1712.08 325.94,-1793.55 207.05,-1881.51 286,-1960.08 381.27,-2054.89 451.09,-2002.08 585.5,-2002.08 585.5,-2002.08 585.5,-2002.08 1248,-2002.08 1404.76,-2002.08 1447.88,-1999.41 1597,-1951.08 1627.72,-1941.12 1660.01,-1923.82 1683.42,-1909.87"/>
<polygon fill="#2563eb" stroke="#2563eb" points="1684.75,-1911.93 1689.48,-1906.21 1682.22,-1907.73 1684.75,-1911.93"/>
</g>
<!-- app.main&#45;&gt;app.utils.time -->
<g id="edge22" class="edge">
<title>app.main&#45;&gt;app.utils.time</title>
<path fill="none" stroke="#2563eb" d="M166.03,-1688.15C194.12,-1687.88 230.1,-1682.22 250,-1658.08 306.31,-1589.78 228.36,-132.26 286,-65.08 374.02,37.51 450.32,-12.08 585.5,-12.08 585.5,-12.08 585.5,-12.08 1495,-12.08 1554.27,-12.08 1734.24,-220.18 1804,-394.08 1868.54,-554.97 1890.14,-1118.11 1894.24,-1244.69"/>
<polygon fill="#2563eb" stroke="#2563eb" points="1891.8,-1245.14 1894.47,-1252.06 1896.7,-1244.98 1891.8,-1245.14"/>
</g>
<!-- app.market.__init__ -->
<g id="node13" class="node">
<title>app.market.__init__</title>
<path fill="#f8fafc" stroke="#94a3b8" d="M187.5,-1919.08C187.5,-1919.08 62.5,-1919.08 62.5,-1919.08 56.5,-1919.08 50.5,-1913.08 50.5,-1907.08 50.5,-1907.08 50.5,-1895.08 50.5,-1895.08 50.5,-1889.08 56.5,-1883.08 62.5,-1883.08 62.5,-1883.08 187.5,-1883.08 187.5,-1883.08 193.5,-1883.08 199.5,-1889.08 199.5,-1895.08 199.5,-1895.08 199.5,-1907.08 199.5,-1907.08 199.5,-1913.08 193.5,-1919.08 187.5,-1919.08"/>
<text text-anchor="middle" x="125" y="-1897.38" font-family="Inter" font-size="14.00">app.market.__init__</text>
</g>
<!-- app.market.features&#45;&gt;app.exchanges.base -->
<g id="edge23" class="edge">
<title>app.market.features&#45;&gt;app.exchanges.base</title>
<path fill="none" stroke="#2563eb" d="M1527.83,-1730.08C1567.84,-1752.02 1635.39,-1789.06 1678.15,-1812.5"/>
<polygon fill="#2563eb" stroke="#2563eb" points="1677.22,-1814.79 1684.53,-1816 1679.57,-1810.49 1677.22,-1814.79"/>
</g>
<!-- app.market.orderbook -->
<g id="node18" class="node">
<title>app.market.orderbook</title>
<path fill="#f8fafc" stroke="#94a3b8" d="M1792,-1656.08C1792,-1656.08 1645,-1656.08 1645,-1656.08 1639,-1656.08 1633,-1650.08 1633,-1644.08 1633,-1644.08 1633,-1632.08 1633,-1632.08 1633,-1626.08 1639,-1620.08 1645,-1620.08 1645,-1620.08 1792,-1620.08 1792,-1620.08 1798,-1620.08 1804,-1626.08 1804,-1632.08 1804,-1632.08 1804,-1644.08 1804,-1644.08 1804,-1650.08 1798,-1656.08 1792,-1656.08"/>
<text text-anchor="middle" x="1718.5" y="-1634.38" font-family="Inter" font-size="14.00">app.market.orderbook</text>
</g>
<!-- app.market.features&#45;&gt;app.market.orderbook -->
<g id="edge24" class="edge">
<title>app.market.features&#45;&gt;app.market.orderbook</title>
<path fill="none" stroke="#2563eb" d="M1549.15,-1694.07C1581.45,-1683.33 1622.57,-1669.65 1656.08,-1658.51"/>
<polygon fill="#2563eb" stroke="#2563eb" points="1657.24,-1660.7 1663.11,-1656.17 1655.7,-1656.05 1657.24,-1660.7"/>
</g>
<!-- app.market.features&#45;&gt;app.utils.math -->
<g id="edge25" class="edge">
<title>app.market.features&#45;&gt;app.utils.math</title>
<path fill="none" stroke="#2563eb" d="M1507.2,-1730.5C1528.86,-1761.82 1577.07,-1825.5 1633,-1861.08 1639.27,-1865.07 1646.17,-1868.51 1653.25,-1871.47"/>
<polygon fill="#2563eb" stroke="#2563eb" points="1652.38,-1873.76 1659.79,-1874.06 1654.19,-1869.2 1652.38,-1873.76"/>
</g>
<!-- app.market.features&#45;&gt;app.utils.time -->
<g id="edge26" class="edge">
<title>app.market.features&#45;&gt;app.utils.time</title>
<path fill="none" stroke="#2563eb" d="M1573.21,-1722.65C1642.7,-1727.4 1742.52,-1722.08 1804,-1665.08 1858.99,-1614.09 1885.49,-1374.23 1892.82,-1295.32"/>
<polygon fill="#2563eb" stroke="#2563eb" points="1895.28,-1295.39 1893.48,-1288.19 1890.4,-1294.94 1895.28,-1295.39"/>
</g>
<!-- app.market.funding_tracker -->
<g id="node15" class="node">
<title>app.market.funding_tracker</title>
<path fill="#f8fafc" stroke="#94a3b8" d="M218,-1973.08C218,-1973.08 32,-1973.08 32,-1973.08 26,-1973.08 20,-1967.08 20,-1961.08 20,-1961.08 20,-1949.08 20,-1949.08 20,-1943.08 26,-1937.08 32,-1937.08 32,-1937.08 218,-1937.08 218,-1937.08 224,-1937.08 230,-1943.08 230,-1949.08 230,-1949.08 230,-1961.08 230,-1961.08 230,-1967.08 224,-1973.08 218,-1973.08"/>
<text text-anchor="middle" x="125" y="-1951.38" font-family="Inter" font-size="14.00">app.market.funding_tracker</text>
</g>
<!-- app.market.liquidation_tracker -->
<g id="node16" class="node">
<title>app.market.liquidation_tracker</title>
<path fill="#f8fafc" stroke="#94a3b8" d="M227.5,-2027.08C227.5,-2027.08 22.5,-2027.08 22.5,-2027.08 16.5,-2027.08 10.5,-2021.08 10.5,-2015.08 10.5,-2015.08 10.5,-2003.08 10.5,-2003.08 10.5,-1997.08 16.5,-1991.08 22.5,-1991.08 22.5,-1991.08 227.5,-1991.08 227.5,-1991.08 233.5,-1991.08 239.5,-1997.08 239.5,-2003.08 239.5,-2003.08 239.5,-2015.08 239.5,-2015.08 239.5,-2021.08 233.5,-2027.08 227.5,-2027.08"/>
<text text-anchor="middle" x="125" y="-2005.38" font-family="Inter" font-size="14.00">app.market.liquidation_tracker</text>
</g>
<!-- app.market.oi_tracker&#45;&gt;app.exchanges.bybit_client -->
<g id="edge27" class="edge">
<title>app.market.oi_tracker&#45;&gt;app.exchanges.bybit_client</title>
<path fill="none" stroke="#2563eb" d="M1331.29,-1880.08C1348.19,-1880.08 1366.2,-1880.08 1383.84,-1880.08"/>
<polygon fill="#2563eb" stroke="#2563eb" points="1383.84,-1882.53 1390.84,-1880.08 1383.84,-1877.63 1383.84,-1882.53"/>
</g>
<!-- app.market.oi_tracker&#45;&gt;app.logger -->
<g id="edge28" class="edge">
<title>app.market.oi_tracker&#45;&gt;app.logger</title>
<path fill="none" stroke="#2563eb" d="M1310.89,-1861.98C1400.29,-1835.09 1557.65,-1783.01 1597,-1739.08 1636.43,-1695.06 1607.62,-1664.45 1633,-1611.08 1650.15,-1575.02 1677.97,-1538.13 1696.97,-1514.95"/>
<polygon fill="#2563eb" stroke="#2563eb" points="1699.02,-1516.32 1701.6,-1509.36 1695.24,-1513.19 1699.02,-1516.32"/>
</g>
<!-- app.market.oi_tracker&#45;&gt;app.market.features -->
<g id="edge29" class="edge">
<title>app.market.oi_tracker&#45;&gt;app.market.features</title>
<path fill="none" stroke="#2563eb" d="M1284.75,-1862.01C1307.09,-1849.68 1335.05,-1831.69 1355,-1810.08 1377.66,-1785.53 1365.18,-1765.29 1391,-1744.08 1396.32,-1739.7 1402.25,-1735.93 1408.49,-1732.66"/>
<polygon fill="#2563eb" stroke="#2563eb" points="1409.61,-1734.84 1414.82,-1729.57 1407.46,-1730.44 1409.61,-1734.84"/>
</g>
<!-- app.market.oi_tracker&#45;&gt;app.utils.time -->
<g id="edge30" class="edge">
<title>app.market.oi_tracker&#45;&gt;app.utils.time</title>
<path fill="none" stroke="#2563eb" d="M1279.52,-1898.09C1372.67,-1948.68 1649.8,-2079.88 1804,-1945.08 1854.09,-1901.29 1886.44,-1412.8 1893.53,-1295.36"/>
<polygon fill="#2563eb" stroke="#2563eb" points="1895.99,-1295.3 1893.96,-1288.17 1891.09,-1295.01 1895.99,-1295.3"/>
</g>
<!-- app.market.symbol_selector&#45;&gt;app.config -->
<g id="edge31" class="edge">
<title>app.market.symbol_selector&#45;&gt;app.config</title>
<path fill="none" stroke="#2563eb" d="M1258.09,-1579.92C1278.26,-1543.16 1324.24,-1456.99 1355,-1381.08 1415.54,-1231.68 1468.2,-1044.85 1486.3,-978.16"/>
<polygon fill="#2563eb" stroke="#2563eb" points="1488.68,-978.75 1488.14,-971.36 1483.95,-977.47 1488.68,-978.75"/>
</g>
<!-- app.market.symbol_selector&#45;&gt;app.data.database -->
<g id="edge32" class="edge">
<title>app.market.symbol_selector&#45;&gt;app.data.database</title>
<path fill="none" stroke="#2563eb" d="M1260.26,-1579.96C1283.84,-1543.95 1334.95,-1460.06 1355,-1381.08 1405.29,-1182.98 1335.96,-658.91 1391,-462.08 1408.41,-399.82 1450.5,-335.7 1474.82,-302.05"/>
<polygon fill="#2563eb" stroke="#2563eb" points="1477,-303.23 1479.15,-296.13 1473.04,-300.34 1477,-303.23"/>
</g>
<!-- app.market.symbol_selector&#45;&gt;app.data.repositories -->
<g id="edge33" class="edge">
<title>app.market.symbol_selector&#45;&gt;app.data.repositories</title>
<path fill="none" stroke="#2563eb" d="M1259.98,-1579.88C1283.08,-1543.75 1333.38,-1459.65 1355,-1381.08 1408.82,-1185.49 1359.86,-1126.53 1391,-926.08 1415.7,-767.13 1466.91,-580.3 1485.8,-513.97"/>
<polygon fill="#2563eb" stroke="#2563eb" points="1488.16,-514.61 1487.73,-507.2 1483.45,-513.26 1488.16,-514.61"/>
</g>
<!-- app.market.symbol_selector&#45;&gt;app.exchanges.base -->
<g id="edge34" class="edge">
<title>app.market.symbol_selector&#45;&gt;app.exchanges.base</title>
<path fill="none" stroke="#2563eb" d="M1321.65,-1616.13C1423.18,-1641.06 1594.04,-1683.19 1597,-1685.08 1646.84,-1716.85 1685.54,-1776.28 1704.55,-1809.68"/>
<polygon fill="#2563eb" stroke="#2563eb" points="1702.53,-1811.09 1708.09,-1816 1706.81,-1808.7 1702.53,-1811.09"/>
</g>
<!-- app.market.symbol_selector&#45;&gt;app.exchanges.bybit_client -->
<g id="edge35" class="edge">
<title>app.market.symbol_selector&#45;&gt;app.exchanges.bybit_client</title>
<path fill="none" stroke="#2563eb" d="M1263.7,-1616.15C1306.38,-1665.27 1424.54,-1801.28 1472.43,-1856.41"/>
<polygon fill="#2563eb" stroke="#2563eb" points="1470.67,-1858.12 1477.12,-1861.79 1474.37,-1854.9 1470.67,-1858.12"/>
</g>
<!-- app.market.symbol_selector&#45;&gt;app.logger -->
<g id="edge36" class="edge">
<title>app.market.symbol_selector&#45;&gt;app.logger</title>
<path fill="none" stroke="#2563eb" d="M1352.07,-1580.02C1421.78,-1567.24 1515.38,-1548.74 1597,-1528.08 1619.68,-1522.34 1644.44,-1514.94 1665.58,-1508.26"/>
<polygon fill="#2563eb" stroke="#2563eb" points="1666.38,-1510.58 1672.31,-1506.13 1664.9,-1505.91 1666.38,-1510.58"/>
</g>
<!-- app.market.symbol_selector&#45;&gt;app.market.orderbook -->
<g id="edge37" class="edge">
<title>app.market.symbol_selector&#45;&gt;app.market.orderbook</title>
<path fill="none" stroke="#2563eb" d="M1353.07,-1607.03C1434.94,-1614.01 1547.47,-1623.59 1625.74,-1630.26"/>
<polygon fill="#2563eb" stroke="#2563eb" points="1625.55,-1632.7 1632.73,-1630.86 1625.96,-1627.82 1625.55,-1632.7"/>
</g>
<!-- app.paper.__init__ -->
<g id="node20" class="node">
<title>app.paper.__init__</title>
<path fill="#f8fafc" stroke="#94a3b8" d="M183,-2081.08C183,-2081.08 67,-2081.08 67,-2081.08 61,-2081.08 55,-2075.08 55,-2069.08 55,-2069.08 55,-2057.08 55,-2057.08 55,-2051.08 61,-2045.08 67,-2045.08 67,-2045.08 183,-2045.08 183,-2045.08 189,-2045.08 195,-2051.08 195,-2057.08 195,-2057.08 195,-2069.08 195,-2069.08 195,-2075.08 189,-2081.08 183,-2081.08"/>
<text text-anchor="middle" x="125" y="-2059.38" font-family="Inter" font-size="14.00">app.paper.__init__</text>
</g>
<!-- app.paper.account -->
<g id="node21" class="node">
<title>app.paper.account</title>
<path fill="#f8fafc" stroke="#94a3b8" d="M1308,-1280.08C1308,-1280.08 1186,-1280.08 1186,-1280.08 1180,-1280.08 1174,-1274.08 1174,-1268.08 1174,-1268.08 1174,-1256.08 1174,-1256.08 1174,-1250.08 1180,-1244.08 1186,-1244.08 1186,-1244.08 1308,-1244.08 1308,-1244.08 1314,-1244.08 1320,-1250.08 1320,-1256.08 1320,-1256.08 1320,-1268.08 1320,-1268.08 1320,-1274.08 1314,-1280.08 1308,-1280.08"/>
<text text-anchor="middle" x="1247" y="-1258.38" font-family="Inter" font-size="14.00">app.paper.account</text>
</g>
<!-- app.paper.account&#45;&gt;app.config -->
<g id="edge38" class="edge">
<title>app.paper.account&#45;&gt;app.config</title>
<path fill="none" stroke="#2563eb" d="M1284.32,-1243.98C1306.62,-1231.58 1334.71,-1213.53 1355,-1192.08 1418.26,-1125.2 1464.3,-1024.08 1483.33,-977.79"/>
<polygon fill="#2563eb" stroke="#2563eb" points="1485.68,-978.52 1486.05,-971.11 1481.14,-976.67 1485.68,-978.52"/>
</g>
<!-- app.paper.account&#45;&gt;app.data.models -->
<g id="edge39" class="edge">
<title>app.paper.account&#45;&gt;app.data.models</title>
<path fill="none" stroke="#2563eb" d="M1320.4,-1255.34C1416.79,-1245.7 1577.43,-1227.04 1597,-1208.08 1687.94,-1119.96 1711.84,-697.96 1716.53,-589.52"/>
<polygon fill="#2563eb" stroke="#2563eb" points="1718.99,-589.36 1716.83,-582.27 1714.09,-589.16 1718.99,-589.36"/>
</g>
<!-- app.paper.account&#45;&gt;app.utils.time -->
<g id="edge40" class="edge">
<title>app.paper.account&#45;&gt;app.utils.time</title>
<path fill="none" stroke="#2563eb" d="M1320.02,-1262.97C1447.91,-1264.55 1712.49,-1267.82 1832.9,-1269.31"/>
<polygon fill="#2563eb" stroke="#2563eb" points="1832.89,-1271.76 1839.92,-1269.4 1832.95,-1266.86 1832.89,-1271.76"/>
</g>
<!-- app.paper.executor -->
<g id="node22" class="node">
<title>app.paper.executor</title>
<path fill="#f8fafc" stroke="#94a3b8" d="M1074,-1220.08C1074,-1220.08 947,-1220.08 947,-1220.08 941,-1220.08 935,-1214.08 935,-1208.08 935,-1208.08 935,-1196.08 935,-1196.08 935,-1190.08 941,-1184.08 947,-1184.08 947,-1184.08 1074,-1184.08 1074,-1184.08 1080,-1184.08 1086,-1190.08 1086,-1196.08 1086,-1196.08 1086,-1208.08 1086,-1208.08 1086,-1214.08 1080,-1220.08 1074,-1220.08"/>
<text text-anchor="middle" x="1010.5" y="-1198.38" font-family="Inter" font-size="14.00">app.paper.executor</text>
</g>
<!-- app.paper.executor&#45;&gt;app.config -->
<g id="edge41" class="edge">
<title>app.paper.executor&#45;&gt;app.config</title>
<path fill="none" stroke="#2563eb" d="M1086.26,-1199.89C1173.5,-1196.12 1311.39,-1185.97 1355,-1159.08 1424.91,-1115.97 1467.27,-1022.7 1484.31,-977.98"/>
<polygon fill="#2563eb" stroke="#2563eb" points="1486.67,-978.64 1486.83,-971.23 1482.08,-976.93 1486.67,-978.64"/>
</g>
<!-- app.paper.executor&#45;&gt;app.data.models -->
<g id="edge42" class="edge">
<title>app.paper.executor&#45;&gt;app.data.models</title>
<path fill="none" stroke="#2563eb" d="M1086.34,-1206.66C1156.46,-1209.31 1263.85,-1209.16 1355,-1191.08 1467.71,-1168.72 1521.57,-1186.76 1597,-1100.08 1665.58,-1021.27 1705.03,-684.84 1714.98,-589.41"/>
<polygon fill="#2563eb" stroke="#2563eb" points="1717.44,-589.41 1715.73,-582.19 1712.57,-588.91 1717.44,-589.41"/>
</g>
<!-- app.paper.executor&#45;&gt;app.paper.account -->
<g id="edge43" class="edge">
<title>app.paper.executor&#45;&gt;app.paper.account</title>
<path fill="none" stroke="#2563eb" d="M1081.86,-1220.08C1109.09,-1227.05 1140.37,-1235.05 1168.27,-1242.19"/>
<polygon fill="#2563eb" stroke="#2563eb" points="1167.9,-1244.62 1175.29,-1243.99 1169.11,-1239.88 1167.9,-1244.62"/>
</g>
<!-- app.paper.risk -->
<g id="node24" class="node">
<title>app.paper.risk</title>
<path fill="#f8fafc" stroke="#94a3b8" d="M1293,-1150.08C1293,-1150.08 1201,-1150.08 1201,-1150.08 1195,-1150.08 1189,-1144.08 1189,-1138.08 1189,-1138.08 1189,-1126.08 1189,-1126.08 1189,-1120.08 1195,-1114.08 1201,-1114.08 1201,-1114.08 1293,-1114.08 1293,-1114.08 1299,-1114.08 1305,-1120.08 1305,-1126.08 1305,-1126.08 1305,-1138.08 1305,-1138.08 1305,-1144.08 1299,-1150.08 1293,-1150.08"/>
<text text-anchor="middle" x="1247" y="-1128.38" font-family="Inter" font-size="14.00">app.paper.risk</text>
</g>
<!-- app.paper.executor&#45;&gt;app.paper.risk -->
<g id="edge44" class="edge">
<title>app.paper.executor&#45;&gt;app.paper.risk</title>
<path fill="none" stroke="#2563eb" d="M1071.89,-1184.05C1105.6,-1173.99 1147.59,-1161.45 1181.89,-1151.22"/>
<polygon fill="#2563eb" stroke="#2563eb" points="1182.64,-1153.55 1188.64,-1149.2 1181.23,-1148.86 1182.64,-1153.55"/>
</g>
<!-- app.paper.executor&#45;&gt;app.utils.time -->
<g id="edge45" class="edge">
<title>app.paper.executor&#45;&gt;app.utils.time</title>
<path fill="none" stroke="#2563eb" d="M1086.33,-1215.28C1092.27,-1217.97 1097.92,-1221.2 1103,-1225.08 1128.93,-1244.89 1110.83,-1272.6 1139,-1289.08 1255.58,-1357.26 1673.05,-1303.58 1832.49,-1279.87"/>
<polygon fill="#2563eb" stroke="#2563eb" points="1833.33,-1282.23 1839.89,-1278.77 1832.6,-1277.38 1833.33,-1282.23"/>
</g>
<!-- app.paper.manager&#45;&gt;app.config -->
<g id="edge46" class="edge">
<title>app.paper.manager&#45;&gt;app.config</title>
<path fill="none" stroke="#2563eb" d="M792.86,-1244.85C806.26,-1202.78 845.44,-1098.78 918,-1050.08 999.69,-995.25 1258.1,-996.08 1355,-979.08 1383.75,-974.03 1415.8,-968.02 1441.77,-963.05"/>
<polygon fill="#2563eb" stroke="#2563eb" points="1442.51,-965.4 1448.93,-961.67 1441.59,-960.59 1442.51,-965.4"/>
</g>
<!-- app.paper.manager&#45;&gt;app.data.database -->
<g id="edge47" class="edge">
<title>app.paper.manager&#45;&gt;app.data.database</title>
<path fill="none" stroke="#2563eb" d="M796.6,-1245C816.31,-1204.85 862.73,-1104.72 882,-1015.08 896.13,-949.35 877.34,-464.62 918,-411.08 1033.26,-259.32 1284.53,-257.87 1413.36,-268.43"/>
<polygon fill="#2563eb" stroke="#2563eb" points="1413.35,-270.89 1420.53,-269.04 1413.76,-266 1413.35,-270.89"/>
</g>
<!-- app.paper.manager&#45;&gt;app.data.models -->
<g id="edge48" class="edge">
<title>app.paper.manager&#45;&gt;app.data.models</title>
<path fill="none" stroke="#2563eb" d="M794.87,-1244.82C811,-1207.47 853.22,-1122.53 918,-1083.08 1048.35,-1003.7 1482.23,-1080.68 1597,-980.08 1657.53,-927.02 1701.09,-671.76 1713.74,-589.61"/>
<polygon fill="#2563eb" stroke="#2563eb" points="1716.23,-589.5 1714.86,-582.21 1711.39,-588.76 1716.23,-589.5"/>
</g>
<!-- app.paper.manager&#45;&gt;app.logger -->
<g id="edge49" class="edge">
<title>app.paper.manager&#45;&gt;app.logger</title>
<path fill="none" stroke="#2563eb" d="M830.05,-1281.14C855.38,-1291.62 888.28,-1304.74 918,-1315.08 1014.82,-1348.75 1038.37,-1361.53 1139,-1381.08 1339.7,-1420.07 1401.71,-1363.56 1597,-1424.08 1629.32,-1434.1 1662.69,-1453.48 1686.1,-1468.83"/>
<polygon fill="#2563eb" stroke="#2563eb" points="1684.94,-1471.01 1692.12,-1472.84 1687.65,-1466.93 1684.94,-1471.01"/>
</g>
<!-- app.paper.manager&#45;&gt;app.paper.account -->
<g id="edge50" class="edge">
<title>app.paper.manager&#45;&gt;app.paper.account</title>
<path fill="none" stroke="#2563eb" d="M863.21,-1262.91C947.08,-1262.73 1081.68,-1262.44 1166.89,-1262.25"/>
<polygon fill="#2563eb" stroke="#2563eb" points="1166.96,-1264.7 1173.96,-1262.24 1166.95,-1259.8 1166.96,-1264.7"/>
</g>
<!-- app.paper.manager&#45;&gt;app.paper.executor -->
<g id="edge51" class="edge">
<title>app.paper.manager&#45;&gt;app.paper.executor</title>
<path fill="none" stroke="#2563eb" d="M853.21,-1245.02C879.61,-1237.77 910.14,-1229.38 937.17,-1221.95"/>
<polygon fill="#2563eb" stroke="#2563eb" points="937.86,-1224.3 943.96,-1220.09 936.56,-1219.58 937.86,-1224.3"/>
</g>
<!-- app.paper.manager&#45;&gt;app.paper.risk -->
<g id="edge52" class="edge">
<title>app.paper.manager&#45;&gt;app.paper.risk</title>
<path fill="none" stroke="#2563eb" d="M807.94,-1244.79C832.28,-1224.15 875.06,-1191.33 918,-1175.08 964.86,-1157.34 1100.21,-1143.81 1181.66,-1136.99"/>
<polygon fill="#2563eb" stroke="#2563eb" points="1182.11,-1139.41 1188.89,-1136.39 1181.71,-1134.52 1182.11,-1139.41"/>
</g>
<!-- app.paper.manager&#45;&gt;app.utils.time -->
<g id="edge53" class="edge">
<title>app.paper.manager&#45;&gt;app.utils.time</title>
<path fill="none" stroke="#2563eb" d="M807.7,-1281.39C832.15,-1302.66 875.37,-1337.45 918,-1358.08 1211.12,-1499.92 1307.9,-1499.33 1633,-1518.08 1708.87,-1522.45 1741.69,-1561.59 1804,-1518.08 1878.01,-1466.4 1892.01,-1347.59 1894.52,-1295.43"/>
<polygon fill="#2563eb" stroke="#2563eb" points="1896.98,-1295.32 1894.82,-1288.23 1892.08,-1295.12 1896.98,-1295.32"/>
</g>
<!-- app.paper.risk&#45;&gt;app.config -->
<g id="edge54" class="edge">
<title>app.paper.risk&#45;&gt;app.config</title>
<path fill="none" stroke="#2563eb" d="M1277.08,-1114.04C1298.87,-1100.29 1329.24,-1080.62 1355,-1062.08 1394.33,-1033.77 1437.93,-998.67 1465.4,-976.08"/>
<polygon fill="#2563eb" stroke="#2563eb" points="1467.16,-977.79 1471,-971.45 1464.04,-974.01 1467.16,-977.79"/>
</g>
<!-- app.paper.statistics -->
<g id="node25" class="node">
<title>app.paper.statistics</title>
<path fill="#f8fafc" stroke="#94a3b8" d="M1311,-380.08C1311,-380.08 1183,-380.08 1183,-380.08 1177,-380.08 1171,-374.08 1171,-368.08 1171,-368.08 1171,-356.08 1171,-356.08 1171,-350.08 1177,-344.08 1183,-344.08 1183,-344.08 1311,-344.08 1311,-344.08 1317,-344.08 1323,-350.08 1323,-356.08 1323,-356.08 1323,-368.08 1323,-368.08 1323,-374.08 1317,-380.08 1311,-380.08"/>
<text text-anchor="middle" x="1247" y="-358.38" font-family="Inter" font-size="14.00">app.paper.statistics</text>
</g>
<!-- app.paper.statistics&#45;&gt;app.data.models -->
<g id="edge55" class="edge">
<title>app.paper.statistics&#45;&gt;app.data.models</title>
<path fill="none" stroke="#2563eb" d="M1323.31,-374.12C1396.46,-387.97 1509.03,-415.07 1597,-462.08 1635.72,-482.77 1673.15,-517.49 1695.76,-540.59"/>
<polygon fill="#2563eb" stroke="#2563eb" points="1694.27,-542.58 1700.9,-545.91 1697.8,-539.18 1694.27,-542.58"/>
</g>
<!-- app.paper.statistics&#45;&gt;app.data.repositories -->
<g id="edge56" class="edge">
<title>app.paper.statistics&#45;&gt;app.data.repositories</title>
<path fill="none" stroke="#2563eb" d="M1319.68,-380.13C1331.72,-384.11 1343.9,-388.76 1355,-394.08 1396.21,-413.82 1438.82,-445.12 1465.59,-466.34"/>
<polygon fill="#2563eb" stroke="#2563eb" points="1464.38,-468.52 1471.38,-470.98 1467.44,-464.69 1464.38,-468.52"/>
</g>
<!-- app.signals.__init__ -->
<g id="node26" class="node">
<title>app.signals.__init__</title>
<path fill="#f8fafc" stroke="#94a3b8" d="M187.5,-2135.08C187.5,-2135.08 62.5,-2135.08 62.5,-2135.08 56.5,-2135.08 50.5,-2129.08 50.5,-2123.08 50.5,-2123.08 50.5,-2111.08 50.5,-2111.08 50.5,-2105.08 56.5,-2099.08 62.5,-2099.08 62.5,-2099.08 187.5,-2099.08 187.5,-2099.08 193.5,-2099.08 199.5,-2105.08 199.5,-2111.08 199.5,-2111.08 199.5,-2123.08 199.5,-2123.08 199.5,-2129.08 193.5,-2135.08 187.5,-2135.08"/>
<text text-anchor="middle" x="125" y="-2113.38" font-family="Inter" font-size="14.00">app.signals.__init__</text>
</g>
<!-- app.signals.outcome_tracker&#45;&gt;app.config -->
<g id="edge57" class="edge">
<title>app.signals.outcome_tracker&#45;&gt;app.config</title>
<path fill="none" stroke="#2563eb" d="M1334.7,-479.14C1342.41,-483.61 1349.4,-489.17 1355,-496.08 1402,-554.08 1361.94,-761.32 1391,-830.08 1407.87,-869.99 1442.12,-906.98 1466.27,-929.77"/>
<polygon fill="#2563eb" stroke="#2563eb" points="1464.76,-931.72 1471.56,-934.69 1468.1,-928.13 1464.76,-931.72"/>
</g>
<!-- app.signals.outcome_tracker&#45;&gt;app.data.database -->
<g id="edge58" class="edge">
<title>app.signals.outcome_tracker&#45;&gt;app.data.database</title>
<path fill="none" stroke="#2563eb" d="M1276.16,-443.07C1298,-428.87 1328.86,-408.33 1355,-389.08 1394.52,-359.97 1438.42,-324 1465.86,-301.04"/>
<polygon fill="#2563eb" stroke="#2563eb" points="1467.67,-302.73 1471.46,-296.35 1464.52,-298.97 1467.67,-302.73"/>
</g>
<!-- app.signals.outcome_tracker&#45;&gt;app.data.repositories -->
<g id="edge59" class="edge">
<title>app.signals.outcome_tracker&#45;&gt;app.data.repositories</title>
<path fill="none" stroke="#2563eb" d="M1355.1,-473.32C1371.63,-475.21 1388.54,-477.14 1404.59,-478.97"/>
<polygon fill="#2563eb" stroke="#2563eb" points="1404.67,-481.45 1411.9,-479.81 1405.23,-476.58 1404.67,-481.45"/>
</g>
<!-- app.signals.outcome_tracker&#45;&gt;app.logger -->
<g id="edge60" class="edge">
<title>app.signals.outcome_tracker&#45;&gt;app.logger</title>
<path fill="none" stroke="#2563eb" d="M1326.66,-479.19C1336.84,-483.66 1346.61,-489.2 1355,-496.08 1524.53,-635.19 1519.47,-720.94 1597,-926.08 1672.57,-1126.03 1705.83,-1384.65 1714.85,-1465.67"/>
<polygon fill="#2563eb" stroke="#2563eb" points="1712.45,-1466.26 1715.65,-1472.95 1717.32,-1465.72 1712.45,-1466.26"/>
</g>
<!-- app.signals.outcome_tracker&#45;&gt;app.market.features -->
<g id="edge61" class="edge">
<title>app.signals.outcome_tracker&#45;&gt;app.market.features</title>
<path fill="none" stroke="#2563eb" d="M1335.19,-479.1C1342.75,-483.58 1349.58,-489.15 1355,-496.08 1388.25,-538.53 1385.28,-926.46 1391,-980.08 1420.7,-1258.34 1473.83,-1593.76 1488.91,-1686.99"/>
<polygon fill="#2563eb" stroke="#2563eb" points="1486.51,-1687.5 1490.05,-1694.02 1491.35,-1686.72 1486.51,-1687.5"/>
</g>
<!-- app.signals.outcome_tracker&#45;&gt;app.utils.time -->
<g id="edge62" class="edge">
<title>app.signals.outcome_tracker&#45;&gt;app.utils.time</title>
<path fill="none" stroke="#2563eb" d="M1297.16,-443.07C1404.94,-407.11 1663.61,-340.56 1804,-472.08 1861.87,-526.29 1888.75,-1114.2 1894.02,-1244.57"/>
<polygon fill="#2563eb" stroke="#2563eb" points="1891.58,-1244.91 1894.31,-1251.81 1896.48,-1244.72 1891.58,-1244.91"/>
</g>
<!-- app.signals.patterns -->
<g id="node28" class="node">
<title>app.signals.patterns</title>
<path fill="#f8fafc" stroke="#94a3b8" d="M1314,-1372.08C1314,-1372.08 1180,-1372.08 1180,-1372.08 1174,-1372.08 1168,-1366.08 1168,-1360.08 1168,-1360.08 1168,-1348.08 1168,-1348.08 1168,-1342.08 1174,-1336.08 1180,-1336.08 1180,-1336.08 1314,-1336.08 1314,-1336.08 1320,-1336.08 1326,-1342.08 1326,-1348.08 1326,-1348.08 1326,-1360.08 1326,-1360.08 1326,-1366.08 1320,-1372.08 1314,-1372.08"/>
<text text-anchor="middle" x="1247" y="-1350.38" font-family="Inter" font-size="14.00">app.signals.patterns</text>
</g>
<!-- app.signals.patterns&#45;&gt;app.config -->
<g id="edge63" class="edge">
<title>app.signals.patterns&#45;&gt;app.config</title>
<path fill="none" stroke="#2563eb" d="M1290.83,-1336C1312.45,-1325.07 1337.7,-1309.32 1355,-1289.08 1437.91,-1192.09 1475.97,-1038.5 1488.28,-978.39"/>
<polygon fill="#2563eb" stroke="#2563eb" points="1490.75,-978.54 1489.72,-971.2 1485.94,-977.58 1490.75,-978.54"/>
</g>
<!-- app.signals.patterns&#45;&gt;app.market.features -->
<g id="edge64" class="edge">
<title>app.signals.patterns&#45;&gt;app.market.features</title>
<path fill="none" stroke="#2563eb" d="M1260.49,-1372.32C1301.2,-1431.82 1430.14,-1620.22 1476.33,-1687.72"/>
<polygon fill="#2563eb" stroke="#2563eb" points="1474.56,-1689.48 1480.54,-1693.87 1478.61,-1686.71 1474.56,-1689.48"/>
</g>
<!-- app.signals.scoring -->
<g id="node29" class="node">
<title>app.signals.scoring</title>
<path fill="#f8fafc" stroke="#94a3b8" d="M1074.5,-960.08C1074.5,-960.08 946.5,-960.08 946.5,-960.08 940.5,-960.08 934.5,-954.08 934.5,-948.08 934.5,-948.08 934.5,-936.08 934.5,-936.08 934.5,-930.08 940.5,-924.08 946.5,-924.08 946.5,-924.08 1074.5,-924.08 1074.5,-924.08 1080.5,-924.08 1086.5,-930.08 1086.5,-936.08 1086.5,-936.08 1086.5,-948.08 1086.5,-948.08 1086.5,-954.08 1080.5,-960.08 1074.5,-960.08"/>
<text text-anchor="middle" x="1010.5" y="-938.38" font-family="Inter" font-size="14.00">app.signals.scoring</text>
</g>
<!-- app.signals.scoring&#45;&gt;app.config -->
<g id="edge65" class="edge">
<title>app.signals.scoring&#45;&gt;app.config</title>
<path fill="none" stroke="#2563eb" d="M1086.73,-943.8C1185.55,-946.05 1356.48,-949.96 1441.66,-951.91"/>
<polygon fill="#2563eb" stroke="#2563eb" points="1441.83,-954.36 1448.89,-952.07 1441.94,-949.46 1441.83,-954.36"/>
</g>
<!-- app.signals.scoring&#45;&gt;app.signals.patterns -->
<g id="edge66" class="edge">
<title>app.signals.scoring&#45;&gt;app.signals.patterns</title>
<path fill="none" stroke="#2563eb" d="M1026.87,-960.34C1047.6,-986 1084.11,-1035 1103,-1083.08 1136.98,-1169.59 1086.6,-1212.31 1139,-1289.08 1151.94,-1308.03 1172.4,-1322.41 1191.98,-1332.76"/>
<polygon fill="#2563eb" stroke="#2563eb" points="1190.95,-1334.98 1198.3,-1335.98 1193.18,-1330.61 1190.95,-1334.98"/>
</g>
<!-- app.signals.signal_engine&#45;&gt;app.config -->
<g id="edge67" class="edge">
<title>app.signals.signal_engine&#45;&gt;app.config</title>
<path fill="none" stroke="#2563eb" d="M385.63,-1367.05C388.75,-1304.87 407.4,-1097.01 518,-983.08 605.08,-893.37 660.48,-896.08 785.5,-896.08 785.5,-896.08 785.5,-896.08 1011.5,-896.08 1169.27,-896.08 1354.11,-926.63 1441.82,-943"/>
<polygon fill="#2563eb" stroke="#2563eb" points="1441.4,-945.41 1448.73,-944.3 1442.3,-940.6 1441.4,-945.41"/>
</g>
<!-- app.signals.signal_engine&#45;&gt;app.data.database -->
<g id="edge68" class="edge">
<title>app.signals.signal_engine&#45;&gt;app.data.database</title>
<path fill="none" stroke="#2563eb" d="M387.97,-1366.87C400.66,-1288.45 451.18,-971.69 482,-710.08 492.21,-623.42 461.52,-385.59 518,-319.08 751.24,-44.44 1269.87,-197.83 1438.72,-257.61"/>
<polygon fill="#2563eb" stroke="#2563eb" points="1438.12,-260 1445.54,-260.04 1439.77,-255.38 1438.12,-260"/>
</g>
<!-- app.signals.signal_engine&#45;&gt;app.data.repositories -->
<g id="edge69" class="edge">
<title>app.signals.signal_engine&#45;&gt;app.data.repositories</title>
<path fill="none" stroke="#2563eb" d="M385.45,-1367.06C388.12,-1283.03 405.89,-922.61 518,-656.08 597.8,-466.37 579.69,-278.08 785.5,-278.08 785.5,-278.08 785.5,-278.08 1011.5,-278.08 1166.25,-278.08 1219.36,-260.57 1355,-335.08 1411.73,-366.24 1456.99,-429.88 1478.81,-464.81"/>
<polygon fill="#2563eb" stroke="#2563eb" points="1476.85,-466.3 1482.61,-470.98 1481.03,-463.73 1476.85,-466.3"/>
</g>
<!-- app.signals.signal_engine&#45;&gt;app.exchanges.base -->
<g id="edge70" class="edge">
<title>app.signals.signal_engine&#45;&gt;app.exchanges.base</title>
<path fill="none" stroke="#2563eb" d="M388.73,-1403.15C399.52,-1450.58 435.4,-1579.31 518,-1642.08 694.05,-1775.85 1386.42,-1819.29 1631.2,-1830.63"/>
<polygon fill="#2563eb" stroke="#2563eb" points="1631.2,-1833.09 1638.31,-1830.96 1631.43,-1828.19 1631.2,-1833.09"/>
</g>
<!-- app.signals.signal_engine&#45;&gt;app.logger -->
<g id="edge71" class="edge">
<title>app.signals.signal_engine&#45;&gt;app.logger</title>
<path fill="none" stroke="#2563eb" d="M476.04,-1403.09C581.79,-1423.16 761.75,-1454.68 918,-1469.08 1198.91,-1494.97 1537.48,-1493.62 1665.28,-1491.96"/>
<polygon fill="#2563eb" stroke="#2563eb" points="1665.33,-1494.41 1672.3,-1491.87 1665.27,-1489.51 1665.33,-1494.41"/>
</g>
<!-- app.signals.signal_engine&#45;&gt;app.market.features -->
<g id="edge72" class="edge">
<title>app.signals.signal_engine&#45;&gt;app.market.features</title>
<path fill="none" stroke="#2563eb" d="M392.73,-1403.21C409.58,-1440.33 453.33,-1524.98 518,-1566.08 587.59,-1610.31 801.3,-1621.15 882,-1638.08 996.51,-1662.1 1023.04,-1679.55 1139,-1695.08 1230.24,-1707.3 1335.74,-1711.04 1407.67,-1712.04"/>
<polygon fill="#2563eb" stroke="#2563eb" points="1407.93,-1714.49 1414.97,-1712.14 1408,-1709.6 1407.93,-1714.49"/>
</g>
<!-- app.signals.signal_engine&#45;&gt;app.paper.manager -->
<g id="edge73" class="edge">
<title>app.signals.signal_engine&#45;&gt;app.paper.manager</title>
<path fill="none" stroke="#2563eb" d="M444.1,-1367.08C517.6,-1344.69 642.72,-1306.57 719.36,-1283.23"/>
<polygon fill="#2563eb" stroke="#2563eb" points="720.18,-1285.54 726.16,-1281.15 718.75,-1280.85 720.18,-1285.54"/>
</g>
<!-- app.signals.signal_engine&#45;&gt;app.signals.patterns -->
<g id="edge74" class="edge">
<title>app.signals.signal_engine&#45;&gt;app.signals.patterns</title>
<path fill="none" stroke="#2563eb" d="M482.09,-1381.58C651.86,-1375.47 999.85,-1362.94 1160.84,-1357.14"/>
<polygon fill="#2563eb" stroke="#2563eb" points="1160.98,-1359.59 1167.89,-1356.89 1160.81,-1354.69 1160.98,-1359.59"/>
</g>
<!-- app.signals.signal_engine&#45;&gt;app.signals.scoring -->
<g id="edge75" class="edge">
<title>app.signals.signal_engine&#45;&gt;app.signals.scoring</title>
<path fill="none" stroke="#2563eb" d="M391.41,-1367.07C416.7,-1299.06 516.78,-1056.85 691,-961.08 763.36,-921.3 859.45,-921.41 927.09,-928.43"/>
<polygon fill="#2563eb" stroke="#2563eb" points="927.14,-930.9 934.37,-929.23 927.67,-926.03 927.14,-930.9"/>
</g>
<!-- app.signals.signal_engine&#45;&gt;app.telegram.bot -->
<g id="edge76" class="edge">
<title>app.signals.signal_engine&#45;&gt;app.telegram.bot</title>
<path fill="none" stroke="#2563eb" d="M389.38,-1366.68C405.2,-1300.68 461.43,-1069.75 518,-882.08 537,-819.04 562.76,-745.99 576.3,-708.36"/>
<polygon fill="#2563eb" stroke="#2563eb" points="578.77,-708.74 578.84,-701.32 574.16,-707.08 578.77,-708.74"/>
</g>
<!-- app.signals.signal_engine&#45;&gt;app.utils.time -->
<g id="edge77" class="edge">
<title>app.signals.signal_engine&#45;&gt;app.utils.time</title>
<path fill="none" stroke="#2563eb" d="M390.75,-1403.1C405.02,-1444.74 446.17,-1547.99 518,-1599.08 582.23,-1644.76 613.82,-1622.07 691,-1638.08 1087.72,-1720.35 1192.96,-1769.17 1597,-1739.08 1689.77,-1732.17 1736.4,-1771.98 1804,-1708.08 1864.74,-1650.66 1887.67,-1380.13 1893.43,-1295.47"/>
<polygon fill="#2563eb" stroke="#2563eb" points="1895.89,-1295.47 1893.91,-1288.32 1891,-1295.15 1895.89,-1295.47"/>
</g>
<!-- app.telegram.__init__ -->
<g id="node31" class="node">
<title>app.telegram.__init__</title>
<path fill="#f8fafc" stroke="#94a3b8" d="M194.5,-2189.08C194.5,-2189.08 55.5,-2189.08 55.5,-2189.08 49.5,-2189.08 43.5,-2183.08 43.5,-2177.08 43.5,-2177.08 43.5,-2165.08 43.5,-2165.08 43.5,-2159.08 49.5,-2153.08 55.5,-2153.08 55.5,-2153.08 194.5,-2153.08 194.5,-2153.08 200.5,-2153.08 206.5,-2159.08 206.5,-2165.08 206.5,-2165.08 206.5,-2177.08 206.5,-2177.08 206.5,-2183.08 200.5,-2189.08 194.5,-2189.08"/>
<text text-anchor="middle" x="125" y="-2167.38" font-family="Inter" font-size="14.00">app.telegram.__init__</text>
</g>
<!-- app.telegram.bot&#45;&gt;app.config -->
<g id="edge78" class="edge">
<title>app.telegram.bot&#45;&gt;app.config</title>
<path fill="none" stroke="#2563eb" d="M631.44,-701.14C649.61,-707.99 671.06,-715.28 691,-720.08 835.66,-754.88 1222.54,-738.31 1355,-806.08 1410.74,-834.6 1455.96,-895.03 1478.15,-928.85"/>
<polygon fill="#2563eb" stroke="#2563eb" points="1476.16,-930.29 1482.02,-934.84 1480.28,-927.64 1476.16,-930.29"/>
</g>
<!-- app.telegram.bot&#45;&gt;app.data.database -->
<g id="edge79" class="edge">
<title>app.telegram.bot&#45;&gt;app.data.database</title>
<path fill="none" stroke="#2563eb" d="M595.81,-664.74C626.81,-598.83 743.06,-373.36 918,-289.08 1079.89,-211.08 1298.36,-237.32 1413.83,-259.78"/>
<polygon fill="#2563eb" stroke="#2563eb" points="1413.61,-262.23 1420.95,-261.18 1414.55,-257.42 1413.61,-262.23"/>
</g>
<!-- app.telegram.bot&#45;&gt;app.data.models -->
<g id="edge80" class="edge">
<title>app.telegram.bot&#45;&gt;app.data.models</title>
<path fill="none" stroke="#2563eb" d="M586.96,-665.01C586.2,-605.47 591.88,-413.23 691,-307.08 835,-152.87 931.01,-185.47 1139,-150.08 1344.49,-115.11 1451.68,-101.64 1597,-251.08 1678.75,-335.14 1706.45,-480.65 1714.55,-538.9"/>
<polygon fill="#2563eb" stroke="#2563eb" points="1712.13,-539.27 1715.48,-545.88 1716.98,-538.62 1712.13,-539.27"/>
</g>
<!-- app.telegram.bot&#45;&gt;app.logger -->
<g id="edge81" class="edge">
<title>app.telegram.bot&#45;&gt;app.logger</title>
<path fill="none" stroke="#2563eb" d="M588.09,-701.18C591.41,-792.22 610.6,-1199.2 691,-1290.08 962.58,-1597.04 1194,-1387.4 1597,-1462.08 1619.53,-1466.25 1644.16,-1471.97 1665.25,-1477.23"/>
<polygon fill="#2563eb" stroke="#2563eb" points="1664.87,-1479.66 1672.25,-1478.99 1666.06,-1474.91 1664.87,-1479.66"/>
</g>
<!-- app.telegram.bot&#45;&gt;app.market.features -->
<g id="edge82" class="edge">
<title>app.telegram.bot&#45;&gt;app.market.features</title>
<path fill="none" stroke="#2563eb" d="M587.3,-701.41C586.51,-809.58 587.56,-1364.14 691,-1490.08 812.37,-1637.85 943.08,-1509.23 1103,-1614.08 1124.71,-1628.31 1116.55,-1647.04 1139,-1660.08 1183.32,-1685.83 1317.61,-1699.99 1407.46,-1706.8"/>
<polygon fill="#2563eb" stroke="#2563eb" points="1407.49,-1709.26 1414.66,-1707.34 1407.86,-1704.37 1407.49,-1709.26"/>
</g>
<!-- app.telegram.commands -->
<g id="node34" class="node">
<title>app.telegram.commands</title>
<path fill="#f8fafc" stroke="#94a3b8" d="M870,-678.08C870,-678.08 703,-678.08 703,-678.08 697,-678.08 691,-672.08 691,-666.08 691,-666.08 691,-654.08 691,-654.08 691,-648.08 697,-642.08 703,-642.08 703,-642.08 870,-642.08 870,-642.08 876,-642.08 882,-648.08 882,-654.08 882,-654.08 882,-666.08 882,-666.08 882,-672.08 876,-678.08 870,-678.08"/>
<text text-anchor="middle" x="786.5" y="-656.38" font-family="Inter" font-size="14.00">app.telegram.commands</text>
</g>
<!-- app.telegram.bot&#45;&gt;app.telegram.commands -->
<g id="edge83" class="edge">
<title>app.telegram.bot&#45;&gt;app.telegram.commands</title>
<path fill="none" stroke="#2563eb" d="M655.09,-668.79C664.37,-667.52 674.07,-666.29 683.8,-665.14"/>
<polygon fill="#2563eb" stroke="#2563eb" points="684.21,-667.56 690.89,-664.32 683.65,-662.7 684.21,-667.56"/>
</g>
<!-- app.telegram.formatters -->
<g id="node35" class="node">
<title>app.telegram.formatters</title>
<path fill="#f8fafc" stroke="#94a3b8" d="M1328.5,-541.08C1328.5,-541.08 1165.5,-541.08 1165.5,-541.08 1159.5,-541.08 1153.5,-535.08 1153.5,-529.08 1153.5,-529.08 1153.5,-517.08 1153.5,-517.08 1153.5,-511.08 1159.5,-505.08 1165.5,-505.08 1165.5,-505.08 1328.5,-505.08 1328.5,-505.08 1334.5,-505.08 1340.5,-511.08 1340.5,-517.08 1340.5,-517.08 1340.5,-529.08 1340.5,-529.08 1340.5,-535.08 1334.5,-541.08 1328.5,-541.08"/>
<text text-anchor="middle" x="1247" y="-519.38" font-family="Inter" font-size="14.00">app.telegram.formatters</text>
</g>
<!-- app.telegram.bot&#45;&gt;app.telegram.formatters -->
<g id="edge84" class="edge">
<title>app.telegram.bot&#45;&gt;app.telegram.formatters</title>
<path fill="none" stroke="#2563eb" d="M601.77,-665.07C620.2,-642.9 654.31,-605.45 691,-583.08 781.96,-527.61 812.89,-523.42 918,-506.08 993.86,-493.56 1080.8,-498.95 1146.11,-506.85"/>
<polygon fill="#2563eb" stroke="#2563eb" points="1145.91,-509.29 1153.16,-507.72 1146.51,-504.43 1145.91,-509.29"/>
</g>
<!-- app.telegram.keyboards -->
<g id="node36" class="node">
<title>app.telegram.keyboards</title>
<path fill="#f8fafc" stroke="#94a3b8" d="M1091,-586.08C1091,-586.08 930,-586.08 930,-586.08 924,-586.08 918,-580.08 918,-574.08 918,-574.08 918,-562.08 918,-562.08 918,-556.08 924,-550.08 930,-550.08 930,-550.08 1091,-550.08 1091,-550.08 1097,-550.08 1103,-556.08 1103,-562.08 1103,-562.08 1103,-574.08 1103,-574.08 1103,-580.08 1097,-586.08 1091,-586.08"/>
<text text-anchor="middle" x="1010.5" y="-564.38" font-family="Inter" font-size="14.00">app.telegram.keyboards</text>
</g>
<!-- app.telegram.bot&#45;&gt;app.telegram.keyboards -->
<g id="edge85" class="edge">
<title>app.telegram.bot&#45;&gt;app.telegram.keyboards</title>
<path fill="none" stroke="#2563eb" d="M619.72,-664.94C639.71,-654.34 666.23,-641.44 691,-633.08 762.82,-608.82 846.96,-592.13 910.72,-581.73"/>
<polygon fill="#2563eb" stroke="#2563eb" points="911.47,-584.09 917.99,-580.56 910.69,-579.26 911.47,-584.09"/>
</g>
<!-- app.telegram.bot&#45;&gt;app.utils.time -->
<g id="edge86" class="edge">
<title>app.telegram.bot&#45;&gt;app.utils.time</title>
<path fill="none" stroke="#2563eb" d="M655.04,-689.03C738.32,-695.85 884.22,-706.08 1009.5,-706.08 1009.5,-706.08 1009.5,-706.08 1495,-706.08 1763.14,-706.08 1867.88,-1135.46 1890.23,-1244.92"/>
<polygon fill="#2563eb" stroke="#2563eb" points="1887.86,-1245.57 1891.64,-1251.95 1892.66,-1244.61 1887.86,-1245.57"/>
</g>
<!-- app.telegram.charts -->
<g id="node33" class="node">
<title>app.telegram.charts</title>
<path fill="#f8fafc" stroke="#94a3b8" d="M1314,-639.08C1314,-639.08 1180,-639.08 1180,-639.08 1174,-639.08 1168,-633.08 1168,-627.08 1168,-627.08 1168,-615.08 1168,-615.08 1168,-609.08 1174,-603.08 1180,-603.08 1180,-603.08 1314,-603.08 1314,-603.08 1320,-603.08 1326,-609.08 1326,-615.08 1326,-615.08 1326,-627.08 1326,-627.08 1326,-633.08 1320,-639.08 1314,-639.08"/>
<text text-anchor="middle" x="1247" y="-617.38" font-family="Inter" font-size="14.00">app.telegram.charts</text>
</g>
<!-- app.telegram.commands&#45;&gt;app.config -->
<g id="edge87" class="edge">
<title>app.telegram.commands&#45;&gt;app.config</title>
<path fill="none" stroke="#2563eb" d="M882.12,-676.25C1038.33,-703.19 1335.02,-755.58 1355,-768.08 1418.39,-807.73 1462.69,-887.88 1482.05,-928.41"/>
<polygon fill="#2563eb" stroke="#2563eb" points="1479.86,-929.5 1485.05,-934.8 1484.29,-927.42 1479.86,-929.5"/>
</g>
<!-- app.telegram.commands&#45;&gt;app.data.repositories -->
<g id="edge88" class="edge">
<title>app.telegram.commands&#45;&gt;app.data.repositories</title>
<path fill="none" stroke="#2563eb" d="M790.51,-641.95C799.58,-593.9 831.56,-463.37 918,-411.08 966.23,-381.9 1347.62,-432.31 1355,-434.08 1387.72,-441.92 1422.92,-456.05 1449.59,-468.02"/>
<polygon fill="#2563eb" stroke="#2563eb" points="1448.79,-470.35 1456.17,-471.02 1450.81,-465.89 1448.79,-470.35"/>
</g>
<!-- app.telegram.commands&#45;&gt;app.market.features -->
<g id="edge89" class="edge">
<title>app.telegram.commands&#45;&gt;app.market.features</title>
<path fill="none" stroke="#2563eb" d="M794.45,-678.09C812.02,-724.32 858.46,-851.29 882,-961.08 910.43,-1093.68 873.57,-1135.95 918,-1264.08 925.7,-1286.3 1119.71,-1611.63 1139,-1625.08 1219.29,-1681.07 1260.22,-1643.62 1355,-1668.08 1381.26,-1674.86 1409.89,-1683.73 1434.23,-1691.74"/>
<polygon fill="#2563eb" stroke="#2563eb" points="1433.56,-1694.1 1440.98,-1693.97 1435.1,-1689.45 1433.56,-1694.1"/>
</g>
<!-- app.telegram.commands&#45;&gt;app.paper.statistics -->
<g id="edge90" class="edge">
<title>app.telegram.commands&#45;&gt;app.paper.statistics</title>
<path fill="none" stroke="#2563eb" d="M789.58,-641.8C796.56,-589.88 824.28,-441.24 918,-378.08 989.99,-329.56 1092.38,-333.1 1163.54,-343.93"/>
<polygon fill="#2563eb" stroke="#2563eb" points="1163.47,-346.4 1170.76,-345.07 1164.23,-341.56 1163.47,-346.4"/>
</g>
<!-- app.telegram.commands&#45;&gt;app.signals.patterns -->
<g id="edge91" class="edge">
<title>app.telegram.commands&#45;&gt;app.signals.patterns</title>
<path fill="none" stroke="#2563eb" d="M794.35,-678.11C811.69,-724.39 857.62,-851.47 882,-961.08 895.05,-1019.74 877.57,-1184.62 918,-1229.08 974.79,-1291.53 1032.74,-1225.28 1103,-1272.08 1125.79,-1287.26 1116.69,-1306.2 1139,-1322.08 1145.79,-1326.91 1153.31,-1331.02 1161.13,-1334.52"/>
<polygon fill="#2563eb" stroke="#2563eb" points="1160.36,-1336.85 1167.76,-1337.31 1162.26,-1332.34 1160.36,-1336.85"/>
</g>
<!-- app.telegram.commands&#45;&gt;app.signals.scoring -->
<g id="edge92" class="edge">
<title>app.telegram.commands&#45;&gt;app.signals.scoring</title>
<path fill="none" stroke="#2563eb" d="M801.72,-678.15C840.32,-727.17 947.03,-862.73 990.6,-918.07"/>
<polygon fill="#2563eb" stroke="#2563eb" points="988.85,-919.81 995.11,-923.79 992.7,-916.78 988.85,-919.81"/>
</g>
<!-- app.telegram.commands&#45;&gt;app.telegram.bot -->
<g id="edge93" class="edge">
<title>app.telegram.commands&#45;&gt;app.telegram.bot</title>
<path fill="none" stroke="#2563eb" d="M690.89,-677.81C681.25,-678.96 671.57,-680.02 662.19,-680.97"/>
<polygon fill="#2563eb" stroke="#2563eb" points="661.81,-678.54 655.09,-681.67 662.29,-683.42 661.81,-678.54"/>
</g>
<!-- app.telegram.commands&#45;&gt;app.telegram.formatters -->
<g id="edge94" class="edge">
<title>app.telegram.commands&#45;&gt;app.telegram.formatters</title>
<path fill="none" stroke="#2563eb" d="M800.66,-641.86C821.8,-614.26 866.26,-562.78 918,-541.08 990.06,-510.86 1078.93,-507.83 1145.99,-511.54"/>
<polygon fill="#2563eb" stroke="#2563eb" points="1146.09,-514.01 1153.23,-511.98 1146.39,-509.11 1146.09,-514.01"/>
</g>
<!-- app.telegram.commands&#45;&gt;app.telegram.keyboards -->
<g id="edge95" class="edge">
<title>app.telegram.commands&#45;&gt;app.telegram.keyboards</title>
<path fill="none" stroke="#2563eb" d="M819.76,-642.02C845.74,-627.97 883.49,-608.64 918,-595.08 923.89,-592.76 930.05,-590.54 936.28,-588.43"/>
<polygon fill="#2563eb" stroke="#2563eb" points="937.19,-590.71 943.06,-586.19 935.65,-586.06 937.19,-590.71"/>
</g>
<!-- app.telegram.commands&#45;&gt;app.utils.time -->
<g id="edge96" class="edge">
<title>app.telegram.commands&#45;&gt;app.utils.time</title>
<path fill="none" stroke="#2563eb" d="M882.33,-662.7C975.04,-665.03 1120.21,-668.08 1246,-668.08 1246,-668.08 1246,-668.08 1495,-668.08 1632.75,-668.08 1702.84,-598.58 1804,-692.08 1886.42,-768.26 1894.36,-1143.57 1894.98,-1244.85"/>
<polygon fill="#2563eb" stroke="#2563eb" points="1892.53,-1244.94 1895.02,-1251.93 1897.43,-1244.92 1892.53,-1244.94"/>
</g>
<!-- app.telegram.formatters&#45;&gt;app.config -->
<g id="edge97" class="edge">
<title>app.telegram.formatters&#45;&gt;app.config</title>
<path fill="none" stroke="#2563eb" d="M1291.06,-541.09C1313.73,-552.83 1339.88,-570.4 1355,-594.08 1412.09,-683.51 1347.56,-733.28 1391,-830.08 1408.85,-869.84 1443.21,-907.13 1467.09,-930"/>
<polygon fill="#2563eb" stroke="#2563eb" points="1465.55,-931.91 1472.32,-934.94 1468.91,-928.35 1465.55,-931.91"/>
</g>
<!-- app.telegram.formatters&#45;&gt;app.data.models -->
<g id="edge98" class="edge">
<title>app.telegram.formatters&#45;&gt;app.data.models</title>
<path fill="none" stroke="#2563eb" d="M1340.76,-531.18C1429.87,-538.96 1562.69,-550.56 1644.51,-557.7"/>
<polygon fill="#2563eb" stroke="#2563eb" points="1644.59,-560.17 1651.77,-558.34 1645.01,-555.29 1644.59,-560.17"/>
</g>
<!-- app.telegram.formatters&#45;&gt;app.data.repositories -->
<g id="edge99" class="edge">
<title>app.telegram.formatters&#45;&gt;app.data.repositories</title>
<path fill="none" stroke="#2563eb" d="M1340.62,-510.22C1361.69,-507.3 1384,-504.2 1404.87,-501.31"/>
<polygon fill="#2563eb" stroke="#2563eb" points="1405.29,-503.72 1411.89,-500.33 1404.62,-498.87 1405.29,-503.72"/>
</g>
<!-- app.telegram.keyboards&#45;&gt;app.data.models -->
<g id="edge100" class="edge">
<title>app.telegram.keyboards&#45;&gt;app.data.models</title>
<path fill="none" stroke="#2563eb" d="M1103.07,-567.56C1244.97,-566.76 1515.07,-565.23 1644.63,-564.49"/>
<polygon fill="#2563eb" stroke="#2563eb" points="1644.84,-566.94 1651.82,-564.45 1644.81,-562.04 1644.84,-566.94"/>
</g>
<!-- app.telegram.keyboards&#45;&gt;app.telegram.charts -->
<g id="edge101" class="edge">
<title>app.telegram.keyboards&#45;&gt;app.telegram.charts</title>
<path fill="none" stroke="#2563eb" d="M1091.22,-586.1C1113.6,-591.15 1138.02,-596.67 1160.71,-601.8"/>
<polygon fill="#2563eb" stroke="#2563eb" points="1160.33,-604.23 1167.69,-603.38 1161.41,-599.45 1160.33,-604.23"/>
</g>
<!-- app.telegram.keyboards&#45;&gt;app.telegram.formatters -->
<g id="edge102" class="edge">
<title>app.telegram.keyboards&#45;&gt;app.telegram.formatters</title>
<path fill="none" stroke="#2563eb" d="M1103.17,-550.49C1117.3,-547.78 1131.95,-544.96 1146.25,-542.22"/>
<polygon fill="#2563eb" stroke="#2563eb" points="1146.82,-544.61 1153.24,-540.88 1145.9,-539.79 1146.82,-544.61"/>
</g>
<!-- app.utils.__init__ -->
<g id="node37" class="node">
<title>app.utils.__init__</title>
<path fill="#f8fafc" stroke="#94a3b8" d="M178,-2243.08C178,-2243.08 72,-2243.08 72,-2243.08 66,-2243.08 60,-2237.08 60,-2231.08 60,-2231.08 60,-2219.08 60,-2219.08 60,-2213.08 66,-2207.08 72,-2207.08 72,-2207.08 178,-2207.08 178,-2207.08 184,-2207.08 190,-2213.08 190,-2219.08 190,-2219.08 190,-2231.08 190,-2231.08 190,-2237.08 184,-2243.08 178,-2243.08"/>
<text text-anchor="middle" x="125" y="-2221.38" font-family="Inter" font-size="14.00">app.utils.__init__</text>
</g>
<!-- app.utils.retry -->
<g id="node39" class="node">
<title>app.utils.retry</title>
<path fill="#f8fafc" stroke="#94a3b8" d="M170,-2297.08C170,-2297.08 80,-2297.08 80,-2297.08 74,-2297.08 68,-2291.08 68,-2285.08 68,-2285.08 68,-2273.08 68,-2273.08 68,-2267.08 74,-2261.08 80,-2261.08 80,-2261.08 170,-2261.08 170,-2261.08 176,-2261.08 182,-2267.08 182,-2273.08 182,-2273.08 182,-2285.08 182,-2285.08 182,-2291.08 176,-2297.08 170,-2297.08"/>
<text text-anchor="middle" x="125" y="-2275.38" font-family="Inter" font-size="14.00">app.utils.retry</text>
</g>
<!-- tests.test_chart_links -->
<g id="node41" class="node">
<title>tests.test_chart_links</title>
<path fill="#f8fafc" stroke="#94a3b8" d="M1080,-640.08C1080,-640.08 941,-640.08 941,-640.08 935,-640.08 929,-634.08 929,-628.08 929,-628.08 929,-616.08 929,-616.08 929,-610.08 935,-604.08 941,-604.08 941,-604.08 1080,-604.08 1080,-604.08 1086,-604.08 1092,-610.08 1092,-616.08 1092,-616.08 1092,-628.08 1092,-628.08 1092,-634.08 1086,-640.08 1080,-640.08"/>
<text text-anchor="middle" x="1010.5" y="-618.38" font-family="Inter" font-size="14.00">tests.test_chart_links</text>
</g>
<!-- tests.test_chart_links&#45;&gt;app.telegram.charts -->
<g id="edge103" class="edge">
<title>tests.test_chart_links&#45;&gt;app.telegram.charts</title>
<path fill="none" stroke="#2563eb" d="M1092.2,-621.73C1114.32,-621.64 1138.36,-621.54 1160.73,-621.44"/>
<polygon fill="#2563eb" stroke="#2563eb" points="1160.93,-623.89 1167.92,-621.41 1160.91,-618.99 1160.93,-623.89"/>
</g>
<!-- tests.test_outcomes -->
<g id="node42" class="node">
<title>tests.test_outcomes</title>
<path fill="#f8fafc" stroke="#94a3b8" d="M1076,-456.08C1076,-456.08 945,-456.08 945,-456.08 939,-456.08 933,-450.08 933,-444.08 933,-444.08 933,-432.08 933,-432.08 933,-426.08 939,-420.08 945,-420.08 945,-420.08 1076,-420.08 1076,-420.08 1082,-420.08 1088,-426.08 1088,-432.08 1088,-432.08 1088,-444.08 1088,-444.08 1088,-450.08 1082,-456.08 1076,-456.08"/>
<text text-anchor="middle" x="1010.5" y="-434.38" font-family="Inter" font-size="14.00">tests.test_outcomes</text>
</g>
<!-- tests.test_outcomes&#45;&gt;app.signals.outcome_tracker -->
<g id="edge104" class="edge">
<title>tests.test_outcomes&#45;&gt;app.signals.outcome_tracker</title>
<path fill="none" stroke="#2563eb" d="M1088.28,-445.61C1102.17,-446.97 1116.93,-448.42 1131.62,-449.86"/>
<polygon fill="#2563eb" stroke="#2563eb" points="1131.62,-452.32 1138.82,-450.57 1132.1,-447.44 1131.62,-452.32"/>
</g>
<!-- tests.test_paper_risk -->
<g id="node43" class="node">
<title>tests.test_paper_risk</title>
<path fill="#f8fafc" stroke="#94a3b8" d="M1079,-1128.08C1079,-1128.08 942,-1128.08 942,-1128.08 936,-1128.08 930,-1122.08 930,-1116.08 930,-1116.08 930,-1104.08 930,-1104.08 930,-1098.08 936,-1092.08 942,-1092.08 942,-1092.08 1079,-1092.08 1079,-1092.08 1085,-1092.08 1091,-1098.08 1091,-1104.08 1091,-1104.08 1091,-1116.08 1091,-1116.08 1091,-1122.08 1085,-1128.08 1079,-1128.08"/>
<text text-anchor="middle" x="1010.5" y="-1106.38" font-family="Inter" font-size="14.00">tests.test_paper_risk</text>
</g>
<!-- tests.test_paper_risk&#45;&gt;app.config -->
<g id="edge105" class="edge">
<title>tests.test_paper_risk&#45;&gt;app.config</title>
<path fill="none" stroke="#2563eb" d="M1091.17,-1095.55C1161.82,-1081.4 1267.12,-1057.18 1355,-1024.08 1390.83,-1010.58 1429.41,-990.19 1456.64,-974.72"/>
<polygon fill="#2563eb" stroke="#2563eb" points="1458.1,-976.7 1462.96,-971.1 1455.67,-972.45 1458.1,-976.7"/>
</g>
<!-- tests.test_paper_risk&#45;&gt;app.paper.risk -->
<g id="edge106" class="edge">
<title>tests.test_paper_risk&#45;&gt;app.paper.risk</title>
<path fill="none" stroke="#2563eb" d="M1091.22,-1117.56C1120.72,-1120.32 1153.76,-1123.42 1181.72,-1126.05"/>
<polygon fill="#2563eb" stroke="#2563eb" points="1181.51,-1128.49 1188.71,-1126.7 1181.97,-1123.61 1181.51,-1128.49"/>
</g>
<!-- tests.test_scoring -->
<g id="node44" class="node">
<title>tests.test_scoring</title>
<path fill="#f8fafc" stroke="#94a3b8" d="M844,-1006.08C844,-1006.08 729,-1006.08 729,-1006.08 723,-1006.08 717,-1000.08 717,-994.08 717,-994.08 717,-982.08 717,-982.08 717,-976.08 723,-970.08 729,-970.08 729,-970.08 844,-970.08 844,-970.08 850,-970.08 856,-976.08 856,-982.08 856,-982.08 856,-994.08 856,-994.08 856,-1000.08 850,-1006.08 844,-1006.08"/>
<text text-anchor="middle" x="786.5" y="-984.38" font-family="Inter" font-size="14.00">tests.test_scoring</text>
</g>
<!-- tests.test_scoring&#45;&gt;app.config -->
<g id="edge107" class="edge">
<title>tests.test_scoring&#45;&gt;app.config</title>
<path fill="none" stroke="#2563eb" d="M856.11,-984.67C997.17,-977.68 1316.97,-961.81 1441.76,-955.62"/>
<polygon fill="#2563eb" stroke="#2563eb" points="1442.12,-958.06 1448.99,-955.26 1441.87,-953.16 1442.12,-958.06"/>
</g>
<!-- tests.test_scoring&#45;&gt;app.signals.patterns -->
<g id="edge108" class="edge">
<title>tests.test_scoring&#45;&gt;app.signals.patterns</title>
<path fill="none" stroke="#2563eb" d="M790.77,-1006.27C800.58,-1055.38 834.37,-1191.66 918,-1262.08 986.45,-1319.72 1088.56,-1341.36 1160.64,-1349.42"/>
<polygon fill="#2563eb" stroke="#2563eb" points="1160.73,-1351.9 1167.95,-1350.21 1161.25,-1347.03 1160.73,-1351.9"/>
</g>
<!-- tests.test_scoring&#45;&gt;app.signals.scoring -->
<g id="edge109" class="edge">
<title>tests.test_scoring&#45;&gt;app.signals.scoring</title>
<path fill="none" stroke="#2563eb" d="M856.22,-973.84C878.71,-969.18 903.91,-963.96 927.29,-959.11"/>
<polygon fill="#2563eb" stroke="#2563eb" points="927.8,-961.51 934.15,-957.69 926.8,-956.71 927.8,-961.51"/>
</g>
<!-- tests.test_telegram_auth -->
<g id="node45" class="node">
<title>tests.test_telegram_auth</title>
<path fill="#f8fafc" stroke="#94a3b8" d="M466,-701.08C466,-701.08 302,-701.08 302,-701.08 296,-701.08 290,-695.08 290,-689.08 290,-689.08 290,-677.08 290,-677.08 290,-671.08 296,-665.08 302,-665.08 302,-665.08 466,-665.08 466,-665.08 472,-665.08 478,-671.08 478,-677.08 478,-677.08 478,-689.08 478,-689.08 478,-695.08 472,-701.08 466,-701.08"/>
<text text-anchor="middle" x="384" y="-679.38" font-family="Inter" font-size="14.00">tests.test_telegram_auth</text>
</g>
<!-- tests.test_telegram_auth&#45;&gt;app.config -->
<g id="edge110" class="edge">
<title>tests.test_telegram_auth&#45;&gt;app.config</title>
<path fill="none" stroke="#2563eb" d="M415.45,-701.27C480.8,-738.54 640.36,-820.08 785.5,-820.08 785.5,-820.08 785.5,-820.08 1011.5,-820.08 1164.54,-820.08 1212.27,-788.86 1355,-844.08 1402.58,-862.49 1446.85,-903.31 1471.85,-929.44"/>
<polygon fill="#2563eb" stroke="#2563eb" points="1470.3,-931.37 1476.89,-934.78 1473.87,-928.01 1470.3,-931.37"/>
</g>
<!-- tests.test_telegram_auth&#45;&gt;app.data.database -->
<g id="edge111" class="edge">
<title>tests.test_telegram_auth&#45;&gt;app.data.database</title>
<path fill="none" stroke="#2563eb" d="M384.34,-665.06C382.74,-594.39 386.32,-332.94 518,-188.08 603.37,-94.16 658.58,-88.08 785.5,-88.08 785.5,-88.08 785.5,-88.08 1011.5,-88.08 1166.63,-88.08 1216.21,-80.76 1355,-150.08 1405.43,-175.26 1450.56,-224.63 1474.63,-254.15"/>
<polygon fill="#2563eb" stroke="#2563eb" points="1472.86,-255.86 1479.16,-259.77 1476.68,-252.78 1472.86,-255.86"/>
</g>
<!-- tests.test_telegram_auth&#45;&gt;app.telegram.bot -->
<g id="edge112" class="edge">
<title>tests.test_telegram_auth&#45;&gt;app.telegram.bot</title>
<path fill="none" stroke="#2563eb" d="M478.21,-683.08C489.09,-683.08 500.09,-683.08 510.68,-683.08"/>
<polygon fill="#2563eb" stroke="#2563eb" points="510.94,-685.53 517.94,-683.08 510.94,-680.63 510.94,-685.53"/>
</g>
<!-- tools.__init__ -->
<g id="node46" class="node">
<title>tools.__init__</title>
<path fill="#f8fafc" stroke="#94a3b8" d="M164.5,-2351.08C164.5,-2351.08 85.5,-2351.08 85.5,-2351.08 79.5,-2351.08 73.5,-2345.08 73.5,-2339.08 73.5,-2339.08 73.5,-2327.08 73.5,-2327.08 73.5,-2321.08 79.5,-2315.08 85.5,-2315.08 85.5,-2315.08 164.5,-2315.08 164.5,-2315.08 170.5,-2315.08 176.5,-2321.08 176.5,-2327.08 176.5,-2327.08 176.5,-2339.08 176.5,-2339.08 176.5,-2345.08 170.5,-2351.08 164.5,-2351.08"/>
<text text-anchor="middle" x="125" y="-2329.38" font-family="Inter" font-size="14.00">tools.__init__</text>
</g>
<!-- tools.architecture_review -->
<g id="node47" class="node">
<title>tools.architecture_review</title>
<path fill="#f8fafc" stroke="#94a3b8" d="M207,-2405.08C207,-2405.08 43,-2405.08 43,-2405.08 37,-2405.08 31,-2399.08 31,-2393.08 31,-2393.08 31,-2381.08 31,-2381.08 31,-2375.08 37,-2369.08 43,-2369.08 43,-2369.08 207,-2369.08 207,-2369.08 213,-2369.08 219,-2375.08 219,-2381.08 219,-2381.08 219,-2393.08 219,-2393.08 219,-2399.08 213,-2405.08 207,-2405.08"/>
<text text-anchor="middle" x="125" y="-2383.38" font-family="Inter" font-size="14.00">tools.architecture_review</text>
</g>
</g>
</svg>
