<?xml version="1.0" encoding="UTF-8" standalone="no"?>
<!DOCTYPE svg PUBLIC "-//W3C//DTD SVG 1.1//EN"
 "http://www.w3.org/Graphics/SVG/1.1/DTD/svg11.dtd">
<!-- Generated by graphviz version 2.43.0 (0)
 -->
<!-- Title: imports Pages: 1 -->
<svg width="1953pt" height="2356pt"
 viewBox="0.00 0.00 1953.00 2355.68" xmlns="http://www.w3.org/2000/svg" xmlns:xlink="http://www.w3.org/1999/xlink">
<g id="graph0" class="graph" transform="scale(1 1) rotate(0) translate(4 2351.68)">
<title>imports</title>
<polygon fill="white" stroke="transparent" points="-4,4 -4,-2351.68 1949,-2351.68 1949,4 -4,4"/>
<!-- app.__init__ -->
<g id="node1" class="node">
<title>app.__init__</title>
<path fill="#f8fafc" stroke="#94a3b8" d="M161,-1589.64C161,-1589.64 89,-1589.64 89,-1589.64 83,-1589.64 77,-1583.64 77,-1577.64 77,-1577.64 77,-1565.64 77,-1565.64 77,-1559.64 83,-1553.64 89,-1553.64 89,-1553.64 161,-1553.64 161,-1553.64 167,-1553.64 173,-1559.64 173,-1565.64 173,-1565.64 173,-1577.64 173,-1577.64 173,-1583.64 167,-1589.64 161,-1589.64"/>
<text text-anchor="middle" x="125" y="-1567.94" font-family="Inter" font-size="14.00">app.__init__</text>
</g>
<!-- app.config -->
<g id="node2" class="node">
<title>app.config</title>
<path fill="#f8fafc" stroke="#94a3b8" d="M1541,-709.64C1541,-709.64 1475,-709.64 1475,-709.64 1469,-709.64 1463,-703.64 1463,-697.64 1463,-697.64 1463,-685.64 1463,-685.64 1463,-679.64 1469,-673.64 1475,-673.64 1475,-673.64 1541,-673.64 1541,-673.64 1547,-673.64 1553,-679.64 1553,-685.64 1553,-685.64 1553,-697.64 1553,-697.64 1553,-703.64 1547,-709.64 1541,-709.64"/>
<text text-anchor="middle" x="1508" y="-687.94" font-family="Inter" font-size="14.00">app.config</text>
</g>
<!-- app.data.__init__ -->
<g id="node3" class="node">
<title>app.data.__init__</title>
<path fill="#f8fafc" stroke="#94a3b8" d="M178.5,-1697.64C178.5,-1697.64 71.5,-1697.64 71.5,-1697.64 65.5,-1697.64 59.5,-1691.64 59.5,-1685.64 59.5,-1685.64 59.5,-1673.64 59.5,-1673.64 59.5,-1667.64 65.5,-1661.64 71.5,-1661.64 71.5,-1661.64 178.5,-1661.64 178.5,-1661.64 184.5,-1661.64 190.5,-1667.64 190.5,-1673.64 190.5,-1673.64 190.5,-1685.64 190.5,-1685.64 190.5,-1691.64 184.5,-1697.64 178.5,-1697.64"/>
<text text-anchor="middle" x="125" y="-1675.94" font-family="Inter" font-size="14.00">app.data.__init__</text>
</g>
<!-- app.data.database -->
<g id="node4" class="node">
<title>app.data.database</title>
<path fill="#f8fafc" stroke="#94a3b8" d="M1125,-606.64C1125,-606.64 1003,-606.64 1003,-606.64 997,-606.64 991,-600.64 991,-594.64 991,-594.64 991,-582.64 991,-582.64 991,-576.64 997,-570.64 1003,-570.64 1003,-570.64 1125,-570.64 1125,-570.64 1131,-570.64 1137,-576.64 1137,-582.64 1137,-582.64 1137,-594.64 1137,-594.64 1137,-600.64 1131,-606.64 1125,-606.64"/>
<text text-anchor="middle" x="1064" y="-584.94" font-family="Inter" font-size="14.00">app.data.database</text>
</g>
<!-- app.data.models -->
<g id="node5" class="node">
<title>app.data.models</title>
<path fill="#f8fafc" stroke="#94a3b8" d="M1766,-930.64C1766,-930.64 1657,-930.64 1657,-930.64 1651,-930.64 1645,-924.64 1645,-918.64 1645,-918.64 1645,-906.64 1645,-906.64 1645,-900.64 1651,-894.64 1657,-894.64 1657,-894.64 1766,-894.64 1766,-894.64 1772,-894.64 1778,-900.64 1778,-906.64 1778,-906.64 1778,-918.64 1778,-918.64 1778,-924.64 1772,-930.64 1766,-930.64"/>
<text text-anchor="middle" x="1711.5" y="-908.94" font-family="Inter" font-size="14.00">app.data.models</text>
</g>
<!-- app.data.database&#45;&gt;app.data.models -->
<g id="edge1" class="edge">
<title>app.data.database&#45;&gt;app.data.models</title>
<path fill="none" stroke="#2563eb" d="M1137.32,-579.22C1246.41,-569.04 1454.67,-565.73 1590,-664.64 1665.88,-720.09 1696.25,-836.37 1706.28,-887.54"/>
<polygon fill="#2563eb" stroke="#2563eb" points="1703.91,-888.19 1707.62,-894.61 1708.72,-887.27 1703.91,-888.19"/>
</g>
<!-- app.utils.time -->
<g id="node40" class="node">
<title>app.utils.time</title>
<path fill="#f8fafc" stroke="#94a3b8" d="M1933,-1033.64C1933,-1033.64 1845,-1033.64 1845,-1033.64 1839,-1033.64 1833,-1027.64 1833,-1021.64 1833,-1021.64 1833,-1009.64 1833,-1009.64 1833,-1003.64 1839,-997.64 1845,-997.64 1845,-997.64 1933,-997.64 1933,-997.64 1939,-997.64 1945,-1003.64 1945,-1009.64 1945,-1009.64 1945,-1021.64 1945,-1021.64 1945,-1027.64 1939,-1033.64 1933,-1033.64"/>
<text text-anchor="middle" x="1889" y="-1011.94" font-family="Inter" font-size="14.00">app.utils.time</text>
</g>
<!-- app.data.models&#45;&gt;app.utils.time -->
<g id="edge2" class="edge">
<title>app.data.models&#45;&gt;app.utils.time</title>
<path fill="none" stroke="#2563eb" d="M1743.47,-930.81C1773.45,-948.41 1818.93,-975.1 1850.85,-993.83"/>
<polygon fill="#2563eb" stroke="#2563eb" points="1849.77,-996.04 1857.04,-997.47 1852.25,-991.81 1849.77,-996.04"/>
</g>
<!-- app.data.repositories -->
<g id="node6" class="node">
<title>app.data.repositories</title>
<path fill="#f8fafc" stroke="#94a3b8" d="M1578,-1033.64C1578,-1033.64 1438,-1033.64 1438,-1033.64 1432,-1033.64 1426,-1027.64 1426,-1021.64 1426,-1021.64 1426,-1009.64 1426,-1009.64 1426,-1003.64 1432,-997.64 1438,-997.64 1438,-997.64 1578,-997.64 1578,-997.64 1584,-997.64 1590,-1003.64 1590,-1009.64 1590,-1009.64 1590,-1021.64 1590,-1021.64 1590,-1027.64 1584,-1033.64 1578,-1033.64"/>
<text text-anchor="middle" x="1508" y="-1011.94" font-family="Inter" font-size="14.00">app.data.repositories</text>
</g>
<!-- app.data.repositories&#45;&gt;app.data.models -->
<g id="edge3" class="edge">
<title>app.data.repositories&#45;&gt;app.data.models</title>
<path fill="none" stroke="#2563eb" d="M1558.36,-997.56C1568.94,-993.29 1579.95,-988.55 1590,-983.64 1620.04,-968.96 1652.63,-949.53 1676.33,-934.71"/>
<polygon fill="#2563eb" stroke="#2563eb" points="1677.84,-936.65 1682.46,-930.85 1675.23,-932.5 1677.84,-936.65"/>
</g>
<!-- app.data.repositories&#45;&gt;app.utils.time -->
<g id="edge4" class="edge">
<title>app.data.repositories&#45;&gt;app.utils.time</title>
<path fill="none" stroke="#2563eb" d="M1590.31,-1015.64C1660.78,-1015.64 1761.28,-1015.64 1825.58,-1015.64"/>
<polygon fill="#2563eb" stroke="#2563eb" points="1825.85,-1018.09 1832.85,-1015.64 1825.84,-1013.19 1825.85,-1018.09"/>
</g>
<!-- app.exchanges.__init__ -->
<g id="node7" class="node">
<title>app.exchanges.__init__</title>
<path fill="#f8fafc" stroke="#94a3b8" d="M201,-1751.64C201,-1751.64 49,-1751.64 49,-1751.64 43,-1751.64 37,-1745.64 37,-1739.64 37,-1739.64 37,-1727.64 37,-1727.64 37,-1721.64 43,-1715.64 49,-1715.64 49,-1715.64 201,-1715.64 201,-1715.64 207,-1715.64 213,-1721.64 213,-1727.64 213,-1727.64 213,-1739.64 213,-1739.64 213,-1745.64 207,-1751.64 201,-1751.64"/>
<text text-anchor="middle" x="125" y="-1729.94" font-family="Inter" font-size="14.00">app.exchanges.__init__</text>
</g>
<!-- app.exchanges.base -->
<g id="node8" class="node">
<title>app.exchanges.base</title>
<path fill="#f8fafc" stroke="#94a3b8" d="M1779.5,-2030.64C1779.5,-2030.64 1643.5,-2030.64 1643.5,-2030.64 1637.5,-2030.64 1631.5,-2024.64 1631.5,-2018.64 1631.5,-2018.64 1631.5,-2006.64 1631.5,-2006.64 1631.5,-2000.64 1637.5,-1994.64 1643.5,-1994.64 1643.5,-1994.64 1779.5,-1994.64 1779.5,-1994.64 1785.5,-1994.64 1791.5,-2000.64 1791.5,-2006.64 1791.5,-2006.64 1791.5,-2018.64 1791.5,-2018.64 1791.5,-2024.64 1785.5,-2030.64 1779.5,-2030.64"/>
<text text-anchor="middle" x="1711.5" y="-2008.94" font-family="Inter" font-size="14.00">app.exchanges.base</text>
</g>
<!-- app.exchanges.bybit_client -->
<g id="node9" class="node">
<title>app.exchanges.bybit_client</title>
<path fill="#f8fafc" stroke="#94a3b8" d="M1155,-2190.64C1155,-2190.64 973,-2190.64 973,-2190.64 967,-2190.64 961,-2184.64 961,-2178.64 961,-2178.64 961,-2166.64 961,-2166.64 961,-2160.64 967,-2154.64 973,-2154.64 973,-2154.64 1155,-2154.64 1155,-2154.64 1161,-2154.64 1167,-2160.64 1167,-2166.64 1167,-2166.64 1167,-2178.64 1167,-2178.64 1167,-2184.64 1161,-2190.64 1155,-2190.64"/>
<text text-anchor="middle" x="1064" y="-2168.94" font-family="Inter" font-size="14.00">app.exchanges.bybit_client</text>
</g>
<!-- app.exchanges.bybit_client&#45;&gt;app.exchanges.base -->
<g id="edge5" class="edge">
<title>app.exchanges.bybit_client&#45;&gt;app.exchanges.base</title>
<path fill="none" stroke="#2563eb" d="M1137.79,-2154.59C1259.63,-2124.39 1503.91,-2063.84 1630.43,-2032.48"/>
<polygon fill="#2563eb" stroke="#2563eb" points="1631.27,-2034.8 1637.48,-2030.73 1630.1,-2030.04 1631.27,-2034.8"/>
</g>
<!-- app.logger -->
<g id="node11" class="node">
<title>app.logger</title>
<path fill="#f8fafc" stroke="#94a3b8" d="M1330.5,-1406.64C1330.5,-1406.64 1262.5,-1406.64 1262.5,-1406.64 1256.5,-1406.64 1250.5,-1400.64 1250.5,-1394.64 1250.5,-1394.64 1250.5,-1382.64 1250.5,-1382.64 1250.5,-1376.64 1256.5,-1370.64 1262.5,-1370.64 1262.5,-1370.64 1330.5,-1370.64 1330.5,-1370.64 1336.5,-1370.64 1342.5,-1376.64 1342.5,-1382.64 1342.5,-1382.64 1342.5,-1394.64 1342.5,-1394.64 1342.5,-1400.64 1336.5,-1406.64 1330.5,-1406.64"/>
<text text-anchor="middle" x="1296.5" y="-1384.94" font-family="Inter" font-size="14.00">app.logger</text>
</g>
<!-- app.exchanges.bybit_client&#45;&gt;app.logger -->
<g id="edge6" class="edge">
<title>app.exchanges.bybit_client&#45;&gt;app.logger</title>
<path fill="none" stroke="#2563eb" d="M1071.56,-2154.3C1089.31,-2104.11 1138.82,-1959.95 1167,-1836.64 1190.15,-1735.34 1174.41,-1705.53 1203,-1605.64 1223.77,-1533.06 1262.59,-1452.49 1282.7,-1413.07"/>
<polygon fill="#2563eb" stroke="#2563eb" points="1284.97,-1413.99 1285.99,-1406.65 1280.61,-1411.76 1284.97,-1413.99"/>
</g>
<!-- app.utils.math -->
<g id="node38" class="node">
<title>app.utils.math</title>
<path fill="#f8fafc" stroke="#94a3b8" d="M1758,-2228.64C1758,-2228.64 1665,-2228.64 1665,-2228.64 1659,-2228.64 1653,-2222.64 1653,-2216.64 1653,-2216.64 1653,-2204.64 1653,-2204.64 1653,-2198.64 1659,-2192.64 1665,-2192.64 1665,-2192.64 1758,-2192.64 1758,-2192.64 1764,-2192.64 1770,-2198.64 1770,-2204.64 1770,-2204.64 1770,-2216.64 1770,-2216.64 1770,-2222.64 1764,-2228.64 1758,-2228.64"/>
<text text-anchor="middle" x="1711.5" y="-2206.94" font-family="Inter" font-size="14.00">app.utils.math</text>
</g>
<!-- app.exchanges.bybit_client&#45;&gt;app.utils.math -->
<g id="edge7" class="edge">
<title>app.exchanges.bybit_client&#45;&gt;app.utils.math</title>
<path fill="none" stroke="#2563eb" d="M1167.28,-2178.66C1301.55,-2186.56 1533.35,-2200.21 1645.7,-2206.82"/>
<polygon fill="#2563eb" stroke="#2563eb" points="1645.8,-2209.28 1652.93,-2207.25 1646.08,-2204.39 1645.8,-2209.28"/>
</g>
<!-- app.exchanges.bybit_client&#45;&gt;app.utils.time -->
<g id="edge8" class="edge">
<title>app.exchanges.bybit_client&#45;&gt;app.utils.time</title>
<path fill="none" stroke="#2563eb" d="M1167.2,-2170C1358.11,-2164.05 1753.62,-2146.53 1797,-2102.64 1874.07,-2024.65 1886.17,-1198.17 1887.78,-1041.27"/>
<polygon fill="#2563eb" stroke="#2563eb" points="1890.23,-1040.93 1887.85,-1033.9 1885.33,-1040.88 1890.23,-1040.93"/>
</g>
<!-- app.exchanges.hyperliquid_client -->
<g id="node10" class="node">
<title>app.exchanges.hyperliquid_client</title>
<path fill="#f8fafc" stroke="#94a3b8" d="M238,-1805.64C238,-1805.64 12,-1805.64 12,-1805.64 6,-1805.64 0,-1799.64 0,-1793.64 0,-1793.64 0,-1781.64 0,-1781.64 0,-1775.64 6,-1769.64 12,-1769.64 12,-1769.64 238,-1769.64 238,-1769.64 244,-1769.64 250,-1775.64 250,-1781.64 250,-1781.64 250,-1793.64 250,-1793.64 250,-1799.64 244,-1805.64 238,-1805.64"/>
<text text-anchor="middle" x="125" y="-1783.94" font-family="Inter" font-size="14.00">app.exchanges.hyperliquid_client</text>
</g>
<!-- app.main -->
<g id="node12" class="node">
<title>app.main</title>
<path fill="#f8fafc" stroke="#94a3b8" d="M154,-1643.64C154,-1643.64 96,-1643.64 96,-1643.64 90,-1643.64 84,-1637.64 84,-1631.64 84,-1631.64 84,-1619.64 84,-1619.64 84,-1613.64 90,-1607.64 96,-1607.64 96,-1607.64 154,-1607.64 154,-1607.64 160,-1607.64 166,-1613.64 166,-1619.64 166,-1619.64 166,-1631.64 166,-1631.64 166,-1637.64 160,-1643.64 154,-1643.64"/>
<text text-anchor="middle" x="125" y="-1621.94" font-family="Inter" font-size="14.00">app.main</text>
</g>
<!-- app.main&#45;&gt;app.config -->
<g id="edge9" class="edge">
<title>app.main&#45;&gt;app.config</title>
<path fill="none" stroke="#2563eb" d="M166.28,-1628.66C194.3,-1628.34 230.09,-1622.62 250,-1598.64 336.98,-1493.87 224.76,-495.26 286,-373.64 364.5,-217.75 419.96,-130.64 594.5,-130.64 594.5,-130.64 594.5,-130.64 818,-130.64 1080.71,-130.64 1202.22,-95.92 1390,-279.64 1501.02,-388.26 1508.76,-593.93 1507.85,-665.95"/>
<polygon fill="#2563eb" stroke="#2563eb" points="1505.4,-666.23 1507.72,-673.28 1510.3,-666.32 1505.4,-666.23"/>
</g>
<!-- app.main&#45;&gt;app.data.database -->
<g id="edge10" class="edge">
<title>app.main&#45;&gt;app.data.database</title>
<path fill="none" stroke="#2563eb" d="M166.23,-1628.62C194.24,-1628.28 230.01,-1622.56 250,-1598.64 321.93,-1512.55 214.33,-675.94 286,-589.64 468.08,-370.36 648.35,-467.11 925,-535.64 942.56,-539.98 944.36,-547.53 961,-554.64 972.37,-559.49 984.68,-564.11 996.69,-568.29"/>
<polygon fill="#2563eb" stroke="#2563eb" points="995.91,-570.61 1003.33,-570.57 997.5,-565.98 995.91,-570.61"/>
</g>
<!-- app.main&#45;&gt;app.exchanges.base -->
<g id="edge11" class="edge">
<title>app.main&#45;&gt;app.exchanges.base</title>
<path fill="none" stroke="#2563eb" d="M166.02,-1622.83C193.92,-1623.25 229.66,-1629.01 250,-1652.64 330.2,-1745.8 207.62,-2109.94 286,-2204.64 375.91,-2313.25 453.5,-2278.64 594.5,-2278.64 594.5,-2278.64 594.5,-2278.64 1065,-2278.64 1320.04,-2278.64 1591.91,-2098.93 1680.65,-2034.93"/>
<polygon fill="#2563eb" stroke="#2563eb" points="1682.24,-2036.8 1686.47,-2030.71 1679.37,-2032.84 1682.24,-2036.8"/>
</g>
<!-- app.main&#45;&gt;app.exchanges.bybit_client -->
<g id="edge12" class="edge">
<title>app.main&#45;&gt;app.exchanges.bybit_client</title>
<path fill="none" stroke="#2563eb" d="M166.25,-1622.89C194.08,-1623.37 229.63,-1629.18 250,-1652.64 321.01,-1734.4 210.38,-2061.11 286,-2138.64 479.04,-2336.54 860.33,-2239.62 1005.26,-2192.89"/>
<polygon fill="#2563eb" stroke="#2563eb" points="1006.08,-2195.2 1011.98,-2190.7 1004.56,-2190.54 1006.08,-2195.2"/>
</g>
<!-- app.main&#45;&gt;app.logger -->
<g id="edge13" class="edge">
<title>app.main&#45;&gt;app.logger</title>
<path fill="none" stroke="#2563eb" d="M166.05,-1618.57C190.54,-1613.84 222.37,-1606.96 250,-1598.64 407.3,-1551.24 430.21,-1464.64 594.5,-1464.64 594.5,-1464.64 594.5,-1464.64 818,-1464.64 900.37,-1464.64 1137.04,-1419.98 1243.05,-1399.13"/>
<polygon fill="#2563eb" stroke="#2563eb" points="1243.76,-1401.48 1250.15,-1397.73 1242.81,-1396.68 1243.76,-1401.48"/>
</g>
<!-- app.market.features -->
<g id="node14" class="node">
<title>app.market.features</title>
<path fill="#f8fafc" stroke="#94a3b8" d="M1575,-1886.64C1575,-1886.64 1441,-1886.64 1441,-1886.64 1435,-1886.64 1429,-1880.64 1429,-1874.64 1429,-1874.64 1429,-1862.64 1429,-1862.64 1429,-1856.64 1435,-1850.64 1441,-1850.64 1441,-1850.64 1575,-1850.64 1575,-1850.64 1581,-1850.64 1587,-1856.64 1587,-1862.64 1587,-1862.64 1587,-1874.64 1587,-1874.64 1587,-1880.64 1581,-1886.64 1575,-1886.64"/>
<text text-anchor="middle" x="1508" y="-1864.94" font-family="Inter" font-size="14.00">app.market.features</text>
</g>
<!-- app.main&#45;&gt;app.market.features -->
<g id="edge14" class="edge">
<title>app.main&#45;&gt;app.market.features</title>
<path fill="none" stroke="#2563eb" d="M166.02,-1626.99C191.83,-1629.55 225.12,-1636.14 250,-1652.64 273.13,-1667.96 264.67,-1685.89 286,-1703.64 530.06,-1906.73 644.42,-1913.28 961,-1937.64 1056.11,-1944.95 1297.57,-1946.22 1390,-1922.64 1417.82,-1915.54 1447.15,-1901.99 1469.48,-1890.23"/>
<polygon fill="#2563eb" stroke="#2563eb" points="1470.87,-1892.27 1475.89,-1886.82 1468.56,-1887.95 1470.87,-1892.27"/>
</g>
<!-- app.market.oi_tracker -->
<g id="node17" class="node">
<title>app.market.oi_tracker</title>
<path fill="#f8fafc" stroke="#94a3b8" d="M889,-2152.64C889,-2152.64 745,-2152.64 745,-2152.64 739,-2152.64 733,-2146.64 733,-2140.64 733,-2140.64 733,-2128.64 733,-2128.64 733,-2122.64 739,-2116.64 745,-2116.64 745,-2116.64 889,-2116.64 889,-2116.64 895,-2116.64 901,-2122.64 901,-2128.64 901,-2128.64 901,-2140.64 901,-2140.64 901,-2146.64 895,-2152.64 889,-2152.64"/>
<text text-anchor="middle" x="817" y="-2130.94" font-family="Inter" font-size="14.00">app.market.oi_tracker</text>
</g>
<!-- app.main&#45;&gt;app.market.oi_tracker -->
<g id="edge15" class="edge">
<title>app.main&#45;&gt;app.market.oi_tracker</title>
<path fill="none" stroke="#2563eb" d="M166.21,-1622.92C194.02,-1623.43 229.56,-1629.24 250,-1652.64 316.01,-1728.18 214.37,-2032.39 286,-2102.64 346.17,-2161.64 590.78,-2152.68 725.66,-2142.74"/>
<polygon fill="#2563eb" stroke="#2563eb" points="725.99,-2145.18 732.79,-2142.21 725.62,-2140.29 725.99,-2145.18"/>
</g>
<!-- app.market.symbol_selector -->
<g id="node19" class="node">
<title>app.market.symbol_selector</title>
<path fill="#f8fafc" stroke="#94a3b8" d="M911,-1844.64C911,-1844.64 723,-1844.64 723,-1844.64 717,-1844.64 711,-1838.64 711,-1832.64 711,-1832.64 711,-1820.64 711,-1820.64 711,-1814.64 717,-1808.64 723,-1808.64 723,-1808.64 911,-1808.64 911,-1808.64 917,-1808.64 923,-1814.64 923,-1820.64 923,-1820.64 923,-1832.64 923,-1832.64 923,-1838.64 917,-1844.64 911,-1844.64"/>
<text text-anchor="middle" x="817" y="-1822.94" font-family="Inter" font-size="14.00">app.market.symbol_selector</text>
</g>
<!-- app.main&#45;&gt;app.market.symbol_selector -->
<g id="edge16" class="edge">
<title>app.main&#45;&gt;app.market.symbol_selector</title>
<path fill="none" stroke="#2563eb" d="M166.13,-1633.48C190.51,-1638.47 222.19,-1645.35 250,-1652.64 436.16,-1701.42 652.71,-1771.9 755.67,-1806.26"/>
<polygon fill="#2563eb" stroke="#2563eb" points="755.17,-1808.67 762.58,-1808.57 756.72,-1804.03 755.17,-1808.67"/>
</g>
<!-- app.paper.manager -->
<g id="node23" class="node">
<title>app.paper.manager</title>
<path fill="#f8fafc" stroke="#94a3b8" d="M881.5,-438.64C881.5,-438.64 752.5,-438.64 752.5,-438.64 746.5,-438.64 740.5,-432.64 740.5,-426.64 740.5,-426.64 740.5,-414.64 740.5,-414.64 740.5,-408.64 746.5,-402.64 752.5,-402.64 752.5,-402.64 881.5,-402.64 881.5,-402.64 887.5,-402.64 893.5,-408.64 893.5,-414.64 893.5,-414.64 893.5,-426.64 893.5,-426.64 893.5,-432.64 887.5,-438.64 881.5,-438.64"/>
<text text-anchor="middle" x="817" y="-416.94" font-family="Inter" font-size="14.00">app.paper.manager</text>
</g>
<!-- app.main&#45;&gt;app.paper.manager -->
<g id="edge17" class="edge">
<title>app.main&#45;&gt;app.paper.manager</title>
<path fill="none" stroke="#2563eb" d="M166.26,-1628.64C194.28,-1628.32 230.06,-1622.6 250,-1598.64 330.92,-1501.39 198.52,-552.02 286,-460.64 405.53,-335.76 633.92,-372.22 747.85,-400.77"/>
<polygon fill="#2563eb" stroke="#2563eb" points="747.47,-403.2 754.85,-402.55 748.67,-398.45 747.47,-403.2"/>
</g>
<!-- app.signals.outcome_tracker -->
<g id="node27" class="node">
<title>app.signals.outcome_tracker</title>
<path fill="#f8fafc" stroke="#94a3b8" d="M913,-690.64C913,-690.64 721,-690.64 721,-690.64 715,-690.64 709,-684.64 709,-678.64 709,-678.64 709,-666.64 709,-666.64 709,-660.64 715,-654.64 721,-654.64 721,-654.64 913,-654.64 913,-654.64 919,-654.64 925,-660.64 925,-666.64 925,-666.64 925,-678.64 925,-678.64 925,-684.64 919,-690.64 913,-690.64"/>
<text text-anchor="middle" x="817" y="-668.94" font-family="Inter" font-size="14.00">app.signals.outcome_tracker</text>
</g>
<!-- app.main&#45;&gt;app.signals.outcome_tracker -->
<g id="edge18" class="edge">
<title>app.main&#45;&gt;app.signals.outcome_tracker</title>
<path fill="none" stroke="#2563eb" d="M166.21,-1628.6C194.2,-1628.26 229.97,-1622.53 250,-1598.64 316.42,-1519.38 215.11,-743.92 286,-668.64 411.15,-535.73 660.63,-611.22 766.58,-651.93"/>
<polygon fill="#2563eb" stroke="#2563eb" points="765.93,-654.31 773.35,-654.56 767.71,-649.74 765.93,-654.31"/>
</g>
<!-- app.signals.signal_engine -->
<g id="node30" class="node">
<title>app.signals.signal_engine</title>
<path fill="#f8fafc" stroke="#94a3b8" d="M470,-1421.64C470,-1421.64 298,-1421.64 298,-1421.64 292,-1421.64 286,-1415.64 286,-1409.64 286,-1409.64 286,-1397.64 286,-1397.64 286,-1391.64 292,-1385.64 298,-1385.64 298,-1385.64 470,-1385.64 470,-1385.64 476,-1385.64 482,-1391.64 482,-1397.64 482,-1397.64 482,-1409.64 482,-1409.64 482,-1415.64 476,-1421.64 470,-1421.64"/>
<text text-anchor="middle" x="384" y="-1399.94" font-family="Inter" font-size="14.00">app.signals.signal_engine</text>
</g>
<!-- app.main&#45;&gt;app.signals.signal_engine -->
<g id="edge19" class="edge">
<title>app.main&#45;&gt;app.signals.signal_engine</title>
<path fill="none" stroke="#2563eb" d="M166,-1627.29C193.16,-1626.19 228.01,-1620.1 250,-1598.64 298.44,-1551.35 243.48,-1503.31 286,-1450.64 294.61,-1439.97 306.23,-1431.56 318.43,-1424.99"/>
<polygon fill="#2563eb" stroke="#2563eb" points="319.73,-1427.08 324.86,-1421.72 317.51,-1422.71 319.73,-1427.08"/>
</g>
<!-- app.telegram.bot -->
<g id="node32" class="node">
<title>app.telegram.bot</title>
<path fill="#f8fafc" stroke="#94a3b8" d="M652,-1086.64C652,-1086.64 539,-1086.64 539,-1086.64 533,-1086.64 527,-1080.64 527,-1074.64 527,-1074.64 527,-1062.64 527,-1062.64 527,-1056.64 533,-1050.64 539,-1050.64 539,-1050.64 652,-1050.64 652,-1050.64 658,-1050.64 664,-1056.64 664,-1062.64 664,-1062.64 664,-1074.64 664,-1074.64 664,-1080.64 658,-1086.64 652,-1086.64"/>
<text text-anchor="middle" x="595.5" y="-1064.94" font-family="Inter" font-size="14.00">app.telegram.bot</text>
</g>
<!-- app.main&#45;&gt;app.telegram.bot -->
<g id="edge20" class="edge">
<title>app.main&#45;&gt;app.telegram.bot</title>
<path fill="none" stroke="#2563eb" d="M166.24,-1627.82C193.69,-1627 228.78,-1621.02 250,-1598.64 318.76,-1526.09 240.42,-1465.59 286,-1376.64 353.03,-1245.81 495.94,-1136.2 561,-1090.92"/>
<polygon fill="#2563eb" stroke="#2563eb" points="562.68,-1092.74 567.04,-1086.74 559.89,-1088.71 562.68,-1092.74"/>
</g>
<!-- app.main&#45;&gt;app.utils.math -->
<g id="edge21" class="edge">
<title>app.main&#45;&gt;app.utils.math</title>
<path fill="none" stroke="#2563eb" d="M166.06,-1622.79C193.98,-1623.2 229.73,-1628.95 250,-1652.64 337.58,-1754.96 197.13,-2156.44 286,-2257.64 378.11,-2362.53 454.9,-2316.64 594.5,-2316.64 594.5,-2316.64 594.5,-2316.64 1065,-2316.64 1279.97,-2316.64 1529.94,-2258.68 1645.63,-2228.48"/>
<polygon fill="#2563eb" stroke="#2563eb" points="1646.57,-2230.77 1652.72,-2226.62 1645.33,-2226.03 1646.57,-2230.77"/>
</g>
<!-- app.main&#45;&gt;app.utils.time -->
<g id="edge22" class="edge">
<title>app.main&#45;&gt;app.utils.time</title>
<path fill="none" stroke="#2563eb" d="M166.11,-1624.19C193.14,-1625.4 227.79,-1631.55 250,-1652.64 294.1,-1694.5 255.29,-1732.15 286,-1784.64 383.23,-1950.77 402,-2088.64 594.5,-2088.64 594.5,-2088.64 594.5,-2088.64 1509,-2088.64 1638.84,-2088.64 1708.93,-2135.04 1797,-2039.64 1866.87,-1963.95 1884.73,-1192.06 1887.56,-1041.15"/>
<polygon fill="#2563eb" stroke="#2563eb" points="1890.01,-1041.08 1887.69,-1034.04 1885.11,-1040.99 1890.01,-1041.08"/>
</g>
<!-- app.market.__init__ -->
<g id="node13" class="node">
<title>app.market.__init__</title>
<path fill="#f8fafc" stroke="#94a3b8" d="M187.5,-1859.64C187.5,-1859.64 62.5,-1859.64 62.5,-1859.64 56.5,-1859.64 50.5,-1853.64 50.5,-1847.64 50.5,-1847.64 50.5,-1835.64 50.5,-1835.64 50.5,-1829.64 56.5,-1823.64 62.5,-1823.64 62.5,-1823.64 187.5,-1823.64 187.5,-1823.64 193.5,-1823.64 199.5,-1829.64 199.5,-1835.64 199.5,-1835.64 199.5,-1847.64 199.5,-1847.64 199.5,-1853.64 193.5,-1859.64 187.5,-1859.64"/>
<text text-anchor="middle" x="125" y="-1837.94" font-family="Inter" font-size="14.00">app.market.__init__</text>
</g>
<!-- app.market.features&#45;&gt;app.exchanges.base -->
<g id="edge23" class="edge">
<title>app.market.features&#45;&gt;app.exchanges.base</title>
<path fill="none" stroke="#2563eb" d="M1534.52,-1886.87C1571.31,-1913.17 1639.2,-1961.68 1679.04,-1990.15"/>
<polygon fill="#2563eb" stroke="#2563eb" points="1678.07,-1992.47 1685.19,-1994.55 1680.92,-1988.48 1678.07,-1992.47"/>
</g>
<!-- app.market.orderbook -->
<g id="node18" class="node">
<title>app.market.orderbook</title>
<path fill="#f8fafc" stroke="#94a3b8" d="M1785,-1840.64C1785,-1840.64 1638,-1840.64 1638,-1840.64 1632,-1840.64 1626,-1834.64 1626,-1828.64 1626,-1828.64 1626,-1816.64 1626,-1816.64 1626,-1810.64 1632,-1804.64 1638,-1804.64 1638,-1804.64 1785,-1804.64 1785,-1804.64 1791,-1804.64 1797,-1810.64 1797,-1816.64 1797,-1816.64 1797,-1828.64 1797,-1828.64 1797,-1834.64 1791,-1840.64 1785,-1840.64"/>
<text text-anchor="middle" x="1711.5" y="-1818.94" font-family="Inter" font-size="14.00">app.market.orderbook</text>
</g>
<!-- app.market.features&#45;&gt;app.market.orderbook -->
<g id="edge24" class="edge">
<title>app.market.features&#45;&gt;app.market.orderbook</title>
<path fill="none" stroke="#2563eb" d="M1587.19,-1850.78C1599.42,-1847.99 1612.12,-1845.09 1624.51,-1842.27"/>
<polygon fill="#2563eb" stroke="#2563eb" points="1625.07,-1844.65 1631.35,-1840.7 1623.98,-1839.87 1625.07,-1844.65"/>
</g>
<!-- app.market.features&#45;&gt;app.utils.math -->
<g id="edge25" class="edge">
<title>app.market.features&#45;&gt;app.utils.math</title>
<path fill="none" stroke="#2563eb" d="M1519.83,-1887.02C1553.74,-1944.57 1657.83,-2121.24 1696.15,-2186.28"/>
<polygon fill="#2563eb" stroke="#2563eb" points="1694.19,-2187.78 1699.86,-2192.57 1698.41,-2185.3 1694.19,-2187.78"/>
</g>
<!-- app.market.features&#45;&gt;app.utils.time -->
<g id="edge26" class="edge">
<title>app.market.features&#45;&gt;app.utils.time</title>
<path fill="none" stroke="#2563eb" d="M1579.1,-1886.67C1644.44,-1898.86 1740.1,-1904.15 1797,-1849.64 1857,-1792.15 1882.34,-1174.52 1887.14,-1040.99"/>
<polygon fill="#2563eb" stroke="#2563eb" points="1889.59,-1041.03 1887.39,-1033.95 1884.69,-1040.86 1889.59,-1041.03"/>
</g>
<!-- app.market.funding_tracker -->
<g id="node15" class="node">
<title>app.market.funding_tracker</title>
<path fill="#f8fafc" stroke="#94a3b8" d="M218,-1913.64C218,-1913.64 32,-1913.64 32,-1913.64 26,-1913.64 20,-1907.64 20,-1901.64 20,-1901.64 20,-1889.64 20,-1889.64 20,-1883.64 26,-1877.64 32,-1877.64 32,-1877.64 218,-1877.64 218,-1877.64 224,-1877.64 230,-1883.64 230,-1889.64 230,-1889.64 230,-1901.64 230,-1901.64 230,-1907.64 224,-1913.64 218,-1913.64"/>
<text text-anchor="middle" x="125" y="-1891.94" font-family="Inter" font-size="14.00">app.market.funding_tracker</text>
</g>
<!-- app.market.liquidation_tracker -->
<g id="node16" class="node">
<title>app.market.liquidation_tracker</title>
<path fill="#f8fafc" stroke="#94a3b8" d="M227.5,-1967.64C227.5,-1967.64 22.5,-1967.64 22.5,-1967.64 16.5,-1967.64 10.5,-1961.64 10.5,-1955.64 10.5,-1955.64 10.5,-1943.64 10.5,-1943.64 10.5,-1937.64 16.5,-1931.64 22.5,-1931.64 22.5,-1931.64 227.5,-1931.64 227.5,-1931.64 233.5,-1931.64 239.5,-1937.64 239.5,-1943.64 239.5,-1943.64 239.5,-1955.64 239.5,-1955.64 239.5,-1961.64 233.5,-1967.64 227.5,-1967.64"/>
<text text-anchor="middle" x="125" y="-1945.94" font-family="Inter" font-size="14.00">app.market.liquidation_tracker</text>
</g>
<!-- app.market.oi_tracker&#45;&gt;app.exchanges.bybit_client -->
<g id="edge27" class="edge">
<title>app.market.oi_tracker&#45;&gt;app.exchanges.bybit_client</title>
<path fill="none" stroke="#2563eb" d="M901.29,-2147.55C918.19,-2150.17 936.2,-2152.97 953.84,-2155.7"/>
<polygon fill="#2563eb" stroke="#2563eb" points="953.55,-2158.14 960.84,-2156.79 954.3,-2153.3 953.55,-2158.14"/>
</g>
<!-- app.market.oi_tracker&#45;&gt;app.logger -->
<g id="edge28" class="edge">
<title>app.market.oi_tracker&#45;&gt;app.logger</title>
<path fill="none" stroke="#2563eb" d="M832.31,-2116.44C881.9,-2052.99 1049.74,-1834.79 1167,-1640.64 1215.54,-1560.26 1263.25,-1459.39 1284.29,-1413.46"/>
<polygon fill="#2563eb" stroke="#2563eb" points="1286.64,-1414.22 1287.32,-1406.83 1282.18,-1412.18 1286.64,-1414.22"/>
</g>
<!-- app.market.oi_tracker&#45;&gt;app.market.features -->
<g id="edge29" class="edge">
<title>app.market.oi_tracker&#45;&gt;app.market.features</title>
<path fill="none" stroke="#2563eb" d="M901.25,-2116.65C1015.55,-2090.03 1225.6,-2034.12 1390,-1950.64 1422.83,-1933.97 1456.92,-1909.06 1479.77,-1891.08"/>
<polygon fill="#2563eb" stroke="#2563eb" points="1481.37,-1892.93 1485.33,-1886.66 1478.33,-1889.09 1481.37,-1892.93"/>
</g>
<!-- app.market.oi_tracker&#45;&gt;app.utils.time -->
<g id="edge30" class="edge">
<title>app.market.oi_tracker&#45;&gt;app.utils.time</title>
<path fill="none" stroke="#2563eb" d="M849.59,-2152.76C984.52,-2227.54 1518.31,-2496.34 1797,-2237.64 1887.84,-2153.31 1888.7,-1209.79 1888.13,-1041.3"/>
<polygon fill="#2563eb" stroke="#2563eb" points="1890.58,-1040.86 1888.1,-1033.87 1885.68,-1040.88 1890.58,-1040.86"/>
</g>
<!-- app.market.symbol_selector&#45;&gt;app.config -->
<g id="edge31" class="edge">
<title>app.market.symbol_selector&#45;&gt;app.config</title>
<path fill="none" stroke="#2563eb" d="M887.51,-1808.63C1036.4,-1769.75 1374,-1679.83 1390,-1659.64 1436.37,-1601.12 1414.11,-1062.35 1426,-988.64 1442.62,-885.58 1481.03,-766.9 1498.3,-716.42"/>
<polygon fill="#2563eb" stroke="#2563eb" points="1500.64,-717.17 1500.6,-709.76 1496,-715.58 1500.64,-717.17"/>
</g>
<!-- app.market.symbol_selector&#45;&gt;app.data.database -->
<g id="edge32" class="edge">
<title>app.market.symbol_selector&#45;&gt;app.data.database</title>
<path fill="none" stroke="#2563eb" d="M830.87,-1808.54C854.56,-1774.1 904.5,-1695.94 925,-1621.64 999.13,-1352.99 918.94,-1271.12 961,-995.64 983.5,-848.29 1035.19,-676.48 1055.04,-613.44"/>
<polygon fill="#2563eb" stroke="#2563eb" points="1057.41,-614.05 1057.19,-606.64 1052.74,-612.58 1057.41,-614.05"/>
</g>
<!-- app.market.symbol_selector&#45;&gt;app.data.repositories -->
<g id="edge33" class="edge">
<title>app.market.symbol_selector&#45;&gt;app.data.repositories</title>
<path fill="none" stroke="#2563eb" d="M923.22,-1824.33C1071.43,-1818.63 1330.3,-1798.9 1390,-1730.64 1482.87,-1624.43 1502.82,-1155.34 1506.33,-1040.89"/>
<polygon fill="#2563eb" stroke="#2563eb" points="1508.78,-1040.94 1506.54,-1033.87 1503.89,-1040.79 1508.78,-1040.94"/>
</g>
<!-- app.market.symbol_selector&#45;&gt;app.exchanges.base -->
<g id="edge34" class="edge">
<title>app.market.symbol_selector&#45;&gt;app.exchanges.base</title>
<path fill="none" stroke="#2563eb" d="M904.39,-1844.64C1075.15,-1880.23 1454.07,-1959.19 1624.51,-1994.71"/>
<polygon fill="#2563eb" stroke="#2563eb" points="1624.12,-1997.14 1631.48,-1996.17 1625.12,-1992.34 1624.12,-1997.14"/>
</g>
<!-- app.market.symbol_selector&#45;&gt;app.exchanges.bybit_client -->
<g id="edge35" class="edge">
<title>app.market.symbol_selector&#45;&gt;app.exchanges.bybit_client</title>
<path fill="none" stroke="#2563eb" d="M830.83,-1844.75C871.75,-1902.54 999.21,-2082.54 1045.76,-2148.28"/>
<polygon fill="#2563eb" stroke="#2563eb" points="1043.96,-2149.98 1050,-2154.28 1047.96,-2147.15 1043.96,-2149.98"/>
</g>
<!-- app.market.symbol_selector&#45;&gt;app.logger -->
<g id="edge36" class="edge">
<title>app.market.symbol_selector&#45;&gt;app.logger</title>
<path fill="none" stroke="#2563eb" d="M842.89,-1808.33C901.83,-1764.5 1053.52,-1648.87 1167,-1537.64 1209.08,-1496.39 1252.8,-1443.08 1276.84,-1412.69"/>
<polygon fill="#2563eb" stroke="#2563eb" points="1278.97,-1413.94 1281.38,-1406.92 1275.12,-1410.91 1278.97,-1413.94"/>
</g>
<!-- app.market.symbol_selector&#45;&gt;app.market.orderbook -->
<g id="edge37" class="edge">
<title>app.market.symbol_selector&#45;&gt;app.market.orderbook</title>
<path fill="none" stroke="#2563eb" d="M923.04,-1827.45C935.83,-1827.53 948.71,-1827.59 961,-1827.64 1052.55,-1827.96 1075.45,-1828.06 1167,-1827.64 1325.81,-1826.9 1510.72,-1824.97 1618.77,-1823.74"/>
<polygon fill="#2563eb" stroke="#2563eb" points="1618.8,-1826.19 1625.77,-1823.66 1618.75,-1821.29 1618.8,-1826.19"/>
</g>
<!-- app.paper.__init__ -->
<g id="node20" class="node">
<title>app.paper.__init__</title>
<path fill="#f8fafc" stroke="#94a3b8" d="M183,-2021.64C183,-2021.64 67,-2021.64 67,-2021.64 61,-2021.64 55,-2015.64 55,-2009.64 55,-2009.64 55,-1997.64 55,-1997.64 55,-1991.64 61,-1985.64 67,-1985.64 67,-1985.64 183,-1985.64 183,-1985.64 189,-1985.64 195,-1991.64 195,-1997.64 195,-1997.64 195,-2009.64 195,-2009.64 195,-2015.64 189,-2021.64 183,-2021.64"/>
<text text-anchor="middle" x="125" y="-1999.94" font-family="Inter" font-size="14.00">app.paper.__init__</text>
</g>
<!-- app.paper.account -->
<g id="node21" class="node">
<title>app.paper.account</title>
<path fill="#f8fafc" stroke="#94a3b8" d="M1357.5,-324.64C1357.5,-324.64 1235.5,-324.64 1235.5,-324.64 1229.5,-324.64 1223.5,-318.64 1223.5,-312.64 1223.5,-312.64 1223.5,-300.64 1223.5,-300.64 1223.5,-294.64 1229.5,-288.64 1235.5,-288.64 1235.5,-288.64 1357.5,-288.64 1357.5,-288.64 1363.5,-288.64 1369.5,-294.64 1369.5,-300.64 1369.5,-300.64 1369.5,-312.64 1369.5,-312.64 1369.5,-318.64 1363.5,-324.64 1357.5,-324.64"/>
<text text-anchor="middle" x="1296.5" y="-302.94" font-family="Inter" font-size="14.00">app.paper.account</text>
</g>
<!-- app.paper.account&#45;&gt;app.config -->
<g id="edge38" class="edge">
<title>app.paper.account&#45;&gt;app.config</title>
<path fill="none" stroke="#2563eb" d="M1329.97,-324.7C1349.68,-337.09 1374.02,-355.14 1390,-376.64 1459.62,-470.28 1491.87,-609.89 1502.65,-666.47"/>
<polygon fill="#2563eb" stroke="#2563eb" points="1500.28,-667.14 1503.97,-673.58 1505.1,-666.25 1500.28,-667.14"/>
</g>
<!-- app.paper.account&#45;&gt;app.data.models -->
<g id="edge39" class="edge">
<title>app.paper.account&#45;&gt;app.data.models</title>
<path fill="none" stroke="#2563eb" d="M1369.77,-317.78C1451.21,-330.99 1574.38,-353.15 1590,-368.64 1665.51,-443.46 1700.18,-790.74 1708.48,-887.53"/>
<polygon fill="#2563eb" stroke="#2563eb" points="1706.04,-887.81 1709.08,-894.58 1710.93,-887.4 1706.04,-887.81"/>
</g>
<!-- app.paper.account&#45;&gt;app.utils.time -->
<g id="edge40" class="edge">
<title>app.paper.account&#45;&gt;app.utils.time</title>
<path fill="none" stroke="#2563eb" d="M1369.52,-298.05C1430.57,-293.71 1519.22,-294.46 1590,-323.64 1703.53,-370.43 1736.85,-399.58 1797,-506.64 1844.85,-591.8 1877.11,-900.02 1885.7,-990.5"/>
<polygon fill="#2563eb" stroke="#2563eb" points="1883.28,-990.87 1886.37,-997.61 1888.16,-990.41 1883.28,-990.87"/>
</g>
<!-- app.paper.executor -->
<g id="node22" class="node">
<title>app.paper.executor</title>
<path fill="#f8fafc" stroke="#94a3b8" d="M1127.5,-384.64C1127.5,-384.64 1000.5,-384.64 1000.5,-384.64 994.5,-384.64 988.5,-378.64 988.5,-372.64 988.5,-372.64 988.5,-360.64 988.5,-360.64 988.5,-354.64 994.5,-348.64 1000.5,-348.64 1000.5,-348.64 1127.5,-348.64 1127.5,-348.64 1133.5,-348.64 1139.5,-354.64 1139.5,-360.64 1139.5,-360.64 1139.5,-372.64 1139.5,-372.64 1139.5,-378.64 1133.5,-384.64 1127.5,-384.64"/>
<text text-anchor="middle" x="1064" y="-362.94" font-family="Inter" font-size="14.00">app.paper.executor</text>
</g>
<!-- app.paper.executor&#45;&gt;app.config -->
<g id="edge41" class="edge">
<title>app.paper.executor&#45;&gt;app.config</title>
<path fill="none" stroke="#2563eb" d="M1128.4,-384.7C1151.79,-391.21 1178.54,-398.46 1203,-404.64 1285.68,-425.52 1323.41,-394.35 1390,-447.64 1461.67,-504.99 1492.1,-616.93 1502.48,-666.72"/>
<polygon fill="#2563eb" stroke="#2563eb" points="1500.09,-667.23 1503.87,-673.61 1504.89,-666.26 1500.09,-667.23"/>
</g>
<!-- app.paper.executor&#45;&gt;app.data.models -->
<g id="edge42" class="edge">
<title>app.paper.executor&#45;&gt;app.data.models</title>
<path fill="none" stroke="#2563eb" d="M1139.58,-361.09C1207.88,-359.04 1310.19,-363.71 1390,-400.64 1501.55,-452.24 1522.25,-489.08 1590,-591.64 1655.47,-690.74 1692.09,-830.38 1705.05,-887.14"/>
<polygon fill="#2563eb" stroke="#2563eb" points="1702.73,-887.99 1706.66,-894.28 1707.51,-886.91 1702.73,-887.99"/>
</g>
<!-- app.paper.executor&#45;&gt;app.logger -->
<g id="edge43" class="edge">
<title>app.paper.executor&#45;&gt;app.logger</title>
<path fill="none" stroke="#2563eb" d="M1111.88,-384.68C1132.45,-395.14 1154.68,-410.5 1167,-431.64 1205.56,-497.76 1188.41,-1044.49 1203,-1119.64 1221.07,-1212.74 1264.09,-1317.55 1284.45,-1364.1"/>
<polygon fill="#2563eb" stroke="#2563eb" points="1282.22,-1365.11 1287.29,-1370.53 1286.71,-1363.14 1282.22,-1365.11"/>
</g>
<!-- app.paper.executor&#45;&gt;app.paper.account -->
<g id="edge44" class="edge">
<title>app.paper.executor&#45;&gt;app.paper.account</title>
<path fill="none" stroke="#2563eb" d="M1134.16,-348.63C1160.93,-341.66 1191.68,-333.66 1219.1,-326.52"/>
<polygon fill="#2563eb" stroke="#2563eb" points="1219.84,-328.86 1225.99,-324.73 1218.6,-324.12 1219.84,-328.86"/>
</g>
<!-- app.paper.risk -->
<g id="node24" class="node">
<title>app.paper.risk</title>
<path fill="#f8fafc" stroke="#94a3b8" d="M1342.5,-492.64C1342.5,-492.64 1250.5,-492.64 1250.5,-492.64 1244.5,-492.64 1238.5,-486.64 1238.5,-480.64 1238.5,-480.64 1238.5,-468.64 1238.5,-468.64 1238.5,-462.64 1244.5,-456.64 1250.5,-456.64 1250.5,-456.64 1342.5,-456.64 1342.5,-456.64 1348.5,-456.64 1354.5,-462.64 1354.5,-468.64 1354.5,-468.64 1354.5,-480.64 1354.5,-480.64 1354.5,-486.64 1348.5,-492.64 1342.5,-492.64"/>
<text text-anchor="middle" x="1296.5" y="-470.94" font-family="Inter" font-size="14.00">app.paper.risk</text>
</g>
<!-- app.paper.executor&#45;&gt;app.paper.risk -->
<g id="edge45" class="edge">
<title>app.paper.executor&#45;&gt;app.paper.risk</title>
<path fill="none" stroke="#2563eb" d="M1139.53,-384.37C1149.19,-388.27 1158.62,-392.97 1167,-398.64 1187.93,-412.79 1182.28,-428.18 1203,-442.64 1211.69,-448.7 1221.63,-453.7 1231.7,-457.81"/>
<polygon fill="#2563eb" stroke="#2563eb" points="1230.91,-460.13 1238.33,-460.38 1232.69,-455.56 1230.91,-460.13"/>
</g>
<!-- app.paper.executor&#45;&gt;app.utils.time -->
<g id="edge46" class="edge">
<title>app.paper.executor&#45;&gt;app.utils.time</title>
<path fill="none" stroke="#2563eb" d="M1085.6,-348.3C1111.07,-326.98 1156.74,-293 1203,-279.64 1457.83,-206.01 1617.15,-142.66 1797,-337.64 1887.03,-435.24 1889.21,-879.63 1888.32,-990.51"/>
<polygon fill="#2563eb" stroke="#2563eb" points="1885.87,-990.6 1888.26,-997.62 1890.77,-990.64 1885.87,-990.6"/>
</g>
<!-- app.paper.manager&#45;&gt;app.config -->
<g id="edge47" class="edge">
<title>app.paper.manager&#45;&gt;app.config</title>
<path fill="none" stroke="#2563eb" d="M874.4,-438.73C891.07,-444.87 909.1,-452.31 925,-460.64 942.26,-469.67 942.93,-478.36 961,-485.64 1047.01,-520.28 1089.6,-467.58 1167,-518.64 1192.01,-535.13 1179.82,-556.66 1203,-575.64 1278.7,-637.61 1391.11,-668.82 1455.91,-682.53"/>
<polygon fill="#2563eb" stroke="#2563eb" points="1455.45,-684.93 1462.8,-683.96 1456.45,-680.14 1455.45,-684.93"/>
</g>
<!-- app.paper.manager&#45;&gt;app.data.database -->
<g id="edge48" class="edge">
<title>app.paper.manager&#45;&gt;app.data.database</title>
<path fill="none" stroke="#2563eb" d="M892.03,-438.74C904.14,-444.24 915.74,-451.38 925,-460.64 957.24,-492.84 927.91,-525.31 961,-556.64 967.77,-563.04 975.8,-568.16 984.35,-572.26"/>
<polygon fill="#2563eb" stroke="#2563eb" points="983.58,-574.6 990.97,-575.2 985.57,-570.12 983.58,-574.6"/>
</g>
<!-- app.paper.manager&#45;&gt;app.data.models -->
<g id="edge49" class="edge">
<title>app.paper.manager&#45;&gt;app.data.models</title>
<path fill="none" stroke="#2563eb" d="M833.42,-402.55C857.54,-375.67 907.05,-325.95 961,-303.64 1219.45,-196.71 1393.69,-124.41 1590,-323.64 1671.03,-405.87 1702,-785.79 1708.92,-887.52"/>
<polygon fill="#2563eb" stroke="#2563eb" points="1706.48,-887.8 1709.39,-894.63 1711.37,-887.48 1706.48,-887.8"/>
</g>
<!-- app.paper.manager&#45;&gt;app.logger -->
<g id="edge50" class="edge">
<title>app.paper.manager&#45;&gt;app.logger</title>
<path fill="none" stroke="#2563eb" d="M886.69,-438.66C900.29,-444.26 913.8,-451.46 925,-460.64 948.47,-479.87 936.14,-501.24 961,-518.64 1037.63,-572.26 1105.7,-490.99 1167,-561.64 1207.72,-608.56 1190.79,-1058.72 1203,-1119.64 1221.64,-1212.63 1264.37,-1317.49 1284.56,-1364.08"/>
<polygon fill="#2563eb" stroke="#2563eb" points="1282.32,-1365.08 1287.37,-1370.52 1286.81,-1363.12 1282.32,-1365.08"/>
</g>
<!-- app.paper.manager&#45;&gt;app.paper.account -->
<g id="edge51" class="edge">
<title>app.paper.manager&#45;&gt;app.paper.account</title>
<path fill="none" stroke="#2563eb" d="M842.35,-402.6C869.69,-383.39 916.12,-353.86 961,-339.64 1045.27,-312.93 1146.93,-306.28 1215.89,-305.29"/>
<polygon fill="#2563eb" stroke="#2563eb" points="1216.33,-307.74 1223.3,-305.21 1216.27,-302.84 1216.33,-307.74"/>
</g>
<!-- app.paper.manager&#45;&gt;app.paper.executor -->
<g id="edge52" class="edge">
<title>app.paper.manager&#45;&gt;app.paper.executor</title>
<path fill="none" stroke="#2563eb" d="M893.51,-403.99C921.24,-397.88 952.77,-390.93 981.05,-384.7"/>
<polygon fill="#2563eb" stroke="#2563eb" points="981.85,-387.03 988.16,-383.13 980.8,-382.24 981.85,-387.03"/>
</g>
<!-- app.paper.manager&#45;&gt;app.paper.risk -->
<g id="edge53" class="edge">
<title>app.paper.manager&#45;&gt;app.paper.risk</title>
<path fill="none" stroke="#2563eb" d="M893.54,-416.73C964.68,-414.53 1073.91,-414.96 1167,-431.64 1174.43,-432.97 1206.68,-443.76 1237.02,-454.2"/>
<polygon fill="#2563eb" stroke="#2563eb" points="1236.44,-456.59 1243.86,-456.56 1238.04,-451.96 1236.44,-456.59"/>
</g>
<!-- app.paper.manager&#45;&gt;app.utils.time -->
<g id="edge54" class="edge">
<title>app.paper.manager&#45;&gt;app.utils.time</title>
<path fill="none" stroke="#2563eb" d="M825.06,-402.52C841.8,-362.25 888.04,-265.41 961,-221.64 1281.42,-29.41 1519.57,117.67 1797,-132.64 1862.48,-191.72 1883.62,-851.22 1887.36,-990.07"/>
<polygon fill="#2563eb" stroke="#2563eb" points="1884.92,-990.45 1887.55,-997.38 1889.82,-990.32 1884.92,-990.45"/>
</g>
<!-- app.paper.risk&#45;&gt;app.config -->
<g id="edge55" class="edge">
<title>app.paper.risk&#45;&gt;app.config</title>
<path fill="none" stroke="#2563eb" d="M1325.25,-492.88C1344.42,-506.13 1369.97,-525.08 1390,-544.64 1430.27,-583.93 1469.39,-637.01 1490.63,-667.46"/>
<polygon fill="#2563eb" stroke="#2563eb" points="1488.63,-668.88 1494.63,-673.24 1492.66,-666.09 1488.63,-668.88"/>
</g>
<!-- app.paper.statistics -->
<g id="node25" class="node">
<title>app.paper.statistics</title>
<path fill="#f8fafc" stroke="#94a3b8" d="M1360.5,-850.64C1360.5,-850.64 1232.5,-850.64 1232.5,-850.64 1226.5,-850.64 1220.5,-844.64 1220.5,-838.64 1220.5,-838.64 1220.5,-826.64 1220.5,-826.64 1220.5,-820.64 1226.5,-814.64 1232.5,-814.64 1232.5,-814.64 1360.5,-814.64 1360.5,-814.64 1366.5,-814.64 1372.5,-820.64 1372.5,-826.64 1372.5,-826.64 1372.5,-838.64 1372.5,-838.64 1372.5,-844.64 1366.5,-850.64 1360.5,-850.64"/>
<text text-anchor="middle" x="1296.5" y="-828.94" font-family="Inter" font-size="14.00">app.paper.statistics</text>
</g>
<!-- app.paper.statistics&#45;&gt;app.data.models -->
<g id="edge56" class="edge">
<title>app.paper.statistics&#45;&gt;app.data.models</title>
<path fill="none" stroke="#2563eb" d="M1372.77,-847.22C1448.16,-861.82 1563.41,-884.14 1637.86,-898.56"/>
<polygon fill="#2563eb" stroke="#2563eb" points="1637.59,-901.01 1644.93,-899.93 1638.53,-896.2 1637.59,-901.01"/>
</g>
<!-- app.paper.statistics&#45;&gt;app.data.repositories -->
<g id="edge57" class="edge">
<title>app.paper.statistics&#45;&gt;app.data.repositories</title>
<path fill="none" stroke="#2563eb" d="M1364.98,-850.76C1373.81,-854.6 1382.41,-859.19 1390,-864.64 1396.4,-869.23 1457.84,-950.31 1489.03,-991.71"/>
<polygon fill="#2563eb" stroke="#2563eb" points="1487.23,-993.4 1493.4,-997.52 1491.15,-990.45 1487.23,-993.4"/>
</g>
<!-- app.signals.__init__ -->
<g id="node26" class="node">
<title>app.signals.__init__</title>
<path fill="#f8fafc" stroke="#94a3b8" d="M187.5,-2075.64C187.5,-2075.64 62.5,-2075.64 62.5,-2075.64 56.5,-2075.64 50.5,-2069.64 50.5,-2063.64 50.5,-2063.64 50.5,-2051.64 50.5,-2051.64 50.5,-2045.64 56.5,-2039.64 62.5,-2039.64 62.5,-2039.64 187.5,-2039.64 187.5,-2039.64 193.5,-2039.64 199.5,-2045.64 199.5,-2051.64 199.5,-2051.64 199.5,-2063.64 199.5,-2063.64 199.5,-2069.64 193.5,-2075.64 187.5,-2075.64"/>
<text text-anchor="middle" x="125" y="-2053.94" font-family="Inter" font-size="14.00">app.signals.__init__</text>
</g>
<!-- app.signals.outcome_tracker&#45;&gt;app.config -->
<g id="edge58" class="edge">
<title>app.signals.outcome_tracker&#45;&gt;app.config</title>
<path fill="none" stroke="#2563eb" d="M925.28,-675.59C1075.73,-679.74 1343.51,-687.13 1455.52,-690.22"/>
<polygon fill="#2563eb" stroke="#2563eb" points="1455.6,-692.67 1462.67,-690.41 1455.74,-687.77 1455.6,-692.67"/>
</g>
<!-- app.signals.outcome_tracker&#45;&gt;app.data.database -->
<g id="edge59" class="edge">
<title>app.signals.outcome_tracker&#45;&gt;app.data.database</title>
<path fill="none" stroke="#2563eb" d="M886.42,-654.58C899.41,-650.48 912.76,-645.79 925,-640.64 941.87,-633.53 944.18,-627.86 961,-620.64 970.79,-616.43 981.32,-612.5 991.77,-608.94"/>
<polygon fill="#2563eb" stroke="#2563eb" points="992.75,-611.19 998.61,-606.65 991.2,-606.55 992.75,-611.19"/>
</g>
<!-- app.signals.outcome_tracker&#45;&gt;app.data.repositories -->
<g id="edge60" class="edge">
<title>app.signals.outcome_tracker&#45;&gt;app.data.repositories</title>
<path fill="none" stroke="#2563eb" d="M854.56,-690.83C971.81,-749.21 1338.12,-931.56 1464.01,-994.23"/>
<polygon fill="#2563eb" stroke="#2563eb" points="1463.17,-996.55 1470.53,-997.48 1465.36,-992.17 1463.17,-996.55"/>
</g>
<!-- app.signals.outcome_tracker&#45;&gt;app.logger -->
<g id="edge61" class="edge">
<title>app.signals.outcome_tracker&#45;&gt;app.logger</title>
<path fill="none" stroke="#2563eb" d="M826.1,-690.95C845.6,-735.69 895.74,-854.41 925,-957.64 947.72,-1037.81 916.46,-1071.21 961,-1141.64 1031.89,-1253.71 1173.29,-1332.13 1247.5,-1367.48"/>
<polygon fill="#2563eb" stroke="#2563eb" points="1246.65,-1369.79 1254.03,-1370.56 1248.75,-1365.36 1246.65,-1369.79"/>
</g>
<!-- app.signals.outcome_tracker&#45;&gt;app.market.features -->
<g id="edge62" class="edge">
<title>app.signals.outcome_tracker&#45;&gt;app.market.features</title>
<path fill="none" stroke="#2563eb" d="M833.62,-690.99C858.39,-719.25 909.21,-773.91 961,-809.64 1059.03,-877.25 1095.24,-873.96 1203,-924.64 1285.95,-963.64 1335.59,-937.87 1390,-1011.64 1491.16,-1148.78 1504.91,-1716.44 1506.73,-1843.38"/>
<polygon fill="#2563eb" stroke="#2563eb" points="1504.28,-1843.47 1506.83,-1850.43 1509.18,-1843.4 1504.28,-1843.47"/>
</g>
<!-- app.signals.outcome_tracker&#45;&gt;app.utils.time -->
<g id="edge63" class="edge">
<title>app.signals.outcome_tracker&#45;&gt;app.utils.time</title>
<path fill="none" stroke="#2563eb" d="M925.08,-660.93C1108.38,-642.63 1473.79,-614.26 1590,-664.64 1743.16,-731.03 1844.74,-922.67 1876.98,-991.04"/>
<polygon fill="#2563eb" stroke="#2563eb" points="1874.87,-992.33 1880.05,-997.63 1879.31,-990.26 1874.87,-992.33"/>
</g>
<!-- app.signals.patterns -->
<g id="node28" class="node">
<title>app.signals.patterns</title>
<path fill="#f8fafc" stroke="#94a3b8" d="M1363.5,-1650.64C1363.5,-1650.64 1229.5,-1650.64 1229.5,-1650.64 1223.5,-1650.64 1217.5,-1644.64 1217.5,-1638.64 1217.5,-1638.64 1217.5,-1626.64 1217.5,-1626.64 1217.5,-1620.64 1223.5,-1614.64 1229.5,-1614.64 1229.5,-1614.64 1363.5,-1614.64 1363.5,-1614.64 1369.5,-1614.64 1375.5,-1620.64 1375.5,-1626.64 1375.5,-1626.64 1375.5,-1638.64 1375.5,-1638.64 1375.5,-1644.64 1369.5,-1650.64 1363.5,-1650.64"/>
<text text-anchor="middle" x="1296.5" y="-1628.94" font-family="Inter" font-size="14.00">app.signals.patterns</text>
</g>
<!-- app.signals.patterns&#45;&gt;app.config -->
<g id="edge64" class="edge">
<title>app.signals.patterns&#45;&gt;app.config</title>
<path fill="none" stroke="#2563eb" d="M1374.74,-1614.59C1380.56,-1610.78 1385.79,-1606.19 1390,-1600.64 1431.13,-1546.34 1414.98,-1055.86 1426,-988.64 1442.89,-885.62 1481.16,-766.92 1498.35,-716.43"/>
<polygon fill="#2563eb" stroke="#2563eb" points="1500.68,-717.18 1500.63,-709.76 1496.05,-715.59 1500.68,-717.18"/>
</g>
<!-- app.signals.patterns&#45;&gt;app.market.features -->
<g id="edge65" class="edge">
<title>app.signals.patterns&#45;&gt;app.market.features</title>
<path fill="none" stroke="#2563eb" d="M1313.59,-1650.76C1351.06,-1692.98 1444.14,-1797.83 1486.01,-1844.99"/>
<polygon fill="#2563eb" stroke="#2563eb" points="1484.37,-1846.84 1490.85,-1850.45 1488.04,-1843.59 1484.37,-1846.84"/>
</g>
<!-- app.signals.scoring -->
<g id="node29" class="node">
<title>app.signals.scoring</title>
<path fill="#f8fafc" stroke="#94a3b8" d="M1128,-1528.64C1128,-1528.64 1000,-1528.64 1000,-1528.64 994,-1528.64 988,-1522.64 988,-1516.64 988,-1516.64 988,-1504.64 988,-1504.64 988,-1498.64 994,-1492.64 1000,-1492.64 1000,-1492.64 1128,-1492.64 1128,-1492.64 1134,-1492.64 1140,-1498.64 1140,-1504.64 1140,-1504.64 1140,-1516.64 1140,-1516.64 1140,-1522.64 1134,-1528.64 1128,-1528.64"/>
<text text-anchor="middle" x="1064" y="-1506.94" font-family="Inter" font-size="14.00">app.signals.scoring</text>
</g>
<!-- app.signals.scoring&#45;&gt;app.config -->
<g id="edge66" class="edge">
<title>app.signals.scoring&#45;&gt;app.config</title>
<path fill="none" stroke="#2563eb" d="M1140.25,-1511.42C1215.94,-1507.77 1329.82,-1489.25 1390,-1415.64 1450.27,-1341.91 1409.4,-1082.4 1426,-988.64 1444.19,-885.85 1481.77,-767.02 1498.57,-716.46"/>
<polygon fill="#2563eb" stroke="#2563eb" points="1500.9,-717.21 1500.8,-709.79 1496.26,-715.66 1500.9,-717.21"/>
</g>
<!-- app.signals.scoring&#45;&gt;app.signals.patterns -->
<g id="edge67" class="edge">
<title>app.signals.scoring&#45;&gt;app.signals.patterns</title>
<path fill="none" stroke="#2563eb" d="M1099.01,-1528.64C1140.55,-1550.62 1210.73,-1587.77 1255.01,-1611.2"/>
<polygon fill="#2563eb" stroke="#2563eb" points="1254.02,-1613.45 1261.35,-1614.56 1256.31,-1609.12 1254.02,-1613.45"/>
</g>
<!-- app.signals.signal_engine&#45;&gt;app.config -->
<g id="edge68" class="edge">
<title>app.signals.signal_engine&#45;&gt;app.config</title>
<path fill="none" stroke="#2563eb" d="M388.41,-1385.38C405.14,-1301.75 486.76,-953.4 709,-814.64 835.04,-735.94 1299.63,-703.23 1455.57,-694.31"/>
<polygon fill="#2563eb" stroke="#2563eb" points="1455.91,-696.75 1462.76,-693.9 1455.64,-691.85 1455.91,-696.75"/>
</g>
<!-- app.signals.signal_engine&#45;&gt;app.data.database -->
<g id="edge69" class="edge">
<title>app.signals.signal_engine&#45;&gt;app.data.database</title>
<path fill="none" stroke="#2563eb" d="M386.99,-1385.32C399.17,-1274.96 464.7,-701.54 518,-645.64 580.11,-580.48 848.21,-580.51 983.81,-584.95"/>
<polygon fill="#2563eb" stroke="#2563eb" points="983.88,-587.4 990.96,-585.19 984.05,-582.51 983.88,-587.4"/>
</g>
<!-- app.signals.signal_engine&#45;&gt;app.data.repositories -->
<g id="edge70" class="edge">
<title>app.signals.signal_engine&#45;&gt;app.data.repositories</title>
<path fill="none" stroke="#2563eb" d="M394.44,-1421.72C413.43,-1456.46 459.46,-1533.07 518,-1577.64 590.83,-1633.08 619.75,-1634.37 709,-1654.64 856.58,-1688.15 1276.24,-1759.45 1390,-1659.64 1485.2,-1576.11 1503.32,-1149.8 1506.41,-1040.96"/>
<polygon fill="#2563eb" stroke="#2563eb" points="1508.87,-1040.74 1506.61,-1033.68 1503.97,-1040.61 1508.87,-1040.74"/>
</g>
<!-- app.signals.signal_engine&#45;&gt;app.exchanges.base -->
<g id="edge71" class="edge">
<title>app.signals.signal_engine&#45;&gt;app.exchanges.base</title>
<path fill="none" stroke="#2563eb" d="M387.56,-1421.94C396.32,-1478.96 429.61,-1656.38 518,-1769.64 581.02,-1850.39 613.64,-1861.23 709,-1898.64 1028.52,-2023.96 1446.29,-2024.17 1624.22,-2017.41"/>
<polygon fill="#2563eb" stroke="#2563eb" points="1624.32,-2019.86 1631.22,-2017.13 1624.13,-2014.96 1624.32,-2019.86"/>
</g>
<!-- app.signals.signal_engine&#45;&gt;app.logger -->
<g id="edge72" class="edge">
<title>app.signals.signal_engine&#45;&gt;app.logger</title>
<path fill="none" stroke="#2563eb" d="M482.01,-1402.04C673.74,-1398.88 1095.42,-1391.93 1243.14,-1389.5"/>
<polygon fill="#2563eb" stroke="#2563eb" points="1243.42,-1391.94 1250.38,-1389.38 1243.34,-1387.04 1243.42,-1391.94"/>
</g>
<!-- app.signals.signal_engine&#45;&gt;app.market.features -->
<g id="edge73" class="edge">
<title>app.signals.signal_engine&#45;&gt;app.market.features</title>
<path fill="none" stroke="#2563eb" d="M390.96,-1421.82C415.74,-1493.92 518.31,-1760.37 709,-1853.64 948.09,-1970.57 1277.63,-1920.48 1427.3,-1888.17"/>
<polygon fill="#2563eb" stroke="#2563eb" points="1427.97,-1890.53 1434.29,-1886.65 1426.93,-1885.74 1427.97,-1890.53"/>
</g>
<!-- app.signals.signal_engine&#45;&gt;app.paper.manager -->
<g id="edge74" class="edge">
<title>app.signals.signal_engine&#45;&gt;app.paper.manager</title>
<path fill="none" stroke="#2563eb" d="M387.43,-1385.6C403.35,-1267.55 493.11,-609.03 518,-574.64 569.82,-503.03 664.96,-462.19 733.82,-440.82"/>
<polygon fill="#2563eb" stroke="#2563eb" points="734.84,-443.07 740.82,-438.68 733.41,-438.38 734.84,-443.07"/>
</g>
<!-- app.signals.signal_engine&#45;&gt;app.signals.patterns -->
<g id="edge75" class="edge">
<title>app.signals.signal_engine&#45;&gt;app.signals.patterns</title>
<path fill="none" stroke="#2563eb" d="M403.39,-1421.68C449.82,-1465.85 577.46,-1578.92 709,-1621.64 879.78,-1677.09 1093.51,-1661.38 1210.03,-1646.22"/>
<polygon fill="#2563eb" stroke="#2563eb" points="1210.6,-1648.62 1217.22,-1645.27 1209.96,-1643.76 1210.6,-1648.62"/>
</g>
<!-- app.signals.signal_engine&#45;&gt;app.signals.scoring -->
<g id="edge76" class="edge">
<title>app.signals.signal_engine&#45;&gt;app.signals.scoring</title>
<path fill="none" stroke="#2563eb" d="M482.14,-1418.97C616,-1440.09 854.85,-1477.79 980.51,-1497.62"/>
<polygon fill="#2563eb" stroke="#2563eb" points="980.22,-1500.05 987.51,-1498.72 980.98,-1495.21 980.22,-1500.05"/>
</g>
<!-- app.signals.signal_engine&#45;&gt;app.telegram.bot -->
<g id="edge77" class="edge">
<title>app.signals.signal_engine&#45;&gt;app.telegram.bot</title>
<path fill="none" stroke="#2563eb" d="M396.26,-1385.62C431.43,-1329.39 539.24,-1157.01 579.3,-1092.94"/>
<polygon fill="#2563eb" stroke="#2563eb" points="581.55,-1093.97 583.18,-1086.74 577.39,-1091.37 581.55,-1093.97"/>
</g>
<!-- app.signals.signal_engine&#45;&gt;app.utils.time -->
<g id="edge78" class="edge">
<title>app.signals.signal_engine&#45;&gt;app.utils.time</title>
<path fill="none" stroke="#2563eb" d="M387.62,-1385.49C398.97,-1306.65 445.07,-986.07 482,-722.64 490.13,-664.65 484.67,-509.77 518,-461.64 645.49,-277.54 747.33,-288.62 961,-221.64 1315.54,-110.48 1528.88,37.59 1797,-219.64 1854.08,-274.39 1881.57,-860.3 1886.99,-990.22"/>
<polygon fill="#2563eb" stroke="#2563eb" points="1884.55,-990.54 1887.29,-997.43 1889.44,-990.34 1884.55,-990.54"/>
</g>
<!-- app.telegram.__init__ -->
<g id="node31" class="node">
<title>app.telegram.__init__</title>
<path fill="#f8fafc" stroke="#94a3b8" d="M194.5,-2129.64C194.5,-2129.64 55.5,-2129.64 55.5,-2129.64 49.5,-2129.64 43.5,-2123.64 43.5,-2117.64 43.5,-2117.64 43.5,-2105.64 43.5,-2105.64 43.5,-2099.64 49.5,-2093.64 55.5,-2093.64 55.5,-2093.64 194.5,-2093.64 194.5,-2093.64 200.5,-2093.64 206.5,-2099.64 206.5,-2105.64 206.5,-2105.64 206.5,-2117.64 206.5,-2117.64 206.5,-2123.64 200.5,-2129.64 194.5,-2129.64"/>
<text text-anchor="middle" x="125" y="-2107.94" font-family="Inter" font-size="14.00">app.telegram.__init__</text>
</g>
<!-- app.telegram.bot&#45;&gt;app.config -->
<g id="edge79" class="edge">
<title>app.telegram.bot&#45;&gt;app.config</title>
<path fill="none" stroke="#2563eb" d="M612.52,-1050.42C633.38,-1027.29 671.61,-986.87 709,-957.64 812.4,-876.78 838.4,-850.53 961,-803.64 1142.08,-734.37 1201.17,-768.55 1390,-724.64 1411.79,-719.57 1435.6,-713.04 1456.02,-707.12"/>
<polygon fill="#2563eb" stroke="#2563eb" points="1456.77,-709.46 1462.8,-705.15 1455.4,-704.75 1456.77,-709.46"/>
</g>
<!-- app.telegram.bot&#45;&gt;app.data.database -->
<g id="edge80" class="edge">
<title>app.telegram.bot&#45;&gt;app.data.database</title>
<path fill="none" stroke="#2563eb" d="M598.74,-1050.24C608.13,-976.28 646.72,-701.96 709,-645.64 729.1,-627.46 885.66,-607.63 983.73,-596.82"/>
<polygon fill="#2563eb" stroke="#2563eb" points="984.29,-599.22 990.98,-596.02 983.75,-594.35 984.29,-599.22"/>
</g>
<!-- app.telegram.bot&#45;&gt;app.data.models -->
<g id="edge81" class="edge">
<title>app.telegram.bot&#45;&gt;app.data.models</title>
<path fill="none" stroke="#2563eb" d="M664.08,-1086.34C736.8,-1104.42 856.16,-1131.24 961,-1141.64 1150.99,-1160.47 1201.97,-1152.69 1390,-1119.64 1480.35,-1103.75 1513.34,-1119.01 1590,-1068.64 1616.74,-1051.06 1668.71,-975.93 1694.78,-936.7"/>
<polygon fill="#2563eb" stroke="#2563eb" points="1696.92,-937.91 1698.74,-930.72 1692.83,-935.21 1696.92,-937.91"/>
</g>
<!-- app.telegram.bot&#45;&gt;app.logger -->
<g id="edge82" class="edge">
<title>app.telegram.bot&#45;&gt;app.logger</title>
<path fill="none" stroke="#2563eb" d="M598.32,-1086.81C604.2,-1135.07 627.39,-1266.88 709,-1326.64 791.57,-1387.09 1065.24,-1363.76 1167,-1374.64 1192.08,-1377.32 1219.9,-1380.34 1243.22,-1382.89"/>
<polygon fill="#2563eb" stroke="#2563eb" points="1243.08,-1385.34 1250.31,-1383.67 1243.62,-1380.47 1243.08,-1385.34"/>
</g>
<!-- app.telegram.bot&#45;&gt;app.market.features -->
<g id="edge83" class="edge">
<title>app.telegram.bot&#45;&gt;app.market.features</title>
<path fill="none" stroke="#2563eb" d="M597.75,-1086.83C604.05,-1173.04 634.87,-1539.74 709,-1621.64 897.44,-1829.82 1257.32,-1864.38 1421.52,-1868.87"/>
<polygon fill="#2563eb" stroke="#2563eb" points="1421.65,-1871.32 1428.71,-1869.05 1421.77,-1866.42 1421.65,-1871.32"/>
</g>
<!-- app.telegram.commands -->
<g id="node34" class="node">
<title>app.telegram.commands</title>
<path fill="#f8fafc" stroke="#94a3b8" d="M900.5,-1002.64C900.5,-1002.64 733.5,-1002.64 733.5,-1002.64 727.5,-1002.64 721.5,-996.64 721.5,-990.64 721.5,-990.64 721.5,-978.64 721.5,-978.64 721.5,-972.64 727.5,-966.64 733.5,-966.64 733.5,-966.64 900.5,-966.64 900.5,-966.64 906.5,-966.64 912.5,-972.64 912.5,-978.64 912.5,-978.64 912.5,-990.64 912.5,-990.64 912.5,-996.64 906.5,-1002.64 900.5,-1002.64"/>
<text text-anchor="middle" x="817" y="-980.94" font-family="Inter" font-size="14.00">app.telegram.commands</text>
</g>
<!-- app.telegram.bot&#45;&gt;app.telegram.commands -->
<g id="edge84" class="edge">
<title>app.telegram.bot&#45;&gt;app.telegram.commands</title>
<path fill="none" stroke="#2563eb" d="M618.51,-1050.52C640.91,-1037.09 676.8,-1019.82 709,-1007.64 711.22,-1006.79 713.48,-1005.96 715.75,-1005.14"/>
<polygon fill="#2563eb" stroke="#2563eb" points="716.87,-1007.34 722.65,-1002.69 715.24,-1002.72 716.87,-1007.34"/>
</g>
<!-- app.telegram.formatters -->
<g id="node35" class="node">
<title>app.telegram.formatters</title>
<path fill="#f8fafc" stroke="#94a3b8" d="M1378,-1056.64C1378,-1056.64 1215,-1056.64 1215,-1056.64 1209,-1056.64 1203,-1050.64 1203,-1044.64 1203,-1044.64 1203,-1032.64 1203,-1032.64 1203,-1026.64 1209,-1020.64 1215,-1020.64 1215,-1020.64 1378,-1020.64 1378,-1020.64 1384,-1020.64 1390,-1026.64 1390,-1032.64 1390,-1032.64 1390,-1044.64 1390,-1044.64 1390,-1050.64 1384,-1056.64 1378,-1056.64"/>
<text text-anchor="middle" x="1296.5" y="-1034.94" font-family="Inter" font-size="14.00">app.telegram.formatters</text>
</g>
<!-- app.telegram.bot&#45;&gt;app.telegram.formatters -->
<g id="edge85" class="edge">
<title>app.telegram.bot&#45;&gt;app.telegram.formatters</title>
<path fill="none" stroke="#2563eb" d="M664.17,-1067.52C771.06,-1065.51 985.47,-1060.42 1167,-1049.64 1176.35,-1049.08 1186.08,-1048.41 1195.81,-1047.68"/>
<polygon fill="#2563eb" stroke="#2563eb" points="1196.1,-1050.12 1202.89,-1047.14 1195.73,-1045.23 1196.1,-1050.12"/>
</g>
<!-- app.telegram.keyboards -->
<g id="node36" class="node">
<title>app.telegram.keyboards</title>
<path fill="#f8fafc" stroke="#94a3b8" d="M1144.5,-1040.64C1144.5,-1040.64 983.5,-1040.64 983.5,-1040.64 977.5,-1040.64 971.5,-1034.64 971.5,-1028.64 971.5,-1028.64 971.5,-1016.64 971.5,-1016.64 971.5,-1010.64 977.5,-1004.64 983.5,-1004.64 983.5,-1004.64 1144.5,-1004.64 1144.5,-1004.64 1150.5,-1004.64 1156.5,-1010.64 1156.5,-1016.64 1156.5,-1016.64 1156.5,-1028.64 1156.5,-1028.64 1156.5,-1034.64 1150.5,-1040.64 1144.5,-1040.64"/>
<text text-anchor="middle" x="1064" y="-1018.94" font-family="Inter" font-size="14.00">app.telegram.keyboards</text>
</g>
<!-- app.telegram.bot&#45;&gt;app.telegram.keyboards -->
<g id="edge86" class="edge">
<title>app.telegram.bot&#45;&gt;app.telegram.keyboards</title>
<path fill="none" stroke="#2563eb" d="M664.28,-1059.83C679.01,-1058.02 694.52,-1056.19 709,-1054.64 795.01,-1045.4 892.98,-1036.68 964.01,-1030.69"/>
<polygon fill="#2563eb" stroke="#2563eb" points="964.46,-1033.11 971.23,-1030.08 964.05,-1028.22 964.46,-1033.11"/>
</g>
<!-- app.telegram.bot&#45;&gt;app.utils.time -->
<g id="edge87" class="edge">
<title>app.telegram.bot&#45;&gt;app.utils.time</title>
<path fill="none" stroke="#2563eb" d="M621.97,-1086.75C643.93,-1101.4 677.07,-1121.25 709,-1131.64 816.26,-1166.52 848.41,-1154.96 961,-1161.64 1151.34,-1172.93 1200.24,-1176.29 1390,-1157.64 1479.88,-1148.8 1501.45,-1139.44 1590,-1121.64 1682.4,-1103.06 1710.22,-1112.4 1797,-1075.64 1819.7,-1066.02 1842.86,-1050.65 1860.14,-1037.88"/>
<polygon fill="#2563eb" stroke="#2563eb" points="1861.63,-1039.82 1865.76,-1033.66 1858.69,-1035.9 1861.63,-1039.82"/>
</g>
<!-- app.telegram.charts -->
<g id="node33" class="node">
<title>app.telegram.charts</title>
<path fill="#f8fafc" stroke="#94a3b8" d="M1363.5,-1110.64C1363.5,-1110.64 1229.5,-1110.64 1229.5,-1110.64 1223.5,-1110.64 1217.5,-1104.64 1217.5,-1098.64 1217.5,-1098.64 1217.5,-1086.64 1217.5,-1086.64 1217.5,-1080.64 1223.5,-1074.64 1229.5,-1074.64 1229.5,-1074.64 1363.5,-1074.64 1363.5,-1074.64 1369.5,-1074.64 1375.5,-1080.64 1375.5,-1086.64 1375.5,-1086.64 1375.5,-1098.64 1375.5,-1098.64 1375.5,-1104.64 1369.5,-1110.64 1363.5,-1110.64"/>
<text text-anchor="middle" x="1296.5" y="-1088.94" font-family="Inter" font-size="14.00">app.telegram.charts</text>
</g>
<!-- app.telegram.commands&#45;&gt;app.config -->
<g id="edge88" class="edge">
<title>app.telegram.commands&#45;&gt;app.config</title>
<path fill="none" stroke="#2563eb" d="M833.57,-966.32C857.89,-938.95 907.66,-887.69 961,-860.64 1135.42,-772.15 1208.74,-836.09 1390,-762.64 1421.13,-750.02 1453.56,-729.69 1476.36,-714.01"/>
<polygon fill="#2563eb" stroke="#2563eb" points="1477.88,-715.93 1482.23,-709.92 1475.08,-711.91 1477.88,-715.93"/>
</g>
<!-- app.telegram.commands&#45;&gt;app.data.repositories -->
<g id="edge89" class="edge">
<title>app.telegram.commands&#45;&gt;app.data.repositories</title>
<path fill="none" stroke="#2563eb" d="M912.58,-978.6C928.73,-977.78 945.34,-977.07 961,-976.64 1052.52,-974.08 1075.59,-971.41 1167,-976.64 1252.88,-981.54 1350.37,-993.37 1418.86,-1002.73"/>
<polygon fill="#2563eb" stroke="#2563eb" points="1418.55,-1005.16 1425.82,-1003.68 1419.22,-1000.3 1418.55,-1005.16"/>
</g>
<!-- app.telegram.commands&#45;&gt;app.market.features -->
<g id="edge90" class="edge">
<title>app.telegram.commands&#45;&gt;app.market.features</title>
<path fill="none" stroke="#2563eb" d="M827.42,-1002.79C847.41,-1039.76 897.49,-1124.49 961,-1174.64 1124.24,-1303.53 1257.08,-1201.65 1390,-1361.64 1452.89,-1437.33 1493.48,-1751.41 1504.17,-1843.29"/>
<polygon fill="#2563eb" stroke="#2563eb" points="1501.77,-1843.82 1505,-1850.5 1506.64,-1843.26 1501.77,-1843.82"/>
</g>
<!-- app.telegram.commands&#45;&gt;app.paper.statistics -->
<g id="edge91" class="edge">
<title>app.telegram.commands&#45;&gt;app.paper.statistics</title>
<path fill="none" stroke="#2563eb" d="M857.23,-966.56C885.67,-953.86 925.25,-936.99 961,-924.64 1045.75,-895.34 1145.07,-869 1213.34,-852.09"/>
<polygon fill="#2563eb" stroke="#2563eb" points="1214.05,-854.44 1220.26,-850.38 1212.88,-849.68 1214.05,-854.44"/>
</g>
<!-- app.telegram.commands&#45;&gt;app.signals.patterns -->
<g id="edge92" class="edge">
<title>app.telegram.commands&#45;&gt;app.signals.patterns</title>
<path fill="none" stroke="#2563eb" d="M823.82,-1002.68C840.17,-1051.76 890.07,-1190.58 961,-1288.64 1034.89,-1390.78 1079.94,-1392.45 1167,-1483.64 1207.47,-1526.02 1251.41,-1578.52 1275.99,-1608.53"/>
<polygon fill="#2563eb" stroke="#2563eb" points="1274.32,-1610.36 1280.64,-1614.23 1278.11,-1607.26 1274.32,-1610.36"/>
</g>
<!-- app.telegram.commands&#45;&gt;app.signals.scoring -->
<g id="edge93" class="edge">
<title>app.telegram.commands&#45;&gt;app.signals.scoring</title>
<path fill="none" stroke="#2563eb" d="M819.49,-1003.08C825.64,-1068.88 853.97,-1295.86 961,-1440.64 975.93,-1460.83 998.49,-1477.17 1018.61,-1488.98"/>
<polygon fill="#2563eb" stroke="#2563eb" points="1017.47,-1491.15 1024.76,-1492.49 1019.9,-1486.89 1017.47,-1491.15"/>
</g>
<!-- app.telegram.commands&#45;&gt;app.telegram.bot -->
<g id="edge94" class="edge">
<title>app.telegram.commands&#45;&gt;app.telegram.bot</title>
<path fill="none" stroke="#2563eb" d="M777.68,-1002.66C757.09,-1009.41 731.4,-1017.16 709,-1025.64 691.68,-1032.19 673.29,-1040.22 656.5,-1047.64"/>
<polygon fill="#2563eb" stroke="#2563eb" points="655.32,-1045.49 649.91,-1050.56 657.3,-1049.97 655.32,-1045.49"/>
</g>
<!-- app.telegram.commands&#45;&gt;app.telegram.formatters -->
<g id="edge95" class="edge">
<title>app.telegram.commands&#45;&gt;app.telegram.formatters</title>
<path fill="none" stroke="#2563eb" d="M912.83,-980.22C983.46,-978.72 1081.97,-980.41 1167,-995.64 1193.45,-1000.37 1221.88,-1009.44 1245.26,-1018.04"/>
<polygon fill="#2563eb" stroke="#2563eb" points="1244.61,-1020.41 1252.02,-1020.56 1246.32,-1015.82 1244.61,-1020.41"/>
</g>
<!-- app.telegram.commands&#45;&gt;app.telegram.keyboards -->
<g id="edge96" class="edge">
<title>app.telegram.commands&#45;&gt;app.telegram.keyboards</title>
<path fill="none" stroke="#2563eb" d="M912.72,-999.33C929.57,-1001.94 947.16,-1004.67 964.12,-1007.3"/>
<polygon fill="#2563eb" stroke="#2563eb" points="964.05,-1009.77 971.35,-1008.42 964.81,-1004.93 964.05,-1009.77"/>
</g>
<!-- app.telegram.commands&#45;&gt;app.utils.time -->
<g id="edge97" class="edge">
<title>app.telegram.commands&#45;&gt;app.utils.time</title>
<path fill="none" stroke="#2563eb" d="M827.59,-1002.71C847.19,-1037.47 895.58,-1112.73 961,-1141.64 1117.58,-1210.81 1644.79,-1080.64 1826.13,-1032.51"/>
<polygon fill="#2563eb" stroke="#2563eb" points="1826.81,-1034.86 1832.95,-1030.69 1825.55,-1030.13 1826.81,-1034.86"/>
</g>
<!-- app.telegram.formatters&#45;&gt;app.config -->
<g id="edge98" class="edge">
<title>app.telegram.formatters&#45;&gt;app.config</title>
<path fill="none" stroke="#2563eb" d="M1308.47,-1020.47C1343.46,-962.51 1452.45,-781.99 1492.26,-716.06"/>
<polygon fill="#2563eb" stroke="#2563eb" points="1494.37,-717.3 1495.89,-710.04 1490.17,-714.77 1494.37,-717.3"/>
</g>
<!-- app.telegram.formatters&#45;&gt;app.data.models -->
<g id="edge99" class="edge">
<title>app.telegram.formatters&#45;&gt;app.data.models</title>
<path fill="none" stroke="#2563eb" d="M1375.46,-1056.65C1436.47,-1066.83 1522.05,-1072.3 1590,-1042.64 1639.24,-1021.14 1677.36,-968.5 1696.63,-937.2"/>
<polygon fill="#2563eb" stroke="#2563eb" points="1698.93,-938.12 1700.45,-930.86 1694.74,-935.59 1698.93,-938.12"/>
</g>
<!-- app.telegram.formatters&#45;&gt;app.data.repositories -->
<g id="edge100" class="edge">
<title>app.telegram.formatters&#45;&gt;app.data.repositories</title>
<path fill="none" stroke="#2563eb" d="M1390.3,-1028.45C1399.72,-1027.41 1409.27,-1026.36 1418.64,-1025.34"/>
<polygon fill="#2563eb" stroke="#2563eb" points="1419.08,-1027.75 1425.77,-1024.55 1418.54,-1022.88 1419.08,-1027.75"/>
</g>
<!-- app.telegram.keyboards&#45;&gt;app.data.models -->
<g id="edge101" class="edge">
<title>app.telegram.keyboards&#45;&gt;app.data.models</title>
<path fill="none" stroke="#2563eb" d="M1156.8,-1006.99C1286.31,-984.92 1520.01,-945.1 1638.07,-924.98"/>
<polygon fill="#2563eb" stroke="#2563eb" points="1638.5,-927.39 1644.99,-923.8 1637.67,-922.56 1638.5,-927.39"/>
</g>
<!-- app.telegram.keyboards&#45;&gt;app.telegram.charts -->
<g id="edge102" class="edge">
<title>app.telegram.keyboards&#45;&gt;app.telegram.charts</title>
<path fill="none" stroke="#2563eb" d="M1122,-1040.65C1146.85,-1048.44 1176.33,-1057.59 1203,-1065.64 1210.48,-1067.89 1218.31,-1070.22 1226.11,-1072.53"/>
<polygon fill="#2563eb" stroke="#2563eb" points="1225.85,-1075.01 1233.26,-1074.63 1227.24,-1070.31 1225.85,-1075.01"/>
</g>
<!-- app.telegram.keyboards&#45;&gt;app.telegram.formatters -->
<g id="edge103" class="edge">
<title>app.telegram.keyboards&#45;&gt;app.telegram.formatters</title>
<path fill="none" stroke="#2563eb" d="M1156.76,-1029C1169.58,-1029.89 1182.8,-1030.81 1195.76,-1031.71"/>
<polygon fill="#2563eb" stroke="#2563eb" points="1195.77,-1034.17 1202.92,-1032.21 1196.11,-1029.28 1195.77,-1034.17"/>
</g>
<!-- app.utils.__init__ -->
<g id="node37" class="node">
<title>app.utils.__init__</title>
<path fill="#f8fafc" stroke="#94a3b8" d="M178,-2183.64C178,-2183.64 72,-2183.64 72,-2183.64 66,-2183.64 60,-2177.64 60,-2171.64 60,-2171.64 60,-2159.64 60,-2159.64 60,-2153.64 66,-2147.64 72,-2147.64 72,-2147.64 178,-2147.64 178,-2147.64 184,-2147.64 190,-2153.64 190,-2159.64 190,-2159.64 190,-2171.64 190,-2171.64 190,-2177.64 184,-2183.64 178,-2183.64"/>
<text text-anchor="middle" x="125" y="-2161.94" font-family="Inter" font-size="14.00">app.utils.__init__</text>
</g>
<!-- app.utils.retry -->
<g id="node39" class="node">
<title>app.utils.retry</title>
<path fill="#f8fafc" stroke="#94a3b8" d="M170,-2237.64C170,-2237.64 80,-2237.64 80,-2237.64 74,-2237.64 68,-2231.64 68,-2225.64 68,-2225.64 68,-2213.64 68,-2213.64 68,-2207.64 74,-2201.64 80,-2201.64 80,-2201.64 170,-2201.64 170,-2201.64 176,-2201.64 182,-2207.64 182,-2213.64 182,-2213.64 182,-2225.64 182,-2225.64 182,-2231.64 176,-2237.64 170,-2237.64"/>
<text text-anchor="middle" x="125" y="-2215.94" font-family="Inter" font-size="14.00">app.utils.retry</text>
</g>
<!-- tests.test_chart_links -->
<g id="node41" class="node">
<title>tests.test_chart_links</title>
<path fill="#f8fafc" stroke="#94a3b8" d="M1133.5,-1132.64C1133.5,-1132.64 994.5,-1132.64 994.5,-1132.64 988.5,-1132.64 982.5,-1126.64 982.5,-1120.64 982.5,-1120.64 982.5,-1108.64 982.5,-1108.64 982.5,-1102.64 988.5,-1096.64 994.5,-1096.64 994.5,-1096.64 1133.5,-1096.64 1133.5,-1096.64 1139.5,-1096.64 1145.5,-1102.64 1145.5,-1108.64 1145.5,-1108.64 1145.5,-1120.64 1145.5,-1120.64 1145.5,-1126.64 1139.5,-1132.64 1133.5,-1132.64"/>
<text text-anchor="middle" x="1064" y="-1110.94" font-family="Inter" font-size="14.00">tests.test_chart_links</text>
</g>
<!-- tests.test_chart_links&#45;&gt;app.telegram.charts -->
<g id="edge104" class="edge">
<title>tests.test_chart_links&#45;&gt;app.telegram.charts</title>
<path fill="none" stroke="#2563eb" d="M1145.62,-1106.94C1166.5,-1104.95 1189.05,-1102.8 1210.16,-1100.78"/>
<polygon fill="#2563eb" stroke="#2563eb" points="1210.52,-1103.21 1217.26,-1100.1 1210.06,-1098.33 1210.52,-1103.21"/>
</g>
<!-- tests.test_outcomes -->
<g id="node42" class="node">
<title>tests.test_outcomes</title>
<path fill="#f8fafc" stroke="#94a3b8" d="M661,-690.64C661,-690.64 530,-690.64 530,-690.64 524,-690.64 518,-684.64 518,-678.64 518,-678.64 518,-666.64 518,-666.64 518,-660.64 524,-654.64 530,-654.64 530,-654.64 661,-654.64 661,-654.64 667,-654.64 673,-660.64 673,-666.64 673,-666.64 673,-678.64 673,-678.64 673,-684.64 667,-690.64 661,-690.64"/>
<text text-anchor="middle" x="595.5" y="-668.94" font-family="Inter" font-size="14.00">tests.test_outcomes</text>
</g>
<!-- tests.test_outcomes&#45;&gt;app.signals.outcome_tracker -->
<g id="edge105" class="edge">
<title>tests.test_outcomes&#45;&gt;app.signals.outcome_tracker</title>
<path fill="none" stroke="#2563eb" d="M673.27,-672.64C682.52,-672.64 692.12,-672.64 701.76,-672.64"/>
<polygon fill="#2563eb" stroke="#2563eb" points="701.79,-675.09 708.79,-672.64 701.79,-670.19 701.79,-675.09"/>
</g>
<!-- tests.test_paper_risk -->
<g id="node43" class="node">
<title>tests.test_paper_risk</title>
<path fill="#f8fafc" stroke="#94a3b8" d="M1132.5,-476.64C1132.5,-476.64 995.5,-476.64 995.5,-476.64 989.5,-476.64 983.5,-470.64 983.5,-464.64 983.5,-464.64 983.5,-452.64 983.5,-452.64 983.5,-446.64 989.5,-440.64 995.5,-440.64 995.5,-440.64 1132.5,-440.64 1132.5,-440.64 1138.5,-440.64 1144.5,-446.64 1144.5,-452.64 1144.5,-452.64 1144.5,-464.64 1144.5,-464.64 1144.5,-470.64 1138.5,-476.64 1132.5,-476.64"/>
<text text-anchor="middle" x="1064" y="-454.94" font-family="Inter" font-size="14.00">tests.test_paper_risk</text>
</g>
<!-- tests.test_paper_risk&#45;&gt;app.config -->
<g id="edge106" class="edge">
<title>tests.test_paper_risk&#45;&gt;app.config</title>
<path fill="none" stroke="#2563eb" d="M1130.28,-476.72C1142.66,-480.82 1155.37,-485.5 1167,-490.64 1286.77,-543.53 1417.02,-629.34 1475.49,-669.54"/>
<polygon fill="#2563eb" stroke="#2563eb" points="1474.1,-671.56 1481.26,-673.52 1476.89,-667.52 1474.1,-671.56"/>
</g>
<!-- tests.test_paper_risk&#45;&gt;app.paper.risk -->
<g id="edge107" class="edge">
<title>tests.test_paper_risk&#45;&gt;app.paper.risk</title>
<path fill="none" stroke="#2563eb" d="M1144.65,-464.16C1172.96,-466.13 1204.45,-468.31 1231.3,-470.18"/>
<polygon fill="#2563eb" stroke="#2563eb" points="1231.23,-472.63 1238.38,-470.67 1231.57,-467.74 1231.23,-472.63"/>
</g>
<!-- tests.test_scoring -->
<g id="node44" class="node">
<title>tests.test_scoring</title>
<path fill="#f8fafc" stroke="#94a3b8" d="M874.5,-1612.64C874.5,-1612.64 759.5,-1612.64 759.5,-1612.64 753.5,-1612.64 747.5,-1606.64 747.5,-1600.64 747.5,-1600.64 747.5,-1588.64 747.5,-1588.64 747.5,-1582.64 753.5,-1576.64 759.5,-1576.64 759.5,-1576.64 874.5,-1576.64 874.5,-1576.64 880.5,-1576.64 886.5,-1582.64 886.5,-1588.64 886.5,-1588.64 886.5,-1600.64 886.5,-1600.64 886.5,-1606.64 880.5,-1612.64 874.5,-1612.64"/>
<text text-anchor="middle" x="817" y="-1590.94" font-family="Inter" font-size="14.00">tests.test_scoring</text>
</g>
<!-- tests.test_scoring&#45;&gt;app.config -->
<g id="edge108" class="edge">
<title>tests.test_scoring&#45;&gt;app.config</title>
<path fill="none" stroke="#2563eb" d="M886.64,-1590.68C1024.45,-1581.16 1327.03,-1551.76 1390,-1474.64 1424.25,-1432.69 1416.83,-1042 1426,-988.64 1443.67,-885.75 1481.53,-766.98 1498.48,-716.45"/>
<polygon fill="#2563eb" stroke="#2563eb" points="1500.81,-717.2 1500.73,-709.78 1496.17,-715.63 1500.81,-717.2"/>
</g>
<!-- tests.test_scoring&#45;&gt;app.signals.patterns -->
<g id="edge109" class="edge">
<title>tests.test_scoring&#45;&gt;app.signals.patterns</title>
<path fill="none" stroke="#2563eb" d="M886.7,-1601.73C910.25,-1604.06 936.77,-1606.58 961,-1608.64 1045.66,-1615.82 1142.5,-1622.61 1210.12,-1627.12"/>
<polygon fill="#2563eb" stroke="#2563eb" points="1210.24,-1629.59 1217.39,-1627.61 1210.57,-1624.7 1210.24,-1629.59"/>
</g>
<!-- tests.test_scoring&#45;&gt;app.signals.scoring -->
<g id="edge110" class="edge">
<title>tests.test_scoring&#45;&gt;app.signals.scoring</title>
<path fill="none" stroke="#2563eb" d="M866.13,-1576.52C893.78,-1566.27 929.22,-1553.39 961,-1542.64 972.54,-1538.73 984.86,-1534.72 996.81,-1530.93"/>
<polygon fill="#2563eb" stroke="#2563eb" points="997.86,-1533.16 1003.79,-1528.72 996.38,-1528.49 997.86,-1533.16"/>
</g>
<!-- tests.test_telegram_auth -->
<g id="node45" class="node">
<title>tests.test_telegram_auth</title>
<path fill="#f8fafc" stroke="#94a3b8" d="M466,-713.64C466,-713.64 302,-713.64 302,-713.64 296,-713.64 290,-707.64 290,-701.64 290,-701.64 290,-689.64 290,-689.64 290,-683.64 296,-677.64 302,-677.64 302,-677.64 466,-677.64 466,-677.64 472,-677.64 478,-683.64 478,-689.64 478,-689.64 478,-701.64 478,-701.64 478,-707.64 472,-713.64 466,-713.64"/>
<text text-anchor="middle" x="384" y="-691.94" font-family="Inter" font-size="14.00">tests.test_telegram_auth</text>
</g>
<!-- tests.test_telegram_auth&#45;&gt;app.config -->
<g id="edge111" class="edge">
<title>tests.test_telegram_auth&#45;&gt;app.config</title>
<path fill="none" stroke="#2563eb" d="M398.17,-677.44C420.8,-646.8 469.33,-583.76 518,-537.64 595.16,-464.51 612.3,-437.81 709,-393.64 813.18,-346.04 847.09,-351.7 961,-339.64 1052.05,-329.99 1076.36,-326.69 1167,-339.64 1269.2,-354.23 1313.32,-335.51 1390,-404.64 1469.75,-476.53 1496.26,-610.71 1504.07,-666.4"/>
<polygon fill="#2563eb" stroke="#2563eb" points="1501.66,-666.81 1505.02,-673.42 1506.51,-666.15 1501.66,-666.81"/>
</g>
<!-- tests.test_telegram_auth&#45;&gt;app.data.database -->
<g id="edge112" class="edge">
<title>tests.test_telegram_auth&#45;&gt;app.data.database</title>
<path fill="none" stroke="#2563eb" d="M397.93,-677.22C419.16,-648.8 464.43,-595.36 518,-574.64 676.07,-513.49 879.66,-544.73 987.75,-569.04"/>
<polygon fill="#2563eb" stroke="#2563eb" points="987.36,-571.46 994.73,-570.63 988.45,-566.68 987.36,-571.46"/>
</g>
<!-- tests.test_telegram_auth&#45;&gt;app.telegram.bot -->
<g id="edge113" class="edge">
<title>tests.test_telegram_auth&#45;&gt;app.telegram.bot</title>
<path fill="none" stroke="#2563eb" d="M395.25,-713.88C429.71,-775.23 541.44,-974.17 580.71,-1044.07"/>
<polygon fill="#2563eb" stroke="#2563eb" points="578.71,-1045.52 584.27,-1050.43 582.98,-1043.12 578.71,-1045.52"/>
</g>
<!-- tests.test_telegram_auth&#45;&gt;app.telegram.commands -->
<g id="edge114" class="edge">
<title>tests.test_telegram_auth&#45;&gt;app.telegram.commands</title>
<path fill="none" stroke="#2563eb" d="M411.96,-713.71C487.4,-764.3 700.47,-907.17 782.88,-962.43"/>
<polygon fill="#2563eb" stroke="#2563eb" points="781.87,-964.7 789.05,-966.56 784.6,-960.63 781.87,-964.7"/>
</g>
<!-- tools.__init__ -->
<g id="node46" class="node">
<title>tools.__init__</title>
<path fill="#f8fafc" stroke="#94a3b8" d="M164.5,-2291.64C164.5,-2291.64 85.5,-2291.64 85.5,-2291.64 79.5,-2291.64 73.5,-2285.64 73.5,-2279.64 73.5,-2279.64 73.5,-2267.64 73.5,-2267.64 73.5,-2261.64 79.5,-2255.64 85.5,-2255.64 85.5,-2255.64 164.5,-2255.64 164.5,-2255.64 170.5,-2255.64 176.5,-2261.64 176.5,-2267.64 176.5,-2267.64 176.5,-2279.64 176.5,-2279.64 176.5,-2285.64 170.5,-2291.64 164.5,-2291.64"/>
<text text-anchor="middle" x="125" y="-2269.94" font-family="Inter" font-size="14.00">tools.__init__</text>
</g>
<!-- tools.architecture_review -->
<g id="node47" class="node">
<title>tools.architecture_review</title>
<path fill="#f8fafc" stroke="#94a3b8" d="M207,-2345.64C207,-2345.64 43,-2345.64 43,-2345.64 37,-2345.64 31,-2339.64 31,-2333.64 31,-2333.64 31,-2321.64 31,-2321.64 31,-2315.64 37,-2309.64 43,-2309.64 43,-2309.64 207,-2309.64 207,-2309.64 213,-2309.64 219,-2315.64 219,-2321.64 219,-2321.64 219,-2333.64 219,-2333.64 219,-2339.64 213,-2345.64 207,-2345.64"/>
<text text-anchor="middle" x="125" y="-2323.94" font-family="Inter" font-size="14.00">tools.architecture_review</text>
</g>
</g>
</svg>
