<?xml version="1.0" encoding="UTF-8" standalone="no"?>
<!DOCTYPE svg PUBLIC "-//W3C//DTD SVG 1.1//EN"
 "http://www.w3.org/Graphics/SVG/1.1/DTD/svg11.dtd">
<!-- Generated by graphviz version 2.43.0 (0)
 -->
<!-- Title: imports Pages: 1 -->
<svg width="2019pt" height="2399pt"
 viewBox="0.00 0.00 2019.00 2399.13" xmlns="http://www.w3.org/2000/svg" xmlns:xlink="http://www.w3.org/1999/xlink">
<g id="graph0" class="graph" transform="scale(1 1) rotate(0) translate(4 2395.13)">
<title>imports</title>
<polygon fill="white" stroke="transparent" points="-4,4 -4,-2395.13 2015,-2395.13 2015,4 -4,4"/>
<!-- app.__init__ -->
<g id="node1" class="node">
<title>app.__init__</title>
<path fill="#f8fafc" stroke="#94a3b8" d="M161,-568.13C161,-568.13 89,-568.13 89,-568.13 83,-568.13 77,-562.13 77,-556.13 77,-556.13 77,-544.13 77,-544.13 77,-538.13 83,-532.13 89,-532.13 89,-532.13 161,-532.13 161,-532.13 167,-532.13 173,-538.13 173,-544.13 173,-544.13 173,-556.13 173,-556.13 173,-562.13 167,-568.13 161,-568.13"/>
<text text-anchor="middle" x="125" y="-546.43" font-family="Inter" font-size="14.00">app.__init__</text>
</g>
<!-- app.config -->
<g id="node2" class="node">
<title>app.config</title>
<path fill="#f8fafc" stroke="#94a3b8" d="M1607,-1869.13C1607,-1869.13 1541,-1869.13 1541,-1869.13 1535,-1869.13 1529,-1863.13 1529,-1857.13 1529,-1857.13 1529,-1845.13 1529,-1845.13 1529,-1839.13 1535,-1833.13 1541,-1833.13 1541,-1833.13 1607,-1833.13 1607,-1833.13 1613,-1833.13 1619,-1839.13 1619,-1845.13 1619,-1845.13 1619,-1857.13 1619,-1857.13 1619,-1863.13 1613,-1869.13 1607,-1869.13"/>
<text text-anchor="middle" x="1574" y="-1847.43" font-family="Inter" font-size="14.00">app.config</text>
</g>
<!-- app.data.__init__ -->
<g id="node3" class="node">
<title>app.data.__init__</title>
<path fill="#f8fafc" stroke="#94a3b8" d="M178.5,-676.13C178.5,-676.13 71.5,-676.13 71.5,-676.13 65.5,-676.13 59.5,-670.13 59.5,-664.13 59.5,-664.13 59.5,-652.13 59.5,-652.13 59.5,-646.13 65.5,-640.13 71.5,-640.13 71.5,-640.13 178.5,-640.13 178.5,-640.13 184.5,-640.13 190.5,-646.13 190.5,-652.13 190.5,-652.13 190.5,-664.13 190.5,-664.13 190.5,-670.13 184.5,-676.13 178.5,-676.13"/>
<text text-anchor="middle" x="125" y="-654.43" font-family="Inter" font-size="14.00">app.data.__init__</text>
</g>
<!-- app.data.database -->
<g id="node4" class="node">
<title>app.data.database</title>
<path fill="#f8fafc" stroke="#94a3b8" d="M1191,-1105.13C1191,-1105.13 1069,-1105.13 1069,-1105.13 1063,-1105.13 1057,-1099.13 1057,-1093.13 1057,-1093.13 1057,-1081.13 1057,-1081.13 1057,-1075.13 1063,-1069.13 1069,-1069.13 1069,-1069.13 1191,-1069.13 1191,-1069.13 1197,-1069.13 1203,-1075.13 1203,-1081.13 1203,-1081.13 1203,-1093.13 1203,-1093.13 1203,-1099.13 1197,-1105.13 1191,-1105.13"/>
<text text-anchor="middle" x="1130" y="-1083.43" font-family="Inter" font-size="14.00">app.data.database</text>
</g>
<!-- app.data.models -->
<g id="node5" class="node">
<title>app.data.models</title>
<path fill="#f8fafc" stroke="#94a3b8" d="M1832,-1671.13C1832,-1671.13 1723,-1671.13 1723,-1671.13 1717,-1671.13 1711,-1665.13 1711,-1659.13 1711,-1659.13 1711,-1647.13 1711,-1647.13 1711,-1641.13 1717,-1635.13 1723,-1635.13 1723,-1635.13 1832,-1635.13 1832,-1635.13 1838,-1635.13 1844,-1641.13 1844,-1647.13 1844,-1647.13 1844,-1659.13 1844,-1659.13 1844,-1665.13 1838,-1671.13 1832,-1671.13"/>
<text text-anchor="middle" x="1777.5" y="-1649.43" font-family="Inter" font-size="14.00">app.data.models</text>
</g>
<!-- app.data.database&#45;&gt;app.data.models -->
<g id="edge1" class="edge">
<title>app.data.database&#45;&gt;app.data.models</title>
<path fill="none" stroke="#2563eb" d="M1186.18,-1105.22C1254.51,-1129.49 1372.13,-1177.48 1456,-1245.13 1602.37,-1363.18 1723.15,-1560.02 1762.74,-1628.64"/>
<polygon fill="#2563eb" stroke="#2563eb" points="1760.71,-1630.02 1766.32,-1634.88 1764.96,-1627.58 1760.71,-1630.02"/>
</g>
<!-- app.utils.time -->
<g id="node40" class="node">
<title>app.utils.time</title>
<path fill="#f8fafc" stroke="#94a3b8" d="M1999,-1155.13C1999,-1155.13 1911,-1155.13 1911,-1155.13 1905,-1155.13 1899,-1149.13 1899,-1143.13 1899,-1143.13 1899,-1131.13 1899,-1131.13 1899,-1125.13 1905,-1119.13 1911,-1119.13 1911,-1119.13 1999,-1119.13 1999,-1119.13 2005,-1119.13 2011,-1125.13 2011,-1131.13 2011,-1131.13 2011,-1143.13 2011,-1143.13 2011,-1149.13 2005,-1155.13 1999,-1155.13"/>
<text text-anchor="middle" x="1955" y="-1133.43" font-family="Inter" font-size="14.00">app.utils.time</text>
</g>
<!-- app.data.models&#45;&gt;app.utils.time -->
<g id="edge2" class="edge">
<title>app.data.models&#45;&gt;app.utils.time</title>
<path fill="none" stroke="#2563eb" d="M1784.64,-1635.07C1811.05,-1557.44 1914.93,-1252 1945.5,-1162.13"/>
<polygon fill="#2563eb" stroke="#2563eb" points="1947.88,-1162.73 1947.82,-1155.31 1943.24,-1161.15 1947.88,-1162.73"/>
</g>
<!-- app.data.repositories -->
<g id="node6" class="node">
<title>app.data.repositories</title>
<path fill="#f8fafc" stroke="#94a3b8" d="M1644,-1155.13C1644,-1155.13 1504,-1155.13 1504,-1155.13 1498,-1155.13 1492,-1149.13 1492,-1143.13 1492,-1143.13 1492,-1131.13 1492,-1131.13 1492,-1125.13 1498,-1119.13 1504,-1119.13 1504,-1119.13 1644,-1119.13 1644,-1119.13 1650,-1119.13 1656,-1125.13 1656,-1131.13 1656,-1131.13 1656,-1143.13 1656,-1143.13 1656,-1149.13 1650,-1155.13 1644,-1155.13"/>
<text text-anchor="middle" x="1574" y="-1133.43" font-family="Inter" font-size="14.00">app.data.repositories</text>
</g>
<!-- app.data.repositories&#45;&gt;app.data.models -->
<g id="edge3" class="edge">
<title>app.data.repositories&#45;&gt;app.data.models</title>
<path fill="none" stroke="#2563eb" d="M1639.05,-1155.36C1645.38,-1159.13 1651.22,-1163.67 1656,-1169.13 1717.94,-1239.86 1761.5,-1538.83 1773.3,-1627.95"/>
<polygon fill="#2563eb" stroke="#2563eb" points="1770.88,-1628.34 1774.21,-1634.96 1775.73,-1627.7 1770.88,-1628.34"/>
</g>
<!-- app.data.repositories&#45;&gt;app.utils.time -->
<g id="edge4" class="edge">
<title>app.data.repositories&#45;&gt;app.utils.time</title>
<path fill="none" stroke="#2563eb" d="M1656.31,-1137.13C1726.78,-1137.13 1827.28,-1137.13 1891.58,-1137.13"/>
<polygon fill="#2563eb" stroke="#2563eb" points="1891.85,-1139.58 1898.85,-1137.13 1891.84,-1134.68 1891.85,-1139.58"/>
</g>
<!-- app.exchanges.__init__ -->
<g id="node7" class="node">
<title>app.exchanges.__init__</title>
<path fill="#f8fafc" stroke="#94a3b8" d="M201,-730.13C201,-730.13 49,-730.13 49,-730.13 43,-730.13 37,-724.13 37,-718.13 37,-718.13 37,-706.13 37,-706.13 37,-700.13 43,-694.13 49,-694.13 49,-694.13 201,-694.13 201,-694.13 207,-694.13 213,-700.13 213,-706.13 213,-706.13 213,-718.13 213,-718.13 213,-724.13 207,-730.13 201,-730.13"/>
<text text-anchor="middle" x="125" y="-708.43" font-family="Inter" font-size="14.00">app.exchanges.__init__</text>
</g>
<!-- app.exchanges.base -->
<g id="node8" class="node">
<title>app.exchanges.base</title>
<path fill="#f8fafc" stroke="#94a3b8" d="M1845.5,-375.13C1845.5,-375.13 1709.5,-375.13 1709.5,-375.13 1703.5,-375.13 1697.5,-369.13 1697.5,-363.13 1697.5,-363.13 1697.5,-351.13 1697.5,-351.13 1697.5,-345.13 1703.5,-339.13 1709.5,-339.13 1709.5,-339.13 1845.5,-339.13 1845.5,-339.13 1851.5,-339.13 1857.5,-345.13 1857.5,-351.13 1857.5,-351.13 1857.5,-363.13 1857.5,-363.13 1857.5,-369.13 1851.5,-375.13 1845.5,-375.13"/>
<text text-anchor="middle" x="1777.5" y="-353.43" font-family="Inter" font-size="14.00">app.exchanges.base</text>
</g>
<!-- app.exchanges.bybit_client -->
<g id="node9" class="node">
<title>app.exchanges.bybit_client</title>
<path fill="#f8fafc" stroke="#94a3b8" d="M1221,-215.13C1221,-215.13 1039,-215.13 1039,-215.13 1033,-215.13 1027,-209.13 1027,-203.13 1027,-203.13 1027,-191.13 1027,-191.13 1027,-185.13 1033,-179.13 1039,-179.13 1039,-179.13 1221,-179.13 1221,-179.13 1227,-179.13 1233,-185.13 1233,-191.13 1233,-191.13 1233,-203.13 1233,-203.13 1233,-209.13 1227,-215.13 1221,-215.13"/>
<text text-anchor="middle" x="1130" y="-193.43" font-family="Inter" font-size="14.00">app.exchanges.bybit_client</text>
</g>
<!-- app.exchanges.bybit_client&#45;&gt;app.exchanges.base -->
<g id="edge5" class="edge">
<title>app.exchanges.bybit_client&#45;&gt;app.exchanges.base</title>
<path fill="none" stroke="#2563eb" d="M1233.14,-181.94C1343.07,-170.32 1520.39,-165.58 1656,-229.13 1703.99,-251.62 1742.32,-302.49 1762.01,-332.9"/>
<polygon fill="#2563eb" stroke="#2563eb" points="1760.11,-334.46 1765.93,-339.05 1764.24,-331.83 1760.11,-334.46"/>
</g>
<!-- app.logger -->
<g id="node11" class="node">
<title>app.logger</title>
<path fill="#f8fafc" stroke="#94a3b8" d="M1396.5,-641.13C1396.5,-641.13 1328.5,-641.13 1328.5,-641.13 1322.5,-641.13 1316.5,-635.13 1316.5,-629.13 1316.5,-629.13 1316.5,-617.13 1316.5,-617.13 1316.5,-611.13 1322.5,-605.13 1328.5,-605.13 1328.5,-605.13 1396.5,-605.13 1396.5,-605.13 1402.5,-605.13 1408.5,-611.13 1408.5,-617.13 1408.5,-617.13 1408.5,-629.13 1408.5,-629.13 1408.5,-635.13 1402.5,-641.13 1396.5,-641.13"/>
<text text-anchor="middle" x="1362.5" y="-619.43" font-family="Inter" font-size="14.00">app.logger</text>
</g>
<!-- app.exchanges.bybit_client&#45;&gt;app.logger -->
<g id="edge6" class="edge">
<title>app.exchanges.bybit_client&#45;&gt;app.logger</title>
<path fill="none" stroke="#2563eb" d="M1152.2,-215.16C1174.72,-235.22 1210.16,-269.53 1233,-305.13 1297.01,-404.89 1339.17,-541.78 1354.76,-597.74"/>
<polygon fill="#2563eb" stroke="#2563eb" points="1352.47,-598.68 1356.7,-604.78 1357.2,-597.38 1352.47,-598.68"/>
</g>
<!-- app.utils.math -->
<g id="node38" class="node">
<title>app.utils.math</title>
<path fill="#f8fafc" stroke="#94a3b8" d="M1824,-101.13C1824,-101.13 1731,-101.13 1731,-101.13 1725,-101.13 1719,-95.13 1719,-89.13 1719,-89.13 1719,-77.13 1719,-77.13 1719,-71.13 1725,-65.13 1731,-65.13 1731,-65.13 1824,-65.13 1824,-65.13 1830,-65.13 1836,-71.13 1836,-77.13 1836,-77.13 1836,-89.13 1836,-89.13 1836,-95.13 1830,-101.13 1824,-101.13"/>
<text text-anchor="middle" x="1777.5" y="-79.43" font-family="Inter" font-size="14.00">app.utils.math</text>
</g>
<!-- app.exchanges.bybit_client&#45;&gt;app.utils.math -->
<g id="edge7" class="edge">
<title>app.exchanges.bybit_client&#45;&gt;app.utils.math</title>
<path fill="none" stroke="#2563eb" d="M1153.79,-178.91C1179.9,-159.21 1224.8,-128.78 1269,-115.13 1422.27,-67.79 1613.63,-71.53 1711.8,-77.69"/>
<polygon fill="#2563eb" stroke="#2563eb" points="1711.85,-80.15 1718.99,-78.15 1712.17,-75.26 1711.85,-80.15"/>
</g>
<!-- app.exchanges.bybit_client&#45;&gt;app.utils.time -->
<g id="edge8" class="edge">
<title>app.exchanges.bybit_client&#45;&gt;app.utils.time</title>
<path fill="none" stroke="#2563eb" d="M1213.1,-179.07C1231.41,-175.76 1250.79,-172.83 1269,-171.13 1541.11,-145.72 1724.94,-94.27 1863,-330.13 1943.41,-467.49 1952.77,-990.24 1953.86,-1111.78"/>
<polygon fill="#2563eb" stroke="#2563eb" points="1951.41,-1111.9 1953.91,-1118.88 1956.31,-1111.86 1951.41,-1111.9"/>
</g>
<!-- app.exchanges.hyperliquid_client -->
<g id="node10" class="node">
<title>app.exchanges.hyperliquid_client</title>
<path fill="#f8fafc" stroke="#94a3b8" d="M238,-784.13C238,-784.13 12,-784.13 12,-784.13 6,-784.13 0,-778.13 0,-772.13 0,-772.13 0,-760.13 0,-760.13 0,-754.13 6,-748.13 12,-748.13 12,-748.13 238,-748.13 238,-748.13 244,-748.13 250,-754.13 250,-760.13 250,-760.13 250,-772.13 250,-772.13 250,-778.13 244,-784.13 238,-784.13"/>
<text text-anchor="middle" x="125" y="-762.43" font-family="Inter" font-size="14.00">app.exchanges.hyperliquid_client</text>
</g>
<!-- app.main -->
<g id="node12" class="node">
<title>app.main</title>
<path fill="#f8fafc" stroke="#94a3b8" d="M154,-622.13C154,-622.13 96,-622.13 96,-622.13 90,-622.13 84,-616.13 84,-610.13 84,-610.13 84,-598.13 84,-598.13 84,-592.13 90,-586.13 96,-586.13 96,-586.13 154,-586.13 154,-586.13 160,-586.13 166,-592.13 166,-598.13 166,-598.13 166,-610.13 166,-610.13 166,-616.13 160,-622.13 154,-622.13"/>
<text text-anchor="middle" x="125" y="-600.43" font-family="Inter" font-size="14.00">app.main</text>
</g>
<!-- app.main&#45;&gt;app.config -->
<g id="edge9" class="edge">
<title>app.main&#45;&gt;app.config</title>
<path fill="none" stroke="#2563eb" d="M166.23,-601.14C194.23,-601.48 230.01,-607.21 250,-631.13 285.79,-673.96 275.41,-1580.33 286,-1635.13 353.02,-1982.08 274.13,-2353.13 627.5,-2353.13 627.5,-2353.13 627.5,-2353.13 1131,-2353.13 1284.22,-2353.13 1350.21,-2348.96 1456,-2238.13 1556.33,-2133.02 1570.91,-1944.83 1572.81,-1876.66"/>
<polygon fill="#2563eb" stroke="#2563eb" points="1575.27,-1876.38 1572.98,-1869.33 1570.37,-1876.27 1575.27,-1876.38"/>
</g>
<!-- app.main&#45;&gt;app.data.database -->
<g id="edge10" class="edge">
<title>app.main&#45;&gt;app.data.database</title>
<path fill="none" stroke="#2563eb" d="M166.24,-601.66C193.87,-602.32 229.19,-608.21 250,-631.13 341.45,-731.86 200.63,-829.19 286,-935.13 381.01,-1053.03 858.25,-1079.54 1049.53,-1085.45"/>
<polygon fill="#2563eb" stroke="#2563eb" points="1049.7,-1087.91 1056.77,-1085.67 1049.84,-1083.01 1049.7,-1087.91"/>
</g>
<!-- app.main&#45;&gt;app.exchanges.base -->
<g id="edge11" class="edge">
<title>app.main&#45;&gt;app.exchanges.base</title>
<path fill="none" stroke="#2563eb" d="M166.19,-601.57C191.6,-598.51 224.38,-591.8 250,-577.13 270.47,-565.41 266.82,-551.87 286,-538.13 377.71,-472.43 410.01,-467.79 518,-435.13 942.26,-306.82 1482.66,-332.68 1690.1,-349.1"/>
<polygon fill="#2563eb" stroke="#2563eb" points="1690.16,-351.57 1697.33,-349.68 1690.55,-346.68 1690.16,-351.57"/>
</g>
<!-- app.main&#45;&gt;app.exchanges.bybit_client -->
<g id="edge12" class="edge">
<title>app.main&#45;&gt;app.exchanges.bybit_client</title>
<path fill="none" stroke="#2563eb" d="M166.07,-606.71C193.81,-606.15 229.32,-600.31 250,-577.13 303.22,-517.46 227.41,-273.53 286,-219.13 338.51,-170.37 803.73,-183.32 1019.71,-192.11"/>
<polygon fill="#2563eb" stroke="#2563eb" points="1019.88,-194.57 1026.97,-192.41 1020.08,-189.68 1019.88,-194.57"/>
</g>
<!-- app.main&#45;&gt;app.logger -->
<g id="edge13" class="edge">
<title>app.main&#45;&gt;app.logger</title>
<path fill="none" stroke="#2563eb" d="M166.28,-601.57C251.41,-596.38 455.86,-585.13 627.5,-585.13 627.5,-585.13 627.5,-585.13 884,-585.13 1039.1,-585.13 1221.65,-605.3 1309.33,-616.25"/>
<polygon fill="#2563eb" stroke="#2563eb" points="1309.25,-618.71 1316.5,-617.15 1309.86,-613.85 1309.25,-618.71"/>
</g>
<!-- app.market.features -->
<g id="node14" class="node">
<title>app.market.features</title>
<path fill="#f8fafc" stroke="#94a3b8" d="M1641,-785.13C1641,-785.13 1507,-785.13 1507,-785.13 1501,-785.13 1495,-779.13 1495,-773.13 1495,-773.13 1495,-761.13 1495,-761.13 1495,-755.13 1501,-749.13 1507,-749.13 1507,-749.13 1641,-749.13 1641,-749.13 1647,-749.13 1653,-755.13 1653,-761.13 1653,-761.13 1653,-773.13 1653,-773.13 1653,-779.13 1647,-785.13 1641,-785.13"/>
<text text-anchor="middle" x="1574" y="-763.43" font-family="Inter" font-size="14.00">app.market.features</text>
</g>
<!-- app.main&#45;&gt;app.market.features -->
<g id="edge14" class="edge">
<title>app.main&#45;&gt;app.market.features</title>
<path fill="none" stroke="#2563eb" d="M166.13,-606.77C193.9,-606.23 229.43,-600.4 250,-577.13 308.08,-511.42 224.14,-246.3 286,-184.13 393.55,-76.04 475.02,-151.13 627.5,-151.13 627.5,-151.13 627.5,-151.13 884,-151.13 1144.03,-151.13 1291.74,-72.54 1456,-274.13 1516.4,-348.25 1558.59,-651.99 1569.94,-741.93"/>
<polygon fill="#2563eb" stroke="#2563eb" points="1567.52,-742.35 1570.82,-748.99 1572.39,-741.74 1567.52,-742.35"/>
</g>
<!-- app.market.oi_tracker -->
<g id="node17" class="node">
<title>app.market.oi_tracker</title>
<path fill="#f8fafc" stroke="#94a3b8" d="M955,-257.13C955,-257.13 811,-257.13 811,-257.13 805,-257.13 799,-251.13 799,-245.13 799,-245.13 799,-233.13 799,-233.13 799,-227.13 805,-221.13 811,-221.13 811,-221.13 955,-221.13 955,-221.13 961,-221.13 967,-227.13 967,-233.13 967,-233.13 967,-245.13 967,-245.13 967,-251.13 961,-257.13 955,-257.13"/>
<text text-anchor="middle" x="883" y="-235.43" font-family="Inter" font-size="14.00">app.market.oi_tracker</text>
</g>
<!-- app.main&#45;&gt;app.market.oi_tracker -->
<g id="edge15" class="edge">
<title>app.main&#45;&gt;app.market.oi_tracker</title>
<path fill="none" stroke="#2563eb" d="M166.25,-606.6C193.88,-605.95 229.2,-600.06 250,-577.13 342.01,-475.71 186.15,-364.84 286,-271.13 356.73,-204.75 642.76,-218.35 791.36,-230.44"/>
<polygon fill="#2563eb" stroke="#2563eb" points="791.58,-232.92 798.76,-231.05 791.99,-228.04 791.58,-232.92"/>
</g>
<!-- app.market.symbol_selector -->
<g id="node19" class="node">
<title>app.market.symbol_selector</title>
<path fill="#f8fafc" stroke="#94a3b8" d="M977,-508.13C977,-508.13 789,-508.13 789,-508.13 783,-508.13 777,-502.13 777,-496.13 777,-496.13 777,-484.13 777,-484.13 777,-478.13 783,-472.13 789,-472.13 789,-472.13 977,-472.13 977,-472.13 983,-472.13 989,-478.13 989,-484.13 989,-484.13 989,-496.13 989,-496.13 989,-502.13 983,-508.13 977,-508.13"/>
<text text-anchor="middle" x="883" y="-486.43" font-family="Inter" font-size="14.00">app.market.symbol_selector</text>
</g>
<!-- app.main&#45;&gt;app.market.symbol_selector -->
<g id="edge16" class="edge">
<title>app.main&#45;&gt;app.market.symbol_selector</title>
<path fill="none" stroke="#2563eb" d="M166.3,-595.02C198.56,-587.92 245.04,-578.13 286,-571.13 453.91,-542.44 649.83,-517.42 769.88,-503.05"/>
<polygon fill="#2563eb" stroke="#2563eb" points="770.31,-505.46 776.97,-502.2 769.73,-500.6 770.31,-505.46"/>
</g>
<!-- app.paper.manager -->
<g id="node23" class="node">
<title>app.paper.manager</title>
<path fill="#f8fafc" stroke="#94a3b8" d="M947.5,-1959.13C947.5,-1959.13 818.5,-1959.13 818.5,-1959.13 812.5,-1959.13 806.5,-1953.13 806.5,-1947.13 806.5,-1947.13 806.5,-1935.13 806.5,-1935.13 806.5,-1929.13 812.5,-1923.13 818.5,-1923.13 818.5,-1923.13 947.5,-1923.13 947.5,-1923.13 953.5,-1923.13 959.5,-1929.13 959.5,-1935.13 959.5,-1935.13 959.5,-1947.13 959.5,-1947.13 959.5,-1953.13 953.5,-1959.13 947.5,-1959.13"/>
<text text-anchor="middle" x="883" y="-1937.43" font-family="Inter" font-size="14.00">app.paper.manager</text>
</g>
<!-- app.main&#45;&gt;app.paper.manager -->
<g id="edge17" class="edge">
<title>app.main&#45;&gt;app.paper.manager</title>
<path fill="none" stroke="#2563eb" d="M166.19,-601.17C194.18,-601.53 229.95,-607.26 250,-631.13 312.87,-705.97 240.63,-1423.55 286,-1510.13 404.34,-1735.98 700.67,-1871.72 825.33,-1920.52"/>
<polygon fill="#2563eb" stroke="#2563eb" points="824.44,-1922.8 831.86,-1923.05 826.22,-1918.23 824.44,-1922.8"/>
</g>
<!-- app.signals.outcome_tracker -->
<g id="node27" class="node">
<title>app.signals.outcome_tracker</title>
<path fill="#f8fafc" stroke="#94a3b8" d="M979,-823.13C979,-823.13 787,-823.13 787,-823.13 781,-823.13 775,-817.13 775,-811.13 775,-811.13 775,-799.13 775,-799.13 775,-793.13 781,-787.13 787,-787.13 787,-787.13 979,-787.13 979,-787.13 985,-787.13 991,-793.13 991,-799.13 991,-799.13 991,-811.13 991,-811.13 991,-817.13 985,-823.13 979,-823.13"/>
<text text-anchor="middle" x="883" y="-801.43" font-family="Inter" font-size="14.00">app.signals.outcome_tracker</text>
</g>
<!-- app.main&#45;&gt;app.signals.outcome_tracker -->
<g id="edge18" class="edge">
<title>app.main&#45;&gt;app.signals.outcome_tracker</title>
<path fill="none" stroke="#2563eb" d="M166.06,-612.27C190.41,-617.37 222.08,-624.25 250,-631.13 456.66,-682.04 698.68,-751.43 814.09,-785.13"/>
<polygon fill="#2563eb" stroke="#2563eb" points="813.43,-787.49 820.84,-787.1 814.8,-782.78 813.43,-787.49"/>
</g>
<!-- app.signals.signal_engine -->
<g id="node30" class="node">
<title>app.signals.signal_engine</title>
<path fill="#f8fafc" stroke="#94a3b8" d="M470,-926.13C470,-926.13 298,-926.13 298,-926.13 292,-926.13 286,-920.13 286,-914.13 286,-914.13 286,-902.13 286,-902.13 286,-896.13 292,-890.13 298,-890.13 298,-890.13 470,-890.13 470,-890.13 476,-890.13 482,-896.13 482,-902.13 482,-902.13 482,-914.13 482,-914.13 482,-920.13 476,-926.13 470,-926.13"/>
<text text-anchor="middle" x="384" y="-904.43" font-family="Inter" font-size="14.00">app.signals.signal_engine</text>
</g>
<!-- app.main&#45;&gt;app.signals.signal_engine -->
<g id="edge19" class="edge">
<title>app.main&#45;&gt;app.signals.signal_engine</title>
<path fill="none" stroke="#2563eb" d="M166.12,-604.08C192.47,-606 226.32,-612.41 250,-631.13 333.32,-696.97 367.48,-827.9 378.55,-882.89"/>
<polygon fill="#2563eb" stroke="#2563eb" points="376.16,-883.42 379.91,-889.82 380.97,-882.48 376.16,-883.42"/>
</g>
<!-- app.telegram.bot -->
<g id="node32" class="node">
<title>app.telegram.bot</title>
<path fill="#f8fafc" stroke="#94a3b8" d="M685,-1433.13C685,-1433.13 572,-1433.13 572,-1433.13 566,-1433.13 560,-1427.13 560,-1421.13 560,-1421.13 560,-1409.13 560,-1409.13 560,-1403.13 566,-1397.13 572,-1397.13 572,-1397.13 685,-1397.13 685,-1397.13 691,-1397.13 697,-1403.13 697,-1409.13 697,-1409.13 697,-1421.13 697,-1421.13 697,-1427.13 691,-1433.13 685,-1433.13"/>
<text text-anchor="middle" x="628.5" y="-1411.43" font-family="Inter" font-size="14.00">app.telegram.bot</text>
</g>
<!-- app.main&#45;&gt;app.telegram.bot -->
<g id="edge20" class="edge">
<title>app.main&#45;&gt;app.telegram.bot</title>
<path fill="none" stroke="#2563eb" d="M166.23,-601.4C194.04,-601.9 229.58,-607.71 250,-631.13 317.68,-708.75 244.11,-999.06 286,-1093.13 350.49,-1237.94 514.16,-1348.6 589.04,-1393.4"/>
<polygon fill="#2563eb" stroke="#2563eb" points="587.87,-1395.55 595.14,-1397.02 590.37,-1391.34 587.87,-1395.55"/>
</g>
<!-- app.main&#45;&gt;app.utils.math -->
<g id="edge21" class="edge">
<title>app.main&#45;&gt;app.utils.math</title>
<path fill="none" stroke="#2563eb" d="M166.22,-606.85C194.03,-606.35 229.57,-600.53 250,-577.13 316.7,-500.72 218.73,-198.03 286,-122.13 388.71,-6.25 472.66,-53.13 627.5,-53.13 627.5,-53.13 627.5,-53.13 1363.5,-53.13 1486.84,-53.13 1630.36,-66.6 1711.61,-75.49"/>
<polygon fill="#2563eb" stroke="#2563eb" points="1711.57,-77.95 1718.8,-76.28 1712.11,-73.08 1711.57,-77.95"/>
</g>
<!-- app.main&#45;&gt;app.utils.time -->
<g id="edge22" class="edge">
<title>app.main&#45;&gt;app.utils.time</title>
<path fill="none" stroke="#2563eb" d="M166,-601.09C194.08,-601.36 230.05,-607.03 250,-631.13 298.19,-689.35 264.15,-1918.77 286,-1991.13 353.57,-2214.9 393.74,-2391.13 627.5,-2391.13 627.5,-2391.13 627.5,-2391.13 1575,-2391.13 1752.29,-2391.13 1785.93,-2274.79 1863,-2115.13 1947.67,-1939.73 1953.69,-1298.65 1954.01,-1162.61"/>
<polygon fill="#2563eb" stroke="#2563eb" points="1956.46,-1162.45 1954.02,-1155.44 1951.56,-1162.44 1956.46,-1162.45"/>
</g>
<!-- app.market.__init__ -->
<g id="node13" class="node">
<title>app.market.__init__</title>
<path fill="#f8fafc" stroke="#94a3b8" d="M187.5,-838.13C187.5,-838.13 62.5,-838.13 62.5,-838.13 56.5,-838.13 50.5,-832.13 50.5,-826.13 50.5,-826.13 50.5,-814.13 50.5,-814.13 50.5,-808.13 56.5,-802.13 62.5,-802.13 62.5,-802.13 187.5,-802.13 187.5,-802.13 193.5,-802.13 199.5,-808.13 199.5,-814.13 199.5,-814.13 199.5,-826.13 199.5,-826.13 199.5,-832.13 193.5,-838.13 187.5,-838.13"/>
<text text-anchor="middle" x="125" y="-816.43" font-family="Inter" font-size="14.00">app.market.__init__</text>
</g>
<!-- app.market.features&#45;&gt;app.exchanges.base -->
<g id="edge23" class="edge">
<title>app.market.features&#45;&gt;app.exchanges.base</title>
<path fill="none" stroke="#2563eb" d="M1639.32,-749.12C1645.6,-745.31 1651.35,-740.7 1656,-735.13 1708.55,-672.16 1667.7,-632.47 1692,-554.13 1711.88,-490.05 1745.66,-418.53 1763.91,-381.82"/>
<polygon fill="#2563eb" stroke="#2563eb" points="1766.19,-382.74 1767.13,-375.38 1761.81,-380.55 1766.19,-382.74"/>
</g>
<!-- app.market.orderbook -->
<g id="node18" class="node">
<title>app.market.orderbook</title>
<path fill="#f8fafc" stroke="#94a3b8" d="M1851,-599.13C1851,-599.13 1704,-599.13 1704,-599.13 1698,-599.13 1692,-593.13 1692,-587.13 1692,-587.13 1692,-575.13 1692,-575.13 1692,-569.13 1698,-563.13 1704,-563.13 1704,-563.13 1851,-563.13 1851,-563.13 1857,-563.13 1863,-569.13 1863,-575.13 1863,-575.13 1863,-587.13 1863,-587.13 1863,-593.13 1857,-599.13 1851,-599.13"/>
<text text-anchor="middle" x="1777.5" y="-577.43" font-family="Inter" font-size="14.00">app.market.orderbook</text>
</g>
<!-- app.market.features&#45;&gt;app.market.orderbook -->
<g id="edge24" class="edge">
<title>app.market.features&#45;&gt;app.market.orderbook</title>
<path fill="none" stroke="#2563eb" d="M1631.96,-749.13C1640.42,-745.2 1648.73,-740.56 1656,-735.13 1704.19,-699.13 1743.4,-639.19 1762.97,-605.69"/>
<polygon fill="#2563eb" stroke="#2563eb" points="1765.25,-606.65 1766.62,-599.36 1761,-604.2 1765.25,-606.65"/>
</g>
<!-- app.market.features&#45;&gt;app.utils.math -->
<g id="edge25" class="edge">
<title>app.market.features&#45;&gt;app.utils.math</title>
<path fill="none" stroke="#2563eb" d="M1579.36,-749.11C1593.95,-689.18 1642.92,-491.29 1692,-330.13 1717,-248.03 1751.25,-152.23 1767.39,-107.93"/>
<polygon fill="#2563eb" stroke="#2563eb" points="1769.72,-108.69 1769.82,-101.27 1765.12,-107.01 1769.72,-108.69"/>
</g>
<!-- app.market.features&#45;&gt;app.utils.time -->
<g id="edge26" class="edge">
<title>app.market.features&#45;&gt;app.utils.time</title>
<path fill="none" stroke="#2563eb" d="M1653.11,-753.74C1717,-747.45 1805.83,-750.07 1863,-799.13 1911.28,-840.56 1941.46,-1040.31 1950.85,-1111.7"/>
<polygon fill="#2563eb" stroke="#2563eb" points="1948.46,-1112.35 1951.79,-1118.98 1953.32,-1111.72 1948.46,-1112.35"/>
</g>
<!-- app.market.funding_tracker -->
<g id="node15" class="node">
<title>app.market.funding_tracker</title>
<path fill="#f8fafc" stroke="#94a3b8" d="M218,-892.13C218,-892.13 32,-892.13 32,-892.13 26,-892.13 20,-886.13 20,-880.13 20,-880.13 20,-868.13 20,-868.13 20,-862.13 26,-856.13 32,-856.13 32,-856.13 218,-856.13 218,-856.13 224,-856.13 230,-862.13 230,-868.13 230,-868.13 230,-880.13 230,-880.13 230,-886.13 224,-892.13 218,-892.13"/>
<text text-anchor="middle" x="125" y="-870.43" font-family="Inter" font-size="14.00">app.market.funding_tracker</text>
</g>
<!-- app.market.liquidation_tracker -->
<g id="node16" class="node">
<title>app.market.liquidation_tracker</title>
<path fill="#f8fafc" stroke="#94a3b8" d="M227.5,-946.13C227.5,-946.13 22.5,-946.13 22.5,-946.13 16.5,-946.13 10.5,-940.13 10.5,-934.13 10.5,-934.13 10.5,-922.13 10.5,-922.13 10.5,-916.13 16.5,-910.13 22.5,-910.13 22.5,-910.13 227.5,-910.13 227.5,-910.13 233.5,-910.13 239.5,-916.13 239.5,-922.13 239.5,-922.13 239.5,-934.13 239.5,-934.13 239.5,-940.13 233.5,-946.13 227.5,-946.13"/>
<text text-anchor="middle" x="125" y="-924.43" font-family="Inter" font-size="14.00">app.market.liquidation_tracker</text>
</g>
<!-- app.market.oi_tracker&#45;&gt;app.exchanges.bybit_client -->
<g id="edge27" class="edge">
<title>app.market.oi_tracker&#45;&gt;app.exchanges.bybit_client</title>
<path fill="none" stroke="#2563eb" d="M967.29,-224.85C984.19,-221.95 1002.2,-218.87 1019.84,-215.84"/>
<polygon fill="#2563eb" stroke="#2563eb" points="1020.36,-218.24 1026.84,-214.64 1019.53,-213.41 1020.36,-218.24"/>
</g>
<!-- app.market.oi_tracker&#45;&gt;app.logger -->
<g id="edge28" class="edge">
<title>app.market.oi_tracker&#45;&gt;app.logger</title>
<path fill="none" stroke="#2563eb" d="M906.39,-257.13C984.7,-320.11 1246.29,-530.47 1333.17,-600.35"/>
<polygon fill="#2563eb" stroke="#2563eb" points="1331.89,-602.46 1338.88,-604.94 1334.96,-598.64 1331.89,-602.46"/>
</g>
<!-- app.market.oi_tracker&#45;&gt;app.market.features -->
<g id="edge29" class="edge">
<title>app.market.oi_tracker&#45;&gt;app.market.features</title>
<path fill="none" stroke="#2563eb" d="M967.18,-235.7C1090.44,-235.32 1321.47,-253.29 1456,-381.13 1561.33,-481.22 1572.78,-672.66 1573.33,-741.6"/>
<polygon fill="#2563eb" stroke="#2563eb" points="1570.89,-742.01 1573.36,-749.01 1575.79,-742 1570.89,-742.01"/>
</g>
<!-- app.market.oi_tracker&#45;&gt;app.utils.time -->
<g id="edge30" class="edge">
<title>app.market.oi_tracker&#45;&gt;app.utils.time</title>
<path fill="none" stroke="#2563eb" d="M905.17,-220.8C969.19,-167.3 1168.29,-15.13 1361.5,-15.13 1361.5,-15.13 1361.5,-15.13 1575,-15.13 1704.29,-15.13 1774.24,37.88 1863,-56.13 1937.86,-135.42 1951.75,-955.93 1953.72,-1111.68"/>
<polygon fill="#2563eb" stroke="#2563eb" points="1951.27,-1112.02 1953.81,-1118.99 1956.17,-1111.96 1951.27,-1112.02"/>
</g>
<!-- app.market.symbol_selector&#45;&gt;app.config -->
<g id="edge31" class="edge">
<title>app.market.symbol_selector&#45;&gt;app.config</title>
<path fill="none" stroke="#2563eb" d="M989.04,-493.53C1138.36,-500.89 1400.16,-524.01 1456,-596.13 1494.72,-646.13 1486.3,-1101.15 1492,-1164.13 1515.5,-1423.56 1557.33,-1736.55 1569.55,-1826.1"/>
<polygon fill="#2563eb" stroke="#2563eb" points="1567.14,-1826.52 1570.51,-1833.12 1571.99,-1825.85 1567.14,-1826.52"/>
</g>
<!-- app.market.symbol_selector&#45;&gt;app.data.database -->
<g id="edge32" class="edge">
<title>app.market.symbol_selector&#45;&gt;app.data.database</title>
<path fill="none" stroke="#2563eb" d="M891.47,-508.32C926.9,-594.67 1078.11,-963.12 1118.85,-1062.4"/>
<polygon fill="#2563eb" stroke="#2563eb" points="1116.67,-1063.53 1121.59,-1069.08 1121.2,-1061.67 1116.67,-1063.53"/>
</g>
<!-- app.market.symbol_selector&#45;&gt;app.data.repositories -->
<g id="edge33" class="edge">
<title>app.market.symbol_selector&#45;&gt;app.data.repositories</title>
<path fill="none" stroke="#2563eb" d="M989.22,-475.24C1135.44,-457.12 1389.62,-435.74 1456,-495.13 1505.88,-539.75 1480.29,-728.24 1492,-794.13 1513.36,-914.34 1550.63,-1055.54 1566.04,-1111.98"/>
<polygon fill="#2563eb" stroke="#2563eb" points="1563.76,-1112.95 1567.97,-1119.06 1568.49,-1111.66 1563.76,-1112.95"/>
</g>
<!-- app.market.symbol_selector&#45;&gt;app.exchanges.base -->
<g id="edge34" class="edge">
<title>app.market.symbol_selector&#45;&gt;app.exchanges.base</title>
<path fill="none" stroke="#2563eb" d="M916.71,-472.08C945.01,-457.36 987.48,-437.39 1027,-427.13 1261.48,-366.24 1549.37,-356.83 1690.37,-356.27"/>
<polygon fill="#2563eb" stroke="#2563eb" points="1690.39,-358.72 1697.39,-356.25 1690.38,-353.82 1690.39,-358.72"/>
</g>
<!-- app.market.symbol_selector&#45;&gt;app.exchanges.bybit_client -->
<g id="edge35" class="edge">
<title>app.market.symbol_selector&#45;&gt;app.exchanges.bybit_client</title>
<path fill="none" stroke="#2563eb" d="M899.33,-471.8C941.86,-420.93 1061.39,-277.99 1109.03,-221.01"/>
<polygon fill="#2563eb" stroke="#2563eb" points="1111.07,-222.39 1113.68,-215.45 1107.31,-219.25 1111.07,-222.39"/>
</g>
<!-- app.market.symbol_selector&#45;&gt;app.logger -->
<g id="edge36" class="edge">
<title>app.market.symbol_selector&#45;&gt;app.logger</title>
<path fill="none" stroke="#2563eb" d="M962.26,-508.21C1064.14,-531.77 1229.72,-570.09 1233,-571.13 1260.69,-579.88 1290.82,-591.94 1314.94,-602.24"/>
<polygon fill="#2563eb" stroke="#2563eb" points="1314.18,-604.58 1321.58,-605.09 1316.12,-600.07 1314.18,-604.58"/>
</g>
<!-- app.market.symbol_selector&#45;&gt;app.market.orderbook -->
<g id="edge37" class="edge">
<title>app.market.symbol_selector&#45;&gt;app.market.orderbook</title>
<path fill="none" stroke="#2563eb" d="M940.07,-472.11C966.19,-464.63 997.87,-456.84 1027,-453.13 1216.14,-429.06 1268.76,-417.12 1456,-453.13 1562.44,-473.6 1678.5,-529.06 1737.42,-559.83"/>
<polygon fill="#2563eb" stroke="#2563eb" points="1736.3,-562.01 1743.64,-563.1 1738.58,-557.67 1736.3,-562.01"/>
</g>
<!-- app.paper.__init__ -->
<g id="node20" class="node">
<title>app.paper.__init__</title>
<path fill="#f8fafc" stroke="#94a3b8" d="M183,-1000.13C183,-1000.13 67,-1000.13 67,-1000.13 61,-1000.13 55,-994.13 55,-988.13 55,-988.13 55,-976.13 55,-976.13 55,-970.13 61,-964.13 67,-964.13 67,-964.13 183,-964.13 183,-964.13 189,-964.13 195,-970.13 195,-976.13 195,-976.13 195,-988.13 195,-988.13 195,-994.13 189,-1000.13 183,-1000.13"/>
<text text-anchor="middle" x="125" y="-978.43" font-family="Inter" font-size="14.00">app.paper.__init__</text>
</g>
<!-- app.paper.account -->
<g id="node21" class="node">
<title>app.paper.account</title>
<path fill="#f8fafc" stroke="#94a3b8" d="M1423.5,-2029.13C1423.5,-2029.13 1301.5,-2029.13 1301.5,-2029.13 1295.5,-2029.13 1289.5,-2023.13 1289.5,-2017.13 1289.5,-2017.13 1289.5,-2005.13 1289.5,-2005.13 1289.5,-1999.13 1295.5,-1993.13 1301.5,-1993.13 1301.5,-1993.13 1423.5,-1993.13 1423.5,-1993.13 1429.5,-1993.13 1435.5,-1999.13 1435.5,-2005.13 1435.5,-2005.13 1435.5,-2017.13 1435.5,-2017.13 1435.5,-2023.13 1429.5,-2029.13 1423.5,-2029.13"/>
<text text-anchor="middle" x="1362.5" y="-2007.43" font-family="Inter" font-size="14.00">app.paper.account</text>
</g>
<!-- app.paper.account&#45;&gt;app.config -->
<g id="edge38" class="edge">
<title>app.paper.account&#45;&gt;app.config</title>
<path fill="none" stroke="#2563eb" d="M1387.5,-1993.05C1406.19,-1978.95 1432.78,-1958.84 1456,-1941.13 1485.86,-1918.34 1519.89,-1892.15 1543.51,-1873.91"/>
<polygon fill="#2563eb" stroke="#2563eb" points="1545.24,-1875.67 1549.29,-1869.46 1542.25,-1871.79 1545.24,-1875.67"/>
</g>
<!-- app.paper.account&#45;&gt;app.data.models -->
<g id="edge39" class="edge">
<title>app.paper.account&#45;&gt;app.data.models</title>
<path fill="none" stroke="#2563eb" d="M1435.64,-2022.93C1500.13,-2029.3 1593.79,-2027.7 1656,-1979.13 1753.12,-1903.31 1771.97,-1741.03 1775.63,-1678.46"/>
<polygon fill="#2563eb" stroke="#2563eb" points="1778.08,-1678.45 1776,-1671.33 1773.19,-1678.2 1778.08,-1678.45"/>
</g>
<!-- app.paper.account&#45;&gt;app.utils.time -->
<g id="edge40" class="edge">
<title>app.paper.account&#45;&gt;app.utils.time</title>
<path fill="none" stroke="#2563eb" d="M1435.65,-2028.65C1496.98,-2039.82 1585.96,-2047.05 1656,-2016.13 1780.91,-1960.99 1804.97,-1912.72 1863,-1789.13 1916.96,-1674.21 1945.8,-1267.7 1952.48,-1162.26"/>
<polygon fill="#2563eb" stroke="#2563eb" points="1954.93,-1162.34 1952.92,-1155.2 1950.04,-1162.03 1954.93,-1162.34"/>
</g>
<!-- app.paper.executor -->
<g id="node22" class="node">
<title>app.paper.executor</title>
<path fill="#f8fafc" stroke="#94a3b8" d="M1193.5,-2135.13C1193.5,-2135.13 1066.5,-2135.13 1066.5,-2135.13 1060.5,-2135.13 1054.5,-2129.13 1054.5,-2123.13 1054.5,-2123.13 1054.5,-2111.13 1054.5,-2111.13 1054.5,-2105.13 1060.5,-2099.13 1066.5,-2099.13 1066.5,-2099.13 1193.5,-2099.13 1193.5,-2099.13 1199.5,-2099.13 1205.5,-2105.13 1205.5,-2111.13 1205.5,-2111.13 1205.5,-2123.13 1205.5,-2123.13 1205.5,-2129.13 1199.5,-2135.13 1193.5,-2135.13"/>
<text text-anchor="middle" x="1130" y="-2113.43" font-family="Inter" font-size="14.00">app.paper.executor</text>
</g>
<!-- app.paper.executor&#45;&gt;app.config -->
<g id="edge41" class="edge">
<title>app.paper.executor&#45;&gt;app.config</title>
<path fill="none" stroke="#2563eb" d="M1203.18,-2099.1C1213.25,-2096.27 1223.42,-2093.25 1233,-2090.13 1249.32,-2084.81 1252.53,-2080.97 1269,-2076.13 1350.37,-2052.23 1386.3,-2086.44 1456,-2038.13 1514.76,-1997.4 1550.04,-1916.62 1564.84,-1875.87"/>
<polygon fill="#2563eb" stroke="#2563eb" points="1567.17,-1876.63 1567.2,-1869.21 1562.55,-1874.99 1567.17,-1876.63"/>
</g>
<!-- app.paper.executor&#45;&gt;app.data.models -->
<g id="edge42" class="edge">
<title>app.paper.executor&#45;&gt;app.data.models</title>
<path fill="none" stroke="#2563eb" d="M1205.75,-2125.46C1226.23,-2127.39 1248.45,-2129.16 1269,-2130.13 1448.11,-2138.55 1542.33,-2154.8 1656,-2016.13 1742.16,-1911.02 1767.57,-1741.94 1774.3,-1678.37"/>
<polygon fill="#2563eb" stroke="#2563eb" points="1776.76,-1678.37 1775.03,-1671.15 1771.89,-1677.87 1776.76,-1678.37"/>
</g>
<!-- app.paper.executor&#45;&gt;app.logger -->
<g id="edge43" class="edge">
<title>app.paper.executor&#45;&gt;app.logger</title>
<path fill="none" stroke="#2563eb" d="M1205.69,-2109.36C1216.23,-2105.13 1225.88,-2098.98 1233,-2090.13 1262.45,-2053.51 1264.54,-1291.9 1269,-1245.13 1291.24,-1011.98 1341.16,-732.8 1356.75,-648.46"/>
<polygon fill="#2563eb" stroke="#2563eb" points="1359.2,-648.69 1358.07,-641.36 1354.39,-647.8 1359.2,-648.69"/>
</g>
<!-- app.paper.executor&#45;&gt;app.paper.account -->
<g id="edge44" class="edge">
<title>app.paper.executor&#45;&gt;app.paper.account</title>
<path fill="none" stroke="#2563eb" d="M1205.66,-2103.57C1215.3,-2100.07 1224.69,-2095.67 1233,-2090.13 1254.89,-2075.53 1247.66,-2058.53 1269,-2043.13 1274.68,-2039.03 1280.94,-2035.42 1287.43,-2032.24"/>
<polygon fill="#2563eb" stroke="#2563eb" points="1288.66,-2034.38 1293.99,-2029.22 1286.61,-2029.93 1288.66,-2034.38"/>
</g>
<!-- app.paper.risk -->
<g id="node24" class="node">
<title>app.paper.risk</title>
<path fill="#f8fafc" stroke="#94a3b8" d="M1408.5,-2121.13C1408.5,-2121.13 1316.5,-2121.13 1316.5,-2121.13 1310.5,-2121.13 1304.5,-2115.13 1304.5,-2109.13 1304.5,-2109.13 1304.5,-2097.13 1304.5,-2097.13 1304.5,-2091.13 1310.5,-2085.13 1316.5,-2085.13 1316.5,-2085.13 1408.5,-2085.13 1408.5,-2085.13 1414.5,-2085.13 1420.5,-2091.13 1420.5,-2097.13 1420.5,-2097.13 1420.5,-2109.13 1420.5,-2109.13 1420.5,-2115.13 1414.5,-2121.13 1408.5,-2121.13"/>
<text text-anchor="middle" x="1362.5" y="-2099.43" font-family="Inter" font-size="14.00">app.paper.risk</text>
</g>
<!-- app.paper.executor&#45;&gt;app.paper.risk -->
<g id="edge45" class="edge">
<title>app.paper.executor&#45;&gt;app.paper.risk</title>
<path fill="none" stroke="#2563eb" d="M1205.52,-2112.6C1235.1,-2110.81 1268.8,-2108.76 1297.29,-2107.03"/>
<polygon fill="#2563eb" stroke="#2563eb" points="1297.57,-2109.47 1304.41,-2106.6 1297.27,-2104.58 1297.57,-2109.47"/>
</g>
<!-- app.paper.executor&#45;&gt;app.utils.time -->
<g id="edge46" class="edge">
<title>app.paper.executor&#45;&gt;app.utils.time</title>
<path fill="none" stroke="#2563eb" d="M1202.89,-2135.17C1224.05,-2139.68 1247.33,-2143.88 1269,-2146.13 1351.67,-2154.72 1373.8,-2158.39 1456,-2146.13 1663.48,-2115.19 1764.44,-2092.3 1863,-1907.13 1934.09,-1773.56 1950.5,-1280.76 1953.44,-1162.68"/>
<polygon fill="#2563eb" stroke="#2563eb" points="1955.9,-1162.51 1953.62,-1155.45 1951,-1162.39 1955.9,-1162.51"/>
</g>
<!-- app.paper.manager&#45;&gt;app.config -->
<g id="edge47" class="edge">
<title>app.paper.manager&#45;&gt;app.config</title>
<path fill="none" stroke="#2563eb" d="M959.71,-1931.24C1101.09,-1912.77 1401.79,-1873.49 1521.89,-1857.8"/>
<polygon fill="#2563eb" stroke="#2563eb" points="1522.23,-1860.23 1528.85,-1856.9 1521.6,-1855.37 1522.23,-1860.23"/>
</g>
<!-- app.paper.manager&#45;&gt;app.data.database -->
<g id="edge48" class="edge">
<title>app.paper.manager&#45;&gt;app.data.database</title>
<path fill="none" stroke="#2563eb" d="M893.28,-1922.85C914.69,-1879.77 967.47,-1767.97 991,-1668.13 1032.14,-1493.53 973.37,-1437.31 1027,-1266.13 1045.83,-1206.04 1086.99,-1143.95 1110.87,-1111.02"/>
<polygon fill="#2563eb" stroke="#2563eb" points="1112.96,-1112.32 1115.12,-1105.22 1109.01,-1109.42 1112.96,-1112.32"/>
</g>
<!-- app.paper.manager&#45;&gt;app.data.models -->
<g id="edge49" class="edge">
<title>app.paper.manager&#45;&gt;app.data.models</title>
<path fill="none" stroke="#2563eb" d="M959.75,-1944.98C1132.4,-1952.2 1548.42,-1960.34 1656,-1878.13 1691.22,-1851.22 1671.95,-1824.66 1692,-1785.13 1712.05,-1745.59 1740.81,-1702.91 1759.07,-1677.1"/>
<polygon fill="#2563eb" stroke="#2563eb" points="1761.18,-1678.35 1763.25,-1671.23 1757.19,-1675.51 1761.18,-1678.35"/>
</g>
<!-- app.paper.manager&#45;&gt;app.logger -->
<g id="edge50" class="edge">
<title>app.paper.manager&#45;&gt;app.logger</title>
<path fill="none" stroke="#2563eb" d="M892.51,-1923.01C912.49,-1879.82 962.82,-1767.02 991,-1668.13 1015.27,-1582.95 980.08,-1547.24 1027,-1472.13 1087.28,-1375.63 1172.69,-1416.61 1233,-1320.13 1305.85,-1203.6 1349.4,-759.79 1359.32,-648.54"/>
<polygon fill="#2563eb" stroke="#2563eb" points="1361.77,-648.59 1359.95,-641.4 1356.89,-648.16 1361.77,-648.59"/>
</g>
<!-- app.paper.manager&#45;&gt;app.paper.account -->
<g id="edge51" class="edge">
<title>app.paper.manager&#45;&gt;app.paper.account</title>
<path fill="none" stroke="#2563eb" d="M923.76,-1959.19C951.96,-1971.09 991.02,-1985.79 1027,-1993.13 1112.91,-2010.66 1213.64,-2013.78 1281.94,-2013.39"/>
<polygon fill="#2563eb" stroke="#2563eb" points="1282.29,-2015.84 1289.27,-2013.33 1282.26,-2010.94 1282.29,-2015.84"/>
</g>
<!-- app.paper.manager&#45;&gt;app.paper.executor -->
<g id="edge52" class="edge">
<title>app.paper.manager&#45;&gt;app.paper.executor</title>
<path fill="none" stroke="#2563eb" d="M896.26,-1959.34C918.49,-1990.91 968.61,-2055.73 1027,-2090.13 1033.46,-2093.94 1040.47,-2097.22 1047.68,-2100.04"/>
<polygon fill="#2563eb" stroke="#2563eb" points="1046.94,-2102.38 1054.35,-2102.51 1048.64,-2097.78 1046.94,-2102.38"/>
</g>
<!-- app.paper.manager&#45;&gt;app.paper.risk -->
<g id="edge53" class="edge">
<title>app.paper.manager&#45;&gt;app.paper.risk</title>
<path fill="none" stroke="#2563eb" d="M890.2,-1959.37C905.57,-2001.33 949.89,-2104.13 1027,-2144.13 1108.27,-2186.29 1142.53,-2158.21 1233,-2144.13 1246.97,-2141.95 1276.36,-2132.71 1303.51,-2123.54"/>
<polygon fill="#2563eb" stroke="#2563eb" points="1304.51,-2125.79 1310.35,-2121.22 1302.93,-2121.15 1304.51,-2125.79"/>
</g>
<!-- app.paper.manager&#45;&gt;app.utils.time -->
<g id="edge54" class="edge">
<title>app.paper.manager&#45;&gt;app.utils.time</title>
<path fill="none" stroke="#2563eb" d="M888.79,-1959.15C901.91,-2004.45 943.19,-2122.76 1027,-2169.13 1357.95,-2352.22 1660.27,-2329.42 1863,-2010.13 1955.8,-1863.97 1955.55,-1289.5 1954.33,-1162.2"/>
<polygon fill="#2563eb" stroke="#2563eb" points="1956.78,-1162.11 1954.25,-1155.13 1951.88,-1162.16 1956.78,-1162.11"/>
</g>
<!-- app.paper.risk&#45;&gt;app.config -->
<g id="edge55" class="edge">
<title>app.paper.risk&#45;&gt;app.config</title>
<path fill="none" stroke="#2563eb" d="M1420.86,-2090.73C1433.41,-2086.08 1445.93,-2079.74 1456,-2071.13 1518.72,-2017.48 1552.94,-1921.6 1566.3,-1876.24"/>
<polygon fill="#2563eb" stroke="#2563eb" points="1568.69,-1876.81 1568.27,-1869.4 1563.98,-1875.45 1568.69,-1876.81"/>
</g>
<!-- app.paper.statistics -->
<g id="node25" class="node">
<title>app.paper.statistics</title>
<path fill="#f8fafc" stroke="#94a3b8" d="M1426.5,-1671.13C1426.5,-1671.13 1298.5,-1671.13 1298.5,-1671.13 1292.5,-1671.13 1286.5,-1665.13 1286.5,-1659.13 1286.5,-1659.13 1286.5,-1647.13 1286.5,-1647.13 1286.5,-1641.13 1292.5,-1635.13 1298.5,-1635.13 1298.5,-1635.13 1426.5,-1635.13 1426.5,-1635.13 1432.5,-1635.13 1438.5,-1641.13 1438.5,-1647.13 1438.5,-1647.13 1438.5,-1659.13 1438.5,-1659.13 1438.5,-1665.13 1432.5,-1671.13 1426.5,-1671.13"/>
<text text-anchor="middle" x="1362.5" y="-1649.43" font-family="Inter" font-size="14.00">app.paper.statistics</text>
</g>
<!-- app.paper.statistics&#45;&gt;app.data.models -->
<g id="edge56" class="edge">
<title>app.paper.statistics&#45;&gt;app.data.models</title>
<path fill="none" stroke="#2563eb" d="M1438.77,-1653.13C1514.16,-1653.13 1629.41,-1653.13 1703.86,-1653.13"/>
<polygon fill="#2563eb" stroke="#2563eb" points="1703.93,-1655.58 1710.93,-1653.13 1703.93,-1650.68 1703.93,-1655.58"/>
</g>
<!-- app.paper.statistics&#45;&gt;app.data.repositories -->
<g id="edge57" class="edge">
<title>app.paper.statistics&#45;&gt;app.data.repositories</title>
<path fill="none" stroke="#2563eb" d="M1438.75,-1638.98C1445.14,-1635.56 1451.04,-1631.34 1456,-1626.13 1521.42,-1557.41 1560.1,-1252.78 1570.28,-1162.46"/>
<polygon fill="#2563eb" stroke="#2563eb" points="1572.73,-1162.58 1571.07,-1155.36 1567.86,-1162.04 1572.73,-1162.58"/>
</g>
<!-- app.signals.__init__ -->
<g id="node26" class="node">
<title>app.signals.__init__</title>
<path fill="#f8fafc" stroke="#94a3b8" d="M187.5,-1054.13C187.5,-1054.13 62.5,-1054.13 62.5,-1054.13 56.5,-1054.13 50.5,-1048.13 50.5,-1042.13 50.5,-1042.13 50.5,-1030.13 50.5,-1030.13 50.5,-1024.13 56.5,-1018.13 62.5,-1018.13 62.5,-1018.13 187.5,-1018.13 187.5,-1018.13 193.5,-1018.13 199.5,-1024.13 199.5,-1030.13 199.5,-1030.13 199.5,-1042.13 199.5,-1042.13 199.5,-1048.13 193.5,-1054.13 187.5,-1054.13"/>
<text text-anchor="middle" x="125" y="-1032.43" font-family="Inter" font-size="14.00">app.signals.__init__</text>
</g>
<!-- app.signals.outcome_tracker&#45;&gt;app.config -->
<g id="edge58" class="edge">
<title>app.signals.outcome_tracker&#45;&gt;app.config</title>
<path fill="none" stroke="#2563eb" d="M926.24,-823.21C993.89,-853.08 1129.46,-916.67 1233,-989.13 1342.56,-1065.8 1391.29,-1074.1 1456,-1191.13 1518.62,-1304.38 1560.75,-1719.02 1570.72,-1825.87"/>
<polygon fill="#2563eb" stroke="#2563eb" points="1568.3,-1826.28 1571.38,-1833.03 1573.18,-1825.83 1568.3,-1826.28"/>
</g>
<!-- app.signals.outcome_tracker&#45;&gt;app.data.database -->
<g id="edge59" class="edge">
<title>app.signals.outcome_tracker&#45;&gt;app.data.database</title>
<path fill="none" stroke="#2563eb" d="M898.22,-823.25C923.48,-855.27 978.14,-923.69 1027,-979.13 1053.25,-1008.92 1084.82,-1041.94 1105.81,-1063.53"/>
<polygon fill="#2563eb" stroke="#2563eb" points="1104.27,-1065.46 1110.91,-1068.76 1107.78,-1062.04 1104.27,-1065.46"/>
</g>
<!-- app.signals.outcome_tracker&#45;&gt;app.data.repositories -->
<g id="edge60" class="edge">
<title>app.signals.outcome_tracker&#45;&gt;app.data.repositories</title>
<path fill="none" stroke="#2563eb" d="M991.02,-822.68C1135.23,-847.95 1382.38,-897.49 1456,-951.13 1513.42,-992.96 1549.21,-1072.36 1564.46,-1112.53"/>
<polygon fill="#2563eb" stroke="#2563eb" points="1562.16,-1113.39 1566.9,-1119.1 1566.76,-1111.68 1562.16,-1113.39"/>
</g>
<!-- app.signals.outcome_tracker&#45;&gt;app.logger -->
<g id="edge61" class="edge">
<title>app.signals.outcome_tracker&#45;&gt;app.logger</title>
<path fill="none" stroke="#2563eb" d="M899.97,-786.71C924.43,-759.78 973.94,-710.15 1027,-685.13 1076.26,-661.89 1228.16,-639.96 1309.24,-629.51"/>
<polygon fill="#2563eb" stroke="#2563eb" points="1309.75,-631.91 1316.38,-628.59 1309.13,-627.05 1309.75,-631.91"/>
</g>
<!-- app.signals.outcome_tracker&#45;&gt;app.market.features -->
<g id="edge62" class="edge">
<title>app.signals.outcome_tracker&#45;&gt;app.market.features</title>
<path fill="none" stroke="#2563eb" d="M991.28,-799.21C1128.26,-791.66 1362.5,-778.74 1487.88,-771.82"/>
<polygon fill="#2563eb" stroke="#2563eb" points="1488.02,-774.27 1494.87,-771.44 1487.75,-769.38 1488.02,-774.27"/>
</g>
<!-- app.signals.outcome_tracker&#45;&gt;app.utils.time -->
<g id="edge63" class="edge">
<title>app.signals.outcome_tracker&#45;&gt;app.utils.time</title>
<path fill="none" stroke="#2563eb" d="M991.14,-807.95C1087.91,-810.25 1234.23,-813.13 1361.5,-813.13 1361.5,-813.13 1361.5,-813.13 1575,-813.13 1705.93,-813.13 1764.93,-788.37 1863,-875.13 1933.98,-937.92 1949.61,-1059.03 1953.04,-1111.67"/>
<polygon fill="#2563eb" stroke="#2563eb" points="1950.61,-1112.07 1953.46,-1118.92 1955.5,-1111.79 1950.61,-1112.07"/>
</g>
<!-- app.signals.patterns -->
<g id="node28" class="node">
<title>app.signals.patterns</title>
<path fill="#f8fafc" stroke="#94a3b8" d="M1429.5,-1290.13C1429.5,-1290.13 1295.5,-1290.13 1295.5,-1290.13 1289.5,-1290.13 1283.5,-1284.13 1283.5,-1278.13 1283.5,-1278.13 1283.5,-1266.13 1283.5,-1266.13 1283.5,-1260.13 1289.5,-1254.13 1295.5,-1254.13 1295.5,-1254.13 1429.5,-1254.13 1429.5,-1254.13 1435.5,-1254.13 1441.5,-1260.13 1441.5,-1266.13 1441.5,-1266.13 1441.5,-1278.13 1441.5,-1278.13 1441.5,-1284.13 1435.5,-1290.13 1429.5,-1290.13"/>
<text text-anchor="middle" x="1362.5" y="-1268.43" font-family="Inter" font-size="14.00">app.signals.patterns</text>
</g>
<!-- app.signals.patterns&#45;&gt;app.config -->
<g id="edge64" class="edge">
<title>app.signals.patterns&#45;&gt;app.config</title>
<path fill="none" stroke="#2563eb" d="M1378.83,-1290.43C1399.22,-1315.63 1435.11,-1363.14 1456,-1409.13 1524.09,-1559.05 1558.66,-1756.23 1569.32,-1825.64"/>
<polygon fill="#2563eb" stroke="#2563eb" points="1566.92,-1826.15 1570.39,-1832.71 1571.76,-1825.42 1566.92,-1826.15"/>
</g>
<!-- app.signals.patterns&#45;&gt;app.market.features -->
<g id="edge65" class="edge">
<title>app.signals.patterns&#45;&gt;app.market.features</title>
<path fill="none" stroke="#2563eb" d="M1371.08,-1253.86C1402.93,-1177.07 1526,-880.42 1562.65,-792.09"/>
<polygon fill="#2563eb" stroke="#2563eb" points="1565.01,-792.78 1565.43,-785.38 1560.48,-790.9 1565.01,-792.78"/>
</g>
<!-- app.signals.scoring -->
<g id="node29" class="node">
<title>app.signals.scoring</title>
<path fill="#f8fafc" stroke="#94a3b8" d="M1194,-1311.13C1194,-1311.13 1066,-1311.13 1066,-1311.13 1060,-1311.13 1054,-1305.13 1054,-1299.13 1054,-1299.13 1054,-1287.13 1054,-1287.13 1054,-1281.13 1060,-1275.13 1066,-1275.13 1066,-1275.13 1194,-1275.13 1194,-1275.13 1200,-1275.13 1206,-1281.13 1206,-1287.13 1206,-1287.13 1206,-1299.13 1206,-1299.13 1206,-1305.13 1200,-1311.13 1194,-1311.13"/>
<text text-anchor="middle" x="1130" y="-1289.43" font-family="Inter" font-size="14.00">app.signals.scoring</text>
</g>
<!-- app.signals.scoring&#45;&gt;app.config -->
<g id="edge66" class="edge">
<title>app.signals.scoring&#45;&gt;app.config</title>
<path fill="none" stroke="#2563eb" d="M1143.05,-1311.41C1164.5,-1342.39 1212.39,-1404.99 1269,-1437.13 1343.16,-1479.23 1393.35,-1422.27 1456,-1480.13 1558.48,-1574.77 1571.75,-1758.19 1573.06,-1825.53"/>
<polygon fill="#2563eb" stroke="#2563eb" points="1570.61,-1825.82 1573.16,-1832.79 1575.51,-1825.76 1570.61,-1825.82"/>
</g>
<!-- app.signals.scoring&#45;&gt;app.signals.patterns -->
<g id="edge67" class="edge">
<title>app.signals.scoring&#45;&gt;app.signals.patterns</title>
<path fill="none" stroke="#2563eb" d="M1206.16,-1286.28C1228.54,-1284.24 1253.23,-1281.99 1276.21,-1279.9"/>
<polygon fill="#2563eb" stroke="#2563eb" points="1276.53,-1282.33 1283.28,-1279.26 1276.09,-1277.45 1276.53,-1282.33"/>
</g>
<!-- app.signals.signal_engine&#45;&gt;app.config -->
<g id="edge68" class="edge">
<title>app.signals.signal_engine&#45;&gt;app.config</title>
<path fill="none" stroke="#2563eb" d="M482.36,-915.05C692.86,-930.84 1176.02,-971.82 1233,-1019.13 1269.02,-1049.04 1240.24,-1081.19 1269,-1118.13 1330.72,-1197.4 1400.74,-1161.23 1456,-1245.13 1521.12,-1343.99 1560.99,-1723.69 1570.69,-1825.75"/>
<polygon fill="#2563eb" stroke="#2563eb" points="1568.26,-1826.14 1571.36,-1832.88 1573.14,-1825.68 1568.26,-1826.14"/>
</g>
<!-- app.signals.signal_engine&#45;&gt;app.data.database -->
<g id="edge69" class="edge">
<title>app.signals.signal_engine&#45;&gt;app.data.database</title>
<path fill="none" stroke="#2563eb" d="M412.61,-926.22C438.72,-942.5 479.53,-965.84 518,-979.13 567.61,-996.27 895.85,-1049.91 1049.69,-1074.54"/>
<polygon fill="#2563eb" stroke="#2563eb" points="1049.58,-1077 1056.88,-1075.69 1050.36,-1072.17 1049.58,-1077"/>
</g>
<!-- app.signals.signal_engine&#45;&gt;app.data.repositories -->
<g id="edge70" class="edge">
<title>app.signals.signal_engine&#45;&gt;app.data.repositories</title>
<path fill="none" stroke="#2563eb" d="M482.02,-900.17C602.29,-892.31 813.15,-885.11 991,-913.13 1102.36,-930.67 1127.39,-949.69 1233,-989.13 1341.01,-1029.47 1464.31,-1085.8 1528.63,-1116.01"/>
<polygon fill="#2563eb" stroke="#2563eb" points="1527.67,-1118.26 1535.05,-1119.03 1529.76,-1113.83 1527.67,-1118.26"/>
</g>
<!-- app.signals.signal_engine&#45;&gt;app.exchanges.base -->
<g id="edge71" class="edge">
<title>app.signals.signal_engine&#45;&gt;app.exchanges.base</title>
<path fill="none" stroke="#2563eb" d="M397.63,-889.73C418.78,-860.57 464.34,-804.37 518,-778.13 895.98,-593.3 1074.99,-828.63 1456,-650.13 1594.94,-585.04 1715.52,-438.27 1759.13,-380.82"/>
<polygon fill="#2563eb" stroke="#2563eb" points="1761.09,-382.29 1763.34,-375.23 1757.17,-379.34 1761.09,-382.29"/>
</g>
<!-- app.signals.signal_engine&#45;&gt;app.logger -->
<g id="edge72" class="edge">
<title>app.signals.signal_engine&#45;&gt;app.logger</title>
<path fill="none" stroke="#2563eb" d="M392.28,-890.04C408.54,-852.13 451.7,-764.46 518,-723.13 651.25,-640.06 1146.52,-626 1309.29,-623.61"/>
<polygon fill="#2563eb" stroke="#2563eb" points="1309.36,-626.06 1316.32,-623.52 1309.29,-621.16 1309.36,-626.06"/>
</g>
<!-- app.signals.signal_engine&#45;&gt;app.market.features -->
<g id="edge73" class="edge">
<title>app.signals.signal_engine&#45;&gt;app.market.features</title>
<path fill="none" stroke="#2563eb" d="M391.85,-889.87C427.45,-798.49 600.51,-395.13 882,-395.13 882,-395.13 882,-395.13 1131,-395.13 1277.73,-395.13 1343.34,-359.13 1456,-453.13 1546.6,-528.72 1567.08,-681.64 1571.68,-741.9"/>
<polygon fill="#2563eb" stroke="#2563eb" points="1569.25,-742.3 1572.19,-749.11 1574.14,-741.95 1569.25,-742.3"/>
</g>
<!-- app.signals.signal_engine&#45;&gt;app.paper.manager -->
<g id="edge74" class="edge">
<title>app.signals.signal_engine&#45;&gt;app.paper.manager</title>
<path fill="none" stroke="#2563eb" d="M387.2,-926.39C396.09,-996.07 432.97,-1250.95 518,-1442.13 589.44,-1602.74 661.6,-1612.31 739,-1770.13 761.46,-1815.94 742.83,-1839.53 775,-1879.13 789.11,-1896.49 809.46,-1910 828.64,-1919.9"/>
<polygon fill="#2563eb" stroke="#2563eb" points="827.73,-1922.19 835.09,-1923.12 829.92,-1917.8 827.73,-1922.19"/>
</g>
<!-- app.signals.signal_engine&#45;&gt;app.signals.patterns -->
<g id="edge75" class="edge">
<title>app.signals.signal_engine&#45;&gt;app.signals.patterns</title>
<path fill="none" stroke="#2563eb" d="M453.45,-926.2C474.12,-931.36 496.92,-936.77 518,-941.13 537.72,-945.21 1218.36,-1046.31 1233,-1060.13 1285.69,-1109.86 1225.93,-1160.86 1269,-1219.13 1278.64,-1232.16 1292.51,-1242.48 1306.59,-1250.42"/>
<polygon fill="#2563eb" stroke="#2563eb" points="1305.73,-1252.74 1313.05,-1253.9 1308.05,-1248.43 1305.73,-1252.74"/>
</g>
<!-- app.signals.signal_engine&#45;&gt;app.signals.scoring -->
<g id="edge76" class="edge">
<title>app.signals.signal_engine&#45;&gt;app.signals.scoring</title>
<path fill="none" stroke="#2563eb" d="M395.4,-926.34C434.58,-992.85 580.97,-1222.89 775,-1304.13 822.21,-1323.9 957.75,-1313.3 1046.75,-1303.47"/>
<polygon fill="#2563eb" stroke="#2563eb" points="1047.19,-1305.89 1053.87,-1302.68 1046.65,-1301.02 1047.19,-1305.89"/>
</g>
<!-- app.signals.signal_engine&#45;&gt;app.telegram.bot -->
<g id="edge77" class="edge">
<title>app.signals.signal_engine&#45;&gt;app.telegram.bot</title>
<path fill="none" stroke="#2563eb" d="M386.5,-926.28C392.47,-989.07 419.28,-1200.66 518,-1337.13 535.13,-1360.81 561.7,-1379.99 584.38,-1393.4"/>
<polygon fill="#2563eb" stroke="#2563eb" points="583.38,-1395.65 590.66,-1397.03 585.83,-1391.41 583.38,-1395.65"/>
</g>
<!-- app.signals.signal_engine&#45;&gt;app.utils.time -->
<g id="edge78" class="edge">
<title>app.signals.signal_engine&#45;&gt;app.utils.time</title>
<path fill="none" stroke="#2563eb" d="M482.16,-892.63C494.2,-891.18 506.37,-889.96 518,-889.13 615.98,-882.17 640.78,-888.74 739,-889.13 851,-889.57 879.17,-884.92 991,-891.13 1389.34,-913.23 1484.17,-979.03 1863,-1104.13 1874.61,-1107.96 1886.96,-1112.28 1898.7,-1116.5"/>
<polygon fill="#2563eb" stroke="#2563eb" points="1898.12,-1118.89 1905.54,-1118.97 1899.79,-1114.28 1898.12,-1118.89"/>
</g>
<!-- app.telegram.__init__ -->
<g id="node31" class="node">
<title>app.telegram.__init__</title>
<path fill="#f8fafc" stroke="#94a3b8" d="M194.5,-1108.13C194.5,-1108.13 55.5,-1108.13 55.5,-1108.13 49.5,-1108.13 43.5,-1102.13 43.5,-1096.13 43.5,-1096.13 43.5,-1084.13 43.5,-1084.13 43.5,-1078.13 49.5,-1072.13 55.5,-1072.13 55.5,-1072.13 194.5,-1072.13 194.5,-1072.13 200.5,-1072.13 206.5,-1078.13 206.5,-1084.13 206.5,-1084.13 206.5,-1096.13 206.5,-1096.13 206.5,-1102.13 200.5,-1108.13 194.5,-1108.13"/>
<text text-anchor="middle" x="125" y="-1086.43" font-family="Inter" font-size="14.00">app.telegram.__init__</text>
</g>
<!-- app.telegram.bot&#45;&gt;app.config -->
<g id="edge79" class="edge">
<title>app.telegram.bot&#45;&gt;app.config</title>
<path fill="none" stroke="#2563eb" d="M697.26,-1415.93C713.02,-1419.42 728.29,-1426.08 739,-1438.13 798.72,-1505.34 709.04,-1780.03 775,-1841.13 802.4,-1866.51 1349.92,-1856.23 1521.82,-1852.35"/>
<polygon fill="#2563eb" stroke="#2563eb" points="1522.05,-1854.8 1529,-1852.19 1521.94,-1849.9 1522.05,-1854.8"/>
</g>
<!-- app.telegram.bot&#45;&gt;app.data.database -->
<g id="edge80" class="edge">
<title>app.telegram.bot&#45;&gt;app.data.database</title>
<path fill="none" stroke="#2563eb" d="M635.17,-1396.92C650.11,-1352.12 695,-1236.06 775,-1179.13 855.12,-1122.11 896.23,-1157.38 991,-1131.13 1007.25,-1126.63 1010.95,-1124.32 1027,-1119.13 1038.99,-1115.25 1051.8,-1111.17 1064.15,-1107.28"/>
<polygon fill="#2563eb" stroke="#2563eb" points="1065.01,-1109.58 1070.96,-1105.14 1063.54,-1104.91 1065.01,-1109.58"/>
</g>
<!-- app.telegram.bot&#45;&gt;app.data.models -->
<g id="edge81" class="edge">
<title>app.telegram.bot&#45;&gt;app.data.models</title>
<path fill="none" stroke="#2563eb" d="M697.01,-1416.49C712.67,-1419.99 727.97,-1426.51 739,-1438.13 810.24,-1513.16 699.53,-1597.35 775,-1668.13 1047.47,-1923.63 1567.81,-1739.8 1728.22,-1674.02"/>
<polygon fill="#2563eb" stroke="#2563eb" points="1729.59,-1676.1 1735.13,-1671.16 1727.72,-1671.57 1729.59,-1676.1"/>
</g>
<!-- app.telegram.bot&#45;&gt;app.logger -->
<g id="edge82" class="edge">
<title>app.telegram.bot&#45;&gt;app.logger</title>
<path fill="none" stroke="#2563eb" d="M635.84,-1396.86C652.99,-1349.11 703.85,-1217.98 775,-1127.13 948.3,-905.83 1230.42,-709.4 1327.46,-645.18"/>
<polygon fill="#2563eb" stroke="#2563eb" points="1328.81,-647.22 1333.31,-641.32 1326.11,-643.13 1328.81,-647.22"/>
</g>
<!-- app.telegram.bot&#45;&gt;app.market.features -->
<g id="edge83" class="edge">
<title>app.telegram.bot&#45;&gt;app.market.features</title>
<path fill="none" stroke="#2563eb" d="M640.56,-1396.88C667.8,-1352.52 738.55,-1240.9 775,-1217.13 857.37,-1163.41 896.23,-1195.38 991,-1169.13 1007.25,-1164.63 1010.72,-1161.53 1027,-1157.13 1117.29,-1132.74 1151.03,-1159.17 1233,-1114.13 1253.11,-1103.08 1252.97,-1093.54 1269,-1077.13 1373.9,-969.74 1499.57,-841.82 1550.21,-790.31"/>
<polygon fill="#2563eb" stroke="#2563eb" points="1552,-791.98 1555.16,-785.27 1548.5,-788.55 1552,-791.98"/>
</g>
<!-- app.telegram.commands -->
<g id="node34" class="node">
<title>app.telegram.commands</title>
<path fill="#f8fafc" stroke="#94a3b8" d="M966.5,-1659.13C966.5,-1659.13 799.5,-1659.13 799.5,-1659.13 793.5,-1659.13 787.5,-1653.13 787.5,-1647.13 787.5,-1647.13 787.5,-1635.13 787.5,-1635.13 787.5,-1629.13 793.5,-1623.13 799.5,-1623.13 799.5,-1623.13 966.5,-1623.13 966.5,-1623.13 972.5,-1623.13 978.5,-1629.13 978.5,-1635.13 978.5,-1635.13 978.5,-1647.13 978.5,-1647.13 978.5,-1653.13 972.5,-1659.13 966.5,-1659.13"/>
<text text-anchor="middle" x="883" y="-1637.43" font-family="Inter" font-size="14.00">app.telegram.commands</text>
</g>
<!-- app.telegram.bot&#45;&gt;app.telegram.commands -->
<g id="edge84" class="edge">
<title>app.telegram.bot&#45;&gt;app.telegram.commands</title>
<path fill="none" stroke="#2563eb" d="M648.64,-1433.24C671.96,-1455.98 711.62,-1496.89 739,-1537.13 759.13,-1566.71 747.61,-1586.11 775,-1609.13 779.85,-1613.21 785.21,-1616.76 790.86,-1619.87"/>
<polygon fill="#2563eb" stroke="#2563eb" points="789.75,-1622.05 797.1,-1623.06 791.99,-1617.69 789.75,-1622.05"/>
</g>
<!-- app.telegram.formatters -->
<g id="node35" class="node">
<title>app.telegram.formatters</title>
<path fill="#f8fafc" stroke="#94a3b8" d="M1444,-1617.13C1444,-1617.13 1281,-1617.13 1281,-1617.13 1275,-1617.13 1269,-1611.13 1269,-1605.13 1269,-1605.13 1269,-1593.13 1269,-1593.13 1269,-1587.13 1275,-1581.13 1281,-1581.13 1281,-1581.13 1444,-1581.13 1444,-1581.13 1450,-1581.13 1456,-1587.13 1456,-1593.13 1456,-1593.13 1456,-1605.13 1456,-1605.13 1456,-1611.13 1450,-1617.13 1444,-1617.13"/>
<text text-anchor="middle" x="1362.5" y="-1595.43" font-family="Inter" font-size="14.00">app.telegram.formatters</text>
</g>
<!-- app.telegram.bot&#45;&gt;app.telegram.formatters -->
<g id="edge85" class="edge">
<title>app.telegram.bot&#45;&gt;app.telegram.formatters</title>
<path fill="none" stroke="#2563eb" d="M656.16,-1433.14C684.64,-1451.78 731.55,-1480.83 775,-1500.13 882.39,-1547.84 911.43,-1558.85 1027,-1580.13 1104.96,-1594.48 1194.72,-1598.94 1261.61,-1599.97"/>
<polygon fill="#2563eb" stroke="#2563eb" points="1261.8,-1602.42 1268.83,-1600.07 1261.87,-1597.52 1261.8,-1602.42"/>
</g>
<!-- app.telegram.keyboards -->
<g id="node36" class="node">
<title>app.telegram.keyboards</title>
<path fill="#f8fafc" stroke="#94a3b8" d="M1210.5,-1571.13C1210.5,-1571.13 1049.5,-1571.13 1049.5,-1571.13 1043.5,-1571.13 1037.5,-1565.13 1037.5,-1559.13 1037.5,-1559.13 1037.5,-1547.13 1037.5,-1547.13 1037.5,-1541.13 1043.5,-1535.13 1049.5,-1535.13 1049.5,-1535.13 1210.5,-1535.13 1210.5,-1535.13 1216.5,-1535.13 1222.5,-1541.13 1222.5,-1547.13 1222.5,-1547.13 1222.5,-1559.13 1222.5,-1559.13 1222.5,-1565.13 1216.5,-1571.13 1210.5,-1571.13"/>
<text text-anchor="middle" x="1130" y="-1549.43" font-family="Inter" font-size="14.00">app.telegram.keyboards</text>
</g>
<!-- app.telegram.bot&#45;&gt;app.telegram.keyboards -->
<g id="edge86" class="edge">
<title>app.telegram.bot&#45;&gt;app.telegram.keyboards</title>
<path fill="none" stroke="#2563eb" d="M693.11,-1433.18C771.53,-1455.36 908.94,-1494.02 1027,-1526.13 1035.59,-1528.47 1044.6,-1530.89 1053.55,-1533.28"/>
<polygon fill="#2563eb" stroke="#2563eb" points="1052.99,-1535.67 1060.38,-1535.1 1054.25,-1530.93 1052.99,-1535.67"/>
</g>
<!-- app.telegram.bot&#45;&gt;app.utils.time -->
<g id="edge87" class="edge">
<title>app.telegram.bot&#45;&gt;app.utils.time</title>
<path fill="none" stroke="#2563eb" d="M639.82,-1397C660.57,-1362.34 710.88,-1286.88 775,-1250.13 777.2,-1248.87 1489.48,-1110.37 1492,-1110.13 1634.68,-1096.33 1802.89,-1114.88 1891.74,-1127.39"/>
<polygon fill="#2563eb" stroke="#2563eb" points="1891.5,-1129.83 1898.78,-1128.39 1892.2,-1124.98 1891.5,-1129.83"/>
</g>
<!-- app.telegram.charts -->
<g id="node33" class="node">
<title>app.telegram.charts</title>
<path fill="#f8fafc" stroke="#94a3b8" d="M1429.5,-1525.13C1429.5,-1525.13 1295.5,-1525.13 1295.5,-1525.13 1289.5,-1525.13 1283.5,-1519.13 1283.5,-1513.13 1283.5,-1513.13 1283.5,-1501.13 1283.5,-1501.13 1283.5,-1495.13 1289.5,-1489.13 1295.5,-1489.13 1295.5,-1489.13 1429.5,-1489.13 1429.5,-1489.13 1435.5,-1489.13 1441.5,-1495.13 1441.5,-1501.13 1441.5,-1501.13 1441.5,-1513.13 1441.5,-1513.13 1441.5,-1519.13 1435.5,-1525.13 1429.5,-1525.13"/>
<text text-anchor="middle" x="1362.5" y="-1503.43" font-family="Inter" font-size="14.00">app.telegram.charts</text>
</g>
<!-- app.telegram.commands&#45;&gt;app.config -->
<g id="edge88" class="edge">
<title>app.telegram.commands&#45;&gt;app.config</title>
<path fill="none" stroke="#2563eb" d="M898.95,-1659.44C922.83,-1687.3 972.47,-1739.77 1027,-1765.13 1071.57,-1785.85 1394.5,-1828.49 1521.7,-1844.69"/>
<polygon fill="#2563eb" stroke="#2563eb" points="1521.45,-1847.13 1528.71,-1845.58 1522.07,-1842.27 1521.45,-1847.13"/>
</g>
<!-- app.telegram.commands&#45;&gt;app.data.models -->
<g id="edge89" class="edge">
<title>app.telegram.commands&#45;&gt;app.data.models</title>
<path fill="none" stroke="#2563eb" d="M973.37,-1659.17C991.08,-1662.24 1009.58,-1665.09 1027,-1667.13 1304.65,-1699.7 1377.58,-1692.33 1656,-1667.13 1671.46,-1665.73 1688.01,-1663.97 1703.74,-1662.19"/>
<polygon fill="#2563eb" stroke="#2563eb" points="1704.22,-1664.6 1710.9,-1661.36 1703.66,-1659.73 1704.22,-1664.6"/>
</g>
<!-- app.telegram.commands&#45;&gt;app.data.repositories -->
<g id="edge90" class="edge">
<title>app.telegram.commands&#45;&gt;app.data.repositories</title>
<path fill="none" stroke="#2563eb" d="M894.15,-1622.9C914.55,-1588 964.02,-1511.69 1027,-1472.13 1193.77,-1367.37 1301.79,-1483.63 1456,-1361.13 1522.03,-1308.67 1554.87,-1208.7 1567.13,-1162.15"/>
<polygon fill="#2563eb" stroke="#2563eb" points="1569.56,-1162.54 1568.92,-1155.15 1564.81,-1161.32 1569.56,-1162.54"/>
</g>
<!-- app.telegram.commands&#45;&gt;app.market.features -->
<g id="edge91" class="edge">
<title>app.telegram.commands&#45;&gt;app.market.features</title>
<path fill="none" stroke="#2563eb" d="M890.46,-1623C906.53,-1580.55 952.48,-1474.11 1027,-1419.13 1106.66,-1360.36 1389.02,-1372.02 1456,-1299.13 1513.86,-1236.16 1474.17,-1193.76 1492,-1110.13 1517.46,-990.72 1552.44,-849.07 1566.63,-792.4"/>
<polygon fill="#2563eb" stroke="#2563eb" points="1569.09,-792.67 1568.42,-785.29 1564.34,-791.48 1569.09,-792.67"/>
</g>
<!-- app.telegram.commands&#45;&gt;app.paper.account -->
<g id="edge92" class="edge">
<title>app.telegram.commands&#45;&gt;app.paper.account</title>
<path fill="none" stroke="#2563eb" d="M897.13,-1659.2C920.72,-1690.86 972.86,-1757.35 1027,-1803.13 1122.54,-1883.92 1252.38,-1955.48 1318.69,-1989.73"/>
<polygon fill="#2563eb" stroke="#2563eb" points="1317.94,-1992.1 1325.29,-1993.12 1320.19,-1987.74 1317.94,-1992.1"/>
</g>
<!-- app.telegram.commands&#45;&gt;app.paper.statistics -->
<g id="edge93" class="edge">
<title>app.telegram.commands&#45;&gt;app.paper.statistics</title>
<path fill="none" stroke="#2563eb" d="M978.57,-1648.6C994.72,-1649.63 1011.33,-1650.53 1027,-1651.13 1112.95,-1654.39 1211.4,-1654.55 1279.13,-1654.1"/>
<polygon fill="#2563eb" stroke="#2563eb" points="1279.43,-1656.55 1286.41,-1654.05 1279.39,-1651.65 1279.43,-1656.55"/>
</g>
<!-- app.telegram.commands&#45;&gt;app.signals.patterns -->
<g id="edge94" class="edge">
<title>app.telegram.commands&#45;&gt;app.signals.patterns</title>
<path fill="none" stroke="#2563eb" d="M887.64,-1623.05C898.73,-1572.97 936.96,-1431.68 1027,-1363.13 1101.41,-1306.47 1143.16,-1346.12 1233,-1320.13 1259.23,-1312.54 1287.75,-1302.12 1311.24,-1292.92"/>
<polygon fill="#2563eb" stroke="#2563eb" points="1312.43,-1295.09 1318.04,-1290.24 1310.63,-1290.53 1312.43,-1295.09"/>
</g>
<!-- app.telegram.commands&#45;&gt;app.signals.scoring -->
<g id="edge95" class="edge">
<title>app.telegram.commands&#45;&gt;app.signals.scoring</title>
<path fill="none" stroke="#2563eb" d="M886.89,-1623.08C896.42,-1569.42 931.89,-1409.38 1027,-1325.13 1032.96,-1319.85 1039.78,-1315.45 1047.01,-1311.77"/>
<polygon fill="#2563eb" stroke="#2563eb" points="1048.47,-1313.79 1053.75,-1308.59 1046.38,-1309.36 1048.47,-1313.79"/>
</g>
<!-- app.telegram.commands&#45;&gt;app.telegram.formatters -->
<g id="edge96" class="edge">
<title>app.telegram.commands&#45;&gt;app.telegram.formatters</title>
<path fill="none" stroke="#2563eb" d="M978.86,-1634.25C1049.09,-1628.98 1147.07,-1621.26 1233,-1613.13 1242.35,-1612.24 1252.07,-1611.28 1261.8,-1610.27"/>
<polygon fill="#2563eb" stroke="#2563eb" points="1262.17,-1612.7 1268.88,-1609.54 1261.67,-1607.82 1262.17,-1612.7"/>
</g>
<!-- app.telegram.commands&#45;&gt;app.telegram.keyboards -->
<g id="edge97" class="edge">
<title>app.telegram.commands&#45;&gt;app.telegram.keyboards</title>
<path fill="none" stroke="#2563eb" d="M934.17,-1623.11C974.09,-1608.77 1029.97,-1588.7 1071.65,-1573.73"/>
<polygon fill="#2563eb" stroke="#2563eb" points="1072.72,-1575.95 1078.48,-1571.28 1071.06,-1571.34 1072.72,-1575.95"/>
</g>
<!-- app.telegram.commands&#45;&gt;app.utils.time -->
<g id="edge98" class="edge">
<title>app.telegram.commands&#45;&gt;app.utils.time</title>
<path fill="none" stroke="#2563eb" d="M923.01,-1659.32C1068.54,-1724.18 1585.58,-1927.47 1863,-1680.13 1941.4,-1610.23 1952.26,-1260.15 1953.76,-1162.47"/>
<polygon fill="#2563eb" stroke="#2563eb" points="1956.21,-1162.39 1953.86,-1155.36 1951.31,-1162.33 1956.21,-1162.39"/>
</g>
<!-- app.telegram.formatters&#45;&gt;app.config -->
<g id="edge99" class="edge">
<title>app.telegram.formatters&#45;&gt;app.config</title>
<path fill="none" stroke="#2563eb" d="M1442.52,-1617.16C1447.32,-1619.76 1451.86,-1622.73 1456,-1626.13 1521.24,-1679.71 1554.39,-1779.25 1566.92,-1825.85"/>
<polygon fill="#2563eb" stroke="#2563eb" points="1564.61,-1826.7 1568.75,-1832.85 1569.35,-1825.46 1564.61,-1826.7"/>
</g>
<!-- app.telegram.formatters&#45;&gt;app.data.models -->
<g id="edge100" class="edge">
<title>app.telegram.formatters&#45;&gt;app.data.models</title>
<path fill="none" stroke="#2563eb" d="M1456.19,-1611.25C1531.03,-1621.03 1634.87,-1634.61 1703.8,-1643.62"/>
<polygon fill="#2563eb" stroke="#2563eb" points="1703.52,-1646.06 1710.77,-1644.54 1704.15,-1641.2 1703.52,-1646.06"/>
</g>
<!-- app.telegram.formatters&#45;&gt;app.data.repositories -->
<g id="edge101" class="edge">
<title>app.telegram.formatters&#45;&gt;app.data.repositories</title>
<path fill="none" stroke="#2563eb" d="M1400.6,-1580.88C1419.66,-1569.77 1441.81,-1553.9 1456,-1534.13 1542.52,-1413.55 1565.59,-1229.12 1571.27,-1162.36"/>
<polygon fill="#2563eb" stroke="#2563eb" points="1573.73,-1162.35 1571.86,-1155.17 1568.85,-1161.95 1573.73,-1162.35"/>
</g>
<!-- app.telegram.keyboards&#45;&gt;app.data.models -->
<g id="edge102" class="edge">
<title>app.telegram.keyboards&#45;&gt;app.data.models</title>
<path fill="none" stroke="#2563eb" d="M1222.74,-1554.98C1288.02,-1557.15 1377.68,-1561.87 1456,-1572.13 1545.97,-1583.92 1568.34,-1589.68 1656,-1613.13 1677.04,-1618.76 1699.8,-1626 1719.81,-1632.78"/>
<polygon fill="#2563eb" stroke="#2563eb" points="1719.06,-1635.11 1726.48,-1635.05 1720.65,-1630.47 1719.06,-1635.11"/>
</g>
<!-- app.telegram.keyboards&#45;&gt;app.telegram.charts -->
<g id="edge103" class="edge">
<title>app.telegram.keyboards&#45;&gt;app.telegram.charts</title>
<path fill="none" stroke="#2563eb" d="M1221.44,-1535.08C1239.48,-1531.48 1258.37,-1527.71 1276.22,-1524.15"/>
<polygon fill="#2563eb" stroke="#2563eb" points="1276.89,-1526.51 1283.27,-1522.74 1275.93,-1521.71 1276.89,-1526.51"/>
</g>
<!-- app.telegram.keyboards&#45;&gt;app.telegram.formatters -->
<g id="edge104" class="edge">
<title>app.telegram.keyboards&#45;&gt;app.telegram.formatters</title>
<path fill="none" stroke="#2563eb" d="M1221.44,-1571.18C1235.42,-1573.97 1249.91,-1576.86 1264.04,-1579.68"/>
<polygon fill="#2563eb" stroke="#2563eb" points="1263.6,-1582.09 1270.94,-1581.06 1264.56,-1577.28 1263.6,-1582.09"/>
</g>
<!-- app.utils.__init__ -->
<g id="node37" class="node">
<title>app.utils.__init__</title>
<path fill="#f8fafc" stroke="#94a3b8" d="M178,-1162.13C178,-1162.13 72,-1162.13 72,-1162.13 66,-1162.13 60,-1156.13 60,-1150.13 60,-1150.13 60,-1138.13 60,-1138.13 60,-1132.13 66,-1126.13 72,-1126.13 72,-1126.13 178,-1126.13 178,-1126.13 184,-1126.13 190,-1132.13 190,-1138.13 190,-1138.13 190,-1150.13 190,-1150.13 190,-1156.13 184,-1162.13 178,-1162.13"/>
<text text-anchor="middle" x="125" y="-1140.43" font-family="Inter" font-size="14.00">app.utils.__init__</text>
</g>
<!-- app.utils.retry -->
<g id="node39" class="node">
<title>app.utils.retry</title>
<path fill="#f8fafc" stroke="#94a3b8" d="M170,-1216.13C170,-1216.13 80,-1216.13 80,-1216.13 74,-1216.13 68,-1210.13 68,-1204.13 68,-1204.13 68,-1192.13 68,-1192.13 68,-1186.13 74,-1180.13 80,-1180.13 80,-1180.13 170,-1180.13 170,-1180.13 176,-1180.13 182,-1186.13 182,-1192.13 182,-1192.13 182,-1204.13 182,-1204.13 182,-1210.13 176,-1216.13 170,-1216.13"/>
<text text-anchor="middle" x="125" y="-1194.43" font-family="Inter" font-size="14.00">app.utils.retry</text>
</g>
<!-- tests.test_chart_links -->
<g id="node41" class="node">
<title>tests.test_chart_links</title>
<path fill="#f8fafc" stroke="#94a3b8" d="M1199.5,-1517.13C1199.5,-1517.13 1060.5,-1517.13 1060.5,-1517.13 1054.5,-1517.13 1048.5,-1511.13 1048.5,-1505.13 1048.5,-1505.13 1048.5,-1493.13 1048.5,-1493.13 1048.5,-1487.13 1054.5,-1481.13 1060.5,-1481.13 1060.5,-1481.13 1199.5,-1481.13 1199.5,-1481.13 1205.5,-1481.13 1211.5,-1487.13 1211.5,-1493.13 1211.5,-1493.13 1211.5,-1505.13 1211.5,-1505.13 1211.5,-1511.13 1205.5,-1517.13 1199.5,-1517.13"/>
<text text-anchor="middle" x="1130" y="-1495.43" font-family="Inter" font-size="14.00">tests.test_chart_links</text>
</g>
<!-- tests.test_chart_links&#45;&gt;app.telegram.charts -->
<g id="edge105" class="edge">
<title>tests.test_chart_links&#45;&gt;app.telegram.charts</title>
<path fill="none" stroke="#2563eb" d="M1211.62,-1501.93C1232.5,-1502.65 1255.05,-1503.43 1276.16,-1504.17"/>
<polygon fill="#2563eb" stroke="#2563eb" points="1276.18,-1506.62 1283.26,-1504.41 1276.35,-1501.72 1276.18,-1506.62"/>
</g>
<!-- tests.test_multi_profile_paper -->
<g id="node42" class="node">
<title>tests.test_multi_profile_paper</title>
<path fill="#f8fafc" stroke="#94a3b8" d="M727,-2219.13C727,-2219.13 530,-2219.13 530,-2219.13 524,-2219.13 518,-2213.13 518,-2207.13 518,-2207.13 518,-2195.13 518,-2195.13 518,-2189.13 524,-2183.13 530,-2183.13 530,-2183.13 727,-2183.13 727,-2183.13 733,-2183.13 739,-2189.13 739,-2195.13 739,-2195.13 739,-2207.13 739,-2207.13 739,-2213.13 733,-2219.13 727,-2219.13"/>
<text text-anchor="middle" x="628.5" y="-2197.43" font-family="Inter" font-size="14.00">tests.test_multi_profile_paper</text>
</g>
<!-- tests.test_multi_profile_paper&#45;&gt;app.config -->
<g id="edge106" class="edge">
<title>tests.test_multi_profile_paper&#45;&gt;app.config</title>
<path fill="none" stroke="#2563eb" d="M688.36,-2219.14C714.6,-2226.27 746.07,-2233.6 775,-2237.13 927.06,-2255.66 1344.45,-2235.12 1456,-2130.13 1531.8,-2058.79 1560.36,-1930.7 1569.39,-1876.48"/>
<polygon fill="#2563eb" stroke="#2563eb" points="1571.85,-1876.63 1570.54,-1869.33 1567.01,-1875.86 1571.85,-1876.63"/>
</g>
<!-- tests.test_multi_profile_paper&#45;&gt;app.paper.manager -->
<g id="edge107" class="edge">
<title>tests.test_multi_profile_paper&#45;&gt;app.paper.manager</title>
<path fill="none" stroke="#2563eb" d="M647.26,-2182.85C691.99,-2136.79 809.28,-2016.01 859.09,-1964.71"/>
<polygon fill="#2563eb" stroke="#2563eb" points="861.15,-1966.12 864.26,-1959.39 857.63,-1962.71 861.15,-1966.12"/>
</g>
<!-- tests.test_multi_profile_paper&#45;&gt;app.paper.risk -->
<g id="edge108" class="edge">
<title>tests.test_multi_profile_paper&#45;&gt;app.paper.risk</title>
<path fill="none" stroke="#2563eb" d="M739.21,-2217.24C864.2,-2230.74 1071.95,-2238.15 1233,-2169.13 1253.23,-2160.46 1250.18,-2146.54 1269,-2135.13 1277.74,-2129.83 1287.47,-2125.26 1297.26,-2121.36"/>
<polygon fill="#2563eb" stroke="#2563eb" points="1298.36,-2123.56 1304.02,-2118.77 1296.61,-2118.98 1298.36,-2123.56"/>
</g>
<!-- tests.test_outcomes -->
<g id="node43" class="node">
<title>tests.test_outcomes</title>
<path fill="#f8fafc" stroke="#94a3b8" d="M694,-823.13C694,-823.13 563,-823.13 563,-823.13 557,-823.13 551,-817.13 551,-811.13 551,-811.13 551,-799.13 551,-799.13 551,-793.13 557,-787.13 563,-787.13 563,-787.13 694,-787.13 694,-787.13 700,-787.13 706,-793.13 706,-799.13 706,-799.13 706,-811.13 706,-811.13 706,-817.13 700,-823.13 694,-823.13"/>
<text text-anchor="middle" x="628.5" y="-801.43" font-family="Inter" font-size="14.00">tests.test_outcomes</text>
</g>
<!-- tests.test_outcomes&#45;&gt;app.signals.outcome_tracker -->
<g id="edge109" class="edge">
<title>tests.test_outcomes&#45;&gt;app.signals.outcome_tracker</title>
<path fill="none" stroke="#2563eb" d="M706.29,-805.13C725.71,-805.13 746.99,-805.13 767.82,-805.13"/>
<polygon fill="#2563eb" stroke="#2563eb" points="767.87,-807.58 774.87,-805.13 767.87,-802.68 767.87,-807.58"/>
</g>
<!-- tests.test_paper_risk -->
<g id="node44" class="node">
<title>tests.test_paper_risk</title>
<path fill="#f8fafc" stroke="#94a3b8" d="M1198.5,-2081.13C1198.5,-2081.13 1061.5,-2081.13 1061.5,-2081.13 1055.5,-2081.13 1049.5,-2075.13 1049.5,-2069.13 1049.5,-2069.13 1049.5,-2057.13 1049.5,-2057.13 1049.5,-2051.13 1055.5,-2045.13 1061.5,-2045.13 1061.5,-2045.13 1198.5,-2045.13 1198.5,-2045.13 1204.5,-2045.13 1210.5,-2051.13 1210.5,-2057.13 1210.5,-2057.13 1210.5,-2069.13 1210.5,-2069.13 1210.5,-2075.13 1204.5,-2081.13 1198.5,-2081.13"/>
<text text-anchor="middle" x="1130" y="-2059.43" font-family="Inter" font-size="14.00">tests.test_paper_risk</text>
</g>
<!-- tests.test_paper_risk&#45;&gt;app.config -->
<g id="edge110" class="edge">
<title>tests.test_paper_risk&#45;&gt;app.config</title>
<path fill="none" stroke="#2563eb" d="M1160.36,-2045.05C1187.95,-2028.37 1230.62,-2003.35 1269,-1984.13 1349.98,-1943.57 1373.06,-1939.52 1456,-1903.13 1479.15,-1892.97 1504.82,-1881.57 1526.21,-1872.05"/>
<polygon fill="#2563eb" stroke="#2563eb" points="1527.31,-1874.24 1532.7,-1869.15 1525.31,-1869.76 1527.31,-1874.24"/>
</g>
<!-- tests.test_paper_risk&#45;&gt;app.paper.risk -->
<g id="edge111" class="edge">
<title>tests.test_paper_risk&#45;&gt;app.paper.risk</title>
<path fill="none" stroke="#2563eb" d="M1210.65,-2076.95C1238.96,-2081.86 1270.45,-2087.33 1297.3,-2091.99"/>
<polygon fill="#2563eb" stroke="#2563eb" points="1297.07,-2094.43 1304.38,-2093.22 1297.91,-2089.61 1297.07,-2094.43"/>
</g>
<!-- tests.test_scoring -->
<g id="node45" class="node">
<title>tests.test_scoring</title>
<path fill="#f8fafc" stroke="#94a3b8" d="M940.5,-1295.13C940.5,-1295.13 825.5,-1295.13 825.5,-1295.13 819.5,-1295.13 813.5,-1289.13 813.5,-1283.13 813.5,-1283.13 813.5,-1271.13 813.5,-1271.13 813.5,-1265.13 819.5,-1259.13 825.5,-1259.13 825.5,-1259.13 940.5,-1259.13 940.5,-1259.13 946.5,-1259.13 952.5,-1265.13 952.5,-1271.13 952.5,-1271.13 952.5,-1283.13 952.5,-1283.13 952.5,-1289.13 946.5,-1295.13 940.5,-1295.13"/>
<text text-anchor="middle" x="883" y="-1273.43" font-family="Inter" font-size="14.00">tests.test_scoring</text>
</g>
<!-- tests.test_scoring&#45;&gt;app.config -->
<g id="edge112" class="edge">
<title>tests.test_scoring&#45;&gt;app.config</title>
<path fill="none" stroke="#2563eb" d="M952.58,-1259.58C1024.96,-1244.52 1141.05,-1230.36 1233,-1266.13 1253.23,-1274 1252.24,-1285.33 1269,-1299.13 1348.74,-1364.79 1397.23,-1352.18 1456,-1437.13 1544.15,-1564.55 1566.27,-1757.3 1571.48,-1825.85"/>
<polygon fill="#2563eb" stroke="#2563eb" points="1569.04,-1826.03 1571.99,-1832.83 1573.93,-1825.68 1569.04,-1826.03"/>
</g>
<!-- tests.test_scoring&#45;&gt;app.signals.patterns -->
<g id="edge113" class="edge">
<title>tests.test_scoring&#45;&gt;app.signals.patterns</title>
<path fill="none" stroke="#2563eb" d="M945.49,-1259.1C960.41,-1254.62 976.3,-1249.77 991,-1245.13 1007.08,-1240.05 1010.35,-1235.83 1027,-1233.13 1117.37,-1218.46 1142.44,-1219.69 1233,-1233.13 1257.87,-1236.82 1284.59,-1244.32 1307.19,-1251.77"/>
<polygon fill="#2563eb" stroke="#2563eb" points="1306.65,-1254.17 1314.06,-1254.07 1308.21,-1249.53 1306.65,-1254.17"/>
</g>
<!-- tests.test_scoring&#45;&gt;app.signals.scoring -->
<g id="edge114" class="edge">
<title>tests.test_scoring&#45;&gt;app.signals.scoring</title>
<path fill="none" stroke="#2563eb" d="M952.57,-1281.61C981.8,-1283.52 1016.14,-1285.76 1046.72,-1287.76"/>
<polygon fill="#2563eb" stroke="#2563eb" points="1046.85,-1290.22 1054,-1288.23 1047.17,-1285.33 1046.85,-1290.22"/>
</g>
<!-- tests.test_telegram_auth -->
<g id="node46" class="node">
<title>tests.test_telegram_auth</title>
<path fill="#f8fafc" stroke="#94a3b8" d="M466,-1501.13C466,-1501.13 302,-1501.13 302,-1501.13 296,-1501.13 290,-1495.13 290,-1489.13 290,-1489.13 290,-1477.13 290,-1477.13 290,-1471.13 296,-1465.13 302,-1465.13 302,-1465.13 466,-1465.13 466,-1465.13 472,-1465.13 478,-1471.13 478,-1477.13 478,-1477.13 478,-1489.13 478,-1489.13 478,-1495.13 472,-1501.13 466,-1501.13"/>
<text text-anchor="middle" x="384" y="-1479.43" font-family="Inter" font-size="14.00">tests.test_telegram_auth</text>
</g>
<!-- tests.test_telegram_auth&#45;&gt;app.config -->
<g id="edge115" class="edge">
<title>tests.test_telegram_auth&#45;&gt;app.config</title>
<path fill="none" stroke="#2563eb" d="M385.41,-1501.44C388.13,-1605.91 407.19,-2125.42 518,-2228.13 671.06,-2370 1302.57,-2323.59 1456,-2182.13 1547.29,-2097.96 1567.38,-1938.14 1571.78,-1876.37"/>
<polygon fill="#2563eb" stroke="#2563eb" points="1574.22,-1876.49 1572.24,-1869.34 1569.33,-1876.16 1574.22,-1876.49"/>
</g>
<!-- tests.test_telegram_auth&#45;&gt;app.data.database -->
<g id="edge116" class="edge">
<title>tests.test_telegram_auth&#45;&gt;app.data.database</title>
<path fill="none" stroke="#2563eb" d="M398.4,-1464.79C443.51,-1404.64 597.08,-1212.5 775,-1131.13 822.43,-1109.44 960.7,-1097.24 1049.74,-1091.44"/>
<polygon fill="#2563eb" stroke="#2563eb" points="1050.03,-1093.87 1056.86,-1090.98 1049.71,-1088.98 1050.03,-1093.87"/>
</g>
<!-- tests.test_telegram_auth&#45;&gt;app.telegram.bot -->
<g id="edge117" class="edge">
<title>tests.test_telegram_auth&#45;&gt;app.telegram.bot</title>
<path fill="none" stroke="#2563eb" d="M449.35,-1465.08C482.23,-1455.86 522.33,-1444.62 556.15,-1435.14"/>
<polygon fill="#2563eb" stroke="#2563eb" points="557.19,-1437.39 563.27,-1433.14 555.87,-1432.67 557.19,-1437.39"/>
</g>
<!-- tests.test_telegram_auth&#45;&gt;app.telegram.commands -->
<g id="edge118" class="edge">
<title>tests.test_telegram_auth&#45;&gt;app.telegram.commands</title>
<path fill="none" stroke="#2563eb" d="M439.46,-1501.14C514.74,-1525.94 654.91,-1571.78 775,-1609.13 787.61,-1613.05 801.09,-1617.15 814.08,-1621.06"/>
<polygon fill="#2563eb" stroke="#2563eb" points="813.41,-1623.42 820.82,-1623.08 814.82,-1618.72 813.41,-1623.42"/>
</g>
<!-- tools.__init__ -->
<g id="node47" class="node">
<title>tools.__init__</title>
<path fill="#f8fafc" stroke="#94a3b8" d="M164.5,-1270.13C164.5,-1270.13 85.5,-1270.13 85.5,-1270.13 79.5,-1270.13 73.5,-1264.13 73.5,-1258.13 73.5,-1258.13 73.5,-1246.13 73.5,-1246.13 73.5,-1240.13 79.5,-1234.13 85.5,-1234.13 85.5,-1234.13 164.5,-1234.13 164.5,-1234.13 170.5,-1234.13 176.5,-1240.13 176.5,-1246.13 176.5,-1246.13 176.5,-1258.13 176.5,-1258.13 176.5,-1264.13 170.5,-1270.13 164.5,-1270.13"/>
<text text-anchor="middle" x="125" y="-1248.43" font-family="Inter" font-size="14.00">tools.__init__</text>
</g>
<!-- tools.architecture_review -->
<g id="node48" class="node">
<title>tools.architecture_review</title>
<path fill="#f8fafc" stroke="#94a3b8" d="M207,-1324.13C207,-1324.13 43,-1324.13 43,-1324.13 37,-1324.13 31,-1318.13 31,-1312.13 31,-1312.13 31,-1300.13 31,-1300.13 31,-1294.13 37,-1288.13 43,-1288.13 43,-1288.13 207,-1288.13 207,-1288.13 213,-1288.13 219,-1294.13 219,-1300.13 219,-1300.13 219,-1312.13 219,-1312.13 219,-1318.13 213,-1324.13 207,-1324.13"/>
<text text-anchor="middle" x="125" y="-1302.43" font-family="Inter" font-size="14.00">tools.architecture_review</text>
</g>
</g>
</svg>
