<?xml version="1.0" encoding="UTF-8" standalone="no"?>
<!DOCTYPE svg PUBLIC "-//W3C//DTD SVG 1.1//EN"
 "http://www.w3.org/Graphics/SVG/1.1/DTD/svg11.dtd">
<!-- Generated by graphviz version 2.43.0 (0)
 -->
<!-- Title: imports Pages: 1 -->
<svg width="2064pt" height="2694pt"
 viewBox="0.00 0.00 2064.00 2693.66" xmlns="http://www.w3.org/2000/svg" xmlns:xlink="http://www.w3.org/1999/xlink">
<g id="graph0" class="graph" transform="scale(1 1) rotate(0) translate(4 2689.66)">
<title>imports</title>
<polygon fill="white" stroke="transparent" points="-4,4 -4,-2689.66 2060,-2689.66 2060,4 -4,4"/>
<!-- app.__init__ -->
<g id="node1" class="node">
<title>app.__init__</title>
<path fill="#f8fafc" stroke="#94a3b8" d="M161,-979.66C161,-979.66 89,-979.66 89,-979.66 83,-979.66 77,-973.66 77,-967.66 77,-967.66 77,-955.66 77,-955.66 77,-949.66 83,-943.66 89,-943.66 89,-943.66 161,-943.66 161,-943.66 167,-943.66 173,-949.66 173,-955.66 173,-955.66 173,-967.66 173,-967.66 173,-973.66 167,-979.66 161,-979.66"/>
<text text-anchor="middle" x="125" y="-957.96" font-family="Inter" font-size="14.00">app.__init__</text>
</g>
<!-- app.analysis.__init__ -->
<g id="node2" class="node">
<title>app.analysis.__init__</title>
<path fill="#f8fafc" stroke="#94a3b8" d="M191.5,-1033.66C191.5,-1033.66 58.5,-1033.66 58.5,-1033.66 52.5,-1033.66 46.5,-1027.66 46.5,-1021.66 46.5,-1021.66 46.5,-1009.66 46.5,-1009.66 46.5,-1003.66 52.5,-997.66 58.5,-997.66 58.5,-997.66 191.5,-997.66 191.5,-997.66 197.5,-997.66 203.5,-1003.66 203.5,-1009.66 203.5,-1009.66 203.5,-1021.66 203.5,-1021.66 203.5,-1027.66 197.5,-1033.66 191.5,-1033.66"/>
<text text-anchor="middle" x="125" y="-1011.96" font-family="Inter" font-size="14.00">app.analysis.__init__</text>
</g>
<!-- app.analysis.daily -->
<g id="node3" class="node">
<title>app.analysis.daily</title>
<path fill="#f8fafc" stroke="#94a3b8" d="M929,-2543.66C929,-2543.66 812,-2543.66 812,-2543.66 806,-2543.66 800,-2537.66 800,-2531.66 800,-2531.66 800,-2519.66 800,-2519.66 800,-2513.66 806,-2507.66 812,-2507.66 812,-2507.66 929,-2507.66 929,-2507.66 935,-2507.66 941,-2513.66 941,-2519.66 941,-2519.66 941,-2531.66 941,-2531.66 941,-2537.66 935,-2543.66 929,-2543.66"/>
<text text-anchor="middle" x="870.5" y="-2521.96" font-family="Inter" font-size="14.00">app.analysis.daily</text>
</g>
<!-- app.data.database -->
<g id="node6" class="node">
<title>app.data.database</title>
<path fill="#f8fafc" stroke="#94a3b8" d="M1672,-1898.66C1672,-1898.66 1550,-1898.66 1550,-1898.66 1544,-1898.66 1538,-1892.66 1538,-1886.66 1538,-1886.66 1538,-1874.66 1538,-1874.66 1538,-1868.66 1544,-1862.66 1550,-1862.66 1550,-1862.66 1672,-1862.66 1672,-1862.66 1678,-1862.66 1684,-1868.66 1684,-1874.66 1684,-1874.66 1684,-1886.66 1684,-1886.66 1684,-1892.66 1678,-1898.66 1672,-1898.66"/>
<text text-anchor="middle" x="1611" y="-1876.96" font-family="Inter" font-size="14.00">app.data.database</text>
</g>
<!-- app.analysis.daily&#45;&gt;app.data.database -->
<g id="edge1" class="edge">
<title>app.analysis.daily&#45;&gt;app.data.database</title>
<path fill="none" stroke="#2563eb" d="M941.06,-2508.22C1035.15,-2484.11 1193.63,-2441.44 1214,-2422.66 1246.28,-2392.89 1220.2,-2362.9 1250,-2330.66 1328.79,-2245.41 1406.93,-2302.57 1485,-2216.66 1569.9,-2123.23 1598.73,-1966.93 1607.05,-1906.03"/>
<polygon fill="#2563eb" stroke="#2563eb" points="1609.52,-1906.01 1608.01,-1898.75 1604.67,-1905.38 1609.52,-1906.01"/>
</g>
<!-- app.data.models -->
<g id="node7" class="node">
<title>app.data.models</title>
<path fill="#f8fafc" stroke="#94a3b8" d="M1877,-2207.66C1877,-2207.66 1768,-2207.66 1768,-2207.66 1762,-2207.66 1756,-2201.66 1756,-2195.66 1756,-2195.66 1756,-2183.66 1756,-2183.66 1756,-2177.66 1762,-2171.66 1768,-2171.66 1768,-2171.66 1877,-2171.66 1877,-2171.66 1883,-2171.66 1889,-2177.66 1889,-2183.66 1889,-2183.66 1889,-2195.66 1889,-2195.66 1889,-2201.66 1883,-2207.66 1877,-2207.66"/>
<text text-anchor="middle" x="1822.5" y="-2185.96" font-family="Inter" font-size="14.00">app.data.models</text>
</g>
<!-- app.analysis.daily&#45;&gt;app.data.models -->
<g id="edge2" class="edge">
<title>app.analysis.daily&#45;&gt;app.data.models</title>
<path fill="none" stroke="#2563eb" d="M941.11,-2527.6C1121.29,-2531.06 1596.19,-2529.6 1701,-2422.66 1742.66,-2380.14 1709.66,-2346.53 1737,-2293.66 1752.89,-2262.93 1778.83,-2232.8 1797.79,-2212.95"/>
<polygon fill="#2563eb" stroke="#2563eb" points="1799.58,-2214.62 1802.69,-2207.88 1796.06,-2211.21 1799.58,-2214.62"/>
</g>
<!-- app.data.repositories -->
<g id="node8" class="node">
<title>app.data.repositories</title>
<path fill="#f8fafc" stroke="#94a3b8" d="M1681,-2413.66C1681,-2413.66 1541,-2413.66 1541,-2413.66 1535,-2413.66 1529,-2407.66 1529,-2401.66 1529,-2401.66 1529,-2389.66 1529,-2389.66 1529,-2383.66 1535,-2377.66 1541,-2377.66 1541,-2377.66 1681,-2377.66 1681,-2377.66 1687,-2377.66 1693,-2383.66 1693,-2389.66 1693,-2389.66 1693,-2401.66 1693,-2401.66 1693,-2407.66 1687,-2413.66 1681,-2413.66"/>
<text text-anchor="middle" x="1611" y="-2391.96" font-family="Inter" font-size="14.00">app.data.repositories</text>
</g>
<!-- app.analysis.daily&#45;&gt;app.data.repositories -->
<g id="edge3" class="edge">
<title>app.analysis.daily&#45;&gt;app.data.repositories</title>
<path fill="none" stroke="#2563eb" d="M941.03,-2520.87C1079.41,-2510.84 1384.62,-2485.98 1485,-2455.66 1515.88,-2446.33 1548.69,-2430.32 1572.94,-2417.19"/>
<polygon fill="#2563eb" stroke="#2563eb" points="1574.27,-2419.25 1579.23,-2413.74 1571.92,-2414.95 1574.27,-2419.25"/>
</g>
<!-- app.logger -->
<g id="node13" class="node">
<title>app.logger</title>
<path fill="#f8fafc" stroke="#94a3b8" d="M1645,-1372.66C1645,-1372.66 1577,-1372.66 1577,-1372.66 1571,-1372.66 1565,-1366.66 1565,-1360.66 1565,-1360.66 1565,-1348.66 1565,-1348.66 1565,-1342.66 1571,-1336.66 1577,-1336.66 1577,-1336.66 1645,-1336.66 1645,-1336.66 1651,-1336.66 1657,-1342.66 1657,-1348.66 1657,-1348.66 1657,-1360.66 1657,-1360.66 1657,-1366.66 1651,-1372.66 1645,-1372.66"/>
<text text-anchor="middle" x="1611" y="-1350.96" font-family="Inter" font-size="14.00">app.logger</text>
</g>
<!-- app.analysis.daily&#45;&gt;app.logger -->
<g id="edge4" class="edge">
<title>app.analysis.daily&#45;&gt;app.logger</title>
<path fill="none" stroke="#2563eb" d="M877.72,-2507.46C895.14,-2455.58 944.56,-2302.22 966,-2170.66 976.24,-2107.8 961.98,-1648.19 1002,-1598.66 1037.04,-1555.29 1435.9,-1489.07 1485,-1462.66 1526.33,-1440.43 1565.89,-1402.49 1589.06,-1378.01"/>
<polygon fill="#2563eb" stroke="#2563eb" points="1591.04,-1379.49 1594.03,-1372.7 1587.46,-1376.14 1591.04,-1379.49"/>
</g>
<!-- app.utils.time -->
<g id="node43" class="node">
<title>app.utils.time</title>
<path fill="#f8fafc" stroke="#94a3b8" d="M2044,-1627.66C2044,-1627.66 1956,-1627.66 1956,-1627.66 1950,-1627.66 1944,-1621.66 1944,-1615.66 1944,-1615.66 1944,-1603.66 1944,-1603.66 1944,-1597.66 1950,-1591.66 1956,-1591.66 1956,-1591.66 2044,-1591.66 2044,-1591.66 2050,-1591.66 2056,-1597.66 2056,-1603.66 2056,-1603.66 2056,-1615.66 2056,-1615.66 2056,-1621.66 2050,-1627.66 2044,-1627.66"/>
<text text-anchor="middle" x="2000" y="-1605.96" font-family="Inter" font-size="14.00">app.utils.time</text>
</g>
<!-- app.analysis.daily&#45;&gt;app.utils.time -->
<g id="edge5" class="edge">
<title>app.analysis.daily&#45;&gt;app.utils.time</title>
<path fill="none" stroke="#2563eb" d="M903.36,-2543.7C980.33,-2585.54 1183.61,-2685.66 1366.5,-2685.66 1366.5,-2685.66 1366.5,-2685.66 1612,-2685.66 1759.48,-2685.66 1829.09,-2660.26 1908,-2535.66 1957.56,-2457.39 1991.37,-1775.86 1997.86,-1635.05"/>
<polygon fill="#2563eb" stroke="#2563eb" points="2000.31,-1635.12 1998.18,-1628.01 1995.42,-1634.89 2000.31,-1635.12"/>
</g>
<!-- app.config -->
<g id="node4" class="node">
<title>app.config</title>
<path fill="#f8fafc" stroke="#94a3b8" d="M1644,-1044.66C1644,-1044.66 1578,-1044.66 1578,-1044.66 1572,-1044.66 1566,-1038.66 1566,-1032.66 1566,-1032.66 1566,-1020.66 1566,-1020.66 1566,-1014.66 1572,-1008.66 1578,-1008.66 1578,-1008.66 1644,-1008.66 1644,-1008.66 1650,-1008.66 1656,-1014.66 1656,-1020.66 1656,-1020.66 1656,-1032.66 1656,-1032.66 1656,-1038.66 1650,-1044.66 1644,-1044.66"/>
<text text-anchor="middle" x="1611" y="-1022.96" font-family="Inter" font-size="14.00">app.config</text>
</g>
<!-- app.data.__init__ -->
<g id="node5" class="node">
<title>app.data.__init__</title>
<path fill="#f8fafc" stroke="#94a3b8" d="M178.5,-1141.66C178.5,-1141.66 71.5,-1141.66 71.5,-1141.66 65.5,-1141.66 59.5,-1135.66 59.5,-1129.66 59.5,-1129.66 59.5,-1117.66 59.5,-1117.66 59.5,-1111.66 65.5,-1105.66 71.5,-1105.66 71.5,-1105.66 178.5,-1105.66 178.5,-1105.66 184.5,-1105.66 190.5,-1111.66 190.5,-1117.66 190.5,-1117.66 190.5,-1129.66 190.5,-1129.66 190.5,-1135.66 184.5,-1141.66 178.5,-1141.66"/>
<text text-anchor="middle" x="125" y="-1119.96" font-family="Inter" font-size="14.00">app.data.__init__</text>
</g>
<!-- app.data.database&#45;&gt;app.data.models -->
<g id="edge6" class="edge">
<title>app.data.database&#45;&gt;app.data.models</title>
<path fill="none" stroke="#2563eb" d="M1624.48,-1899.06C1660.5,-1952.19 1764.68,-2105.84 1805.15,-2165.54"/>
<polygon fill="#2563eb" stroke="#2563eb" points="1803.13,-2166.93 1809.09,-2171.35 1807.19,-2164.18 1803.13,-2166.93"/>
</g>
<!-- app.data.models&#45;&gt;app.utils.time -->
<g id="edge7" class="edge">
<title>app.data.models&#45;&gt;app.utils.time</title>
<path fill="none" stroke="#2563eb" d="M1835.07,-2171.44C1853.16,-2142.21 1888.12,-2082.53 1908,-2027.66 1960.01,-1884.11 1987.17,-1701.55 1995.85,-1635.21"/>
<polygon fill="#2563eb" stroke="#2563eb" points="1998.31,-1635.32 1996.77,-1628.07 1993.45,-1634.7 1998.31,-1635.32"/>
</g>
<!-- app.data.repositories&#45;&gt;app.data.models -->
<g id="edge8" class="edge">
<title>app.data.repositories&#45;&gt;app.data.models</title>
<path fill="none" stroke="#2563eb" d="M1678.98,-2377.5C1686.88,-2373.69 1694.44,-2369.12 1701,-2363.66 1725.47,-2343.25 1719.37,-2328.2 1737,-2301.66 1757.9,-2270.18 1784.5,-2235.72 1802.22,-2213.46"/>
<polygon fill="#2563eb" stroke="#2563eb" points="1804.29,-2214.79 1806.75,-2207.79 1800.46,-2211.73 1804.29,-2214.79"/>
</g>
<!-- app.data.repositories&#45;&gt;app.utils.time -->
<g id="edge9" class="edge">
<title>app.data.repositories&#45;&gt;app.utils.time</title>
<path fill="none" stroke="#2563eb" d="M1672.41,-2377.64C1742.17,-2353.35 1854.22,-2302.91 1908,-2216.66 1970.29,-2116.75 1992.85,-1737.07 1997.85,-1635.03"/>
<polygon fill="#2563eb" stroke="#2563eb" points="2000.31,-1635.01 1998.2,-1627.9 1995.41,-1634.77 2000.31,-1635.01"/>
</g>
<!-- app.exchanges.__init__ -->
<g id="node9" class="node">
<title>app.exchanges.__init__</title>
<path fill="#f8fafc" stroke="#94a3b8" d="M201,-1195.66C201,-1195.66 49,-1195.66 49,-1195.66 43,-1195.66 37,-1189.66 37,-1183.66 37,-1183.66 37,-1171.66 37,-1171.66 37,-1165.66 43,-1159.66 49,-1159.66 49,-1159.66 201,-1159.66 201,-1159.66 207,-1159.66 213,-1165.66 213,-1171.66 213,-1171.66 213,-1183.66 213,-1183.66 213,-1189.66 207,-1195.66 201,-1195.66"/>
<text text-anchor="middle" x="125" y="-1173.96" font-family="Inter" font-size="14.00">app.exchanges.__init__</text>
</g>
<!-- app.exchanges.base -->
<g id="node10" class="node">
<title>app.exchanges.base</title>
<path fill="#f8fafc" stroke="#94a3b8" d="M1890.5,-229.66C1890.5,-229.66 1754.5,-229.66 1754.5,-229.66 1748.5,-229.66 1742.5,-223.66 1742.5,-217.66 1742.5,-217.66 1742.5,-205.66 1742.5,-205.66 1742.5,-199.66 1748.5,-193.66 1754.5,-193.66 1754.5,-193.66 1890.5,-193.66 1890.5,-193.66 1896.5,-193.66 1902.5,-199.66 1902.5,-205.66 1902.5,-205.66 1902.5,-217.66 1902.5,-217.66 1902.5,-223.66 1896.5,-229.66 1890.5,-229.66"/>
<text text-anchor="middle" x="1822.5" y="-207.96" font-family="Inter" font-size="14.00">app.exchanges.base</text>
</g>
<!-- app.exchanges.bybit_client -->
<g id="node11" class="node">
<title>app.exchanges.bybit_client</title>
<path fill="#f8fafc" stroke="#94a3b8" d="M1458.5,-233.66C1458.5,-233.66 1276.5,-233.66 1276.5,-233.66 1270.5,-233.66 1264.5,-227.66 1264.5,-221.66 1264.5,-221.66 1264.5,-209.66 1264.5,-209.66 1264.5,-203.66 1270.5,-197.66 1276.5,-197.66 1276.5,-197.66 1458.5,-197.66 1458.5,-197.66 1464.5,-197.66 1470.5,-203.66 1470.5,-209.66 1470.5,-209.66 1470.5,-221.66 1470.5,-221.66 1470.5,-227.66 1464.5,-233.66 1458.5,-233.66"/>
<text text-anchor="middle" x="1367.5" y="-211.96" font-family="Inter" font-size="14.00">app.exchanges.bybit_client</text>
</g>
<!-- app.exchanges.bybit_client&#45;&gt;app.exchanges.base -->
<g id="edge10" class="edge">
<title>app.exchanges.bybit_client&#45;&gt;app.exchanges.base</title>
<path fill="none" stroke="#2563eb" d="M1470.73,-214.75C1550.36,-214.05 1659.67,-213.09 1735,-212.42"/>
<polygon fill="#2563eb" stroke="#2563eb" points="1735.2,-214.87 1742.18,-212.36 1735.16,-209.97 1735.2,-214.87"/>
</g>
<!-- app.exchanges.bybit_client&#45;&gt;app.logger -->
<g id="edge11" class="edge">
<title>app.exchanges.bybit_client&#45;&gt;app.logger</title>
<path fill="none" stroke="#2563eb" d="M1375.84,-233.7C1396.97,-286.58 1458.19,-446.15 1485,-584.66 1524.73,-789.9 1483.15,-848.05 1521,-1053.66 1540.27,-1158.33 1581.94,-1278.49 1600.62,-1329.58"/>
<polygon fill="#2563eb" stroke="#2563eb" points="1598.38,-1330.59 1603.09,-1336.32 1602.98,-1328.9 1598.38,-1330.59"/>
</g>
<!-- app.utils.math -->
<g id="node40" class="node">
<title>app.utils.math</title>
<path fill="#f8fafc" stroke="#94a3b8" d="M1869,-305.66C1869,-305.66 1776,-305.66 1776,-305.66 1770,-305.66 1764,-299.66 1764,-293.66 1764,-293.66 1764,-281.66 1764,-281.66 1764,-275.66 1770,-269.66 1776,-269.66 1776,-269.66 1869,-269.66 1869,-269.66 1875,-269.66 1881,-275.66 1881,-281.66 1881,-281.66 1881,-293.66 1881,-293.66 1881,-299.66 1875,-305.66 1869,-305.66"/>
<text text-anchor="middle" x="1822.5" y="-283.96" font-family="Inter" font-size="14.00">app.utils.math</text>
</g>
<!-- app.exchanges.bybit_client&#45;&gt;app.utils.math -->
<g id="edge12" class="edge">
<title>app.exchanges.bybit_client&#45;&gt;app.utils.math</title>
<path fill="none" stroke="#2563eb" d="M1470.73,-231.9C1558.45,-245.85 1682.19,-265.51 1756.84,-277.38"/>
<polygon fill="#2563eb" stroke="#2563eb" points="1756.61,-279.82 1763.9,-278.5 1757.38,-274.98 1756.61,-279.82"/>
</g>
<!-- app.exchanges.bybit_client&#45;&gt;app.utils.time -->
<g id="edge13" class="edge">
<title>app.exchanges.bybit_client&#45;&gt;app.utils.time</title>
<path fill="none" stroke="#2563eb" d="M1448.06,-197.65C1581.84,-169.5 1843.56,-124.2 1908,-184.66 1961.19,-234.56 1993.5,-1397.21 1998.36,-1584.34"/>
<polygon fill="#2563eb" stroke="#2563eb" points="1995.91,-1584.62 1998.54,-1591.55 2000.81,-1584.49 1995.91,-1584.62"/>
</g>
<!-- app.exchanges.hyperliquid_client -->
<g id="node12" class="node">
<title>app.exchanges.hyperliquid_client</title>
<path fill="#f8fafc" stroke="#94a3b8" d="M238,-1249.66C238,-1249.66 12,-1249.66 12,-1249.66 6,-1249.66 0,-1243.66 0,-1237.66 0,-1237.66 0,-1225.66 0,-1225.66 0,-1219.66 6,-1213.66 12,-1213.66 12,-1213.66 238,-1213.66 238,-1213.66 244,-1213.66 250,-1219.66 250,-1225.66 250,-1225.66 250,-1237.66 250,-1237.66 250,-1243.66 244,-1249.66 238,-1249.66"/>
<text text-anchor="middle" x="125" y="-1227.96" font-family="Inter" font-size="14.00">app.exchanges.hyperliquid_client</text>
</g>
<!-- app.main -->
<g id="node14" class="node">
<title>app.main</title>
<path fill="#f8fafc" stroke="#94a3b8" d="M154,-1087.66C154,-1087.66 96,-1087.66 96,-1087.66 90,-1087.66 84,-1081.66 84,-1075.66 84,-1075.66 84,-1063.66 84,-1063.66 84,-1057.66 90,-1051.66 96,-1051.66 96,-1051.66 154,-1051.66 154,-1051.66 160,-1051.66 166,-1057.66 166,-1063.66 166,-1063.66 166,-1075.66 166,-1075.66 166,-1081.66 160,-1087.66 154,-1087.66"/>
<text text-anchor="middle" x="125" y="-1065.96" font-family="Inter" font-size="14.00">app.main</text>
</g>
<!-- app.main&#45;&gt;app.analysis.daily -->
<g id="edge14" class="edge">
<title>app.main&#45;&gt;app.analysis.daily</title>
<path fill="none" stroke="#2563eb" d="M166.27,-1066.64C194.3,-1066.95 230.08,-1072.67 250,-1096.66 335.94,-1200.13 226.16,-2186.2 286,-2306.66 344.92,-2425.26 395.24,-2443.97 518,-2493.66 607.1,-2529.72 718.98,-2533.6 792.27,-2531.2"/>
<polygon fill="#2563eb" stroke="#2563eb" points="792.78,-2533.64 799.69,-2530.93 792.6,-2528.74 792.78,-2533.64"/>
</g>
<!-- app.main&#45;&gt;app.config -->
<g id="edge15" class="edge">
<title>app.main&#45;&gt;app.config</title>
<path fill="none" stroke="#2563eb" d="M166.25,-1069.48C192.49,-1067.45 226.16,-1060.99 250,-1042.66 456.75,-883.7 298.66,-661.73 518,-520.66 614.17,-458.8 660.68,-511.32 775,-508.66 932.91,-504.97 1364.73,-439.27 1485,-541.66 1557.05,-602.99 1596.93,-910.56 1607.27,-1001.37"/>
<polygon fill="#2563eb" stroke="#2563eb" points="1604.86,-1001.82 1608.08,-1008.51 1609.73,-1001.28 1604.86,-1001.82"/>
</g>
<!-- app.main&#45;&gt;app.data.database -->
<g id="edge16" class="edge">
<title>app.main&#45;&gt;app.data.database</title>
<path fill="none" stroke="#2563eb" d="M166.2,-1066.69C194.19,-1067.04 229.96,-1072.77 250,-1096.66 315.03,-1174.18 213.05,-1936.53 286,-2006.66 332.72,-2051.57 616.45,-2086.88 1485,-1918.66 1507.4,-1914.32 1531.51,-1907.52 1552.51,-1900.87"/>
<polygon fill="#2563eb" stroke="#2563eb" points="1553.3,-1903.19 1559.21,-1898.71 1551.8,-1898.52 1553.3,-1903.19"/>
</g>
<!-- app.main&#45;&gt;app.data.repositories -->
<g id="edge17" class="edge">
<title>app.main&#45;&gt;app.data.repositories</title>
<path fill="none" stroke="#2563eb" d="M166.29,-1066.62C194.32,-1066.93 230.11,-1072.65 250,-1096.66 342.83,-1208.69 210.26,-2281.43 286,-2405.66 376.19,-2553.59 454.24,-2593.66 627.5,-2593.66 627.5,-2593.66 627.5,-2593.66 871.5,-2593.66 1148.21,-2593.66 1230.44,-2596.12 1485,-2487.66 1524.01,-2471.03 1562.3,-2440.08 1586.01,-2418.7"/>
<polygon fill="#2563eb" stroke="#2563eb" points="1587.91,-2420.28 1591.43,-2413.75 1584.6,-2416.66 1587.91,-2420.28"/>
</g>
<!-- app.main&#45;&gt;app.exchanges.base -->
<g id="edge18" class="edge">
<title>app.main&#45;&gt;app.exchanges.base</title>
<path fill="none" stroke="#2563eb" d="M166.2,-1072.62C194.2,-1072.27 229.97,-1066.54 250,-1042.66 315.31,-964.78 216.42,-202.74 286,-128.66 390.45,-17.44 474.93,-93.66 627.5,-93.66 627.5,-93.66 627.5,-93.66 1109,-93.66 1373.37,-93.66 1446.91,-78.64 1701,-151.66 1731.18,-160.33 1762.88,-176.43 1786.18,-189.77"/>
<polygon fill="#2563eb" stroke="#2563eb" points="1785.24,-192.05 1792.52,-193.45 1787.7,-187.82 1785.24,-192.05"/>
</g>
<!-- app.main&#45;&gt;app.exchanges.bybit_client -->
<g id="edge19" class="edge">
<title>app.main&#45;&gt;app.exchanges.bybit_client</title>
<path fill="none" stroke="#2563eb" d="M166.18,-1072.6C194.16,-1072.25 229.93,-1066.51 250,-1042.66 310.64,-970.58 218.98,-261.85 286,-195.66 421.56,-61.75 1022.24,-152.93 1264.6,-196.31"/>
<polygon fill="#2563eb" stroke="#2563eb" points="1264.34,-198.75 1271.66,-197.58 1265.21,-193.93 1264.34,-198.75"/>
</g>
<!-- app.main&#45;&gt;app.logger -->
<g id="edge20" class="edge">
<title>app.main&#45;&gt;app.logger</title>
<path fill="none" stroke="#2563eb" d="M166.14,-1069.98C192.33,-1072.08 225.99,-1078.55 250,-1096.66 276.99,-1117.01 258.69,-1143.74 286,-1163.66 638,-1420.4 816.91,-1294.11 1250,-1341.66 1359.09,-1353.63 1487.77,-1355.3 1557.93,-1355.16"/>
<polygon fill="#2563eb" stroke="#2563eb" points="1557.95,-1357.61 1564.95,-1355.14 1557.94,-1352.71 1557.95,-1357.61"/>
</g>
<!-- app.market.features -->
<g id="node16" class="node">
<title>app.market.features</title>
<path fill="#f8fafc" stroke="#94a3b8" d="M1678,-469.66C1678,-469.66 1544,-469.66 1544,-469.66 1538,-469.66 1532,-463.66 1532,-457.66 1532,-457.66 1532,-445.66 1532,-445.66 1532,-439.66 1538,-433.66 1544,-433.66 1544,-433.66 1678,-433.66 1678,-433.66 1684,-433.66 1690,-439.66 1690,-445.66 1690,-445.66 1690,-457.66 1690,-457.66 1690,-463.66 1684,-469.66 1678,-469.66"/>
<text text-anchor="middle" x="1611" y="-447.96" font-family="Inter" font-size="14.00">app.market.features</text>
</g>
<!-- app.main&#45;&gt;app.market.features -->
<g id="edge21" class="edge">
<title>app.main&#45;&gt;app.market.features</title>
<path fill="none" stroke="#2563eb" d="M166.27,-1072.42C194.1,-1071.94 229.65,-1066.13 250,-1042.66 322.96,-958.48 227.68,-637.57 286,-542.66 378.68,-391.83 450.48,-337.66 627.5,-337.66 627.5,-337.66 627.5,-337.66 871.5,-337.66 1115.73,-337.66 1400.12,-399.31 1533.53,-431.93"/>
<polygon fill="#2563eb" stroke="#2563eb" points="1533.17,-434.37 1540.55,-433.66 1534.34,-429.61 1533.17,-434.37"/>
</g>
<!-- app.market.oi_tracker -->
<g id="node19" class="node">
<title>app.market.oi_tracker</title>
<path fill="#f8fafc" stroke="#94a3b8" d="M1180,-244.66C1180,-244.66 1036,-244.66 1036,-244.66 1030,-244.66 1024,-238.66 1024,-232.66 1024,-232.66 1024,-220.66 1024,-220.66 1024,-214.66 1030,-208.66 1036,-208.66 1036,-208.66 1180,-208.66 1180,-208.66 1186,-208.66 1192,-214.66 1192,-220.66 1192,-220.66 1192,-232.66 1192,-232.66 1192,-238.66 1186,-244.66 1180,-244.66"/>
<text text-anchor="middle" x="1108" y="-222.96" font-family="Inter" font-size="14.00">app.market.oi_tracker</text>
</g>
<!-- app.main&#45;&gt;app.market.oi_tracker -->
<g id="edge22" class="edge">
<title>app.main&#45;&gt;app.market.oi_tracker</title>
<path fill="none" stroke="#2563eb" d="M166.16,-1072.58C194.13,-1072.21 229.89,-1066.48 250,-1042.66 306.25,-976.02 224.12,-320.1 286,-258.66 386.48,-158.87 824.94,-194.62 1016.69,-215.69"/>
<polygon fill="#2563eb" stroke="#2563eb" points="1016.45,-218.13 1023.68,-216.47 1016.99,-213.26 1016.45,-218.13"/>
</g>
<!-- app.market.symbol_selector -->
<g id="node21" class="node">
<title>app.market.symbol_selector</title>
<path fill="#f8fafc" stroke="#94a3b8" d="M1202,-1513.66C1202,-1513.66 1014,-1513.66 1014,-1513.66 1008,-1513.66 1002,-1507.66 1002,-1501.66 1002,-1501.66 1002,-1489.66 1002,-1489.66 1002,-1483.66 1008,-1477.66 1014,-1477.66 1014,-1477.66 1202,-1477.66 1202,-1477.66 1208,-1477.66 1214,-1483.66 1214,-1489.66 1214,-1489.66 1214,-1501.66 1214,-1501.66 1214,-1507.66 1208,-1513.66 1202,-1513.66"/>
<text text-anchor="middle" x="1108" y="-1491.96" font-family="Inter" font-size="14.00">app.market.symbol_selector</text>
</g>
<!-- app.main&#45;&gt;app.market.symbol_selector -->
<g id="edge23" class="edge">
<title>app.main&#45;&gt;app.market.symbol_selector</title>
<path fill="none" stroke="#2563eb" d="M166.26,-1076.09C190.82,-1080.59 222.65,-1087.44 250,-1096.66 418.57,-1153.47 916.16,-1400.17 1064.68,-1474.43"/>
<polygon fill="#2563eb" stroke="#2563eb" points="1063.72,-1476.68 1071.07,-1477.63 1065.91,-1472.3 1063.72,-1476.68"/>
</g>
<!-- app.paper.manager -->
<g id="node25" class="node">
<title>app.paper.manager</title>
<path fill="#f8fafc" stroke="#94a3b8" d="M935,-1041.66C935,-1041.66 806,-1041.66 806,-1041.66 800,-1041.66 794,-1035.66 794,-1029.66 794,-1029.66 794,-1017.66 794,-1017.66 794,-1011.66 800,-1005.66 806,-1005.66 806,-1005.66 935,-1005.66 935,-1005.66 941,-1005.66 947,-1011.66 947,-1017.66 947,-1017.66 947,-1029.66 947,-1029.66 947,-1035.66 941,-1041.66 935,-1041.66"/>
<text text-anchor="middle" x="870.5" y="-1019.96" font-family="Inter" font-size="14.00">app.paper.manager</text>
</g>
<!-- app.main&#45;&gt;app.paper.manager -->
<g id="edge24" class="edge">
<title>app.main&#45;&gt;app.paper.manager</title>
<path fill="none" stroke="#2563eb" d="M166.26,-1061.54C198.51,-1055.35 244.98,-1047.16 286,-1042.66 463.45,-1023.16 672.94,-1021.5 786.37,-1022.36"/>
<polygon fill="#2563eb" stroke="#2563eb" points="786.68,-1024.81 793.7,-1022.42 786.72,-1019.91 786.68,-1024.81"/>
</g>
<!-- app.signals.outcome_tracker -->
<g id="node29" class="node">
<title>app.signals.outcome_tracker</title>
<path fill="#f8fafc" stroke="#94a3b8" d="M1463.5,-1627.66C1463.5,-1627.66 1271.5,-1627.66 1271.5,-1627.66 1265.5,-1627.66 1259.5,-1621.66 1259.5,-1615.66 1259.5,-1615.66 1259.5,-1603.66 1259.5,-1603.66 1259.5,-1597.66 1265.5,-1591.66 1271.5,-1591.66 1271.5,-1591.66 1463.5,-1591.66 1463.5,-1591.66 1469.5,-1591.66 1475.5,-1597.66 1475.5,-1603.66 1475.5,-1603.66 1475.5,-1615.66 1475.5,-1615.66 1475.5,-1621.66 1469.5,-1627.66 1463.5,-1627.66"/>
<text text-anchor="middle" x="1367.5" y="-1605.96" font-family="Inter" font-size="14.00">app.signals.outcome_tracker</text>
</g>
<!-- app.main&#45;&gt;app.signals.outcome_tracker -->
<g id="edge25" class="edge">
<title>app.main&#45;&gt;app.signals.outcome_tracker</title>
<path fill="none" stroke="#2563eb" d="M166.09,-1067.06C193.83,-1067.61 229.35,-1073.45 250,-1096.66 304.47,-1157.88 229.12,-1404.66 286,-1463.66 302.74,-1481.02 977.73,-1563.28 1252.21,-1596.1"/>
<polygon fill="#2563eb" stroke="#2563eb" points="1252.17,-1598.56 1259.41,-1596.96 1252.75,-1593.69 1252.17,-1598.56"/>
</g>
<!-- app.signals.signal_engine -->
<g id="node32" class="node">
<title>app.signals.signal_engine</title>
<path fill="#f8fafc" stroke="#94a3b8" d="M470,-1087.66C470,-1087.66 298,-1087.66 298,-1087.66 292,-1087.66 286,-1081.66 286,-1075.66 286,-1075.66 286,-1063.66 286,-1063.66 286,-1057.66 292,-1051.66 298,-1051.66 298,-1051.66 470,-1051.66 470,-1051.66 476,-1051.66 482,-1057.66 482,-1063.66 482,-1063.66 482,-1075.66 482,-1075.66 482,-1081.66 476,-1087.66 470,-1087.66"/>
<text text-anchor="middle" x="384" y="-1065.96" font-family="Inter" font-size="14.00">app.signals.signal_engine</text>
</g>
<!-- app.main&#45;&gt;app.signals.signal_engine -->
<g id="edge26" class="edge">
<title>app.main&#45;&gt;app.signals.signal_engine</title>
<path fill="none" stroke="#2563eb" d="M166.16,-1069.66C196.26,-1069.66 238.9,-1069.66 278.41,-1069.66"/>
<polygon fill="#2563eb" stroke="#2563eb" points="278.75,-1072.11 285.75,-1069.66 278.75,-1067.21 278.75,-1072.11"/>
</g>
<!-- app.telegram.bot -->
<g id="node34" class="node">
<title>app.telegram.bot</title>
<path fill="#f8fafc" stroke="#94a3b8" d="M685,-1898.66C685,-1898.66 572,-1898.66 572,-1898.66 566,-1898.66 560,-1892.66 560,-1886.66 560,-1886.66 560,-1874.66 560,-1874.66 560,-1868.66 566,-1862.66 572,-1862.66 572,-1862.66 685,-1862.66 685,-1862.66 691,-1862.66 697,-1868.66 697,-1874.66 697,-1874.66 697,-1886.66 697,-1886.66 697,-1892.66 691,-1898.66 685,-1898.66"/>
<text text-anchor="middle" x="628.5" y="-1876.96" font-family="Inter" font-size="14.00">app.telegram.bot</text>
</g>
<!-- app.main&#45;&gt;app.telegram.bot -->
<g id="edge27" class="edge">
<title>app.main&#45;&gt;app.telegram.bot</title>
<path fill="none" stroke="#2563eb" d="M166.15,-1067C193.93,-1067.53 229.46,-1073.35 250,-1096.66 309.75,-1164.44 249.9,-1418.83 286,-1501.66 357.08,-1664.74 526.84,-1805.22 596.68,-1858.18"/>
<polygon fill="#2563eb" stroke="#2563eb" points="595.27,-1860.18 602.33,-1862.43 598.21,-1856.26 595.27,-1860.18"/>
</g>
<!-- app.main&#45;&gt;app.utils.math -->
<g id="edge28" class="edge">
<title>app.main&#45;&gt;app.utils.math</title>
<path fill="none" stroke="#2563eb" d="M166.11,-1072.54C194.06,-1072.16 229.81,-1066.41 250,-1042.66 349.27,-925.82 187.81,-471.41 286,-353.66 385.9,-233.85 471.51,-272.66 627.5,-272.66 627.5,-272.66 627.5,-272.66 871.5,-272.66 1204.57,-272.66 1603.24,-281.99 1756.82,-285.93"/>
<polygon fill="#2563eb" stroke="#2563eb" points="1756.88,-288.38 1763.94,-286.12 1757.01,-283.49 1756.88,-288.38"/>
</g>
<!-- app.utils.runtime -->
<g id="node42" class="node">
<title>app.utils.runtime</title>
<path fill="#f8fafc" stroke="#94a3b8" d="M1164,-2413.66C1164,-2413.66 1052,-2413.66 1052,-2413.66 1046,-2413.66 1040,-2407.66 1040,-2401.66 1040,-2401.66 1040,-2389.66 1040,-2389.66 1040,-2383.66 1046,-2377.66 1052,-2377.66 1052,-2377.66 1164,-2377.66 1164,-2377.66 1170,-2377.66 1176,-2383.66 1176,-2389.66 1176,-2389.66 1176,-2401.66 1176,-2401.66 1176,-2407.66 1170,-2413.66 1164,-2413.66"/>
<text text-anchor="middle" x="1108" y="-2391.96" font-family="Inter" font-size="14.00">app.utils.runtime</text>
</g>
<!-- app.main&#45;&gt;app.utils.runtime -->
<g id="edge29" class="edge">
<title>app.main&#45;&gt;app.utils.runtime</title>
<path fill="none" stroke="#2563eb" d="M166.23,-1066.67C194.23,-1067.01 230.01,-1072.73 250,-1096.66 321.79,-1182.57 220.12,-2013.13 286,-2103.66 464.28,-2348.63 866.08,-2389.02 1032.57,-2395"/>
<polygon fill="#2563eb" stroke="#2563eb" points="1032.76,-2397.45 1039.84,-2395.24 1032.92,-2392.56 1032.76,-2397.45"/>
</g>
<!-- app.main&#45;&gt;app.utils.time -->
<g id="edge30" class="edge">
<title>app.main&#45;&gt;app.utils.time</title>
<path fill="none" stroke="#2563eb" d="M166.22,-1072.64C194.22,-1072.3 230,-1066.57 250,-1042.66 319.77,-959.25 212.58,-144.87 286,-64.66 389.28,48.19 474.52,-21.66 627.5,-21.66 627.5,-21.66 627.5,-21.66 1612,-21.66 1745.07,-21.66 1818.33,31.66 1908,-66.66 1961.37,-125.17 1993.7,-1388.14 1998.4,-1584.19"/>
<polygon fill="#2563eb" stroke="#2563eb" points="1995.96,-1584.53 1998.58,-1591.47 2000.86,-1584.41 1995.96,-1584.53"/>
</g>
<!-- app.market.__init__ -->
<g id="node15" class="node">
<title>app.market.__init__</title>
<path fill="#f8fafc" stroke="#94a3b8" d="M187.5,-1303.66C187.5,-1303.66 62.5,-1303.66 62.5,-1303.66 56.5,-1303.66 50.5,-1297.66 50.5,-1291.66 50.5,-1291.66 50.5,-1279.66 50.5,-1279.66 50.5,-1273.66 56.5,-1267.66 62.5,-1267.66 62.5,-1267.66 187.5,-1267.66 187.5,-1267.66 193.5,-1267.66 199.5,-1273.66 199.5,-1279.66 199.5,-1279.66 199.5,-1291.66 199.5,-1291.66 199.5,-1297.66 193.5,-1303.66 187.5,-1303.66"/>
<text text-anchor="middle" x="125" y="-1281.96" font-family="Inter" font-size="14.00">app.market.__init__</text>
</g>
<!-- app.market.features&#45;&gt;app.exchanges.base -->
<g id="edge31" class="edge">
<title>app.market.features&#45;&gt;app.exchanges.base</title>
<path fill="none" stroke="#2563eb" d="M1620.22,-433.62C1637.52,-397.23 1680.76,-313.94 1737,-260.66 1748.21,-250.03 1762.15,-240.76 1775.44,-233.23"/>
<polygon fill="#2563eb" stroke="#2563eb" points="1776.95,-235.2 1781.91,-229.68 1774.59,-230.91 1776.95,-235.2"/>
</g>
<!-- app.market.orderbook -->
<g id="node20" class="node">
<title>app.market.orderbook</title>
<path fill="#f8fafc" stroke="#94a3b8" d="M1896,-670.66C1896,-670.66 1749,-670.66 1749,-670.66 1743,-670.66 1737,-664.66 1737,-658.66 1737,-658.66 1737,-646.66 1737,-646.66 1737,-640.66 1743,-634.66 1749,-634.66 1749,-634.66 1896,-634.66 1896,-634.66 1902,-634.66 1908,-640.66 1908,-646.66 1908,-646.66 1908,-658.66 1908,-658.66 1908,-664.66 1902,-670.66 1896,-670.66"/>
<text text-anchor="middle" x="1822.5" y="-648.96" font-family="Inter" font-size="14.00">app.market.orderbook</text>
</g>
<!-- app.market.features&#45;&gt;app.market.orderbook -->
<g id="edge32" class="edge">
<title>app.market.features&#45;&gt;app.market.orderbook</title>
<path fill="none" stroke="#2563eb" d="M1630.96,-469.85C1669.21,-506.55 1755.54,-589.38 1797.59,-629.72"/>
<polygon fill="#2563eb" stroke="#2563eb" points="1795.99,-631.57 1802.73,-634.65 1799.38,-628.04 1795.99,-631.57"/>
</g>
<!-- app.market.features&#45;&gt;app.utils.math -->
<g id="edge33" class="edge">
<title>app.market.features&#45;&gt;app.utils.math</title>
<path fill="none" stroke="#2563eb" d="M1635.22,-433.48C1673.78,-403.29 1750.93,-342.9 1792.82,-310.1"/>
<polygon fill="#2563eb" stroke="#2563eb" points="1794.49,-311.91 1798.49,-305.67 1791.47,-308.05 1794.49,-311.91"/>
</g>
<!-- app.market.features&#45;&gt;app.utils.time -->
<g id="edge34" class="edge">
<title>app.market.features&#45;&gt;app.utils.time</title>
<path fill="none" stroke="#2563eb" d="M1675.42,-469.76C1745.26,-493.32 1854.71,-541.75 1908,-625.66 1960.91,-708.98 1992.23,-1437.68 1998.02,-1584.1"/>
<polygon fill="#2563eb" stroke="#2563eb" points="1995.58,-1584.49 1998.31,-1591.39 2000.48,-1584.3 1995.58,-1584.49"/>
</g>
<!-- app.market.funding_tracker -->
<g id="node17" class="node">
<title>app.market.funding_tracker</title>
<path fill="#f8fafc" stroke="#94a3b8" d="M218,-1357.66C218,-1357.66 32,-1357.66 32,-1357.66 26,-1357.66 20,-1351.66 20,-1345.66 20,-1345.66 20,-1333.66 20,-1333.66 20,-1327.66 26,-1321.66 32,-1321.66 32,-1321.66 218,-1321.66 218,-1321.66 224,-1321.66 230,-1327.66 230,-1333.66 230,-1333.66 230,-1345.66 230,-1345.66 230,-1351.66 224,-1357.66 218,-1357.66"/>
<text text-anchor="middle" x="125" y="-1335.96" font-family="Inter" font-size="14.00">app.market.funding_tracker</text>
</g>
<!-- app.market.liquidation_tracker -->
<g id="node18" class="node">
<title>app.market.liquidation_tracker</title>
<path fill="#f8fafc" stroke="#94a3b8" d="M227.5,-1411.66C227.5,-1411.66 22.5,-1411.66 22.5,-1411.66 16.5,-1411.66 10.5,-1405.66 10.5,-1399.66 10.5,-1399.66 10.5,-1387.66 10.5,-1387.66 10.5,-1381.66 16.5,-1375.66 22.5,-1375.66 22.5,-1375.66 227.5,-1375.66 227.5,-1375.66 233.5,-1375.66 239.5,-1381.66 239.5,-1387.66 239.5,-1387.66 239.5,-1399.66 239.5,-1399.66 239.5,-1405.66 233.5,-1411.66 227.5,-1411.66"/>
<text text-anchor="middle" x="125" y="-1389.96" font-family="Inter" font-size="14.00">app.market.liquidation_tracker</text>
</g>
<!-- app.market.oi_tracker&#45;&gt;app.exchanges.bybit_client -->
<g id="edge35" class="edge">
<title>app.market.oi_tracker&#45;&gt;app.exchanges.bybit_client</title>
<path fill="none" stroke="#2563eb" d="M1192.25,-223.1C1212.93,-222.22 1235.41,-221.26 1257.14,-220.33"/>
<polygon fill="#2563eb" stroke="#2563eb" points="1257.28,-222.78 1264.17,-220.03 1257.07,-217.88 1257.28,-222.78"/>
</g>
<!-- app.market.oi_tracker&#45;&gt;app.logger -->
<g id="edge36" class="edge">
<title>app.market.oi_tracker&#45;&gt;app.logger</title>
<path fill="none" stroke="#2563eb" d="M1109.57,-244.68C1112.62,-314.34 1131.74,-570.06 1250,-730.66 1323.76,-830.82 1414.55,-780.14 1485,-882.66 1528.99,-946.67 1501.97,-978.36 1521,-1053.66 1547.14,-1157.1 1585.35,-1278.38 1601.88,-1329.7"/>
<polygon fill="#2563eb" stroke="#2563eb" points="1599.59,-1330.57 1604.07,-1336.47 1604.25,-1329.06 1599.59,-1330.57"/>
</g>
<!-- app.market.oi_tracker&#45;&gt;app.market.features -->
<g id="edge37" class="edge">
<title>app.market.oi_tracker&#45;&gt;app.market.features</title>
<path fill="none" stroke="#2563eb" d="M1176.57,-244.71C1253.72,-266.71 1382.5,-307.72 1485,-361.66 1521.15,-380.68 1558.66,-409.04 1583.04,-428.83"/>
<polygon fill="#2563eb" stroke="#2563eb" points="1581.68,-430.88 1588.65,-433.41 1584.78,-427.08 1581.68,-430.88"/>
</g>
<!-- app.market.oi_tracker&#45;&gt;app.utils.time -->
<g id="edge38" class="edge">
<title>app.market.oi_tracker&#45;&gt;app.utils.time</title>
<path fill="none" stroke="#2563eb" d="M1141.96,-208.44C1262.88,-144.3 1686.64,56.31 1908,-151.66 1962.46,-202.83 1993.78,-1395.97 1998.4,-1584.63"/>
<polygon fill="#2563eb" stroke="#2563eb" points="1995.95,-1584.71 1998.57,-1591.65 2000.85,-1584.6 1995.95,-1584.71"/>
</g>
<!-- app.market.symbol_selector&#45;&gt;app.config -->
<g id="edge39" class="edge">
<title>app.market.symbol_selector&#45;&gt;app.config</title>
<path fill="none" stroke="#2563eb" d="M1186.41,-1477.63C1196.09,-1473.79 1205.55,-1469.18 1214,-1463.66 1234.58,-1450.2 1233.08,-1439.49 1250,-1421.66 1349.3,-1316.97 1389.82,-1306.11 1485,-1197.66 1528.27,-1148.35 1571.94,-1084.72 1594.43,-1050.68"/>
<polygon fill="#2563eb" stroke="#2563eb" points="1596.58,-1051.87 1598.38,-1044.68 1592.49,-1049.18 1596.58,-1051.87"/>
</g>
<!-- app.market.symbol_selector&#45;&gt;app.data.database -->
<g id="edge40" class="edge">
<title>app.market.symbol_selector&#45;&gt;app.data.database</title>
<path fill="none" stroke="#2563eb" d="M1132.72,-1513.87C1156.09,-1532.86 1191.47,-1564.57 1214,-1598.66 1238.21,-1635.29 1220.47,-1658.16 1250,-1690.66 1328.73,-1777.31 1381.85,-1754.29 1485,-1809.66 1514.9,-1825.71 1548.3,-1844.74 1573.05,-1859.06"/>
<polygon fill="#2563eb" stroke="#2563eb" points="1571.87,-1861.2 1579.15,-1862.59 1574.32,-1856.96 1571.87,-1861.2"/>
</g>
<!-- app.market.symbol_selector&#45;&gt;app.data.repositories -->
<g id="edge41" class="edge">
<title>app.market.symbol_selector&#45;&gt;app.data.repositories</title>
<path fill="none" stroke="#2563eb" d="M1134.8,-1513.86C1159.06,-1532.39 1194.48,-1563.35 1214,-1598.66 1250.31,-1664.35 1220.33,-1694.71 1250,-1763.66 1323.34,-1934.07 1395.34,-1946.23 1485,-2108.66 1536.42,-2201.81 1582.3,-2320.35 1601.04,-2370.96"/>
<polygon fill="#2563eb" stroke="#2563eb" points="1598.78,-2371.92 1603.5,-2377.64 1603.38,-2370.22 1598.78,-2371.92"/>
</g>
<!-- app.market.symbol_selector&#45;&gt;app.exchanges.base -->
<g id="edge42" class="edge">
<title>app.market.symbol_selector&#45;&gt;app.exchanges.base</title>
<path fill="none" stroke="#2563eb" d="M1214.26,-1513.01C1353.42,-1529.1 1593.5,-1531.57 1701,-1381.66 1773.62,-1280.38 1673.07,-367.63 1737,-260.66 1743.75,-249.36 1754.18,-240.41 1765.43,-233.42"/>
<polygon fill="#2563eb" stroke="#2563eb" points="1766.94,-235.37 1771.75,-229.73 1764.47,-231.14 1766.94,-235.37"/>
</g>
<!-- app.market.symbol_selector&#45;&gt;app.exchanges.bybit_client -->
<g id="edge43" class="edge">
<title>app.market.symbol_selector&#45;&gt;app.exchanges.bybit_client</title>
<path fill="none" stroke="#2563eb" d="M1113.87,-1477.39C1130.65,-1413.79 1186.49,-1195.96 1214,-1012.66 1242.34,-823.88 1213.04,-771.94 1250,-584.66 1276.25,-451.66 1333.51,-299.05 1356.57,-240.39"/>
<polygon fill="#2563eb" stroke="#2563eb" points="1358.92,-241.12 1359.21,-233.71 1354.36,-239.32 1358.92,-241.12"/>
</g>
<!-- app.market.symbol_selector&#45;&gt;app.logger -->
<g id="edge44" class="edge">
<title>app.market.symbol_selector&#45;&gt;app.logger</title>
<path fill="none" stroke="#2563eb" d="M1214.11,-1477.93C1316.32,-1460.39 1459.78,-1434.87 1485,-1425.66 1518.5,-1413.42 1553.54,-1392.72 1577.97,-1376.82"/>
<polygon fill="#2563eb" stroke="#2563eb" points="1579.45,-1378.79 1583.95,-1372.89 1576.75,-1374.69 1579.45,-1378.79"/>
</g>
<!-- app.market.symbol_selector&#45;&gt;app.market.orderbook -->
<g id="edge45" class="edge">
<title>app.market.symbol_selector&#45;&gt;app.market.orderbook</title>
<path fill="none" stroke="#2563eb" d="M1153.95,-1513.76C1262.82,-1554.31 1543.24,-1638.6 1701,-1501.66 1765.2,-1445.92 1810.77,-813.66 1819.84,-678.14"/>
<polygon fill="#2563eb" stroke="#2563eb" points="1822.3,-678.14 1820.32,-670.99 1817.41,-677.81 1822.3,-678.14"/>
</g>
<!-- app.paper.__init__ -->
<g id="node22" class="node">
<title>app.paper.__init__</title>
<path fill="#f8fafc" stroke="#94a3b8" d="M183,-1465.66C183,-1465.66 67,-1465.66 67,-1465.66 61,-1465.66 55,-1459.66 55,-1453.66 55,-1453.66 55,-1441.66 55,-1441.66 55,-1435.66 61,-1429.66 67,-1429.66 67,-1429.66 183,-1429.66 183,-1429.66 189,-1429.66 195,-1435.66 195,-1441.66 195,-1441.66 195,-1453.66 195,-1453.66 195,-1459.66 189,-1465.66 183,-1465.66"/>
<text text-anchor="middle" x="125" y="-1443.96" font-family="Inter" font-size="14.00">app.paper.__init__</text>
</g>
<!-- app.paper.account -->
<g id="node23" class="node">
<title>app.paper.account</title>
<path fill="#f8fafc" stroke="#94a3b8" d="M1428.5,-927.66C1428.5,-927.66 1306.5,-927.66 1306.5,-927.66 1300.5,-927.66 1294.5,-921.66 1294.5,-915.66 1294.5,-915.66 1294.5,-903.66 1294.5,-903.66 1294.5,-897.66 1300.5,-891.66 1306.5,-891.66 1306.5,-891.66 1428.5,-891.66 1428.5,-891.66 1434.5,-891.66 1440.5,-897.66 1440.5,-903.66 1440.5,-903.66 1440.5,-915.66 1440.5,-915.66 1440.5,-921.66 1434.5,-927.66 1428.5,-927.66"/>
<text text-anchor="middle" x="1367.5" y="-905.96" font-family="Inter" font-size="14.00">app.paper.account</text>
</g>
<!-- app.paper.account&#45;&gt;app.config -->
<g id="edge46" class="edge">
<title>app.paper.account&#45;&gt;app.config</title>
<path fill="none" stroke="#2563eb" d="M1440.75,-921.57C1456.2,-926.22 1471.82,-932.69 1485,-941.66 1507.04,-956.66 1499.94,-973.29 1521,-989.66 1532.25,-998.4 1545.87,-1005.42 1559.03,-1010.9"/>
<polygon fill="#2563eb" stroke="#2563eb" points="1558.44,-1013.3 1565.85,-1013.62 1560.26,-1008.75 1558.44,-1013.3"/>
</g>
<!-- app.paper.account&#45;&gt;app.data.models -->
<g id="edge47" class="edge">
<title>app.paper.account&#45;&gt;app.data.models</title>
<path fill="none" stroke="#2563eb" d="M1440.63,-924.65C1533.2,-944.58 1683.97,-979.59 1701,-999.66 1779.2,-1091.81 1814.82,-2000.48 1820.64,-2164.39"/>
<polygon fill="#2563eb" stroke="#2563eb" points="1818.2,-2164.71 1820.89,-2171.62 1823.09,-2164.54 1818.2,-2164.71"/>
</g>
<!-- app.paper.account&#45;&gt;app.utils.time -->
<g id="edge48" class="edge">
<title>app.paper.account&#45;&gt;app.utils.time</title>
<path fill="none" stroke="#2563eb" d="M1440.59,-897.35C1513.27,-889.06 1625.25,-888.03 1701,-942.66 1928.06,-1106.4 1985.11,-1483.64 1996.52,-1584.48"/>
<polygon fill="#2563eb" stroke="#2563eb" points="1994.09,-1584.84 1997.29,-1591.53 1998.96,-1584.3 1994.09,-1584.84"/>
</g>
<!-- app.paper.executor -->
<g id="node24" class="node">
<title>app.paper.executor</title>
<path fill="#f8fafc" stroke="#94a3b8" d="M1171.5,-1003.66C1171.5,-1003.66 1044.5,-1003.66 1044.5,-1003.66 1038.5,-1003.66 1032.5,-997.66 1032.5,-991.66 1032.5,-991.66 1032.5,-979.66 1032.5,-979.66 1032.5,-973.66 1038.5,-967.66 1044.5,-967.66 1044.5,-967.66 1171.5,-967.66 1171.5,-967.66 1177.5,-967.66 1183.5,-973.66 1183.5,-979.66 1183.5,-979.66 1183.5,-991.66 1183.5,-991.66 1183.5,-997.66 1177.5,-1003.66 1171.5,-1003.66"/>
<text text-anchor="middle" x="1108" y="-981.96" font-family="Inter" font-size="14.00">app.paper.executor</text>
</g>
<!-- app.paper.executor&#45;&gt;app.config -->
<g id="edge49" class="edge">
<title>app.paper.executor&#45;&gt;app.config</title>
<path fill="none" stroke="#2563eb" d="M1183.54,-975.99C1259.91,-968.05 1381.74,-960.89 1485,-979.66 1499.94,-982.37 1532.32,-994.62 1560.38,-1005.93"/>
<polygon fill="#2563eb" stroke="#2563eb" points="1559.63,-1008.26 1567.04,-1008.62 1561.47,-1003.72 1559.63,-1008.26"/>
</g>
<!-- app.paper.executor&#45;&gt;app.data.models -->
<g id="edge50" class="edge">
<title>app.paper.executor&#45;&gt;app.data.models</title>
<path fill="none" stroke="#2563eb" d="M1177.62,-1003.66C1304.33,-1040.78 1573.66,-1138.66 1701,-1327.66 1796.83,-1469.88 1817.45,-2037.54 1820.9,-2164.42"/>
<polygon fill="#2563eb" stroke="#2563eb" points="1818.45,-2164.54 1821.09,-2171.47 1823.35,-2164.41 1818.45,-2164.54"/>
</g>
<!-- app.paper.executor&#45;&gt;app.logger -->
<g id="edge51" class="edge">
<title>app.paper.executor&#45;&gt;app.logger</title>
<path fill="none" stroke="#2563eb" d="M1133.5,-1003.7C1216.74,-1065.01 1488.53,-1265.19 1579.8,-1332.41"/>
<polygon fill="#2563eb" stroke="#2563eb" points="1578.45,-1334.47 1585.54,-1336.64 1581.36,-1330.52 1578.45,-1334.47"/>
</g>
<!-- app.paper.executor&#45;&gt;app.paper.account -->
<g id="edge52" class="edge">
<title>app.paper.executor&#45;&gt;app.paper.account</title>
<path fill="none" stroke="#2563eb" d="M1169.05,-967.65C1183.77,-963.15 1199.48,-958.29 1214,-953.66 1230.07,-948.53 1233.86,-946.56 1250,-941.66 1263.45,-937.57 1277.85,-933.43 1291.77,-929.54"/>
<polygon fill="#2563eb" stroke="#2563eb" points="1292.47,-931.89 1298.56,-927.66 1291.16,-927.17 1292.47,-931.89"/>
</g>
<!-- app.paper.risk -->
<g id="node26" class="node">
<title>app.paper.risk</title>
<path fill="#f8fafc" stroke="#94a3b8" d="M1413.5,-721.66C1413.5,-721.66 1321.5,-721.66 1321.5,-721.66 1315.5,-721.66 1309.5,-715.66 1309.5,-709.66 1309.5,-709.66 1309.5,-697.66 1309.5,-697.66 1309.5,-691.66 1315.5,-685.66 1321.5,-685.66 1321.5,-685.66 1413.5,-685.66 1413.5,-685.66 1419.5,-685.66 1425.5,-691.66 1425.5,-697.66 1425.5,-697.66 1425.5,-709.66 1425.5,-709.66 1425.5,-715.66 1419.5,-721.66 1413.5,-721.66"/>
<text text-anchor="middle" x="1367.5" y="-699.96" font-family="Inter" font-size="14.00">app.paper.risk</text>
</g>
<!-- app.paper.executor&#45;&gt;app.paper.risk -->
<g id="edge53" class="edge">
<title>app.paper.executor&#45;&gt;app.paper.risk</title>
<path fill="none" stroke="#2563eb" d="M1134.6,-967.35C1158.72,-948.74 1194.04,-917.72 1214,-882.66 1247.28,-824.2 1203.11,-783.88 1250,-735.66 1263.81,-721.46 1283.27,-713.38 1302.35,-708.84"/>
<polygon fill="#2563eb" stroke="#2563eb" points="1303.02,-711.2 1309.35,-707.32 1301.99,-706.41 1303.02,-711.2"/>
</g>
<!-- app.paper.executor&#45;&gt;app.utils.time -->
<g id="edge54" class="edge">
<title>app.paper.executor&#45;&gt;app.utils.time</title>
<path fill="none" stroke="#2563eb" d="M1126.01,-967.46C1150.57,-942.65 1198.7,-899.4 1250,-882.66 1530.66,-791.06 1726.61,-740.73 1908,-973.66 1984.13,-1071.42 1996.66,-1478.5 1998.64,-1584.39"/>
<polygon fill="#2563eb" stroke="#2563eb" points="1996.19,-1584.53 1998.77,-1591.49 2001.09,-1584.44 1996.19,-1584.53"/>
</g>
<!-- app.paper.manager&#45;&gt;app.config -->
<g id="edge55" class="edge">
<title>app.paper.manager&#45;&gt;app.config</title>
<path fill="none" stroke="#2563eb" d="M947.06,-1023.96C1097.51,-1024.58 1431.02,-1025.93 1558.81,-1026.45"/>
<polygon fill="#2563eb" stroke="#2563eb" points="1558.82,-1028.9 1565.83,-1026.48 1558.84,-1024 1558.82,-1028.9"/>
</g>
<!-- app.paper.manager&#45;&gt;app.data.database -->
<g id="edge56" class="edge">
<title>app.paper.manager&#45;&gt;app.data.database</title>
<path fill="none" stroke="#2563eb" d="M876.41,-1042C891.66,-1099.59 938.86,-1282.09 966,-1435.66 977.22,-1499.17 959.38,-1675.25 1002,-1723.66 1075.23,-1806.83 1377.76,-1819.74 1485,-1847.66 1501.15,-1851.86 1518.47,-1856.41 1534.92,-1860.75"/>
<polygon fill="#2563eb" stroke="#2563eb" points="1534.51,-1863.17 1541.9,-1862.59 1535.76,-1858.43 1534.51,-1863.17"/>
</g>
<!-- app.paper.manager&#45;&gt;app.data.models -->
<g id="edge57" class="edge">
<title>app.paper.manager&#45;&gt;app.data.models</title>
<path fill="none" stroke="#2563eb" d="M876.82,-1041.79C892.45,-1095.61 938.84,-1259.32 966,-1397.66 977.03,-1453.81 964.46,-1609.46 1002,-1652.66 1028.51,-1683.15 1671.52,-1826.02 1701,-1853.66 1793.31,-1940.21 1815.03,-2102.47 1820.03,-2164.58"/>
<polygon fill="#2563eb" stroke="#2563eb" points="1817.6,-2164.86 1820.57,-2171.65 1822.48,-2164.49 1817.6,-2164.86"/>
</g>
<!-- app.paper.manager&#45;&gt;app.logger -->
<g id="edge58" class="edge">
<title>app.paper.manager&#45;&gt;app.logger</title>
<path fill="none" stroke="#2563eb" d="M892.42,-1041.78C947.11,-1088.13 1100.48,-1211.74 1250,-1273.66 1348.49,-1314.44 1381.2,-1297.38 1485,-1321.66 1509.06,-1327.29 1535.55,-1334.18 1557.93,-1340.2"/>
<polygon fill="#2563eb" stroke="#2563eb" points="1557.34,-1342.58 1564.73,-1342.05 1558.61,-1337.85 1557.34,-1342.58"/>
</g>
<!-- app.paper.manager&#45;&gt;app.paper.account -->
<g id="edge59" class="edge">
<title>app.paper.manager&#45;&gt;app.paper.account</title>
<path fill="none" stroke="#2563eb" d="M936.63,-1005.61C946.78,-1001.67 956.91,-997.04 966,-991.66 984.68,-980.61 982.34,-967.86 1002,-958.66 1051.1,-935.67 1195.47,-921.62 1287.09,-914.76"/>
<polygon fill="#2563eb" stroke="#2563eb" points="1287.34,-917.2 1294.14,-914.24 1286.98,-912.31 1287.34,-917.2"/>
</g>
<!-- app.paper.manager&#45;&gt;app.paper.executor -->
<g id="edge60" class="edge">
<title>app.paper.manager&#45;&gt;app.paper.executor</title>
<path fill="none" stroke="#2563eb" d="M947.31,-1011.42C972.14,-1007.42 999.83,-1002.95 1025.08,-998.87"/>
<polygon fill="#2563eb" stroke="#2563eb" points="1025.62,-1001.27 1032.14,-997.74 1024.84,-996.43 1025.62,-1001.27"/>
</g>
<!-- app.paper.manager&#45;&gt;app.paper.risk -->
<g id="edge61" class="edge">
<title>app.paper.manager&#45;&gt;app.paper.risk</title>
<path fill="none" stroke="#2563eb" d="M947.21,-1006.36C954.22,-1002.42 960.68,-997.59 966,-991.66 1015.52,-936.41 952.97,-884.34 1002,-828.66 1068.15,-753.54 1121.53,-790.96 1214,-752.66 1230.35,-745.89 1233.41,-741.8 1250,-735.66 1266.76,-729.45 1285.26,-723.83 1302.5,-719.1"/>
<polygon fill="#2563eb" stroke="#2563eb" points="1303.17,-721.45 1309.29,-717.26 1301.89,-716.72 1303.17,-721.45"/>
</g>
<!-- app.paper.manager&#45;&gt;app.utils.time -->
<g id="edge62" class="edge">
<title>app.paper.manager&#45;&gt;app.utils.time</title>
<path fill="none" stroke="#2563eb" d="M878.8,-1005.53C895.96,-962.34 939.44,-849.74 966,-752.66 987.41,-674.38 949.4,-635.45 1002,-573.66 1133.07,-419.69 1781.84,-331.65 1908,-489.66 1978.55,-578.02 1995.95,-1424.88 1998.61,-1583.97"/>
<polygon fill="#2563eb" stroke="#2563eb" points="1996.16,-1584.47 1998.73,-1591.43 2001.06,-1584.39 1996.16,-1584.47"/>
</g>
<!-- app.paper.risk&#45;&gt;app.config -->
<g id="edge63" class="edge">
<title>app.paper.risk&#45;&gt;app.config</title>
<path fill="none" stroke="#2563eb" d="M1410.84,-721.72C1434.96,-733.67 1464.38,-751.27 1485,-773.66 1549.38,-843.55 1587.96,-952.77 1602.88,-1001.6"/>
<polygon fill="#2563eb" stroke="#2563eb" points="1600.55,-1002.35 1604.91,-1008.35 1605.24,-1000.94 1600.55,-1002.35"/>
</g>
<!-- app.paper.statistics -->
<g id="node27" class="node">
<title>app.paper.statistics</title>
<path fill="#f8fafc" stroke="#94a3b8" d="M1431.5,-2375.66C1431.5,-2375.66 1303.5,-2375.66 1303.5,-2375.66 1297.5,-2375.66 1291.5,-2369.66 1291.5,-2363.66 1291.5,-2363.66 1291.5,-2351.66 1291.5,-2351.66 1291.5,-2345.66 1297.5,-2339.66 1303.5,-2339.66 1303.5,-2339.66 1431.5,-2339.66 1431.5,-2339.66 1437.5,-2339.66 1443.5,-2345.66 1443.5,-2351.66 1443.5,-2351.66 1443.5,-2363.66 1443.5,-2363.66 1443.5,-2369.66 1437.5,-2375.66 1431.5,-2375.66"/>
<text text-anchor="middle" x="1367.5" y="-2353.96" font-family="Inter" font-size="14.00">app.paper.statistics</text>
</g>
<!-- app.paper.statistics&#45;&gt;app.data.models -->
<g id="edge64" class="edge">
<title>app.paper.statistics&#45;&gt;app.data.models</title>
<path fill="none" stroke="#2563eb" d="M1443.82,-2365.59C1514.2,-2369.61 1620.25,-2366.76 1701,-2325.66 1750.29,-2300.57 1788.58,-2246.06 1807.82,-2214.19"/>
<polygon fill="#2563eb" stroke="#2563eb" points="1809.95,-2215.41 1811.41,-2208.14 1805.74,-2212.91 1809.95,-2215.41"/>
</g>
<!-- app.paper.statistics&#45;&gt;app.data.repositories -->
<g id="edge65" class="edge">
<title>app.paper.statistics&#45;&gt;app.data.repositories</title>
<path fill="none" stroke="#2563eb" d="M1443.59,-2369.47C1468.27,-2373.36 1495.93,-2377.71 1521.51,-2381.73"/>
<polygon fill="#2563eb" stroke="#2563eb" points="1521.37,-2384.19 1528.67,-2382.86 1522.13,-2379.35 1521.37,-2384.19"/>
</g>
<!-- app.signals.__init__ -->
<g id="node28" class="node">
<title>app.signals.__init__</title>
<path fill="#f8fafc" stroke="#94a3b8" d="M187.5,-1519.66C187.5,-1519.66 62.5,-1519.66 62.5,-1519.66 56.5,-1519.66 50.5,-1513.66 50.5,-1507.66 50.5,-1507.66 50.5,-1495.66 50.5,-1495.66 50.5,-1489.66 56.5,-1483.66 62.5,-1483.66 62.5,-1483.66 187.5,-1483.66 187.5,-1483.66 193.5,-1483.66 199.5,-1489.66 199.5,-1495.66 199.5,-1495.66 199.5,-1507.66 199.5,-1507.66 199.5,-1513.66 193.5,-1519.66 187.5,-1519.66"/>
<text text-anchor="middle" x="125" y="-1497.96" font-family="Inter" font-size="14.00">app.signals.__init__</text>
</g>
<!-- app.signals.outcome_tracker&#45;&gt;app.config -->
<g id="edge66" class="edge">
<title>app.signals.outcome_tracker&#45;&gt;app.config</title>
<path fill="none" stroke="#2563eb" d="M1375.99,-1591.57C1411.1,-1506.83 1559.28,-1149.09 1599.75,-1051.4"/>
<polygon fill="#2563eb" stroke="#2563eb" points="1602.06,-1052.23 1602.48,-1044.82 1597.53,-1050.35 1602.06,-1052.23"/>
</g>
<!-- app.signals.outcome_tracker&#45;&gt;app.data.database -->
<g id="edge67" class="edge">
<title>app.signals.outcome_tracker&#45;&gt;app.data.database</title>
<path fill="none" stroke="#2563eb" d="M1471.05,-1627.69C1475.97,-1630.3 1480.66,-1633.27 1485,-1636.66 1558.32,-1693.86 1592.54,-1805.89 1604.63,-1855.72"/>
<polygon fill="#2563eb" stroke="#2563eb" points="1602.26,-1856.36 1606.25,-1862.61 1607.03,-1855.23 1602.26,-1856.36"/>
</g>
<!-- app.signals.outcome_tracker&#45;&gt;app.data.repositories -->
<g id="edge68" class="edge">
<title>app.signals.outcome_tracker&#45;&gt;app.data.repositories</title>
<path fill="none" stroke="#2563eb" d="M1475.36,-1627.98C1478.83,-1630.55 1482.07,-1633.43 1485,-1636.66 1525.85,-1681.62 1511.55,-1847.65 1521,-1907.66 1549.05,-2085.72 1590.73,-2298.84 1605,-2370.65"/>
<polygon fill="#2563eb" stroke="#2563eb" points="1602.6,-2371.16 1606.37,-2377.54 1607.41,-2370.2 1602.6,-2371.16"/>
</g>
<!-- app.signals.outcome_tracker&#45;&gt;app.logger -->
<g id="edge69" class="edge">
<title>app.signals.outcome_tracker&#45;&gt;app.logger</title>
<path fill="none" stroke="#2563eb" d="M1407.84,-1591.52C1431.9,-1579.16 1462.31,-1561.17 1485,-1539.66 1536.37,-1490.95 1578.06,-1417.58 1597.74,-1379.53"/>
<polygon fill="#2563eb" stroke="#2563eb" points="1600.15,-1380.2 1601.16,-1372.85 1595.79,-1377.97 1600.15,-1380.2"/>
</g>
<!-- app.signals.outcome_tracker&#45;&gt;app.market.features -->
<g id="edge70" class="edge">
<title>app.signals.outcome_tracker&#45;&gt;app.market.features</title>
<path fill="none" stroke="#2563eb" d="M1372.29,-1591.47C1400.12,-1458.06 1572.47,-631.6 1604.78,-476.67"/>
<polygon fill="#2563eb" stroke="#2563eb" points="1607.18,-477.16 1606.21,-469.81 1602.39,-476.16 1607.18,-477.16"/>
</g>
<!-- app.signals.outcome_tracker&#45;&gt;app.utils.time -->
<g id="edge71" class="edge">
<title>app.signals.outcome_tracker&#45;&gt;app.utils.time</title>
<path fill="none" stroke="#2563eb" d="M1475.81,-1609.66C1608.28,-1609.66 1829.17,-1609.66 1936.57,-1609.66"/>
<polygon fill="#2563eb" stroke="#2563eb" points="1936.79,-1612.11 1943.79,-1609.66 1936.79,-1607.21 1936.79,-1612.11"/>
</g>
<!-- app.signals.patterns -->
<g id="node30" class="node">
<title>app.signals.patterns</title>
<path fill="#f8fafc" stroke="#94a3b8" d="M1434.5,-629.66C1434.5,-629.66 1300.5,-629.66 1300.5,-629.66 1294.5,-629.66 1288.5,-623.66 1288.5,-617.66 1288.5,-617.66 1288.5,-605.66 1288.5,-605.66 1288.5,-599.66 1294.5,-593.66 1300.5,-593.66 1300.5,-593.66 1434.5,-593.66 1434.5,-593.66 1440.5,-593.66 1446.5,-599.66 1446.5,-605.66 1446.5,-605.66 1446.5,-617.66 1446.5,-617.66 1446.5,-623.66 1440.5,-629.66 1434.5,-629.66"/>
<text text-anchor="middle" x="1367.5" y="-607.96" font-family="Inter" font-size="14.00">app.signals.patterns</text>
</g>
<!-- app.signals.patterns&#45;&gt;app.config -->
<g id="edge72" class="edge">
<title>app.signals.patterns&#45;&gt;app.config</title>
<path fill="none" stroke="#2563eb" d="M1446.5,-621.64C1460.66,-626.44 1474.3,-633.45 1485,-643.66 1589.79,-743.59 1606.84,-932.36 1609.53,-1000.94"/>
<polygon fill="#2563eb" stroke="#2563eb" points="1607.1,-1001.41 1609.78,-1008.32 1611.99,-1001.24 1607.1,-1001.41"/>
</g>
<!-- app.signals.patterns&#45;&gt;app.market.features -->
<g id="edge73" class="edge">
<title>app.signals.patterns&#45;&gt;app.market.features</title>
<path fill="none" stroke="#2563eb" d="M1395.73,-593.61C1440.21,-564.15 1528.31,-505.78 1576.53,-473.83"/>
<polygon fill="#2563eb" stroke="#2563eb" points="1578.01,-475.79 1582.5,-469.88 1575.31,-471.7 1578.01,-475.79"/>
</g>
<!-- app.signals.scoring -->
<g id="node31" class="node">
<title>app.signals.scoring</title>
<path fill="#f8fafc" stroke="#94a3b8" d="M1172,-743.66C1172,-743.66 1044,-743.66 1044,-743.66 1038,-743.66 1032,-737.66 1032,-731.66 1032,-731.66 1032,-719.66 1032,-719.66 1032,-713.66 1038,-707.66 1044,-707.66 1044,-707.66 1172,-707.66 1172,-707.66 1178,-707.66 1184,-713.66 1184,-719.66 1184,-719.66 1184,-731.66 1184,-731.66 1184,-737.66 1178,-743.66 1172,-743.66"/>
<text text-anchor="middle" x="1108" y="-721.96" font-family="Inter" font-size="14.00">app.signals.scoring</text>
</g>
<!-- app.signals.scoring&#45;&gt;app.config -->
<g id="edge74" class="edge">
<title>app.signals.scoring&#45;&gt;app.config</title>
<path fill="none" stroke="#2563eb" d="M1155.44,-707.64C1188.99,-694.98 1231.54,-679.77 1250,-676.66 1352.99,-659.27 1399.63,-616.49 1485,-676.66 1593.93,-753.42 1608.46,-934.14 1610,-1001.11"/>
<polygon fill="#2563eb" stroke="#2563eb" points="1607.56,-1001.37 1610.13,-1008.33 1612.46,-1001.29 1607.56,-1001.37"/>
</g>
<!-- app.signals.scoring&#45;&gt;app.signals.patterns -->
<g id="edge75" class="edge">
<title>app.signals.scoring&#45;&gt;app.signals.patterns</title>
<path fill="none" stroke="#2563eb" d="M1184.14,-709.39C1194.71,-705.25 1205.01,-700.09 1214,-693.66 1236.27,-677.72 1227.52,-659.29 1250,-643.66 1259.57,-637 1270.48,-631.73 1281.7,-627.55"/>
<polygon fill="#2563eb" stroke="#2563eb" points="1282.54,-629.85 1288.33,-625.21 1280.91,-625.23 1282.54,-629.85"/>
</g>
<!-- app.signals.signal_engine&#45;&gt;app.config -->
<g id="edge76" class="edge">
<title>app.signals.signal_engine&#45;&gt;app.config</title>
<path fill="none" stroke="#2563eb" d="M482.44,-1069.66C580.28,-1069.66 735.34,-1069.66 869.5,-1069.66 869.5,-1069.66 869.5,-1069.66 1109,-1069.66 1273.89,-1069.66 1468.2,-1046.25 1558.75,-1033.97"/>
<polygon fill="#2563eb" stroke="#2563eb" points="1559.27,-1036.38 1565.88,-1033 1558.61,-1031.52 1559.27,-1036.38"/>
</g>
<!-- app.signals.signal_engine&#45;&gt;app.data.database -->
<g id="edge77" class="edge">
<title>app.signals.signal_engine&#45;&gt;app.data.database</title>
<path fill="none" stroke="#2563eb" d="M389.2,-1087.77C401.74,-1139 442.81,-1287.71 518,-1387.66 683.91,-1608.2 755.77,-1652.03 1002,-1776.66 1103.77,-1828.17 1137.84,-1821.94 1250,-1842.66 1345.6,-1860.31 1457.11,-1870.51 1530.4,-1875.81"/>
<polygon fill="#2563eb" stroke="#2563eb" points="1530.65,-1878.28 1537.81,-1876.34 1531,-1873.4 1530.65,-1878.28"/>
</g>
<!-- app.signals.signal_engine&#45;&gt;app.data.repositories -->
<g id="edge78" class="edge">
<title>app.signals.signal_engine&#45;&gt;app.data.repositories</title>
<path fill="none" stroke="#2563eb" d="M386.41,-1087.7C395.08,-1195.5 443.09,-1754.89 518,-1907.66 656.29,-2189.68 713.7,-2297.97 1002,-2422.66 1025.38,-2432.77 1454.96,-2419.5 1485,-2416.66 1496.9,-2415.53 1509.39,-2413.94 1521.66,-2412.12"/>
<polygon fill="#2563eb" stroke="#2563eb" points="1522.31,-2414.5 1528.86,-2411.03 1521.58,-2409.66 1522.31,-2414.5"/>
</g>
<!-- app.signals.signal_engine&#45;&gt;app.exchanges.base -->
<g id="edge79" class="edge">
<title>app.signals.signal_engine&#45;&gt;app.exchanges.base</title>
<path fill="none" stroke="#2563eb" d="M386.34,-1051.52C393.78,-955.51 432.72,-506.99 518,-402.66 822.25,-30.42 1505.66,-140.69 1740.47,-192.06"/>
<polygon fill="#2563eb" stroke="#2563eb" points="1740.26,-194.53 1747.62,-193.64 1741.31,-189.74 1740.26,-194.53"/>
</g>
<!-- app.signals.signal_engine&#45;&gt;app.logger -->
<g id="edge80" class="edge">
<title>app.signals.signal_engine&#45;&gt;app.logger</title>
<path fill="none" stroke="#2563eb" d="M438.45,-1087.73C573.06,-1132.55 937.58,-1249.68 1250,-1311.66 1358.34,-1333.15 1487.3,-1345.38 1557.71,-1350.95"/>
<polygon fill="#2563eb" stroke="#2563eb" points="1557.58,-1353.4 1564.75,-1351.5 1557.96,-1348.51 1557.58,-1353.4"/>
</g>
<!-- app.signals.signal_engine&#45;&gt;app.market.features -->
<g id="edge81" class="edge">
<title>app.signals.signal_engine&#45;&gt;app.market.features</title>
<path fill="none" stroke="#2563eb" d="M386.67,-1051.56C395.07,-965.01 435.46,-594.41 518,-520.66 762.07,-302.56 922.95,-452.82 1250,-439.66 1354.36,-435.46 1380.68,-434.66 1485,-439.66 1497.77,-440.27 1511.25,-441.23 1524.44,-442.35"/>
<polygon fill="#2563eb" stroke="#2563eb" points="1524.55,-444.82 1531.73,-442.98 1524.97,-439.93 1524.55,-444.82"/>
</g>
<!-- app.signals.signal_engine&#45;&gt;app.paper.manager -->
<g id="edge82" class="edge">
<title>app.signals.signal_engine&#45;&gt;app.paper.manager</title>
<path fill="none" stroke="#2563eb" d="M482.32,-1059.25C494.33,-1058.02 506.45,-1056.79 518,-1055.66 609.83,-1046.64 715.24,-1037.16 786.49,-1030.88"/>
<polygon fill="#2563eb" stroke="#2563eb" points="786.95,-1033.3 793.7,-1030.25 786.52,-1028.42 786.95,-1033.3"/>
</g>
<!-- app.signals.signal_engine&#45;&gt;app.signals.patterns -->
<g id="edge83" class="edge">
<title>app.signals.signal_engine&#45;&gt;app.signals.patterns</title>
<path fill="none" stroke="#2563eb" d="M387.44,-1051.41C398.28,-973.45 444.75,-669.76 518,-614.66 760.91,-431.91 1163.51,-541.82 1310.54,-591.33"/>
<polygon fill="#2563eb" stroke="#2563eb" points="1309.93,-593.71 1317.35,-593.64 1311.51,-589.07 1309.93,-593.71"/>
</g>
<!-- app.signals.signal_engine&#45;&gt;app.signals.scoring -->
<g id="edge84" class="edge">
<title>app.signals.signal_engine&#45;&gt;app.signals.scoring</title>
<path fill="none" stroke="#2563eb" d="M412.99,-1051.63C498.01,-997.63 762.18,-835.57 1002,-748.66 1009.25,-746.03 1016.9,-743.65 1024.63,-741.51"/>
<polygon fill="#2563eb" stroke="#2563eb" points="1025.61,-743.78 1031.74,-739.61 1024.35,-739.05 1025.61,-743.78"/>
</g>
<!-- app.signals.signal_engine&#45;&gt;app.telegram.bot -->
<g id="edge85" class="edge">
<title>app.signals.signal_engine&#45;&gt;app.telegram.bot</title>
<path fill="none" stroke="#2563eb" d="M390.4,-1087.73C422.06,-1193.6 583.28,-1732.79 620.04,-1855.69"/>
<polygon fill="#2563eb" stroke="#2563eb" points="617.73,-1856.53 622.08,-1862.54 622.42,-1855.13 617.73,-1856.53"/>
</g>
<!-- app.signals.signal_engine&#45;&gt;app.utils.time -->
<g id="edge86" class="edge">
<title>app.signals.signal_engine&#45;&gt;app.utils.time</title>
<path fill="none" stroke="#2563eb" d="M406.13,-1087.89C461.62,-1135.92 615.71,-1270.35 739,-1387.66 859.22,-1502.04 854.1,-1577.42 1002,-1652.66 1324.76,-1816.86 1785.1,-1684.26 1943.2,-1630.06"/>
<polygon fill="#2563eb" stroke="#2563eb" points="1944.23,-1632.3 1950.05,-1627.7 1942.63,-1627.67 1944.23,-1632.3"/>
</g>
<!-- app.telegram.__init__ -->
<g id="node33" class="node">
<title>app.telegram.__init__</title>
<path fill="#f8fafc" stroke="#94a3b8" d="M194.5,-1573.66C194.5,-1573.66 55.5,-1573.66 55.5,-1573.66 49.5,-1573.66 43.5,-1567.66 43.5,-1561.66 43.5,-1561.66 43.5,-1549.66 43.5,-1549.66 43.5,-1543.66 49.5,-1537.66 55.5,-1537.66 55.5,-1537.66 194.5,-1537.66 194.5,-1537.66 200.5,-1537.66 206.5,-1543.66 206.5,-1549.66 206.5,-1549.66 206.5,-1561.66 206.5,-1561.66 206.5,-1567.66 200.5,-1573.66 194.5,-1573.66"/>
<text text-anchor="middle" x="125" y="-1551.96" font-family="Inter" font-size="14.00">app.telegram.__init__</text>
</g>
<!-- app.telegram.bot&#45;&gt;app.config -->
<g id="edge87" class="edge">
<title>app.telegram.bot&#45;&gt;app.config</title>
<path fill="none" stroke="#2563eb" d="M633.89,-1862.39C647.48,-1808.56 693.02,-1647.53 775,-1539.66 926.14,-1340.76 1019.17,-1345.01 1214,-1188.66 1230.02,-1175.8 1231.23,-1168.02 1250,-1159.66 1346.64,-1116.59 1387.76,-1163.35 1485,-1121.66 1525.06,-1104.48 1563.84,-1071.7 1587.32,-1049.5"/>
<polygon fill="#2563eb" stroke="#2563eb" points="1589.01,-1051.27 1592.37,-1044.66 1585.62,-1047.73 1589.01,-1051.27"/>
</g>
<!-- app.telegram.bot&#45;&gt;app.data.database -->
<g id="edge88" class="edge">
<title>app.telegram.bot&#45;&gt;app.data.database</title>
<path fill="none" stroke="#2563eb" d="M697.28,-1880.66C873.07,-1880.66 1342.99,-1880.66 1530.82,-1880.66"/>
<polygon fill="#2563eb" stroke="#2563eb" points="1530.93,-1883.11 1537.93,-1880.66 1530.93,-1878.21 1530.93,-1883.11"/>
</g>
<!-- app.telegram.bot&#45;&gt;app.data.models -->
<g id="edge89" class="edge">
<title>app.telegram.bot&#45;&gt;app.data.models</title>
<path fill="none" stroke="#2563eb" d="M697.15,-1896.39C721.64,-1901.99 749.54,-1908.24 775,-1913.66 859.66,-1931.68 881.8,-1931.6 966,-1951.66 1044,-1970.24 1560.27,-2115.82 1750.92,-2169.69"/>
<polygon fill="#2563eb" stroke="#2563eb" points="1750.44,-2172.1 1757.84,-2171.65 1751.77,-2167.39 1750.44,-2172.1"/>
</g>
<!-- app.telegram.bot&#45;&gt;app.logger -->
<g id="edge90" class="edge">
<title>app.telegram.bot&#45;&gt;app.logger</title>
<path fill="none" stroke="#2563eb" d="M651.54,-1862.63C709,-1814.78 865.89,-1678.7 966,-1539.66 986.67,-1510.94 973.55,-1489.69 1002,-1468.66 1177.03,-1339.26 1272.38,-1434.23 1485,-1387.66 1501.22,-1384.1 1504.96,-1381.96 1521,-1377.66 1532.85,-1374.48 1545.62,-1371.13 1557.68,-1368.01"/>
<polygon fill="#2563eb" stroke="#2563eb" points="1558.52,-1370.32 1564.68,-1366.2 1557.29,-1365.58 1558.52,-1370.32"/>
</g>
<!-- app.telegram.bot&#45;&gt;app.market.features -->
<g id="edge91" class="edge">
<title>app.telegram.bot&#45;&gt;app.market.features</title>
<path fill="none" stroke="#2563eb" d="M629.53,-1862.59C630.03,-1729.46 638.69,-900.07 775,-698.66 942.14,-451.68 1347.5,-438.67 1524.7,-445.7"/>
<polygon fill="#2563eb" stroke="#2563eb" points="1524.84,-448.15 1531.94,-446 1525.05,-443.26 1524.84,-448.15"/>
</g>
<!-- app.telegram.commands -->
<g id="node36" class="node">
<title>app.telegram.commands</title>
<path fill="#f8fafc" stroke="#94a3b8" d="M954,-2161.66C954,-2161.66 787,-2161.66 787,-2161.66 781,-2161.66 775,-2155.66 775,-2149.66 775,-2149.66 775,-2137.66 775,-2137.66 775,-2131.66 781,-2125.66 787,-2125.66 787,-2125.66 954,-2125.66 954,-2125.66 960,-2125.66 966,-2131.66 966,-2137.66 966,-2137.66 966,-2149.66 966,-2149.66 966,-2155.66 960,-2161.66 954,-2161.66"/>
<text text-anchor="middle" x="870.5" y="-2139.96" font-family="Inter" font-size="14.00">app.telegram.commands</text>
</g>
<!-- app.telegram.bot&#45;&gt;app.telegram.commands -->
<g id="edge92" class="edge">
<title>app.telegram.bot&#45;&gt;app.telegram.commands</title>
<path fill="none" stroke="#2563eb" d="M641.77,-1898.77C665.46,-1933.14 720.04,-2009.38 775,-2065.66 794.8,-2085.93 819.58,-2106.23 838.8,-2121.03"/>
<polygon fill="#2563eb" stroke="#2563eb" points="837.53,-2123.14 844.58,-2125.44 840.5,-2119.25 837.53,-2123.14"/>
</g>
<!-- app.telegram.formatters -->
<g id="node37" class="node">
<title>app.telegram.formatters</title>
<path fill="#f8fafc" stroke="#94a3b8" d="M1449,-2207.66C1449,-2207.66 1286,-2207.66 1286,-2207.66 1280,-2207.66 1274,-2201.66 1274,-2195.66 1274,-2195.66 1274,-2183.66 1274,-2183.66 1274,-2177.66 1280,-2171.66 1286,-2171.66 1286,-2171.66 1449,-2171.66 1449,-2171.66 1455,-2171.66 1461,-2177.66 1461,-2183.66 1461,-2183.66 1461,-2195.66 1461,-2195.66 1461,-2201.66 1455,-2207.66 1449,-2207.66"/>
<text text-anchor="middle" x="1367.5" y="-2185.96" font-family="Inter" font-size="14.00">app.telegram.formatters</text>
</g>
<!-- app.telegram.bot&#45;&gt;app.telegram.formatters -->
<g id="edge93" class="edge">
<title>app.telegram.bot&#45;&gt;app.telegram.formatters</title>
<path fill="none" stroke="#2563eb" d="M660.59,-1898.7C689.4,-1914.71 733.88,-1937.68 775,-1951.66 857.03,-1979.54 900.11,-1934.4 966,-1990.66 1000.65,-2020.25 966.99,-2057.49 1002,-2086.66 1075.54,-2147.93 1129.76,-2079.19 1214,-2124.66 1234.47,-2135.71 1229.81,-2151.1 1250,-2162.66 1255.49,-2165.8 1261.33,-2168.58 1267.34,-2171.03"/>
<polygon fill="#2563eb" stroke="#2563eb" points="1266.53,-2173.35 1273.94,-2173.57 1268.29,-2168.77 1266.53,-2173.35"/>
</g>
<!-- app.telegram.keyboards -->
<g id="node38" class="node">
<title>app.telegram.keyboards</title>
<path fill="#f8fafc" stroke="#94a3b8" d="M1188.5,-2169.66C1188.5,-2169.66 1027.5,-2169.66 1027.5,-2169.66 1021.5,-2169.66 1015.5,-2163.66 1015.5,-2157.66 1015.5,-2157.66 1015.5,-2145.66 1015.5,-2145.66 1015.5,-2139.66 1021.5,-2133.66 1027.5,-2133.66 1027.5,-2133.66 1188.5,-2133.66 1188.5,-2133.66 1194.5,-2133.66 1200.5,-2139.66 1200.5,-2145.66 1200.5,-2145.66 1200.5,-2157.66 1200.5,-2157.66 1200.5,-2163.66 1194.5,-2169.66 1188.5,-2169.66"/>
<text text-anchor="middle" x="1108" y="-2147.96" font-family="Inter" font-size="14.00">app.telegram.keyboards</text>
</g>
<!-- app.telegram.bot&#45;&gt;app.telegram.keyboards -->
<g id="edge94" class="edge">
<title>app.telegram.bot&#45;&gt;app.telegram.keyboards</title>
<path fill="none" stroke="#2563eb" d="M651.96,-1898.86C707.75,-1943.19 858.47,-2057.62 1002,-2119.66 1011.83,-2123.91 1022.4,-2127.83 1032.92,-2131.37"/>
<polygon fill="#2563eb" stroke="#2563eb" points="1032.4,-2133.78 1039.81,-2133.64 1033.93,-2129.12 1032.4,-2133.78"/>
</g>
<!-- app.telegram.bot&#45;&gt;app.utils.time -->
<g id="edge95" class="edge">
<title>app.telegram.bot&#45;&gt;app.utils.time</title>
<path fill="none" stroke="#2563eb" d="M697.11,-1885.33C917.7,-1900.15 1607.67,-1943.14 1701,-1907.66 1841.22,-1854.35 1947.98,-1695.28 1984.94,-1634.05"/>
<polygon fill="#2563eb" stroke="#2563eb" points="1987.21,-1635.03 1988.7,-1627.76 1983.01,-1632.51 1987.21,-1635.03"/>
</g>
<!-- app.telegram.charts -->
<g id="node35" class="node">
<title>app.telegram.charts</title>
<path fill="#f8fafc" stroke="#94a3b8" d="M1434.5,-2153.66C1434.5,-2153.66 1300.5,-2153.66 1300.5,-2153.66 1294.5,-2153.66 1288.5,-2147.66 1288.5,-2141.66 1288.5,-2141.66 1288.5,-2129.66 1288.5,-2129.66 1288.5,-2123.66 1294.5,-2117.66 1300.5,-2117.66 1300.5,-2117.66 1434.5,-2117.66 1434.5,-2117.66 1440.5,-2117.66 1446.5,-2123.66 1446.5,-2129.66 1446.5,-2129.66 1446.5,-2141.66 1446.5,-2141.66 1446.5,-2147.66 1440.5,-2153.66 1434.5,-2153.66"/>
<text text-anchor="middle" x="1367.5" y="-2131.96" font-family="Inter" font-size="14.00">app.telegram.charts</text>
</g>
<!-- app.telegram.commands&#45;&gt;app.config -->
<g id="edge96" class="edge">
<title>app.telegram.commands&#45;&gt;app.config</title>
<path fill="none" stroke="#2563eb" d="M871.48,-2125.58C872.07,-2044.41 881.99,-1707.24 1002,-1468.66 1004.29,-1464.1 1245.51,-1200.08 1250,-1197.66 1343.1,-1147.4 1391.57,-1209.3 1485,-1159.66 1533.8,-1133.73 1574.11,-1081.42 1594.86,-1050.69"/>
<polygon fill="#2563eb" stroke="#2563eb" points="1596.91,-1052.03 1598.75,-1044.85 1592.83,-1049.32 1596.91,-1052.03"/>
</g>
<!-- app.telegram.commands&#45;&gt;app.data.models -->
<g id="edge97" class="edge">
<title>app.telegram.commands&#45;&gt;app.data.models</title>
<path fill="none" stroke="#2563eb" d="M906.91,-2161.67C932.68,-2174.07 968.74,-2190 1002,-2199.66 1151.38,-2243.04 1552.44,-2282.77 1701,-2236.66 1719.37,-2230.96 1719.5,-2220.62 1737,-2212.66 1740.81,-2210.92 1744.78,-2209.3 1748.83,-2207.77"/>
<polygon fill="#2563eb" stroke="#2563eb" points="1749.95,-2209.98 1755.71,-2205.31 1748.29,-2205.36 1749.95,-2209.98"/>
</g>
<!-- app.telegram.commands&#45;&gt;app.data.repositories -->
<g id="edge98" class="edge">
<title>app.telegram.commands&#45;&gt;app.data.repositories</title>
<path fill="none" stroke="#2563eb" d="M882.64,-2161.97C902.52,-2193 947.23,-2255.67 1002,-2287.66 1085.42,-2336.38 1133.19,-2282.72 1214,-2335.66 1236.61,-2350.46 1226.08,-2372.09 1250,-2384.66 1334.05,-2428.83 1445.06,-2424.47 1521.46,-2413.61"/>
<polygon fill="#2563eb" stroke="#2563eb" points="1522.18,-2415.98 1528.75,-2412.54 1521.47,-2411.13 1522.18,-2415.98"/>
</g>
<!-- app.telegram.commands&#45;&gt;app.market.features -->
<g id="edge99" class="edge">
<title>app.telegram.commands&#45;&gt;app.market.features</title>
<path fill="none" stroke="#2563eb" d="M873.08,-2125.49C887.54,-1959.14 996.57,-706.34 1002,-698.66 1066.1,-607.91 1385.41,-512.08 1533.87,-471.57"/>
<polygon fill="#2563eb" stroke="#2563eb" points="1534.7,-473.89 1540.81,-469.69 1533.41,-469.16 1534.7,-473.89"/>
</g>
<!-- app.telegram.commands&#45;&gt;app.paper.account -->
<g id="edge100" class="edge">
<title>app.telegram.commands&#45;&gt;app.paper.account</title>
<path fill="none" stroke="#2563eb" d="M872.06,-2125.63C875.17,-2043.12 894.37,-1694.45 1002,-1435.66 1091.81,-1219.7 1280.4,-1003.23 1344.58,-933.12"/>
<polygon fill="#2563eb" stroke="#2563eb" points="1346.4,-934.75 1349.33,-927.94 1342.79,-931.44 1346.4,-934.75"/>
</g>
<!-- app.telegram.commands&#45;&gt;app.paper.statistics -->
<g id="edge101" class="edge">
<title>app.telegram.commands&#45;&gt;app.paper.statistics</title>
<path fill="none" stroke="#2563eb" d="M888.23,-2161.66C911.44,-2185.52 955.8,-2227.2 1002,-2249.66 1088.89,-2291.89 1126.67,-2256.35 1214,-2297.66 1232.32,-2306.32 1231.88,-2316.58 1250,-2325.66 1260.74,-2331.04 1272.5,-2335.61 1284.29,-2339.47"/>
<polygon fill="#2563eb" stroke="#2563eb" points="1283.82,-2341.89 1291.23,-2341.66 1285.29,-2337.22 1283.82,-2341.89"/>
</g>
<!-- app.telegram.commands&#45;&gt;app.signals.patterns -->
<g id="edge102" class="edge">
<title>app.telegram.commands&#45;&gt;app.signals.patterns</title>
<path fill="none" stroke="#2563eb" d="M873.03,-2125.47C886.25,-1969.02 981,-855.56 1002,-828.66 1063.59,-749.75 1139.84,-819.88 1214,-752.66 1241.69,-727.56 1224.47,-703.95 1250,-676.66 1267.43,-658.03 1291.42,-643.4 1313.1,-632.78"/>
<polygon fill="#2563eb" stroke="#2563eb" points="1314.19,-634.97 1319.45,-629.75 1312.08,-630.55 1314.19,-634.97"/>
</g>
<!-- app.telegram.commands&#45;&gt;app.signals.scoring -->
<g id="edge103" class="edge">
<title>app.telegram.commands&#45;&gt;app.signals.scoring</title>
<path fill="none" stroke="#2563eb" d="M873.06,-2125.56C887.07,-1963.8 990.61,-771.62 1002,-757.66 1008.3,-749.93 1016.41,-744.03 1025.33,-739.53"/>
<polygon fill="#2563eb" stroke="#2563eb" points="1026.61,-741.64 1031.95,-736.49 1024.56,-737.18 1026.61,-741.64"/>
</g>
<!-- app.telegram.commands&#45;&gt;app.telegram.formatters -->
<g id="edge104" class="edge">
<title>app.telegram.commands&#45;&gt;app.telegram.formatters</title>
<path fill="none" stroke="#2563eb" d="M927.43,-2161.71C950.3,-2168.29 977.17,-2175 1002,-2178.66 1090.89,-2191.74 1193.25,-2193.7 1266.82,-2192.84"/>
<polygon fill="#2563eb" stroke="#2563eb" points="1266.88,-2195.29 1273.85,-2192.75 1266.82,-2190.39 1266.88,-2195.29"/>
</g>
<!-- app.telegram.commands&#45;&gt;app.telegram.keyboards -->
<g id="edge105" class="edge">
<title>app.telegram.commands&#45;&gt;app.telegram.keyboards</title>
<path fill="none" stroke="#2563eb" d="M966.27,-2146.88C980.09,-2147.35 994.35,-2147.83 1008.25,-2148.3"/>
<polygon fill="#2563eb" stroke="#2563eb" points="1008.4,-2150.76 1015.48,-2148.55 1008.57,-2145.86 1008.4,-2150.76"/>
</g>
<!-- app.telegram.commands&#45;&gt;app.utils.runtime -->
<g id="edge106" class="edge">
<title>app.telegram.commands&#45;&gt;app.utils.runtime</title>
<path fill="none" stroke="#2563eb" d="M886.27,-2162.06C906.09,-2187.32 941.61,-2234.61 966,-2278.66 985.87,-2314.55 971.51,-2336.21 1002,-2363.66 1010.94,-2371.7 1021.85,-2377.73 1033.22,-2382.24"/>
<polygon fill="#2563eb" stroke="#2563eb" points="1032.54,-2384.6 1039.96,-2384.72 1034.24,-2380 1032.54,-2384.6"/>
</g>
<!-- app.telegram.commands&#45;&gt;app.utils.time -->
<g id="edge107" class="edge">
<title>app.telegram.commands&#45;&gt;app.utils.time</title>
<path fill="none" stroke="#2563eb" d="M878.98,-2161.85C895.3,-2199.13 937.86,-2284.14 1002,-2325.66 1082.71,-2377.9 1148.18,-2298.58 1214,-2368.66 1293.87,-2453.68 1162.04,-2552.03 1250,-2628.66 1325.57,-2694.49 1607.94,-2665.86 1701,-2628.66 1818.93,-2581.51 1851.59,-2545.45 1908,-2431.66 1980.06,-2286.28 1995.81,-1756.87 1998.51,-1634.86"/>
<polygon fill="#2563eb" stroke="#2563eb" points="2000.97,-1634.79 1998.67,-1627.74 1996.07,-1634.68 2000.97,-1634.79"/>
</g>
<!-- app.telegram.formatters&#45;&gt;app.config -->
<g id="edge108" class="edge">
<title>app.telegram.formatters&#45;&gt;app.config</title>
<path fill="none" stroke="#2563eb" d="M1461.08,-2180.6C1470.22,-2176.3 1478.5,-2170.48 1485,-2162.66 1544.33,-2091.22 1505.72,-1419.26 1521,-1327.66 1538.51,-1222.67 1581.11,-1102.68 1600.32,-1051.68"/>
<polygon fill="#2563eb" stroke="#2563eb" points="1602.68,-1052.37 1602.87,-1044.95 1598.1,-1050.63 1602.68,-1052.37"/>
</g>
<!-- app.telegram.formatters&#45;&gt;app.data.models -->
<g id="edge109" class="edge">
<title>app.telegram.formatters&#45;&gt;app.data.models</title>
<path fill="none" stroke="#2563eb" d="M1461.26,-2189.66C1546.27,-2189.66 1670.44,-2189.66 1748.55,-2189.66"/>
<polygon fill="#2563eb" stroke="#2563eb" points="1748.96,-2192.11 1755.96,-2189.66 1748.96,-2187.21 1748.96,-2192.11"/>
</g>
<!-- app.telegram.formatters&#45;&gt;app.data.repositories -->
<g id="edge110" class="edge">
<title>app.telegram.formatters&#45;&gt;app.data.repositories</title>
<path fill="none" stroke="#2563eb" d="M1389.93,-2207.94C1434.06,-2245.58 1534.97,-2331.65 1583.27,-2372.86"/>
<polygon fill="#2563eb" stroke="#2563eb" points="1581.7,-2374.74 1588.62,-2377.42 1584.88,-2371.01 1581.7,-2374.74"/>
</g>
<!-- app.telegram.keyboards&#45;&gt;app.data.models -->
<g id="edge111" class="edge">
<title>app.telegram.keyboards&#45;&gt;app.data.models</title>
<path fill="none" stroke="#2563eb" d="M1138.2,-2169.69C1165.83,-2185.62 1209.06,-2207.67 1250,-2216.66 1425.87,-2255.24 1639.22,-2225.65 1748.79,-2205.08"/>
<polygon fill="#2563eb" stroke="#2563eb" points="1749.44,-2207.45 1755.86,-2203.74 1748.52,-2202.64 1749.44,-2207.45"/>
</g>
<!-- app.telegram.keyboards&#45;&gt;app.telegram.charts -->
<g id="edge112" class="edge">
<title>app.telegram.keyboards&#45;&gt;app.telegram.charts</title>
<path fill="none" stroke="#2563eb" d="M1200.51,-2145.97C1226.8,-2144.34 1255.37,-2142.56 1281.27,-2140.95"/>
<polygon fill="#2563eb" stroke="#2563eb" points="1281.66,-2143.38 1288.5,-2140.5 1281.36,-2138.49 1281.66,-2143.38"/>
</g>
<!-- app.telegram.keyboards&#45;&gt;app.telegram.formatters -->
<g id="edge113" class="edge">
<title>app.telegram.keyboards&#45;&gt;app.telegram.formatters</title>
<path fill="none" stroke="#2563eb" d="M1200.51,-2165.16C1222.03,-2168.34 1245.07,-2171.74 1266.93,-2174.96"/>
<polygon fill="#2563eb" stroke="#2563eb" points="1266.7,-2177.41 1273.98,-2176 1267.42,-2172.56 1266.7,-2177.41"/>
</g>
<!-- app.utils.__init__ -->
<g id="node39" class="node">
<title>app.utils.__init__</title>
<path fill="#f8fafc" stroke="#94a3b8" d="M178,-1627.66C178,-1627.66 72,-1627.66 72,-1627.66 66,-1627.66 60,-1621.66 60,-1615.66 60,-1615.66 60,-1603.66 60,-1603.66 60,-1597.66 66,-1591.66 72,-1591.66 72,-1591.66 178,-1591.66 178,-1591.66 184,-1591.66 190,-1597.66 190,-1603.66 190,-1603.66 190,-1615.66 190,-1615.66 190,-1621.66 184,-1627.66 178,-1627.66"/>
<text text-anchor="middle" x="125" y="-1605.96" font-family="Inter" font-size="14.00">app.utils.__init__</text>
</g>
<!-- app.utils.retry -->
<g id="node41" class="node">
<title>app.utils.retry</title>
<path fill="#f8fafc" stroke="#94a3b8" d="M170,-1681.66C170,-1681.66 80,-1681.66 80,-1681.66 74,-1681.66 68,-1675.66 68,-1669.66 68,-1669.66 68,-1657.66 68,-1657.66 68,-1651.66 74,-1645.66 80,-1645.66 80,-1645.66 170,-1645.66 170,-1645.66 176,-1645.66 182,-1651.66 182,-1657.66 182,-1657.66 182,-1669.66 182,-1669.66 182,-1675.66 176,-1681.66 170,-1681.66"/>
<text text-anchor="middle" x="125" y="-1659.96" font-family="Inter" font-size="14.00">app.utils.retry</text>
</g>
<!-- tests.test_chart_links -->
<g id="node44" class="node">
<title>tests.test_chart_links</title>
<path fill="#f8fafc" stroke="#94a3b8" d="M1177.5,-2077.66C1177.5,-2077.66 1038.5,-2077.66 1038.5,-2077.66 1032.5,-2077.66 1026.5,-2071.66 1026.5,-2065.66 1026.5,-2065.66 1026.5,-2053.66 1026.5,-2053.66 1026.5,-2047.66 1032.5,-2041.66 1038.5,-2041.66 1038.5,-2041.66 1177.5,-2041.66 1177.5,-2041.66 1183.5,-2041.66 1189.5,-2047.66 1189.5,-2053.66 1189.5,-2053.66 1189.5,-2065.66 1189.5,-2065.66 1189.5,-2071.66 1183.5,-2077.66 1177.5,-2077.66"/>
<text text-anchor="middle" x="1108" y="-2055.96" font-family="Inter" font-size="14.00">tests.test_chart_links</text>
</g>
<!-- tests.test_chart_links&#45;&gt;app.telegram.charts -->
<g id="edge114" class="edge">
<title>tests.test_chart_links&#45;&gt;app.telegram.charts</title>
<path fill="none" stroke="#2563eb" d="M1169.05,-2077.67C1183.77,-2082.16 1199.48,-2087.02 1214,-2091.66 1230.07,-2096.78 1233.86,-2098.75 1250,-2103.66 1263.45,-2107.74 1277.85,-2111.88 1291.77,-2115.77"/>
<polygon fill="#2563eb" stroke="#2563eb" points="1291.16,-2118.14 1298.56,-2117.66 1292.47,-2113.42 1291.16,-2118.14"/>
</g>
<!-- tests.test_multi_profile_paper -->
<g id="node45" class="node">
<title>tests.test_multi_profile_paper</title>
<path fill="#f8fafc" stroke="#94a3b8" d="M727,-659.66C727,-659.66 530,-659.66 530,-659.66 524,-659.66 518,-653.66 518,-647.66 518,-647.66 518,-635.66 518,-635.66 518,-629.66 524,-623.66 530,-623.66 530,-623.66 727,-623.66 727,-623.66 733,-623.66 739,-629.66 739,-635.66 739,-635.66 739,-647.66 739,-647.66 739,-653.66 733,-659.66 727,-659.66"/>
<text text-anchor="middle" x="628.5" y="-637.96" font-family="Inter" font-size="14.00">tests.test_multi_profile_paper</text>
</g>
<!-- tests.test_multi_profile_paper&#45;&gt;app.config -->
<g id="edge115" class="edge">
<title>tests.test_multi_profile_paper&#45;&gt;app.config</title>
<path fill="none" stroke="#2563eb" d="M708.83,-623.62C897.17,-582.76 1364.5,-493.51 1485,-584.66 1553.67,-636.6 1595.44,-915.45 1606.82,-1001.41"/>
<polygon fill="#2563eb" stroke="#2563eb" points="1604.4,-1001.8 1607.74,-1008.42 1609.26,-1001.16 1604.4,-1001.8"/>
</g>
<!-- tests.test_multi_profile_paper&#45;&gt;app.paper.manager -->
<g id="edge116" class="edge">
<title>tests.test_multi_profile_paper&#45;&gt;app.paper.manager</title>
<path fill="none" stroke="#2563eb" d="M640.91,-659.82C680.16,-722.29 809.58,-928.29 854.21,-999.32"/>
<polygon fill="#2563eb" stroke="#2563eb" points="852.22,-1000.75 858.02,-1005.38 856.37,-998.15 852.22,-1000.75"/>
</g>
<!-- tests.test_multi_profile_paper&#45;&gt;app.paper.risk -->
<g id="edge117" class="edge">
<title>tests.test_multi_profile_paper&#45;&gt;app.paper.risk</title>
<path fill="none" stroke="#2563eb" d="M739.04,-650.87C895.08,-664 1176.39,-687.66 1302.41,-698.27"/>
<polygon fill="#2563eb" stroke="#2563eb" points="1302.21,-700.71 1309.39,-698.85 1302.62,-695.82 1302.21,-700.71"/>
</g>
<!-- tests.test_outcomes -->
<g id="node46" class="node">
<title>tests.test_outcomes</title>
<path fill="#f8fafc" stroke="#94a3b8" d="M1173.5,-1643.66C1173.5,-1643.66 1042.5,-1643.66 1042.5,-1643.66 1036.5,-1643.66 1030.5,-1637.66 1030.5,-1631.66 1030.5,-1631.66 1030.5,-1619.66 1030.5,-1619.66 1030.5,-1613.66 1036.5,-1607.66 1042.5,-1607.66 1042.5,-1607.66 1173.5,-1607.66 1173.5,-1607.66 1179.5,-1607.66 1185.5,-1613.66 1185.5,-1619.66 1185.5,-1619.66 1185.5,-1631.66 1185.5,-1631.66 1185.5,-1637.66 1179.5,-1643.66 1173.5,-1643.66"/>
<text text-anchor="middle" x="1108" y="-1621.96" font-family="Inter" font-size="14.00">tests.test_outcomes</text>
</g>
<!-- tests.test_outcomes&#45;&gt;app.signals.outcome_tracker -->
<g id="edge118" class="edge">
<title>tests.test_outcomes&#45;&gt;app.signals.outcome_tracker</title>
<path fill="none" stroke="#2563eb" d="M1185.56,-1620.9C1206.43,-1619.6 1229.5,-1618.17 1251.98,-1616.77"/>
<polygon fill="#2563eb" stroke="#2563eb" points="1252.43,-1619.2 1259.26,-1616.32 1252.12,-1614.31 1252.43,-1619.2"/>
</g>
<!-- tests.test_paper_risk -->
<g id="node47" class="node">
<title>tests.test_paper_risk</title>
<path fill="#f8fafc" stroke="#94a3b8" d="M1176.5,-873.66C1176.5,-873.66 1039.5,-873.66 1039.5,-873.66 1033.5,-873.66 1027.5,-867.66 1027.5,-861.66 1027.5,-861.66 1027.5,-849.66 1027.5,-849.66 1027.5,-843.66 1033.5,-837.66 1039.5,-837.66 1039.5,-837.66 1176.5,-837.66 1176.5,-837.66 1182.5,-837.66 1188.5,-843.66 1188.5,-849.66 1188.5,-849.66 1188.5,-861.66 1188.5,-861.66 1188.5,-867.66 1182.5,-873.66 1176.5,-873.66"/>
<text text-anchor="middle" x="1108" y="-851.96" font-family="Inter" font-size="14.00">tests.test_paper_risk</text>
</g>
<!-- tests.test_paper_risk&#45;&gt;app.config -->
<g id="edge119" class="edge">
<title>tests.test_paper_risk&#45;&gt;app.config</title>
<path fill="none" stroke="#2563eb" d="M1170.99,-837.63C1249.05,-818.59 1385,-797.86 1485,-849.66 1547.36,-881.96 1585.25,-961.29 1601.19,-1001.87"/>
<polygon fill="#2563eb" stroke="#2563eb" points="1598.94,-1002.85 1603.74,-1008.51 1603.52,-1001.09 1598.94,-1002.85"/>
</g>
<!-- tests.test_paper_risk&#45;&gt;app.paper.risk -->
<g id="edge120" class="edge">
<title>tests.test_paper_risk&#45;&gt;app.paper.risk</title>
<path fill="none" stroke="#2563eb" d="M1188.55,-839.92C1197.83,-835.72 1206.61,-830.4 1214,-823.66 1245.23,-795.19 1218.38,-763.69 1250,-735.66 1264.54,-722.77 1283.81,-715.02 1302.48,-710.37"/>
<polygon fill="#2563eb" stroke="#2563eb" points="1303.05,-712.76 1309.32,-708.8 1301.95,-707.98 1303.05,-712.76"/>
</g>
<!-- tests.test_persistence_recovery -->
<g id="node48" class="node">
<title>tests.test_persistence_recovery</title>
<path fill="#f8fafc" stroke="#94a3b8" d="M1473,-2619.66C1473,-2619.66 1262,-2619.66 1262,-2619.66 1256,-2619.66 1250,-2613.66 1250,-2607.66 1250,-2607.66 1250,-2595.66 1250,-2595.66 1250,-2589.66 1256,-2583.66 1262,-2583.66 1262,-2583.66 1473,-2583.66 1473,-2583.66 1479,-2583.66 1485,-2589.66 1485,-2595.66 1485,-2595.66 1485,-2607.66 1485,-2607.66 1485,-2613.66 1479,-2619.66 1473,-2619.66"/>
<text text-anchor="middle" x="1367.5" y="-2597.96" font-family="Inter" font-size="14.00">tests.test_persistence_recovery</text>
</g>
<!-- tools.verify_persistence -->
<g id="node54" class="node">
<title>tools.verify_persistence</title>
<path fill="#f8fafc" stroke="#94a3b8" d="M1689,-2619.66C1689,-2619.66 1533,-2619.66 1533,-2619.66 1527,-2619.66 1521,-2613.66 1521,-2607.66 1521,-2607.66 1521,-2595.66 1521,-2595.66 1521,-2589.66 1527,-2583.66 1533,-2583.66 1533,-2583.66 1689,-2583.66 1689,-2583.66 1695,-2583.66 1701,-2589.66 1701,-2595.66 1701,-2595.66 1701,-2607.66 1701,-2607.66 1701,-2613.66 1695,-2619.66 1689,-2619.66"/>
<text text-anchor="middle" x="1611" y="-2597.96" font-family="Inter" font-size="14.00">tools.verify_persistence</text>
</g>
<!-- tests.test_persistence_recovery&#45;&gt;tools.verify_persistence -->
<g id="edge121" class="edge">
<title>tests.test_persistence_recovery&#45;&gt;tools.verify_persistence</title>
<path fill="none" stroke="#2563eb" d="M1485.01,-2601.66C1494.62,-2601.66 1504.26,-2601.66 1513.7,-2601.66"/>
<polygon fill="#2563eb" stroke="#2563eb" points="1513.88,-2604.11 1520.88,-2601.66 1513.88,-2599.21 1513.88,-2604.11"/>
</g>
<!-- tests.test_scoring -->
<g id="node49" class="node">
<title>tests.test_scoring</title>
<path fill="#f8fafc" stroke="#94a3b8" d="M928,-743.66C928,-743.66 813,-743.66 813,-743.66 807,-743.66 801,-737.66 801,-731.66 801,-731.66 801,-719.66 801,-719.66 801,-713.66 807,-707.66 813,-707.66 813,-707.66 928,-707.66 928,-707.66 934,-707.66 940,-713.66 940,-719.66 940,-719.66 940,-731.66 940,-731.66 940,-737.66 934,-743.66 928,-743.66"/>
<text text-anchor="middle" x="870.5" y="-721.96" font-family="Inter" font-size="14.00">tests.test_scoring</text>
</g>
<!-- tests.test_scoring&#45;&gt;app.config -->
<g id="edge122" class="edge">
<title>tests.test_scoring&#45;&gt;app.config</title>
<path fill="none" stroke="#2563eb" d="M879.8,-743.68C896.9,-778.35 939.75,-853.45 1002,-882.66 1196.34,-973.83 1289.69,-793.57 1485,-882.66 1538.93,-907.26 1578.57,-967.9 1597.53,-1002.12"/>
<polygon fill="#2563eb" stroke="#2563eb" points="1595.55,-1003.61 1601.04,-1008.6 1599.86,-1001.27 1595.55,-1003.61"/>
</g>
<!-- tests.test_scoring&#45;&gt;app.signals.patterns -->
<g id="edge123" class="edge">
<title>tests.test_scoring&#45;&gt;app.signals.patterns</title>
<path fill="none" stroke="#2563eb" d="M940.07,-709.87C1029.24,-689.33 1184.97,-653.46 1281.54,-631.22"/>
<polygon fill="#2563eb" stroke="#2563eb" points="1282.11,-633.61 1288.39,-629.65 1281.01,-628.83 1282.11,-633.61"/>
</g>
<!-- tests.test_scoring&#45;&gt;app.signals.scoring -->
<g id="edge124" class="edge">
<title>tests.test_scoring&#45;&gt;app.signals.scoring</title>
<path fill="none" stroke="#2563eb" d="M940.25,-725.66C966.67,-725.66 997.1,-725.66 1024.67,-725.66"/>
<polygon fill="#2563eb" stroke="#2563eb" points="1024.99,-728.11 1031.99,-725.66 1024.99,-723.21 1024.99,-728.11"/>
</g>
<!-- tests.test_telegram_auth -->
<g id="node50" class="node">
<title>tests.test_telegram_auth</title>
<path fill="#f8fafc" stroke="#94a3b8" d="M466,-1997.66C466,-1997.66 302,-1997.66 302,-1997.66 296,-1997.66 290,-1991.66 290,-1985.66 290,-1985.66 290,-1973.66 290,-1973.66 290,-1967.66 296,-1961.66 302,-1961.66 302,-1961.66 466,-1961.66 466,-1961.66 472,-1961.66 478,-1967.66 478,-1973.66 478,-1973.66 478,-1985.66 478,-1985.66 478,-1991.66 472,-1997.66 466,-1997.66"/>
<text text-anchor="middle" x="384" y="-1975.96" font-family="Inter" font-size="14.00">tests.test_telegram_auth</text>
</g>
<!-- tests.test_telegram_auth&#45;&gt;app.config -->
<g id="edge125" class="edge">
<title>tests.test_telegram_auth&#45;&gt;app.config</title>
<path fill="none" stroke="#2563eb" d="M393.05,-1961.51C428.79,-1882.31 579.97,-1561.67 775,-1352.66 1006.98,-1104.05 1157.42,-1158.81 1485,-1067.66 1509.53,-1060.83 1536.39,-1052.18 1558.91,-1044.58"/>
<polygon fill="#2563eb" stroke="#2563eb" points="1559.91,-1046.83 1565.75,-1042.26 1558.34,-1042.19 1559.91,-1046.83"/>
</g>
<!-- tests.test_telegram_auth&#45;&gt;app.data.database -->
<g id="edge126" class="edge">
<title>tests.test_telegram_auth&#45;&gt;app.data.database</title>
<path fill="none" stroke="#2563eb" d="M478.17,-1973.54C667.85,-1960.86 1112.44,-1929.9 1485,-1894.66 1499.89,-1893.25 1515.77,-1891.59 1531.03,-1889.92"/>
<polygon fill="#2563eb" stroke="#2563eb" points="1531.31,-1892.35 1538,-1889.15 1530.77,-1887.48 1531.31,-1892.35"/>
</g>
<!-- tests.test_telegram_auth&#45;&gt;app.telegram.bot -->
<g id="edge127" class="edge">
<title>tests.test_telegram_auth&#45;&gt;app.telegram.bot</title>
<path fill="none" stroke="#2563eb" d="M429.2,-1961.61C470.78,-1944.64 533,-1919.24 576.63,-1901.42"/>
<polygon fill="#2563eb" stroke="#2563eb" points="577.64,-1903.66 583.2,-1898.74 575.79,-1899.12 577.64,-1903.66"/>
</g>
<!-- tests.test_telegram_auth&#45;&gt;app.telegram.commands -->
<g id="edge128" class="edge">
<title>tests.test_telegram_auth&#45;&gt;app.telegram.commands</title>
<path fill="none" stroke="#2563eb" d="M434.15,-1997.76C459.19,-2006.89 490.16,-2018.04 518,-2027.66 618.62,-2062.41 736.2,-2100.76 806.66,-2123.5"/>
<polygon fill="#2563eb" stroke="#2563eb" points="805.92,-2125.83 813.33,-2125.65 807.42,-2121.17 805.92,-2125.83"/>
</g>
<!-- tools.__init__ -->
<g id="node51" class="node">
<title>tools.__init__</title>
<path fill="#f8fafc" stroke="#94a3b8" d="M164.5,-1735.66C164.5,-1735.66 85.5,-1735.66 85.5,-1735.66 79.5,-1735.66 73.5,-1729.66 73.5,-1723.66 73.5,-1723.66 73.5,-1711.66 73.5,-1711.66 73.5,-1705.66 79.5,-1699.66 85.5,-1699.66 85.5,-1699.66 164.5,-1699.66 164.5,-1699.66 170.5,-1699.66 176.5,-1705.66 176.5,-1711.66 176.5,-1711.66 176.5,-1723.66 176.5,-1723.66 176.5,-1729.66 170.5,-1735.66 164.5,-1735.66"/>
<text text-anchor="middle" x="125" y="-1713.96" font-family="Inter" font-size="14.00">tools.__init__</text>
</g>
<!-- tools.architecture_review -->
<g id="node52" class="node">
<title>tools.architecture_review</title>
<path fill="#f8fafc" stroke="#94a3b8" d="M207,-1789.66C207,-1789.66 43,-1789.66 43,-1789.66 37,-1789.66 31,-1783.66 31,-1777.66 31,-1777.66 31,-1765.66 31,-1765.66 31,-1759.66 37,-1753.66 43,-1753.66 43,-1753.66 207,-1753.66 207,-1753.66 213,-1753.66 219,-1759.66 219,-1765.66 219,-1765.66 219,-1777.66 219,-1777.66 219,-1783.66 213,-1789.66 207,-1789.66"/>
<text text-anchor="middle" x="125" y="-1767.96" font-family="Inter" font-size="14.00">tools.architecture_review</text>
</g>
<!-- tools.backup_database -->
<g id="node53" class="node">
<title>tools.backup_database</title>
<path fill="#f8fafc" stroke="#94a3b8" d="M1443,-1681.66C1443,-1681.66 1292,-1681.66 1292,-1681.66 1286,-1681.66 1280,-1675.66 1280,-1669.66 1280,-1669.66 1280,-1657.66 1280,-1657.66 1280,-1651.66 1286,-1645.66 1292,-1645.66 1292,-1645.66 1443,-1645.66 1443,-1645.66 1449,-1645.66 1455,-1651.66 1455,-1657.66 1455,-1657.66 1455,-1669.66 1455,-1669.66 1455,-1675.66 1449,-1681.66 1443,-1681.66"/>
<text text-anchor="middle" x="1367.5" y="-1659.96" font-family="Inter" font-size="14.00">tools.backup_database</text>
</g>
<!-- tools.backup_database&#45;&gt;app.config -->
<g id="edge129" class="edge">
<title>tools.backup_database&#45;&gt;app.config</title>
<path fill="none" stroke="#2563eb" d="M1455.08,-1656.41C1466.43,-1652.04 1476.9,-1645.71 1485,-1636.66 1531.08,-1585.12 1507.15,-1395.39 1521,-1327.66 1542.38,-1223.13 1583.11,-1102.42 1601.09,-1051.43"/>
<polygon fill="#2563eb" stroke="#2563eb" points="1603.45,-1052.12 1603.48,-1044.7 1598.83,-1050.48 1603.45,-1052.12"/>
</g>
<!-- tools.backup_database&#45;&gt;app.data.database -->
<g id="edge130" class="edge">
<title>tools.backup_database&#45;&gt;app.data.database</title>
<path fill="none" stroke="#2563eb" d="M1388.67,-1681.78C1432.45,-1721.12 1536.07,-1814.23 1584.38,-1857.64"/>
<polygon fill="#2563eb" stroke="#2563eb" points="1582.87,-1859.57 1589.71,-1862.43 1586.14,-1855.93 1582.87,-1859.57"/>
</g>
<!-- tools.verify_persistence&#45;&gt;app.data.models -->
<g id="edge131" class="edge">
<title>tools.verify_persistence&#45;&gt;app.data.models</title>
<path fill="none" stroke="#2563eb" d="M1682.4,-2583.61C1689.26,-2579.81 1695.65,-2575.22 1701,-2569.66 1707.46,-2562.94 1788.41,-2298.33 1813.88,-2214.71"/>
<polygon fill="#2563eb" stroke="#2563eb" points="1816.27,-2215.28 1815.96,-2207.87 1811.58,-2213.85 1816.27,-2215.28"/>
</g>
<!-- tools.verify_persistence&#45;&gt;app.utils.time -->
<g id="edge132" class="edge">
<title>tools.verify_persistence&#45;&gt;app.utils.time</title>
<path fill="none" stroke="#2563eb" d="M1676.51,-2583.54C1685.16,-2579.68 1693.58,-2575.09 1701,-2569.66 1823.51,-2479.82 1850.1,-2438.11 1908,-2297.66 1959.18,-2173.51 1990.22,-1743.96 1997.4,-1634.96"/>
<polygon fill="#2563eb" stroke="#2563eb" points="1999.86,-1634.82 1997.87,-1627.68 1994.97,-1634.5 1999.86,-1634.82"/>
</g>
</g>
</svg>
